<svg width="996" height="579" viewBox="0 0 996 579" fill="none" xmlns="http://www.w3.org/2000/svg">
<path d="M883.967 570.653H111.738C100.229 570.653 90.6885 561.225 90.6885 549.638V21.0153C90.6885 9.52561 100.131 0 111.738 0H883.967C895.475 0 905.016 9.42741 905.016 21.0153V549.638C904.918 561.225 895.475 570.653 883.967 570.653Z" fill="url(#paint0_linear)"/>
<path d="M883.87 570.458H111.739C100.23 570.458 90.7878 561.03 90.7878 549.541V21.0165C90.7878 9.52686 100.23 0.0994568 111.739 0.0994568H883.87C895.378 0.0994568 904.821 9.52686 904.821 21.0165V549.541C904.821 561.128 895.378 570.458 883.87 570.458Z" fill="url(#paint1_linear)"/>
<path d="M883.869 570.359H111.837C100.328 570.359 90.9841 561.03 90.9841 549.54V21.1144C90.9841 9.62477 100.328 0.295563 111.837 0.295563H883.869C895.378 0.295563 904.722 9.62477 904.722 21.1144V549.54C904.722 561.03 895.279 570.359 883.869 570.359Z" fill="url(#paint2_linear)"/>
<path d="M883.771 570.262H111.837C100.427 570.262 91.0825 560.932 91.0825 549.541V21.2133C91.0825 9.82182 100.427 0.492615 111.837 0.492615H883.771C895.181 0.492615 904.525 9.82182 904.525 21.2133V549.541C904.525 560.932 895.181 570.262 883.771 570.262Z" fill="url(#paint3_linear)"/>
<path d="M883.672 570.162H111.934C100.524 570.162 91.2786 560.833 91.2786 549.539V21.2117C91.2786 9.82021 100.623 0.589203 111.934 0.589203H883.77C895.18 0.589203 904.426 9.91841 904.426 21.2117V549.441C904.426 560.833 895.082 570.162 883.672 570.162Z" fill="url(#paint4_linear)"/>
<path d="M883.672 569.965H111.934C100.623 569.965 91.2786 560.734 91.2786 549.343V21.2117C91.2786 9.91841 100.524 0.589203 111.934 0.589203H883.672C894.984 0.589203 904.328 9.82021 904.328 21.2117V549.343C904.328 560.734 894.984 569.965 883.672 569.965Z" fill="url(#paint5_linear)"/>
<path d="M883.574 569.867H112.033C100.721 569.867 91.4753 560.636 91.4753 549.343V21.3099C91.4753 10.0166 100.721 0.785614 112.033 0.785614H883.672C894.983 0.785614 904.229 10.0166 904.229 21.3099V549.343C904.131 560.636 894.885 569.867 883.574 569.867Z" fill="url(#paint6_linear)"/>
<path d="M883.574 569.769H112.033C100.82 569.769 91.5737 560.538 91.5737 549.343V21.3099C91.5737 10.1148 100.82 0.88382 112.033 0.88382H883.574C894.787 0.88382 904.033 10.1148 904.033 21.3099V549.245C904.033 560.538 894.787 569.769 883.574 569.769Z" fill="url(#paint7_linear)"/>
<path d="M883.475 569.671H112.033C100.82 569.671 91.6721 560.538 91.6721 549.343V21.4081C91.6721 10.213 100.82 1.08023 112.033 1.08023H883.475C894.688 1.08023 903.836 10.213 903.836 21.4081V549.245C903.934 560.44 894.688 569.671 883.475 569.671Z" fill="url(#paint8_linear)"/>
<path d="M883.476 569.474H112.131C100.918 569.474 91.7705 560.342 91.7705 549.147V21.4081C91.7705 10.213 100.918 1.08023 112.131 1.08023H883.476C894.689 1.08023 903.836 10.213 903.836 21.4081V549.147C903.738 560.342 894.59 569.474 883.476 569.474Z" fill="url(#paint9_linear)"/>
<path d="M883.377 569.376H112.131C101.016 569.376 91.8689 560.244 91.8689 549.147V21.5063C91.8689 10.4094 101.016 1.27664 112.131 1.27664H883.377C894.492 1.27664 903.64 10.4094 903.64 21.5063V549.147C903.64 560.244 894.492 569.376 883.377 569.376Z" fill="url(#paint10_linear)"/>
<path d="M883.279 569.278H112.131C101.016 569.278 91.967 560.243 91.967 549.147V21.5063C91.967 10.4094 101.016 1.37482 112.131 1.37482H883.279C894.393 1.37482 903.442 10.4094 903.442 21.5063V549.048C903.541 560.243 894.393 569.278 883.279 569.278Z" fill="url(#paint11_linear)"/>
<path d="M883.279 569.18H112.229C101.213 569.18 92.1638 560.145 92.1638 549.147V21.6045C92.1638 10.6058 101.213 1.57123 112.229 1.57123H883.279C894.295 1.57123 903.344 10.6058 903.344 21.6045V549.048C903.344 560.145 894.295 569.18 883.279 569.18Z" fill="url(#paint12_linear)"/>
<path d="M883.18 568.983H112.328C101.311 568.983 92.2622 559.949 92.2622 548.95V21.6045C92.2622 10.6058 101.311 1.57123 112.328 1.57123H883.279C894.295 1.57123 903.344 10.6058 903.344 21.6045V548.95C903.246 560.047 894.197 568.983 883.18 568.983Z" fill="url(#paint13_linear)"/>
<path d="M883.18 568.885H112.328C101.311 568.885 92.3606 559.949 92.3606 548.95V21.6045C92.3606 10.6058 101.311 1.66943 112.328 1.66943H883.18C894.197 1.66943 903.148 10.6058 903.148 21.6045V548.95C903.148 559.949 894.098 568.885 883.18 568.885Z" fill="url(#paint14_linear)"/>
<path d="M883.082 568.787H112.426C101.508 568.787 92.5574 559.851 92.5574 548.95V21.7027C92.5574 10.8022 101.508 1.86584 112.426 1.86584H883.18C894.098 1.86584 903.049 10.8022 903.049 21.7027V548.95C902.951 559.851 894 568.787 883.082 568.787Z" fill="url(#paint15_linear)"/>
<path d="M883.082 568.591H112.426C101.508 568.591 92.6558 559.654 92.6558 548.852V21.8009C92.6558 10.9004 101.607 2.06223 112.426 2.06223H883.082C894 2.06223 902.853 10.9986 902.853 21.8009V548.852C902.853 559.752 893.902 568.591 883.082 568.591Z" fill="url(#paint16_linear)"/>
<path d="M882.984 568.492H112.525C101.705 568.492 92.8525 559.654 92.8525 548.852V21.8009C92.8525 10.9987 101.705 2.16046 112.525 2.16046H883.082C893.902 2.16046 902.754 10.9987 902.754 21.8009V548.852C902.754 559.654 893.803 568.492 882.984 568.492Z" fill="url(#paint17_linear)"/>
<path d="M882.984 568.394H112.525C101.705 568.394 92.8525 559.556 92.8525 548.754V21.8991C92.8525 11.0968 101.705 2.25864 112.525 2.25864H882.984C893.803 2.25864 902.656 11.0968 902.656 21.8991V548.852C902.557 559.556 893.705 568.394 882.984 568.394Z" fill="url(#paint18_linear)"/>
<path d="M882.885 568.296H112.524C101.803 568.296 92.9507 559.556 92.9507 548.754V21.8991C92.9507 11.1951 101.705 2.35687 112.524 2.35687H882.885C893.606 2.35687 902.459 11.0969 902.459 21.8991V548.754C902.459 559.458 893.606 568.296 882.885 568.296Z" fill="url(#paint19_linear)"/>
<path d="M882.787 568.1H112.623C101.902 568.1 93.1475 559.36 93.1475 548.656V21.9973C93.1475 11.2932 101.902 2.55325 112.623 2.55325H882.885C893.607 2.55325 902.361 11.2932 902.361 21.9973V548.754C902.262 559.36 893.508 568.1 882.787 568.1Z" fill="url(#paint20_linear)"/>
<path d="M882.787 568.001H112.623C101.902 568.001 93.2458 559.261 93.2458 548.655V21.9973C93.2458 11.2932 102 2.65146 112.623 2.65146H882.787C893.508 2.65146 902.164 11.3914 902.164 21.9973V548.655C902.164 559.261 893.41 568.001 882.787 568.001Z" fill="url(#paint21_linear)"/>
<path d="M882.787 568.001H112.623C101.902 568.001 93.2458 559.261 93.2458 548.655V21.9973C93.2458 11.2932 102 2.65146 112.623 2.65146H882.787C893.508 2.65146 902.164 11.3914 902.164 21.9973V548.655C902.164 559.261 893.41 568.001 882.787 568.001Z" fill="black"/>
<path opacity="0.5" d="M92.9507 539.621C92.9507 552.387 103.967 566.332 119.705 566.332C134.852 566.332 498 566.332 498 566.332V565.055C498 565.055 120.295 565.055 118.328 565.055C107.311 565.055 94.3277 556.315 94.3277 539.621C94.3277 534.122 94.3277 290.875 94.3277 290.875H92.9507C92.9507 290.973 92.9507 536.577 92.9507 539.621Z" fill="url(#paint22_linear)"/>
<path opacity="0.5" d="M901.869 539.621C901.869 552.387 890.853 566.332 875.115 566.332C859.967 566.332 497.41 566.332 497.41 566.332V565.055C497.41 565.055 874.623 565.055 876.492 565.055C887.508 565.055 900.492 556.315 900.492 539.621C900.492 534.122 900.492 285.179 900.492 285.179H901.869C901.869 285.277 901.869 536.577 901.869 539.621Z" fill="url(#paint23_linear)"/>
<path opacity="0.5" d="M93.2458 29.5588C93.2458 16.7926 104.262 2.84784 120 2.84784C135.147 2.84784 497.803 2.84784 497.803 2.84784V4.12447C497.803 4.12447 120.492 4.12447 118.623 4.12447C107.606 4.12447 94.6229 12.8645 94.6229 29.5588C94.6229 35.0582 94.6229 285.376 94.6229 285.376H93.2458C93.2458 285.277 93.2458 32.7013 93.2458 29.5588Z" fill="url(#paint24_linear)"/>
<path opacity="0.5" d="M902.164 29.5588C902.164 16.7926 891.147 2.84784 875.41 2.84784C860.262 2.84784 497.803 2.84784 497.803 2.84784V4.12447C497.803 4.12447 874.918 4.12447 876.787 4.12447C887.803 4.12447 900.787 12.8645 900.787 29.5588C900.787 35.0582 900.787 285.376 900.787 285.376H902.164C902.164 285.277 902.164 32.7013 902.164 29.5588Z" fill="url(#paint25_linear)"/>
<g opacity="0.62">
<path opacity="0.5" d="M882.787 568.001H112.623C101.902 568.001 93.2458 559.261 93.2458 548.655V21.9973C93.2458 11.2932 102 2.65146 112.623 2.65146H882.787C893.508 2.65146 902.164 11.3914 902.164 21.9973V548.655C902.164 559.261 893.41 568.001 882.787 568.001Z" fill="black"/>
<path opacity="0.5238" d="M882.79 567.903H112.724C102.101 567.903 93.3472 559.163 93.3472 548.557V21.9973C93.3472 11.3915 102.101 2.65146 112.724 2.65146H882.79C893.413 2.65146 902.167 11.3915 902.167 21.9973V548.557C902.068 559.261 893.413 567.903 882.79 567.903Z" fill="black"/>
<path opacity="0.5476" d="M882.69 567.904H112.722C102.099 567.904 93.4436 559.262 93.4436 548.657V22.0965C93.4436 11.4907 102.099 2.84888 112.722 2.84888H882.69C893.312 2.84888 901.968 11.4907 901.968 22.0965V548.657C901.968 559.164 893.312 567.904 882.69 567.904Z" fill="black"/>
<path opacity="0.5714" d="M882.69 567.806H112.722C102.099 567.806 93.4436 559.164 93.4436 548.558V22.0965C93.542 11.4907 102.198 2.84888 112.722 2.84888H882.69C893.312 2.84888 901.968 11.4907 901.968 22.0965V548.558C901.87 559.164 893.214 567.806 882.69 567.806Z" fill="black"/>
<path opacity="0.5952" d="M882.689 567.708H112.82C102.296 567.708 93.6399 559.066 93.6399 548.558V22.0964C93.6399 11.5888 102.296 2.94702 112.82 2.94702H882.689C893.214 2.94702 901.869 11.5888 901.869 22.0964V548.558C901.869 559.066 893.214 567.708 882.689 567.708Z" fill="black"/>
<path opacity="0.619" d="M882.591 567.61H112.82C102.296 567.61 93.7385 558.968 93.7385 548.559V22.0968C93.7385 11.5892 102.394 3.04556 112.82 3.04556H882.591C893.116 3.04556 901.673 11.6874 901.673 22.0968V548.559C901.771 559.066 893.116 567.61 882.591 567.61Z" fill="black"/>
<path opacity="0.6429" d="M882.591 567.512H112.82C102.296 567.512 93.7385 558.968 93.7385 548.46V22.0968C93.7385 11.5892 102.296 3.04556 112.82 3.04556H882.591C893.116 3.04556 901.673 11.5892 901.673 22.0968V548.46C901.673 558.968 893.116 567.512 882.591 567.512Z" fill="black"/>
<path opacity="0.6667" d="M882.59 567.51H112.918C102.492 567.51 93.9343 558.967 93.9343 548.557V22.1937C93.9343 11.7843 102.492 3.24066 112.918 3.24066H882.59C893.016 3.24066 901.574 11.7843 901.574 22.1937V548.557C901.574 558.967 893.016 567.51 882.59 567.51Z" fill="black"/>
<path opacity="0.6905" d="M882.492 567.412H112.918C102.492 567.412 93.9343 558.869 93.9343 548.459V22.1937C93.9343 11.7843 102.492 3.24066 112.918 3.24066H882.492C892.918 3.24066 901.475 11.7843 901.475 22.1937V548.459C901.475 558.869 892.918 567.412 882.492 567.412Z" fill="black"/>
<path opacity="0.7143" d="M882.492 567.314H112.918C102.492 567.314 94.0327 558.869 94.0327 548.459V22.1937C94.0327 11.7843 102.492 3.3389 112.918 3.3389H882.492C892.918 3.3389 901.377 11.7843 901.377 22.1937V548.459C901.377 558.869 892.918 567.314 882.492 567.314Z" fill="black"/>
<path opacity="0.7381" d="M882.492 567.216H113.016C102.688 567.216 94.1311 558.77 94.1311 548.361V22.1937C94.1311 11.8825 102.59 3.3389 113.016 3.3389H882.492C892.82 3.3389 901.377 11.7843 901.377 22.1937V548.361C901.279 558.77 892.82 567.216 882.492 567.216Z" fill="black"/>
<path opacity="0.7619" d="M882.393 567.216H113.016C102.689 567.216 94.2295 558.77 94.2295 548.459V22.2919C94.2295 11.9807 102.689 3.53528 113.016 3.53528H882.393C892.721 3.53528 901.18 11.9807 901.18 22.2919V548.459C901.18 558.77 892.721 567.216 882.393 567.216Z" fill="black"/>
<path opacity="0.7857" d="M882.393 567.118H113.016C102.689 567.118 94.3279 558.672 94.3279 548.459V22.2919C94.3279 11.9807 102.787 3.63348 113.016 3.63348H882.393C892.721 3.63348 901.082 12.0789 901.082 22.2919V548.459C901.082 558.672 892.721 567.118 882.393 567.118Z" fill="black"/>
<path opacity="0.8095" d="M882.393 567.019H113.115C102.885 567.019 94.4263 558.672 94.4263 548.361V22.2919C94.4263 12.0789 102.787 3.63348 113.115 3.63348H882.393C892.623 3.63348 901.082 11.9807 901.082 22.2919V548.361C900.984 558.574 892.623 567.019 882.393 567.019Z" fill="black"/>
<path opacity="0.8333" d="M882.295 566.921H113.115C102.885 566.921 94.5244 558.574 94.5244 548.361V22.2919C94.5244 12.0789 102.885 3.73169 113.115 3.73169H882.295C892.524 3.73169 900.885 12.0789 900.885 22.2919V548.361C900.983 558.574 892.524 566.921 882.295 566.921Z" fill="black"/>
<path opacity="0.8571" d="M882.295 566.823H113.115C102.885 566.823 94.5244 558.476 94.5244 548.263V22.2919C94.5244 12.1771 102.885 3.82986 113.115 3.82986H882.295C892.524 3.82986 900.885 12.177 900.885 22.3901V548.361C900.885 558.476 892.524 566.823 882.295 566.823Z" fill="black"/>
<path opacity="0.881" d="M882.295 566.823H113.213C102.983 566.823 94.7212 558.476 94.7212 548.361V22.3901C94.7212 12.1771 103.082 3.9281 113.213 3.9281H882.295C892.525 3.9281 900.787 12.2753 900.787 22.3901V548.361C900.787 558.476 892.426 566.823 882.295 566.823Z" fill="black"/>
<path opacity="0.9048" d="M882.197 566.725H113.213C103.082 566.725 94.7212 558.476 94.7212 548.263V22.3901C94.7212 12.2753 102.983 3.9281 113.213 3.9281H882.197C892.328 3.9281 900.688 12.1771 900.688 22.3901V548.263C900.688 558.378 892.328 566.725 882.197 566.725Z" fill="black"/>
<path opacity="0.9286" d="M882.197 566.627H113.213C103.082 566.627 94.8196 558.378 94.8196 548.263V22.3901C94.8196 12.2753 103.082 4.02628 113.213 4.02628H882.197C892.328 4.02628 900.59 12.2753 900.59 22.3901V548.263C900.59 558.378 892.328 566.627 882.197 566.627Z" fill="black"/>
<path opacity="0.9524" d="M882.197 566.528H113.311C103.18 566.528 95.0164 558.279 95.0164 548.263V22.3901C95.0164 12.2753 103.279 4.12448 113.311 4.12448H882.197C892.328 4.12448 900.492 12.3735 900.492 22.3901V548.263C900.492 558.279 892.23 566.528 882.197 566.528Z" fill="black"/>
<path opacity="0.9762" d="M882.098 566.43H113.311C103.279 566.43 95.0164 558.181 95.0164 548.165V22.3901C95.0164 12.3735 103.279 4.12448 113.311 4.12448H882.098C892.131 4.12448 900.393 12.3735 900.393 22.3901V548.165C900.393 558.279 892.229 566.43 882.098 566.43Z" fill="black"/>
<path opacity="0.62" d="M882.098 566.43H113.311C103.279 566.43 95.1147 558.279 95.1147 548.263V22.4883C95.1147 12.4717 103.279 4.32089 113.311 4.32089H882.098C892.131 4.32089 900.295 12.4717 900.295 22.4883V548.263C900.295 558.181 892.131 566.43 882.098 566.43Z" fill="black"/>
</g>
<path d="M882.59 41.0485H110.459V520.177H882.59V41.0485Z" fill="white"/>
<path d="M95.3115 534.122H899.902C899.902 534.122 899.902 538.835 899.902 540.996C899.902 554.449 888.787 562.109 886.131 562.109C876.098 562.109 115.771 562.109 109.082 562.109C106.033 562.109 95.3115 553.762 95.3115 540.996C95.3115 535.398 95.3115 534.122 95.3115 534.122Z" fill="#1E1D1F"/>
<path d="M522 569.278H0V569.671C0 569.671 24.4918 579 86.3607 579C154.721 579 522 579 522 579C522 579 844.623 579 912.984 579C974.361 579 996 569.671 996 569.671V569.278H522Z" fill="url(#paint26_linear)"/>
<path d="M996 553.271H0V569.769H996V553.271Z" fill="url(#paint27_linear)"/>
<path d="M418.426 553.271C418.426 553.271 418.426 565.154 430.721 565.154C435.738 565.154 558.984 565.154 563.902 565.154C577.18 565.154 577.18 553.271 577.18 553.271H418.426Z" fill="url(#paint28_linear)"/>
<g opacity="0.2">
<path opacity="0.2" d="M418.426 553.271C418.426 553.271 418.426 565.154 430.721 565.154C435.738 565.154 558.984 565.154 563.902 565.154C577.18 565.154 577.18 553.271 577.18 553.271H418.426Z" fill="black"/>
<path opacity="0.9677" d="M418.723 553.37C418.624 553.37 418.723 565.056 431.018 565.056C435.936 565.056 558.69 565.056 563.608 565.056C576.788 565.056 576.887 553.37 576.788 553.37C576.788 553.271 490.034 553.37 488.854 553.37C487.969 553.37 418.821 553.37 418.723 553.37Z" fill="black"/>
<path opacity="0.9355" d="M419.115 553.468C418.918 553.566 419.115 565.055 431.41 565.055C436.328 565.055 558.492 565.055 563.41 565.055C576.59 565.055 576.59 553.566 576.59 553.468C576.492 553.369 491.312 553.369 489.049 553.369C486.984 553.369 419.312 553.369 419.115 553.468Z" fill="black"/>
<path opacity="0.9032" d="M419.41 553.467C419.213 553.566 419.41 564.957 431.705 564.957C436.623 564.957 558.197 564.957 563.115 564.957C576.295 564.957 576.295 553.664 576.197 553.467C576.099 553.271 492.492 553.369 488.951 553.369C486.099 553.467 419.803 553.369 419.41 553.467Z" fill="black"/>
<path opacity="0.871" d="M419.803 553.566C419.508 553.664 419.803 564.957 432 564.957C436.918 564.957 557.902 564.957 562.722 564.957C575.804 564.957 575.902 553.86 575.804 553.566C575.705 553.271 493.574 553.369 488.951 553.369C485.213 553.467 420.197 553.467 419.803 553.566Z" fill="black"/>
<path opacity="0.8387" d="M420.099 553.664C419.705 553.762 420.197 564.957 432.295 564.957C437.213 564.957 557.508 564.957 562.426 564.957C575.508 564.957 575.607 554.057 575.508 553.762C575.312 553.468 494.853 553.566 489.049 553.566C484.328 553.566 420.689 553.468 420.099 553.664Z" fill="black"/>
<path opacity="0.8065" d="M420.492 553.762C420 553.958 420.59 564.957 432.689 564.957C437.607 564.957 557.311 564.957 562.229 564.957C575.213 564.957 575.41 554.155 575.213 553.86C575.016 553.467 496.131 553.664 489.148 553.664C483.344 553.566 421.082 553.566 420.492 553.762Z" fill="black"/>
<path opacity="0.7742" d="M420.787 553.86C420.295 554.057 420.885 564.957 432.984 564.957C437.803 564.957 557.017 564.957 561.935 564.957C574.918 564.957 575.115 554.351 574.918 553.958C574.623 553.467 497.312 553.664 489.246 553.664C482.459 553.664 421.574 553.566 420.787 553.86Z" fill="black"/>
<path opacity="0.7419" d="M421.18 553.86C420.59 554.057 421.279 564.859 433.279 564.859C438.098 564.859 556.721 564.859 561.639 564.859C574.623 564.859 574.82 554.449 574.623 553.958C574.328 553.467 498.59 553.664 489.246 553.664C481.574 553.664 422.066 553.566 421.18 553.86Z" fill="black"/>
<path opacity="0.7097" d="M421.475 553.958C420.787 554.155 421.574 564.859 433.574 564.859C438.393 564.859 556.426 564.859 561.246 564.859C574.131 564.859 574.426 554.646 574.131 554.155C573.836 553.566 499.574 553.762 489.148 553.762C480.59 553.762 422.459 553.664 421.475 553.958Z" fill="black"/>
<path opacity="0.6774" d="M421.869 554.057C421.082 554.351 421.967 564.859 433.967 564.859C438.787 564.859 556.23 564.859 561.049 564.859C573.934 564.859 574.23 554.842 573.934 554.253C573.541 553.566 500.951 553.86 489.344 553.86C479.705 553.762 422.951 553.664 421.869 554.057Z" fill="black"/>
<path opacity="0.6452" d="M422.164 554.155C421.377 554.449 422.262 564.761 434.262 564.761C439.082 564.761 555.934 564.761 560.754 564.761C573.639 564.761 573.934 554.941 573.541 554.253C573.148 553.566 502.131 553.86 489.344 553.86C478.82 553.86 423.443 553.762 422.164 554.155Z" fill="black"/>
<path opacity="0.6129" d="M422.558 554.253C421.672 554.548 422.656 564.761 434.557 564.761C439.377 564.761 555.639 564.761 560.459 564.761C573.246 564.761 573.639 555.039 573.246 554.351C572.853 553.566 503.312 553.86 489.443 553.86C477.935 553.86 423.836 553.762 422.558 554.253Z" fill="black"/>
<path opacity="0.5806" d="M422.852 554.253C421.869 554.548 422.951 564.663 434.852 564.663C439.672 564.663 555.344 564.663 560.164 564.663C572.951 564.663 573.344 555.137 572.951 554.351C572.459 553.467 504.59 553.86 489.541 553.86C476.951 553.959 424.328 553.762 422.852 554.253Z" fill="black"/>
<path opacity="0.5484" d="M423.246 554.351C422.164 554.744 423.443 564.663 435.246 564.663C439.967 564.663 555.148 564.663 559.869 564.663C572.557 564.663 573.049 555.333 572.557 554.548C572.066 553.664 505.672 554.057 489.443 553.958C476.066 553.958 424.721 553.86 423.246 554.351Z" fill="black"/>
<path opacity="0.5161" d="M423.541 554.45C422.459 554.842 423.738 564.663 435.541 564.663C440.262 564.663 554.853 564.663 559.574 564.663C572.262 564.663 572.754 555.53 572.262 554.646C571.672 553.664 506.951 554.057 489.541 554.057C475.18 554.057 425.213 553.86 423.541 554.45Z" fill="black"/>
<path opacity="0.4839" d="M423.836 554.548C422.656 554.941 424.033 564.663 435.738 564.663C440.459 564.663 554.459 564.663 559.18 564.663C571.869 564.663 572.361 555.726 571.869 554.744C571.279 553.664 508.131 554.155 489.541 554.155C474.295 554.057 425.705 553.959 423.836 554.548Z" fill="black"/>
<path opacity="0.4516" d="M424.23 554.548C422.951 554.941 424.426 564.564 436.131 564.564C440.853 564.564 554.262 564.564 558.984 564.564C571.574 564.564 572.164 555.726 571.574 554.744C570.984 553.664 509.312 554.057 489.639 554.057C473.312 554.155 426.099 553.959 424.23 554.548Z" fill="black"/>
<path opacity="0.4194" d="M424.525 554.646C423.148 555.137 424.721 564.564 436.426 564.564C441.148 564.564 553.967 564.564 558.689 564.564C571.279 564.564 571.869 555.923 571.279 554.941C570.59 553.762 510.59 554.253 489.738 554.253C472.426 554.155 426.59 553.959 424.525 554.646Z" fill="black"/>
<path opacity="0.3871" d="M424.918 554.744C423.541 555.235 425.115 564.564 436.82 564.564C441.541 564.564 553.771 564.564 558.393 564.564C570.885 564.564 571.574 556.119 570.885 555.039C570.197 553.762 511.672 554.351 489.738 554.253C471.541 554.253 426.984 554.057 424.918 554.744Z" fill="black"/>
<path opacity="0.3548" d="M425.213 554.842C423.738 555.333 425.41 564.466 437.017 564.466C441.738 564.466 553.377 564.466 558 564.466C570.492 564.466 571.18 556.217 570.492 555.039C569.803 553.762 512.853 554.253 489.639 554.253C470.558 554.253 427.476 554.057 425.213 554.842Z" fill="black"/>
<path opacity="0.3226" d="M425.607 554.941C424.033 555.432 425.803 564.466 437.41 564.466C442.033 564.466 553.082 564.466 557.803 564.466C570.295 564.466 570.984 556.414 570.295 555.137C569.508 553.762 514.23 554.351 489.836 554.351C469.672 554.351 427.967 554.155 425.607 554.941Z" fill="black"/>
<path opacity="0.2903" d="M425.902 554.94C424.23 555.53 426.099 564.368 437.705 564.368C442.328 564.368 552.787 564.368 557.508 564.368C569.902 564.368 570.689 556.512 569.902 555.235C569.115 553.762 515.312 554.351 489.836 554.351C468.787 554.351 428.361 554.155 425.902 554.94Z" fill="black"/>
<path opacity="0.2581" d="M426.295 555.039C424.623 555.628 426.59 564.368 438.098 564.368C442.721 564.368 552.59 564.368 557.311 564.368C569.705 564.368 570.393 556.61 569.705 555.333C568.82 553.86 516.689 554.45 490.033 554.45C467.902 554.45 428.852 554.253 426.295 555.039Z" fill="black"/>
<path opacity="0.2258" d="M426.59 555.137C424.82 555.726 426.885 564.368 438.295 564.368C442.918 564.368 552.197 564.368 556.82 564.368C569.115 564.368 569.902 556.806 569.213 555.432C568.328 553.86 517.771 554.548 489.934 554.449C466.918 554.449 429.246 554.253 426.59 555.137Z" fill="black"/>
<path opacity="0.1935" d="M426.984 555.235C425.115 555.824 427.279 564.368 438.689 564.368C443.312 564.368 552 564.368 556.623 564.368C568.918 564.368 569.705 557.003 568.918 555.53C568.033 553.86 518.951 554.548 489.935 554.548C466.033 554.548 429.738 554.253 426.984 555.235Z" fill="black"/>
<path opacity="0.1613" d="M427.279 555.333C425.312 556.021 427.574 564.368 438.984 564.368C443.607 564.368 551.705 564.368 556.328 564.368C568.623 564.368 569.41 557.199 568.623 555.628C567.639 553.959 520.23 554.646 490.033 554.646C465.148 554.548 430.23 554.351 427.279 555.333Z" fill="black"/>
<path opacity="0.129" d="M427.672 555.333C425.705 556.021 427.967 564.27 439.377 564.27C444 564.27 551.508 564.27 556.131 564.27C568.328 564.27 569.213 557.297 568.328 555.726C567.344 553.958 521.41 554.646 490.131 554.646C464.262 554.646 430.623 554.351 427.672 555.333Z" fill="black"/>
<path opacity="0.0967742" d="M427.967 555.432C425.902 556.119 428.262 564.27 439.574 564.27C444.098 564.27 551.115 564.27 555.639 564.27C567.836 564.27 568.721 557.494 567.836 555.824C566.852 553.958 522.492 554.744 490.033 554.744C463.279 554.646 431.115 554.449 427.967 555.432Z" fill="black"/>
<path opacity="0.0645161" d="M428.361 555.53C426.197 556.217 428.656 564.27 439.967 564.27C444.492 564.27 550.918 564.27 555.443 564.27C567.639 564.27 568.525 557.592 567.639 555.923C566.557 554.057 523.869 554.842 490.229 554.744C462.393 554.744 431.508 554.45 428.361 555.53Z" fill="black"/>
<path opacity="0.0322581" d="M428.656 555.628C426.393 556.414 428.951 564.172 440.262 564.172C444.787 564.172 550.623 564.172 555.148 564.172C567.246 564.172 568.23 557.69 567.246 555.923C566.164 553.959 524.951 554.744 490.23 554.744C461.508 554.744 432 554.45 428.656 555.628Z" fill="black"/>
</g>
<defs>
<linearGradient id="paint0_linear" x1="497.852" y1="570.653" x2="497.852" y2="0" gradientUnits="userSpaceOnUse">
<stop stop-color="#8C8C8C"/>
<stop offset="1" stop-color="#808080"/>
</linearGradient>
<linearGradient id="paint1_linear" x1="474.358" y1="597.647" x2="521.101" y2="-27.1011" gradientUnits="userSpaceOnUse">
<stop stop-color="#8C8C8C"/>
<stop offset="1" stop-color="#7F7F7F"/>
</linearGradient>
<linearGradient id="paint2_linear" x1="447.167" y1="621.058" x2="548.218" y2="-50.4519" gradientUnits="userSpaceOnUse">
<stop stop-color="#8D8D8D"/>
<stop offset="1" stop-color="#7E7E7E"/>
</linearGradient>
<linearGradient id="paint3_linear" x1="416.674" y1="640.258" x2="578.437" y2="-69.6168" gradientUnits="userSpaceOnUse">
<stop stop-color="#8D8D8D"/>
<stop offset="1" stop-color="#7D7D7D"/>
</linearGradient>
<linearGradient id="paint4_linear" x1="383.698" y1="654.812" x2="611.309" y2="-84.2752" gradientUnits="userSpaceOnUse">
<stop stop-color="#8E8E8E"/>
<stop offset="1" stop-color="#7D7D7D"/>
</linearGradient>
<linearGradient id="paint5_linear" x1="348.808" y1="664.304" x2="645.97" y2="-94.0739" gradientUnits="userSpaceOnUse">
<stop stop-color="#8E8E8E"/>
<stop offset="1" stop-color="#7C7C7C"/>
</linearGradient>
<linearGradient id="paint6_linear" x1="312.905" y1="668.692" x2="681.783" y2="-98.5277" gradientUnits="userSpaceOnUse">
<stop stop-color="#8F8F8F"/>
<stop offset="1" stop-color="#7B7B7B"/>
</linearGradient>
<linearGradient id="paint7_linear" x1="276.634" y1="667.771" x2="717.891" y2="-97.7422" gradientUnits="userSpaceOnUse">
<stop stop-color="#8F8F8F"/>
<stop offset="1" stop-color="#7A7A7A"/>
</linearGradient>
<linearGradient id="paint8_linear" x1="240.832" y1="661.602" x2="753.544" y2="-91.6222" gradientUnits="userSpaceOnUse">
<stop stop-color="#909090"/>
<stop offset="1" stop-color="#797979"/>
</linearGradient>
<linearGradient id="paint9_linear" x1="206.336" y1="650.132" x2="788.078" y2="-80.527" gradientUnits="userSpaceOnUse">
<stop stop-color="#909090"/>
<stop offset="1" stop-color="#787878"/>
</linearGradient>
<linearGradient id="paint10_linear" x1="173.843" y1="633.857" x2="820.543" y2="-64.2439" gradientUnits="userSpaceOnUse">
<stop stop-color="#919191"/>
<stop offset="1" stop-color="#777777"/>
</linearGradient>
<linearGradient id="paint11_linear" x1="143.99" y1="613.008" x2="850.375" y2="-43.4792" gradientUnits="userSpaceOnUse">
<stop stop-color="#919191"/>
<stop offset="1" stop-color="#777777"/>
</linearGradient>
<linearGradient id="paint12_linear" x1="117.647" y1="588.008" x2="876.904" y2="-18.4556" gradientUnits="userSpaceOnUse">
<stop stop-color="#929292"/>
<stop offset="1" stop-color="#767676"/>
</linearGradient>
<linearGradient id="paint13_linear" x1="95.1654" y1="559.33" x2="899.599" y2="9.99151" gradientUnits="userSpaceOnUse">
<stop stop-color="#929292"/>
<stop offset="1" stop-color="#757575"/>
</linearGradient>
<linearGradient id="paint14_linear" x1="77.0299" y1="527.779" x2="917.788" y2="41.5831" gradientUnits="userSpaceOnUse">
<stop stop-color="#939393"/>
<stop offset="1" stop-color="#747474"/>
</linearGradient>
<linearGradient id="paint15_linear" x1="63.857" y1="493.944" x2="931.204" y2="75.5776" gradientUnits="userSpaceOnUse">
<stop stop-color="#939393"/>
<stop offset="1" stop-color="#737373"/>
</linearGradient>
<linearGradient id="paint16_linear" x1="55.6966" y1="458.542" x2="939.431" y2="111.142" gradientUnits="userSpaceOnUse">
<stop stop-color="#949494"/>
<stop offset="1" stop-color="#727272"/>
</linearGradient>
<linearGradient id="paint17_linear" x1="52.8546" y1="422.34" x2="942.495" y2="147.479" gradientUnits="userSpaceOnUse">
<stop stop-color="#949494"/>
<stop offset="1" stop-color="#717171"/>
</linearGradient>
<linearGradient id="paint18_linear" x1="55.18" y1="386.174" x2="940.185" y2="183.852" gradientUnits="userSpaceOnUse">
<stop stop-color="#959595"/>
<stop offset="1" stop-color="#717171"/>
</linearGradient>
<linearGradient id="paint19_linear" x1="62.8385" y1="350.765" x2="932.508" y2="219.472" gradientUnits="userSpaceOnUse">
<stop stop-color="#959595"/>
<stop offset="1" stop-color="#707070"/>
</linearGradient>
<linearGradient id="paint20_linear" x1="75.6968" y1="316.901" x2="919.796" y2="253.542" gradientUnits="userSpaceOnUse">
<stop stop-color="#969696"/>
<stop offset="1" stop-color="#6F6F6F"/>
</linearGradient>
<linearGradient id="paint21_linear" x1="93.2458" y1="285.326" x2="902.164" y2="285.326" gradientUnits="userSpaceOnUse">
<stop stop-color="#969696"/>
<stop offset="1" stop-color="#6E6E6E"/>
</linearGradient>
<linearGradient id="paint22_linear" x1="146.602" y1="263.582" x2="341.191" y2="646.101" gradientUnits="userSpaceOnUse">
<stop stop-color="#1E1E1E"/>
<stop offset="0.5175" stop-color="#1E1E1E"/>
<stop offset="0.5648" stop-color="#8C8C8C"/>
<stop offset="0.6041" stop-color="#1E1E1E"/>
<stop offset="1" stop-color="#1E1E1E"/>
</linearGradient>
<linearGradient id="paint23_linear" x1="850.76" y1="259.179" x2="653.99" y2="645.985" gradientUnits="userSpaceOnUse">
<stop stop-color="#1E1E1E"/>
<stop offset="0.5175" stop-color="#1E1E1E"/>
<stop offset="0.5648" stop-color="#8C8C8C"/>
<stop offset="0.6041" stop-color="#1E1E1E"/>
<stop offset="1" stop-color="#1E1E1E"/>
</linearGradient>
<linearGradient id="paint24_linear" x1="143.837" y1="311.112" x2="341.183" y2="-76.8257" gradientUnits="userSpaceOnUse">
<stop stop-color="#1E1E1E"/>
<stop offset="0.5175" stop-color="#1E1E1E"/>
<stop offset="0.5648" stop-color="#8C8C8C"/>
<stop offset="0.6041" stop-color="#1E1E1E"/>
<stop offset="1" stop-color="#1E1E1E"/>
</linearGradient>
<linearGradient id="paint25_linear" x1="851.65" y1="311.072" x2="654.346" y2="-76.7859" gradientUnits="userSpaceOnUse">
<stop stop-color="#1E1E1E"/>
<stop offset="0.5175" stop-color="#1E1E1E"/>
<stop offset="0.5648" stop-color="#8C8C8C"/>
<stop offset="0.6041" stop-color="#1E1E1E"/>
<stop offset="1" stop-color="#1E1E1E"/>
</linearGradient>
<linearGradient id="paint26_linear" x1="498" y1="569.234" x2="498" y2="578.919" gradientUnits="userSpaceOnUse">
<stop stop-color="#424242"/>
<stop offset="1"/>
</linearGradient>
<linearGradient id="paint27_linear" x1="0" y1="561.52" x2="996" y2="561.52" gradientUnits="userSpaceOnUse">
<stop offset="0.00166742" stop-color="#282828"/>
<stop offset="0.00274646" stop-color="#2D2D2D"/>
<stop offset="0.00411457" stop-color="#3D3D3D"/>
<stop offset="0.00563915" stop-color="#575757"/>
<stop offset="0.00727693" stop-color="#7B7B7B"/>
<stop offset="0.00898719" stop-color="#A9A9A9"/>
<stop offset="0.00967553" stop-color="#BEBEBE"/>
<stop offset="0.0147064" stop-color="#B4B4B4"/>
<stop offset="0.0151391" stop-color="#AFAFAF"/>
<stop offset="0.019705" stop-color="#828282"/>
<stop offset="0.0237747" stop-color="#616161"/>
<stop offset="0.0271616" stop-color="#4D4D4D"/>
<stop offset="0.029448" stop-color="#464646"/>
<stop offset="0.0994869" stop-color="#5E5E5E"/>
<stop offset="0.2468" stop-color="#9C9C9C"/>
<stop offset="0.2791" stop-color="#AAAAAA"/>
<stop offset="0.6203" stop-color="#AAAAAA"/>
<stop offset="0.9726" stop-color="#464646"/>
<stop offset="0.9767" stop-color="#5E5E5E"/>
<stop offset="0.9854" stop-color="#9C9C9C"/>
<stop offset="0.9886" stop-color="#B4B4B4"/>
<stop offset="0.9894" stop-color="#B7B7B7"/>
<stop offset="0.9928" stop-color="#BEBEBE"/>
<stop offset="0.9937" stop-color="#AAAAAA"/>
<stop offset="0.998" stop-color="#4D4D4D"/>
<stop offset="1" stop-color="#282828"/>
</linearGradient>
<linearGradient id="paint28_linear" x1="418.426" y1="559.212" x2="577.18" y2="559.212" gradientUnits="userSpaceOnUse">
<stop offset="0.00166742" stop-color="#323232"/>
<stop offset="0.0114618" stop-color="#545454"/>
<stop offset="0.0237877" stop-color="#787878"/>
<stop offset="0.0338283" stop-color="#8E8E8E"/>
<stop offset="0.0402522" stop-color="#969696"/>
<stop offset="0.1115" stop-color="#A0A0A0"/>
<stop offset="0.1822" stop-color="#AAAAAA"/>
<stop offset="0.8677" stop-color="#AAAAAA"/>
<stop offset="0.9174" stop-color="#A0A0A0"/>
<stop offset="0.961" stop-color="#969696"/>
<stop offset="0.9676" stop-color="#8D8D8D"/>
<stop offset="0.9782" stop-color="#757575"/>
<stop offset="0.9915" stop-color="#4F4F4F"/>
<stop offset="1" stop-color="#323232"/>
</linearGradient>
</defs>
</svg>
