<svg width="31" height="24" viewBox="0 0 31 24" fill="none" xmlns="http://www.w3.org/2000/svg">
<g clip-path="url(#clip0)">
<path d="M2.22055 15.4733C2.00896 15.0343 2.103 14.861 2.53793 14.7917C3.31376 14.6646 3.9838 14.2949 4.46575 13.6711C4.91244 13.0819 4.85366 12.6776 4.25416 12.2502C3.96029 12.0307 3.63115 11.8458 3.31376 11.661C0.892236 10.2747 0.139918 8.72667 0.704157 6.0234C1.66806 1.36777 6.38181 -0.110935 9.66145 1.05586C10.7547 1.44864 11.601 2.17644 12.3298 3.11219C13.0469 2.00316 13.5053 0.62842 15.1275 0.674629C16.6674 0.720839 17.2787 1.87608 17.8194 3.11219C18.3719 2.63854 18.8656 2.188 19.4063 1.78366C21.6515 0.0739032 25.5659 0.351162 27.4467 2.34973C28.1873 3.14685 28.587 4.08259 28.6575 5.15697C28.6928 5.65372 28.728 6.15048 28.7868 6.64723C28.9043 7.66384 29.2805 7.9411 30.3032 7.84868C30.3972 7.83713 30.4913 7.83713 30.5853 7.82558C30.7616 8.21836 30.5853 8.33389 30.2444 8.34544C29.3628 8.39165 28.4812 8.47251 27.6113 8.46096C26.9765 8.46096 26.6121 8.80753 26.377 9.26963C26.1184 9.76639 26.5651 10.0899 26.8942 10.3787C27.1529 10.6097 27.4702 10.783 27.7641 10.9678C30.2679 12.5274 31.0202 14.4567 30.0916 17.2408C29.21 19.8979 27.435 21.8387 24.8724 23.0401C22.6272 24.0798 20.5701 23.6177 18.701 22.0928C18.0663 21.573 17.4785 21.0184 16.832 20.5101C16.2442 20.048 16.0091 20.0827 15.4684 20.591C14.7866 21.2264 14.1518 21.9195 13.4113 22.4856C11.554 23.9181 9.59092 23.9528 7.67486 22.6011C6.86376 22.0351 6.13496 21.3419 5.31211 20.7989C4.72436 20.4062 4.06608 20.0942 3.38429 19.8863C2.63197 19.6553 2.04422 19.9903 1.72684 20.7065C1.57403 21.0415 1.52701 21.4112 1.37419 21.7462C1.31542 21.8733 1.12734 21.9542 1.00979 22.0582C0.939256 21.9311 0.786442 21.7809 0.809952 21.6654C1.20962 19.6784 1.98545 17.8646 3.63115 16.5477C4.46575 15.8776 5.46492 15.5888 6.54638 15.8545C7.01658 15.97 7.31045 15.8776 7.39274 15.3924C7.59257 14.2256 7.92171 13.0588 7.95698 11.8805C8.01575 9.69707 7.93347 7.49056 7.80416 5.28405C7.74539 4.26743 7.43976 3.27392 6.75797 2.4537C6.17022 1.749 5.31211 1.5064 4.55979 1.81832C3.61939 2.2111 2.97287 3.11219 3.14919 3.97862C3.24323 4.42917 3.53711 4.90282 3.86625 5.24939C4.28942 5.68838 4.83015 6.0234 5.32386 6.40463C7.47502 8.03352 7.88645 10.3671 6.40532 12.6198C5.60598 13.8328 4.53628 14.7455 3.14919 15.2422C2.86707 15.3578 2.53793 15.404 2.22055 15.4733ZM7.92171 15.9931C9.09721 16.7903 10.2492 17.5874 11.4247 18.3729C12.036 18.7773 12.6707 19.1585 13.3172 19.5282C13.9873 19.9094 14.6573 19.8401 15.3273 19.4935C16.2207 19.0314 16.9025 18.3614 17.455 17.5527C18.3601 16.2242 18.3366 15.3578 17.3845 14.0523C17.1729 13.752 16.926 13.4747 16.7027 13.1859C16.5499 12.9895 16.3971 12.7816 16.2325 12.5967C14.5515 10.7252 14.5163 8.66891 15.6212 6.54326C16.0914 5.64217 16.7379 4.82195 17.2787 3.95552C17.3727 3.81689 17.4315 3.52808 17.3492 3.42411C16.3735 2.17644 13.9873 2.11868 12.9528 3.32013C12.8235 3.47032 12.7648 3.79378 12.8353 3.99017C13.4701 5.86167 13.7522 7.75626 13.4936 9.72018C13.1644 12.3079 11.9654 14.2949 9.47337 15.3924C8.93264 15.635 8.38016 15.8199 7.92171 15.9931ZM18.8773 16.409C20.2997 16.2126 21.3694 16.8018 22.298 17.6798C22.78 18.1303 23.2267 18.6155 23.6969 19.0776C24.4022 19.7708 25.0605 20.5332 26.0596 20.8336C26.6944 21.03 27.3762 20.7296 27.8229 20.1058C28.1755 19.609 28.199 19.0199 27.7641 18.5116C27.4115 18.0957 26.9648 17.726 26.5181 17.391C25.6247 16.7094 24.6255 16.1433 23.8144 15.3809C22.2863 13.9484 22.3216 11.5339 23.8497 10.113C24.5785 9.44292 25.4601 8.93461 26.2007 8.41475C25.7423 8.21836 25.131 8.04507 24.6138 7.72161C23.3795 6.95915 23.1091 5.69993 22.9681 4.38296C22.8976 3.75913 22.7565 3.12374 22.4979 2.55767C22.1452 1.79521 21.3106 1.5064 20.5113 1.78366C19.5004 2.14179 18.8068 2.85804 18.4424 3.85155C18.0663 4.87971 18.6187 5.67683 19.1947 6.45084C19.712 7.14399 20.2997 7.80247 20.8052 8.50717C22.204 10.5173 22.157 12.7931 20.6171 14.7108C20.1469 15.3115 19.5121 15.7852 18.8773 16.409Z" fill="#3A2F3C"/>
</g>
<defs>
<clipPath id="clip0">
<rect width="30.128" height="22.9547" fill="white" transform="translate(0.528076 0.664001)"/>
</clipPath>
</defs>
</svg>
