<svg width="31" height="19" viewBox="0 0 31 19" fill="none" xmlns="http://www.w3.org/2000/svg">
<g clip-path="url(#clip0)">
<path d="M16.7798 7.0461C17.1409 5.03122 17.502 3.01634 17.8631 0.984009C21.9902 0.984009 26.0916 0.984009 30.2617 0.984009C30.1327 1.23696 30.0295 1.46374 29.9178 1.6818C27.0546 6.91526 24.1914 12.14 21.3368 17.3735C21.2852 17.4607 21.225 17.5479 21.1992 17.6439C21.1218 17.9055 21.3368 18.2544 21.5775 18.2195C22.979 18.0102 24.3805 17.8357 25.7649 17.5479C27.2781 17.2339 28.2239 16.1436 29.0236 14.8963C29.5395 14.0938 30.0553 13.3001 30.6572 12.5412C30.511 13.3263 30.3735 14.1113 30.2187 14.8963C30.0038 15.9604 29.7888 17.0246 29.5652 18.0887C29.4363 18.708 29.1869 18.9173 28.5593 18.9173C26.7364 18.9261 24.9222 18.9261 23.0994 18.9261C20.9671 18.9261 18.8261 18.9261 16.6938 18.9261C16.539 18.9261 16.3842 18.9261 16.1349 18.9261C19.256 13.2129 22.3428 7.56072 25.4639 1.84753C24.0452 1.78647 22.6953 1.56841 21.354 1.91731C20.5114 2.13537 19.8493 2.64127 19.3592 3.34779C18.7143 4.27237 18.1297 5.24056 17.5106 6.18258C17.3128 6.48786 17.0979 6.79315 16.8829 7.09843C16.8485 7.07227 16.8141 7.05482 16.7798 7.0461Z" fill="#3A2F3C"/>
<path d="M0.658132 18.9173C1.00206 18.6731 1.26 18.4725 1.53515 18.3068C2.47235 17.7485 2.84207 16.9024 2.83347 15.8296C2.82487 13.1431 2.83347 10.4566 2.83347 7.76133C2.83347 6.56636 2.85067 5.38011 2.84207 4.18513C2.83347 2.66743 2.18001 1.92602 0.933273 1.74285C0.778506 1.71668 0.649534 1.4899 0.511963 1.35906C0.537757 1.32417 0.554954 1.28928 0.580748 1.25439C3.30637 1.25439 6.03199 1.25439 8.78341 1.25439C8.42228 1.58585 8.07836 1.90858 7.73443 2.23131C7.55387 2.39703 7.3905 2.58021 7.20994 2.74593C6.84882 3.09483 6.70265 3.50478 6.70265 4.02813C6.69405 8.52891 6.66826 13.0384 6.64246 17.5392C6.64246 17.7049 6.64246 17.8794 6.64246 18.0974C7.91499 18.1149 9.14453 18.2893 10.3483 17.9055C11.0619 17.6787 11.6294 17.2339 11.9991 16.5884C12.6612 15.4545 13.2802 14.2857 13.9165 13.1431C14.1143 12.7855 14.3292 12.4366 14.5356 12.0789C14.57 12.0877 14.613 12.1051 14.6474 12.1138C14.5012 14.3729 14.3636 16.6408 14.2175 18.9173C9.71201 18.9173 5.23236 18.9173 0.658132 18.9173Z" fill="#3A2F3C"/>
</g>
<defs>
<clipPath id="clip0">
<rect width="30.128" height="17.9333" fill="white" transform="translate(0.511963 0.984009)"/>
</clipPath>
</defs>
</svg>
