<svg width="56" height="19" viewBox="0 0 56 19" fill="none" xmlns="http://www.w3.org/2000/svg">
<g clip-path="url(#clip0)">
<path d="M8.60831 16.5598C8.39489 16.5598 8.38861 16.424 8.34467 16.3253C8.06848 15.6402 7.79228 14.949 7.52236 14.2578C6.42386 11.5114 5.32535 8.75888 4.22684 6.00633C4.18918 5.91376 4.14524 5.82736 4.05736 5.74713C4.03225 5.87673 4.00086 6.00633 3.99459 6.13594C3.92554 6.93208 3.85649 7.73439 3.78744 8.53053C3.71211 9.32667 3.63051 10.1228 3.56146 10.9251C3.50497 11.5299 3.4673 12.1348 3.41708 12.7396C3.36687 13.3629 3.31037 13.9862 3.25388 14.6096C3.22877 14.8935 3.20366 15.1835 3.19111 15.4674C3.15972 16.1031 3.12833 16.7388 3.1095 17.3745C3.10323 17.5041 3.13461 17.6398 3.166 17.7695C3.26016 18.1336 3.50497 18.3496 3.87532 18.4298C3.92554 18.4422 3.97575 18.4483 4.0448 18.4545C4.05108 18.5286 4.05108 18.5964 4.05736 18.652C4.03853 18.6705 4.02597 18.6829 4.01969 18.6829C2.99024 18.615 1.96078 18.5409 0.906212 18.7199C0.893658 18.6211 0.887381 18.5471 0.881104 18.4668C0.95643 18.4422 1.01292 18.4175 1.0757 18.399C1.55904 18.2508 1.8164 17.9114 1.88545 17.4362C2.00472 16.6154 2.09888 15.7884 2.20559 14.9614C2.29975 14.2084 2.40018 13.4555 2.49434 12.7025C2.5885 11.9496 2.67638 11.1905 2.77054 10.4376C2.86469 9.67228 2.96513 8.907 3.05929 8.14789C3.13461 7.54924 3.20366 6.94442 3.27271 6.34577C3.34176 5.7533 3.41709 5.16082 3.48613 4.57452C3.56146 3.95118 3.63679 3.32785 3.70584 2.71069C3.79999 1.93923 3.88787 1.16161 3.98203 0.377813C4.05108 0.371641 4.09502 0.371641 4.1829 0.36547C5.87146 4.56217 7.5663 8.75888 9.25486 12.9556C9.2737 12.9556 9.29881 12.9556 9.31764 12.9556C9.3553 12.8692 9.39296 12.7828 9.42435 12.6902C10.1148 10.7091 10.7991 8.72185 11.4895 6.74076C12.1989 4.69178 12.9145 2.63663 13.6301 0.587648C13.6677 0.470387 13.6677 0.316097 13.8749 0.266724C13.9063 0.340783 13.9565 0.408671 13.969 0.48273C14.0381 0.988804 14.1008 1.50105 14.1699 2.00712C14.2829 2.87115 14.4022 3.73518 14.5214 4.5992C14.6156 5.29043 14.7035 5.98165 14.7976 6.67904C14.8918 7.38261 14.9797 8.08617 15.0738 8.78974C15.168 9.49947 15.2684 10.2154 15.3626 10.9251C15.463 11.6595 15.5634 12.3878 15.6576 13.1222C15.7517 13.832 15.8396 14.5479 15.9338 15.2638C16.0342 15.9982 16.1284 16.7264 16.2351 17.4609C16.3167 18.0348 16.5176 18.2694 17.0888 18.4607C17.0951 18.4915 17.1076 18.5286 17.1139 18.5656C17.1139 18.6026 17.1076 18.6458 17.0951 18.7199C15.871 18.5779 14.6532 18.5841 13.4104 18.7199C13.3978 18.6273 13.3915 18.5532 13.379 18.473C13.4543 18.4483 13.5171 18.4298 13.5736 18.4051C13.9753 18.257 14.1699 17.9669 14.1197 17.5411C14.0381 16.8807 13.9439 16.2204 13.8498 15.5538C13.7556 14.875 13.6614 14.1899 13.5673 13.511C13.4731 12.8075 13.3852 12.1039 13.2911 11.4065C13.1969 10.7153 13.1028 10.0241 13.0023 9.33284C12.9019 8.61076 12.8015 7.88868 12.7073 7.1666C12.6759 6.94442 12.6508 6.71607 12.6194 6.49389C12.6132 6.42601 12.588 6.36429 12.5629 6.27171C12.4374 6.36429 12.4248 6.48155 12.3872 6.5803C11.9164 7.83314 11.4456 9.08598 10.9748 10.3388C10.2278 12.3322 9.48084 14.3319 8.73386 16.3253C8.68992 16.3994 8.64598 16.4796 8.60831 16.5598Z" fill="#3A2F3C"/>
<path d="M45.1585 0.815974C45.1523 0.766601 45.1523 0.704885 45.146 0.643169C45.1774 0.624654 45.2087 0.599968 45.2339 0.599968C45.4536 0.599968 45.6733 0.606139 45.893 0.612311C46.6776 0.630826 47.4623 0.667855 48.2406 0.655512C48.7805 0.643169 49.3203 0.556766 49.8601 0.507393C50.7892 0.427162 51.6994 0.470363 52.5656 0.853004C53.4884 1.25416 54.1286 1.93304 54.5806 2.80324C54.907 3.43274 55.1142 4.09928 55.2083 4.79667C55.2899 5.39532 55.3715 6.00014 55.3778 6.60496C55.3966 8.38239 54.9949 10.0487 53.8524 11.4867C53.2812 12.2088 52.5719 12.7581 51.6743 13.0296C50.8143 13.2888 49.9606 13.2271 49.1257 12.9C49.0504 12.8692 48.9751 12.8321 48.8935 12.8013C48.8181 12.7704 48.7428 12.7396 48.6361 12.6964C48.6235 12.7951 48.6047 12.8692 48.6047 12.9494C48.6047 14.4491 48.6047 15.9488 48.6047 17.4547C48.6047 17.8929 48.8244 18.1706 49.2199 18.3249C49.4019 18.3989 49.5965 18.4298 49.7974 18.4853C49.7974 18.5532 49.7974 18.6211 49.7974 18.7137C49.0127 18.6828 48.2469 18.6211 47.4748 18.6211C46.7027 18.6211 45.9369 18.6767 45.146 18.7137C45.1397 18.6335 45.1397 18.5656 45.1334 18.4792C45.2715 18.4483 45.4033 18.4174 45.5289 18.3866C46.0499 18.2508 46.2884 17.9854 46.3449 17.467C46.3575 17.3559 46.3575 17.2387 46.3575 17.1276C46.3575 12.1533 46.3575 7.17892 46.3575 2.19842C46.3575 2.04413 46.3386 1.88984 46.3261 1.73555C46.301 1.39611 46.1189 1.15541 45.8051 1.02581C45.6293 0.933235 45.4096 0.890034 45.1585 0.815974ZM48.6298 11.4127C48.8307 11.7274 49.0629 11.9804 49.3454 12.2026C50.105 12.7951 51.1532 12.6655 51.7998 12.0977C52.1388 11.7953 52.3773 11.425 52.5593 11.0177C52.9674 10.0796 53.1055 9.08595 53.1745 8.07381C53.2184 7.37641 53.2373 6.67902 53.1933 5.98162C53.1557 5.37681 53.1055 4.77199 52.9925 4.17951C52.8669 3.53149 52.6786 2.90198 52.3334 2.32802C51.8061 1.45782 51.0465 1.00112 49.9982 1.06901C49.4835 1.09987 49.0253 1.27885 48.6298 1.60594C48.6298 4.88307 48.6298 8.14169 48.6298 11.4127Z" fill="#3A2F3C"/>
<path d="M18.3235 3.98207C18.4051 3.93886 18.4867 3.89566 18.5996 3.83395C18.5494 2.85883 18.3988 1.87754 18.4113 0.883909C18.6499 1.83434 18.8884 2.78477 19.1269 3.7352C19.2336 3.7352 19.3027 3.7352 19.3592 3.7352C19.378 3.71669 19.3843 3.70434 19.3906 3.69817C19.3969 3.692 19.4031 3.67966 19.4031 3.67348C19.4031 2.72923 19.4031 1.78497 19.4345 0.840708C19.4973 1.24186 19.5663 1.64302 19.6291 2.038C19.7107 2.54408 19.786 3.05015 19.8614 3.5624C19.8676 3.6056 19.8739 3.64263 19.8739 3.68583C19.9116 4.08698 19.7923 4.24745 19.3969 4.34619C19.3404 4.35853 19.2839 4.38322 19.2023 4.40174C19.2713 4.92632 19.3027 5.44474 19.4596 6.00019C19.5726 5.88293 19.6542 5.80887 19.7233 5.72246C19.8049 5.61755 19.8927 5.50646 19.9555 5.3892C20.2317 4.86461 20.7088 4.54986 21.1984 4.24127C21.3616 4.13636 21.5374 4.08081 21.732 4.1055C21.8763 4.12401 21.9956 4.08698 22.1086 3.99441C22.1965 3.92652 22.3032 3.89566 22.4413 3.82777C22.3534 3.72286 22.2969 3.63028 22.2153 3.55622C21.9705 3.33404 21.9454 3.06249 21.983 2.76626C22.0082 2.57493 22.0395 2.38361 22.0709 2.13675C22.1463 2.07503 22.2655 1.97629 22.4225 1.84668C22.6986 1.79731 23.0376 1.74177 23.4394 1.66771C23.7281 1.71091 23.8913 2.00715 24.1236 2.19847C24.1989 2.84031 24.0859 3.44513 23.9855 4.0623C24.1173 4.16721 24.2931 4.12401 24.45 4.16721C24.5504 4.19807 24.6697 4.20424 24.7387 4.25979C25.2911 4.72883 25.9 5.13616 26.3331 5.72864C26.5089 5.96933 26.5905 6.21002 26.4587 6.50009C26.3771 6.67907 26.4022 6.68524 26.4963 7.02468C26.7663 6.8889 26.9609 6.67907 27.1052 6.4322C27.2308 6.22237 27.3312 5.99402 27.4316 5.76567C27.5572 5.4756 27.6764 5.17936 27.7957 4.88312C27.8962 4.84609 27.984 4.80906 28.0719 4.7782C28.2037 4.44494 28.2979 4.11784 28.2916 3.75989C28.2791 3.32787 28.3104 2.89586 28.2791 2.46385C28.2477 1.98863 28.4548 1.68005 28.8754 1.4517C29.0763 1.54427 29.2395 1.69856 29.3776 1.87754C29.4341 1.9516 29.4529 2.06886 29.4654 2.16761C29.4843 2.32807 29.4717 2.4947 29.478 2.66134C29.478 2.76008 29.4906 2.85883 29.4968 2.96992C29.7103 3.02546 29.9048 3.01312 30.1183 2.98226C30.1245 2.865 30.1308 2.76626 30.1371 2.66751C30.1559 2.4515 30.1748 2.2355 30.2062 2.02566C30.2501 1.74177 30.4698 1.59982 30.6958 1.44553C31.0222 1.61216 31.2105 1.85903 31.2293 2.22315C31.2419 2.47002 31.2482 2.71071 31.2607 2.97609C31.4679 2.97609 31.6499 2.97609 31.8445 2.97609C31.857 2.89586 31.8759 2.82797 31.8822 2.76008C31.8884 2.64899 31.8947 2.53173 31.8822 2.42064C31.8068 1.9516 32.0579 1.66771 32.4345 1.4517C32.8488 1.60599 33.0434 1.87137 33.0497 2.3219C33.056 2.79711 33.0685 3.26616 33.0497 3.74137C33.0309 4.11784 33.1439 4.44494 33.3008 4.78438C33.3887 4.80906 33.4766 4.83992 33.577 4.87078C33.6774 5.11147 33.7841 5.35834 33.8909 5.61137C34.324 5.85207 34.7885 5.9755 35.3221 5.98167C35.3911 5.90144 35.4664 5.80887 35.5418 5.71012C35.8493 5.29662 36.1444 4.87078 36.5147 4.50048C36.7533 4.26596 36.973 4.08698 37.3308 4.16104C37.5002 3.90183 37.5002 3.64263 37.4375 3.37725C37.381 3.13655 37.3308 2.9082 37.3308 2.65517C37.3308 2.43916 37.2052 2.22315 37.1362 2.00097C37.3684 2.09355 37.5002 1.92691 37.6258 1.76028C37.8894 1.88988 38.1531 1.88371 38.4418 1.80348C38.492 1.75411 38.5548 1.69856 38.6176 1.64302C38.7055 1.70474 38.7871 1.76028 38.8812 1.822C38.9503 1.79731 39.013 1.77262 39.0884 1.74177C38.9503 2.47619 39.1574 3.1489 39.3834 3.84629C39.7851 3.8648 40.0362 4.11167 40.281 4.39556C40.4819 4.62391 40.7455 4.80289 40.9903 4.99421C41.0782 5.0621 41.1787 5.11764 41.2854 5.1917C41.4674 4.77821 41.7059 4.40174 41.7311 3.94504C41.7311 3.91418 41.7436 3.88332 41.7373 3.85246C41.6369 3.2353 41.8943 2.64282 41.9005 2.03183C41.9068 1.70474 41.9633 1.37764 42.001 1.05054C42.0072 0.970312 42.0198 0.890081 42.0324 0.778992C42.114 0.791335 42.1767 0.803678 42.2395 0.80985C42.1956 0.828365 42.1516 0.853051 42.114 0.865394C42.0072 1.4517 41.9194 2.64899 41.9696 2.82797C42.1014 2.80329 42.114 2.70454 42.1265 2.59345C42.1767 2.06269 42.2332 1.53193 42.2834 1.00117C42.2897 0.933282 42.2521 0.865394 42.2332 0.797507C42.8044 0.84688 43.3757 0.902424 43.9783 0.951797C44.0034 1.52576 43.8716 2.06269 43.8402 2.61814C43.3003 2.58728 42.7793 2.55642 42.2521 2.51939C42.2207 2.64282 42.1956 2.7354 42.1705 2.82797C42.2521 2.97609 42.3274 3.11187 42.409 3.24147C42.5094 3.39576 42.5094 3.55005 42.4655 3.71669C42.3839 4.01292 42.3086 4.30916 42.2269 4.6054C42.1077 5.03741 41.9884 5.4756 41.8252 5.90144C41.8252 5.77184 41.8252 5.6484 41.8252 5.54966C41.8754 5.45091 41.9256 5.38302 41.9445 5.30896C42.0198 5.0189 42.0888 4.72883 42.1579 4.43877C42.2332 4.13018 42.3023 3.8216 42.3902 3.46365C42.3023 3.35256 42.1956 3.21061 42.0826 3.05632C41.9256 3.14272 41.8629 3.25381 41.8127 3.4081C41.9194 3.51919 42.0324 3.64263 42.1516 3.76606C42.114 3.79075 42.0889 3.80309 42.0386 3.83395C42.0135 3.7784 41.9821 3.71669 41.9445 3.63028C41.8692 3.72286 41.8252 3.75372 41.8252 3.78457C41.7938 3.98824 41.7687 4.1919 41.7499 4.39556C41.6997 4.93867 41.6557 5.48177 41.5992 6.0187C41.5239 6.76547 41.4486 7.51223 41.3733 8.25283C41.323 8.77125 41.2728 9.29584 41.2289 9.81425C41.1849 10.3142 41.1347 10.8141 41.0908 11.3201C41.0908 11.351 41.0657 11.3757 41.0531 11.4004L41.0594 11.4065C41.0971 10.9066 41.1347 10.4067 41.1787 9.90065C41.2226 9.38841 41.2728 8.87616 41.3168 8.37009C41.3733 7.73441 41.4297 7.10491 41.4862 6.46923C41.4925 6.41986 41.48 6.37048 41.48 6.31494C41.3544 6.26557 41.2414 6.22237 41.1096 6.17299C40.9966 6.33345 41.0029 6.52477 40.9841 6.69758C40.8836 7.56161 40.8271 8.43798 40.7079 9.30201C40.6263 9.88214 40.7141 10.4499 40.7581 11.0177C40.7706 11.209 40.7518 11.4065 40.7581 11.5979C40.7644 11.8571 40.7518 12.1224 40.9025 12.4187C40.9338 12.2891 40.9527 12.2274 40.9652 12.1595C41.028 12.3076 40.8836 12.4989 41.1033 12.6285C41.1284 12.5113 41.1661 12.4187 41.1724 12.3199C41.2226 11.8015 41.2665 11.2769 41.3168 10.7585C41.367 10.2463 41.4235 9.74019 41.4737 9.22795C41.5302 8.68484 41.5741 8.14174 41.6306 7.60481C41.662 7.30857 41.7059 7.01851 41.7436 6.72227L41.7373 6.7161C41.6746 7.47521 41.6181 8.23432 41.5553 8.98725C41.5114 9.4995 41.4611 10.0117 41.4109 10.524C41.3607 11.0239 41.3042 11.5238 41.254 12.0237C41.2352 12.2274 41.2226 12.431 41.2038 12.6223C41.3544 12.9433 41.4988 13.2518 41.6432 13.5666C41.7185 13.6036 41.7938 13.6345 41.8691 13.6715C41.8817 13.7024 41.9005 13.7271 41.9068 13.7579C41.9508 13.9678 41.9884 14.1776 42.0198 14.3936C42.0324 14.4923 42.0324 14.5973 42.0261 14.7022C42.0135 14.875 42.0386 15.0231 42.1642 15.1589C42.2207 15.2206 42.2646 15.2947 42.2834 15.3687C42.3399 15.5786 42.2395 15.7328 42.0198 15.776C41.888 15.8007 41.7499 15.8254 41.6181 15.8316C40.7644 15.8748 39.9107 15.9612 39.0633 15.7205C38.8373 15.6588 38.5862 15.665 38.3477 15.6464C38.0777 15.6279 37.8078 15.6094 37.5379 15.5971C37.3056 15.5847 37.0922 15.5847 36.8662 15.6896C36.521 15.8501 36.1506 15.7946 35.7866 15.7452C35.705 15.7328 35.6234 15.7082 35.5229 15.6896C35.4853 15.6341 35.4476 15.5662 35.3911 15.4798C35.2404 15.4304 35.071 15.3811 34.9078 15.3317C34.8199 15.1527 34.8073 14.9922 34.8324 14.8071C34.914 14.1344 34.9705 13.4617 35.0521 12.7828C35.1337 12.0669 35.2216 11.3572 35.3095 10.6412C35.366 10.1907 35.6296 9.8698 35.9874 9.61676C36.0565 9.56739 36.1255 9.52418 36.2009 9.48716C36.3578 9.40075 36.4519 9.27115 36.4896 9.10451C36.5022 9.0428 36.5273 8.98725 36.5461 8.92554C36.6026 8.6725 36.7281 8.46884 36.9541 8.32689C37.224 8.16026 37.3308 7.92573 37.2994 7.62332C37.2554 7.22834 37.2115 6.82718 37.1675 6.4322C37.1613 6.37048 37.1487 6.3026 37.111 6.2594C36.8851 6.00636 36.9039 5.71012 36.9604 5.41388C36.9667 5.39537 36.9541 5.37685 36.9416 5.32131C36.703 5.52497 36.5461 5.77184 36.3515 5.99402C36.1569 6.21002 35.9749 6.4322 35.8179 6.61118C35.774 6.90124 35.7489 7.14811 35.6987 7.38263C35.5794 7.95659 35.435 8.52438 35.3283 9.09834C35.2656 9.4131 35.1463 9.66613 34.8262 9.75871C34.7006 10.3697 34.5813 10.9622 34.4495 11.6102C34.4809 11.6287 34.5562 11.6596 34.6065 11.7089C34.8701 11.9928 34.8952 12.2212 34.6629 12.5359C34.1671 13.2086 33.6523 13.869 33.1439 14.5417C32.9995 14.733 32.8049 14.7207 32.5978 14.7145C32.5036 14.6652 32.4094 14.6096 32.309 14.5541C31.7943 14.9984 31.2858 15.4428 30.6895 15.7946C30.0806 15.5045 29.6224 15.0354 29.0888 14.6528C28.8754 14.6775 28.6808 14.8318 28.4172 14.7824C28.3795 14.733 28.3481 14.6775 28.3104 14.6281C27.7769 13.9801 27.2496 13.3321 26.716 12.6841C26.4085 12.3138 26.465 11.9867 26.8667 11.6966C26.8855 11.6843 26.8918 11.6657 26.9106 11.6472C26.7914 11.0671 26.6658 10.487 26.5403 9.88831C26.5403 9.88831 26.5277 9.86362 26.5152 9.85745C26.1072 9.6723 26.0256 9.30201 25.9565 8.91937C25.8749 8.48735 25.7807 8.05534 25.6929 7.62332C25.6803 7.56778 25.6489 7.51224 25.6238 7.45669C25.2221 7.53692 25.04 7.72824 24.9773 8.09854C24.9396 8.33306 24.8706 8.56141 24.8203 8.79593C24.7387 8.84531 24.6634 8.89468 24.5755 8.94405C24.5441 9.086 24.4311 9.22178 24.5128 9.35138C24.6571 9.48716 24.7764 9.59824 24.9082 9.72168C24.9835 9.77722 25.0903 9.84511 25.1844 9.92534C25.3539 10.0611 25.5171 10.2031 25.6929 10.3327C25.9942 10.5672 26.1574 10.8758 26.1385 11.2399C26.1134 11.7336 26.2327 12.1965 26.3143 12.6717C26.3896 13.1037 26.5214 13.5357 26.5842 13.9678C26.6784 14.5911 27.0299 15.0416 27.4944 15.4304C27.576 15.4983 27.6639 15.5539 27.7329 15.6279C27.8585 15.7575 27.8773 15.8871 27.802 16.0229C27.7329 16.1463 27.5886 16.2142 27.4254 16.1772C27.2119 16.1278 27.0048 16.0661 26.8479 15.8871C26.7035 15.7205 26.5403 15.5971 26.308 15.5415C26.0256 15.4736 25.9 15.2268 25.9816 14.9367C26.0569 14.6775 26.0067 14.4677 25.8435 14.2517C25.5171 13.8073 25.2535 13.3259 25.153 12.7766C25.1028 12.5174 25.0903 12.2459 25.0589 11.9805C25.0463 11.8941 25.0651 11.7892 24.9145 11.7336C24.8831 11.9867 24.8266 12.2335 24.8329 12.4681C24.8517 13.1037 24.9082 13.7394 24.9459 14.3751C24.971 14.7762 24.9898 15.1712 25.0149 15.5539C24.9208 15.702 24.7889 15.6896 24.6634 15.6896C24.2114 15.6896 23.7658 15.6773 23.3138 15.6896C22.8681 15.702 22.4162 15.7452 21.9705 15.7575C21.6252 15.7699 21.28 15.7575 20.9034 15.7575C20.9159 15.881 20.9222 16.0044 20.9348 16.134C20.8155 16.2266 20.6962 16.1957 20.5581 16.171C20.5205 16.0538 20.4828 15.9427 20.4389 15.8192C20.1815 15.7514 19.8865 15.8995 19.6668 15.6896C19.3592 15.7514 19.0893 15.9365 18.7252 15.8439C18.6436 15.7082 18.5494 15.5477 18.4678 15.4119C18.4992 15.0478 18.8382 14.8873 18.8884 14.5294C18.8633 14.4553 18.8319 14.3381 18.7691 14.2331C18.5118 13.7888 18.5306 13.3259 18.6938 12.863C18.7754 12.6285 18.8884 12.4063 18.9888 12.1842C19.1332 11.8632 19.2776 11.5485 19.4345 11.2337C19.5098 11.0856 19.6103 10.956 19.7233 10.7894C19.6793 10.4808 19.6291 10.1352 19.5726 9.75254C19.3843 9.5859 19.1771 9.40075 18.9637 9.2156C18.9386 8.52438 18.9135 7.85785 18.8947 7.19131C18.8884 7.06171 18.901 6.91976 18.9386 6.79633C19.0453 6.46306 19.0391 6.13596 18.9763 5.79652C18.8884 5.35217 18.8382 4.90781 18.7629 4.43259C18.6122 4.43259 18.4804 4.42642 18.3486 4.42642C17.9531 4.42642 17.7773 4.30299 17.7208 3.93269C17.589 3.03781 17.4635 2.14292 17.3379 1.24804C17.3317 1.19866 17.3379 1.14929 17.3756 1.08757C17.5388 1.63685 17.7083 2.18612 17.8652 2.74157C17.9594 3.05632 18.0347 3.37725 18.1289 3.692C18.1602 3.79692 18.1728 3.92652 18.3297 3.92652C18.2607 3.94504 18.1979 3.96355 18.0975 3.98824C17.9531 3.45748 17.815 2.94523 17.6769 2.43916C17.6643 2.95758 17.7648 3.45131 17.8589 3.95121C17.8778 4.06847 17.9468 4.17339 17.9908 4.28448C18.0912 4.30916 18.1791 4.36471 18.2481 4.35236C18.7001 4.28448 19.1458 4.20424 19.5601 4.13018C19.7358 3.95121 19.7798 3.79075 19.7484 3.58708C19.7044 3.32787 19.6982 3.05632 19.6479 2.79711C19.5977 2.56259 19.6479 2.30338 19.5098 2.0812C19.5036 2.04417 19.4973 2.00097 19.491 1.96394C19.4785 1.97012 19.4659 1.97012 19.4533 1.97629C19.4722 2.00715 19.491 2.04417 19.5098 2.07503C19.5098 2.63665 19.5098 3.19827 19.5098 3.7784C19.3529 3.80309 19.196 3.82777 19.0139 3.85863C18.8821 3.29084 18.7566 2.70454 18.6248 2.11823C18.5745 2.72305 18.7126 3.31553 18.7315 3.93886C18.5871 3.95738 18.4553 3.96972 18.3235 3.98207ZM43.0555 2.00715C43.0555 2.15526 43.0555 2.30955 43.0555 2.48853C43.2878 2.50088 43.4949 2.61196 43.7586 2.55642C43.7837 2.35276 43.8088 2.15526 43.8339 1.92691C43.5765 1.88371 43.3568 1.85285 43.1497 1.81582C43.1058 1.90223 43.0744 1.95777 43.0493 2.01332C43.0367 1.9516 43.0304 1.89606 43.0116 1.80965C42.7856 1.7788 42.5659 1.74794 42.3274 1.71708C42.2709 1.98863 42.2332 2.21698 42.2521 2.45767C42.5596 2.52556 42.704 2.51939 42.9488 2.43916C42.9928 2.29721 43.0241 2.14909 43.0555 2.00715ZM23.5335 10.4623C23.9164 10.2648 24.3056 10.0735 24.6885 9.78957C24.6132 9.71551 24.5504 9.65379 24.5065 9.61059C23.6088 9.88214 22.5166 10.4067 22.1149 10.7647C22.2027 10.7894 22.2781 10.8326 22.3597 10.8326C22.7551 10.8387 23.1506 10.8449 23.5523 10.8326C23.7281 10.8264 23.8913 10.7585 24.042 10.6474C24.2617 10.487 24.4876 10.345 24.7136 10.1907C24.7889 10.1413 24.8517 10.0796 24.9208 10.0179C24.9082 9.9994 24.9019 9.98089 24.8894 9.9562C24.8078 9.98089 24.7199 9.9994 24.6383 10.0364C24.45 10.1228 24.2679 10.2278 24.0733 10.3018C23.8976 10.3697 23.7093 10.4067 23.5335 10.4623ZM35.6296 10.1969C35.4162 10.3327 35.4099 10.5548 35.3848 10.7709C35.3095 11.3695 35.2404 11.9743 35.1714 12.573C35.0961 13.1963 35.0207 13.8135 34.9517 14.4368C34.9266 14.6713 34.914 14.9058 34.8889 15.1404C35.071 15.3317 35.2907 15.3934 35.5229 15.3379C35.7175 15.2885 35.8996 15.2021 35.9058 14.9552C35.7803 14.7207 35.5229 14.6405 35.3158 14.5047C35.3472 14.122 35.3785 13.7394 35.4037 13.3629C35.4288 12.9865 35.4476 12.6038 35.479 12.2274C35.5355 11.567 35.5292 10.8943 35.6736 10.2401C35.6736 10.2216 35.6798 10.2092 35.6798 10.1907C35.661 10.1907 35.6422 10.1907 35.6296 10.1969ZM21.3993 11.5732C21.4495 11.5793 21.506 11.5855 21.5562 11.5979C21.9077 11.6966 22.2341 11.6596 22.5543 11.4868C22.8116 11.3448 23.069 11.2214 23.3326 11.0856C23.3766 11.0609 23.408 11.0239 23.4456 10.993C23.2385 10.9437 23.0439 10.9251 22.8493 10.9437C22.1651 10.9992 21.5248 10.8573 20.9159 10.5487C20.872 10.524 20.8218 10.5055 20.7716 10.487C20.6962 10.4623 20.6146 10.4499 20.4828 10.4129C20.3824 10.5302 20.2757 10.6474 20.1627 10.777C20.2254 11.1844 20.2694 11.5793 20.3447 11.9681C20.3761 12.1101 20.4451 12.2706 20.5456 12.3755C20.8594 12.6964 21.2235 12.9618 21.6441 13.1284C21.9391 13.2457 22.2216 13.2333 22.4789 12.9926C23.364 12.1656 24.2617 11.351 25.153 10.524C25.2158 10.4623 25.2723 10.3882 25.3413 10.308C25.2786 10.2586 25.2409 10.2339 25.1781 10.1845C24.9396 10.308 24.6948 10.4191 24.4688 10.561C23.7658 10.9807 23.1067 11.4806 22.3534 11.8139C21.9203 12.0052 21.6817 11.9496 21.3993 11.5732ZM38.4104 4.04378C38.3853 4.1919 38.266 4.25979 38.1279 4.34619C37.902 4.31533 37.6572 4.28448 37.4124 4.2351C37.1989 4.1919 37.0357 4.2351 36.8662 4.37088C36.408 4.72883 36.0753 5.18553 35.7489 5.65458C35.6547 5.79035 35.5606 5.91996 35.4601 6.06807C35.2593 6.05573 35.071 6.05573 34.8889 6.0187C34.5437 5.95081 34.1922 5.87675 33.8532 5.78418C33.5896 5.71012 33.3761 5.77184 33.1564 5.95699C33.282 6.03722 33.4012 6.01253 33.5079 6.00636C33.7904 5.98784 34.0415 6.04956 34.2926 6.17916C34.5688 6.32111 34.8575 6.44454 35.1463 6.5618C35.2844 6.61735 35.4413 6.64821 35.6108 6.70375C36.0753 6.12362 36.5273 5.562 36.9918 4.98804C37.1048 5.16085 37.0797 5.32131 37.0483 5.48177C37.0106 5.69778 36.9855 5.90761 37.1048 6.09276C37.381 6.32111 37.6383 6.14831 37.9459 6.03722C37.8769 6.19768 37.8392 6.29643 37.7953 6.40134C37.6446 6.44454 37.5065 6.48157 37.3308 6.53095C37.3496 6.75313 37.3747 6.9753 37.3872 7.19748C37.3998 7.41349 37.381 7.6295 37.3998 7.8455C37.4186 8.06768 37.2994 8.28369 37.381 8.52438C37.7325 8.39478 38.0338 8.23432 38.1719 7.89488C38.3916 7.35794 38.4795 6.79016 38.5799 6.24088C38.5109 6.14831 38.4544 6.08042 38.3728 5.9755C38.4732 6.02487 38.5297 6.04956 38.6238 6.09276C38.7306 5.63606 38.8247 5.21022 38.9252 4.77203C38.8498 4.75969 38.7933 4.74735 38.7117 4.72883C38.6741 4.34002 38.6364 3.95121 38.4293 3.6488C38.4293 3.43279 38.4418 3.25381 38.423 3.08101C38.4104 2.93289 38.3665 2.7786 38.3163 2.63665C38.2723 2.51322 38.1656 2.43299 38.0275 2.43299C37.8329 2.43299 37.6321 2.44533 37.4751 2.56259C37.4751 2.74157 37.4751 2.89586 37.4751 3.06249C37.563 3.03781 37.6195 3.02546 37.6948 3.00695C37.7388 3.06249 37.7827 3.11187 37.8204 3.15507C37.8141 3.27233 37.8015 3.37725 37.7953 3.46365C37.8455 3.52537 37.8831 3.58091 37.9334 3.6488C37.858 3.66731 37.8141 3.67966 37.7513 3.69817C37.7262 3.53771 37.7011 3.39576 37.676 3.21678C37.4877 3.54388 37.5756 3.82777 37.9334 4.15487C38.128 4.2351 38.2535 4.08698 38.4104 4.04378ZM23.9729 12.7519C23.929 12.8939 23.8976 13.0482 23.8536 13.1963C23.6277 13.8999 23.3954 14.6034 23.1694 15.307C23.138 15.4119 23.1129 15.5168 23.0753 15.6403C23.3954 15.7082 23.6904 15.6773 23.9792 15.6711C24.2742 15.665 24.5755 15.7267 24.8957 15.6218C24.8705 15.5107 24.8517 15.4181 24.8266 15.3317C24.745 15.0231 24.6508 14.7207 24.5881 14.4059C24.5379 14.1776 24.4876 13.9307 24.519 13.7085C24.632 12.9062 24.7827 12.1101 24.9145 11.3078C24.9333 11.1844 24.9522 11.0547 24.9898 10.8573C24.8329 10.9807 24.7262 11.0486 24.6383 11.135C24.337 11.4312 24.0357 11.7336 23.7407 12.036C23.5084 12.2706 23.295 12.5298 23.0502 12.7519C22.7614 13.005 22.4538 13.2333 22.14 13.4493C21.9203 13.6036 21.6629 13.5913 21.4746 13.4247C21.1733 13.1716 20.8908 12.9001 20.5958 12.6347C20.5581 12.5977 20.5142 12.5606 20.4263 12.4804C20.464 12.7396 20.4954 12.9309 20.5079 13.1222C20.5205 13.3259 20.577 13.5049 20.6774 13.6777C20.872 14.0171 21.0603 14.3627 21.2486 14.7022C21.3804 14.9429 21.462 15.1897 21.3302 15.4675C21.3051 15.5168 21.3177 15.5786 21.3114 15.665C21.6566 15.665 21.983 15.6896 22.2969 15.6526C22.4915 15.6279 22.7049 15.5477 22.7928 15.3379C22.6484 14.9429 22.4413 14.8441 21.801 14.8688C21.8701 14.7948 21.914 14.7269 21.9768 14.6837C22.1714 14.5602 22.2781 14.3874 22.3848 14.1899C22.7049 13.6221 23.0816 13.0976 23.5398 12.6223L23.5335 12.6162C23.477 12.7273 23.4331 12.8383 23.364 12.9433C23.1945 13.1901 23.0125 13.4247 22.8493 13.6777C22.7049 13.8999 22.5668 14.1344 22.4538 14.3751C22.3534 14.5849 22.3911 14.7207 22.5731 14.8626C22.6924 14.9552 22.8242 15.0354 22.9686 15.1342C23.0062 15.054 23.0439 14.9922 23.069 14.9305C23.1506 14.7207 23.2322 14.5109 23.3138 14.2949C23.5021 13.7764 23.6842 13.2395 23.9729 12.7519ZM36.7156 11.388C36.7532 11.4621 36.7972 11.53 36.8349 11.604C37.0043 11.9558 37.155 12.3199 37.337 12.6655C37.6007 13.1778 37.9961 13.5666 38.5548 13.7641C38.9189 13.8937 39.2892 13.9369 39.647 13.7517C40.055 13.5357 40.3187 13.184 40.5949 12.8198C40.4693 12.8013 40.3626 12.8013 40.2559 12.8322C40.0362 12.8939 39.8165 12.9618 39.5968 13.0358C39.057 13.2086 38.6301 13.1037 38.2786 12.6285C37.8894 12.1039 37.5253 11.567 37.2115 10.9992C37.0859 10.777 37.0043 10.5363 36.9039 10.3018C36.9227 10.2956 36.9416 10.2833 36.9604 10.2771C37.0859 10.5055 37.2115 10.7338 37.3308 10.9683C37.6446 11.567 38.0966 12.0422 38.6552 12.4248C38.831 12.5421 39.0193 12.6409 39.2327 12.6409C39.6596 12.6409 40.0864 12.6223 40.5196 12.6038C40.5886 12.6038 40.6577 12.5668 40.7581 12.5421C40.7079 12.252 40.6828 11.9743 40.5572 11.6781C40.1931 11.6596 39.8291 11.6411 39.465 11.6349C39.2453 11.6287 39.0444 11.5732 38.8875 11.4374C38.6364 11.2152 38.3979 10.993 38.1656 10.7585C37.9145 10.4993 37.6823 10.2216 37.4312 9.9562C37.3559 9.87597 37.2554 9.80808 37.1487 9.77722C36.9102 9.70316 36.6654 9.64762 36.4268 9.5859C36.3264 9.64762 36.2448 9.70933 36.1506 9.75254C35.8493 9.89448 35.7426 10.1537 35.7112 10.4561C35.661 10.9683 35.6234 11.4806 35.5857 11.9928C35.5418 12.5791 35.5041 13.1593 35.4727 13.7456C35.4601 13.9307 35.4727 14.1097 35.4727 14.3134C35.6234 14.4059 35.7803 14.5047 35.9686 14.6158C35.9749 14.48 35.9874 14.3874 35.9874 14.2949C35.9874 13.9739 35.9812 13.6592 35.9874 13.3383C36.0063 12.5545 36.0251 11.7707 36.0502 10.9869C36.1004 11.425 36.1255 11.8694 36.1381 12.3076C36.1506 12.8939 36.1506 13.4802 36.1632 14.0665C36.1695 14.3813 36.1946 14.696 36.2134 14.9799C36.4519 15.0725 36.6716 15.1218 36.8411 15.2453C37.0671 15.4057 37.2931 15.4428 37.5505 15.3934C37.7074 15.3625 37.858 15.3687 38.015 15.4119C38.3288 15.4983 38.6427 15.5724 38.9565 15.6464C39.5403 15.776 40.1304 15.8316 40.733 15.776C41.1159 15.4551 41.4988 15.1342 41.8754 14.8256C41.9884 14.4738 41.7624 14.1714 41.7875 13.832C41.6808 13.8875 41.6055 13.9431 41.5365 14.0171C41.2979 14.264 41.0657 14.5109 40.8334 14.7639C40.5886 15.0293 40.3187 15.0786 39.986 14.9244C39.5089 14.696 39.0256 14.48 38.536 14.264C38.0275 14.0356 37.6823 13.6468 37.4375 13.1654C37.268 12.826 37.1048 12.4804 36.9604 12.1286C36.8537 11.8817 36.7972 11.6287 36.7156 11.388C36.7156 11.388 36.7219 11.388 36.7156 11.388ZM34.6881 12.1163C34.6378 12.0299 34.6316 11.999 34.6065 11.9805C34.4997 11.8817 34.393 11.7892 34.2926 11.6966C34.4307 11.0486 34.5688 10.4129 34.7132 9.75254C35.184 9.51801 35.3095 9.01811 34.7257 8.6725C34.7571 8.20963 34.7948 7.74676 34.8262 7.29623C34.6065 7.11108 34.4056 6.95062 34.1671 6.75313C34.211 7.09874 34.2549 7.40115 34.2738 7.70356C34.3114 8.1726 34.3554 8.64781 34.3554 9.11686C34.3491 9.57973 34.2926 10.0364 34.2549 10.4993C34.1984 11.1288 34.0227 11.7336 33.6963 12.2829C33.4954 12.6162 33.2757 12.9494 33.0309 13.2518C32.3529 14.0727 31.5432 14.7454 30.633 15.3255C29.7856 14.7084 28.9695 14.0665 28.2728 13.295C27.7267 12.6902 27.3751 11.9867 27.1868 11.2029C26.8855 9.94386 26.9483 8.6725 27.0927 7.40115C27.1178 7.16045 27.1554 6.91976 27.1868 6.67907C27.168 6.67289 27.1492 6.66672 27.1303 6.65438C26.9169 6.85804 26.6972 7.05553 26.4901 7.25303C26.5277 7.77762 26.5591 8.27752 26.5905 8.79593C26.308 8.85148 26.1636 9.01194 26.1636 9.27115C26.1636 9.56739 26.4147 9.64145 26.6407 9.74636C26.6972 10.0858 26.7474 10.4191 26.8039 10.7523C26.8541 11.0918 27.0362 11.4065 27.0487 11.7521C26.9546 11.8139 26.8855 11.8571 26.8228 11.9064C26.6093 12.0916 26.5905 12.3014 26.7474 12.5359C26.7663 12.5606 26.7851 12.5853 26.8039 12.61C27.1743 13.0729 27.5446 13.5296 27.9087 13.9924C27.9526 14.048 27.984 14.1159 28.028 14.1776C28.141 14.0356 28.2163 13.9431 28.2979 13.8382C29.0825 14.4862 29.8232 15.1404 30.6644 15.665C31.5306 15.1342 32.2651 14.4677 33.0183 13.7641C33.1313 13.8999 33.2255 14.011 33.3322 14.1467C33.7528 13.5913 34.1671 13.0544 34.5625 12.4989C34.6441 12.3878 34.6504 12.2335 34.6881 12.1163ZM23.8034 4.90781C23.6339 4.88312 23.5021 4.85844 23.3703 4.85226C23.0125 4.83375 22.8807 4.50048 22.617 4.28448C22.6108 4.38322 22.5982 4.43259 22.5982 4.48197C22.6484 5.13616 22.7112 5.79035 22.7551 6.44454C22.7865 6.90124 22.9748 7.27771 23.2824 7.59864C23.4519 7.77762 23.6528 7.91956 23.885 7.99979C23.9164 7.96894 23.9415 7.95042 23.9415 7.93808C23.9666 7.53692 23.9855 7.14194 24.0043 6.73461C23.8976 6.66055 23.8034 6.58649 23.6967 6.52478C23.6026 6.46923 23.4519 6.50009 23.4142 6.33345C23.4958 6.35197 23.5649 6.36431 23.6339 6.38283C23.703 6.40134 23.772 6.41986 23.8474 6.4322C24.0859 6.46923 24.2303 6.39517 24.3182 6.17916C24.3935 6.00019 24.4374 5.80887 24.5002 5.62372C24.5316 5.52497 24.563 5.42623 24.5881 5.33365C24.7576 5.5188 24.9019 5.69778 25.0714 5.83972C25.2472 5.98784 25.4543 6.1051 25.6489 6.23471C25.4104 6.61118 25.1907 6.96296 24.9647 7.30857C24.858 7.46903 24.7387 7.62332 24.632 7.78996C24.5818 7.87636 24.5253 7.96894 24.519 8.06768C24.5065 8.28369 24.519 8.4997 24.5316 8.7157C24.5316 8.7589 24.5692 8.80211 24.6132 8.89468C24.6697 8.77742 24.7136 8.70953 24.7325 8.63547C24.7827 8.45649 24.8454 8.27752 24.858 8.09854C24.8706 7.8455 25.0149 7.69738 25.197 7.54309C25.5359 7.25303 25.8561 6.95062 26.1762 6.64204C26.3017 6.5186 26.4022 6.37048 26.4147 6.17916C26.2515 5.76567 25.9502 5.45708 25.6301 5.16085C25.4292 4.98187 25.2158 4.81524 25.04 4.61157C24.7576 4.29682 24.4249 4.21042 24.0231 4.30299C23.9541 4.48814 23.885 4.67946 23.8034 4.90781ZM30.6518 15.128C30.7648 15.054 30.8778 14.9799 30.9908 14.8997C31.5495 14.4985 32.0642 14.048 32.5538 13.5666C33.6084 12.5236 34.1357 11.2646 34.2173 9.81425C34.28 8.70953 34.1796 7.61715 34.0164 6.53095C33.9976 6.41369 33.9536 6.3026 33.9222 6.20385C33.4891 6.15448 27.6702 6.16682 27.4128 6.22237C27.394 6.30877 27.3626 6.40751 27.35 6.50626C27.281 7.06788 27.2119 7.6295 27.1492 8.18494C27.055 9.02428 27.0676 9.86363 27.2245 10.703C27.3877 11.6102 27.7329 12.4372 28.3356 13.1531C28.9695 13.906 29.7165 14.5232 30.5263 15.0725C30.5451 15.091 30.5828 15.0972 30.6518 15.128ZM19.8488 6.83336C19.6919 7.22217 19.6228 7.61098 19.7421 8.01214C19.7547 8.04917 19.7421 8.09237 19.7546 8.13557C19.8425 8.4997 19.8111 8.89468 20.0748 9.20943C20.1187 9.25881 20.1313 9.34521 20.125 9.4131C20.1062 9.56121 20.0685 9.70933 20.0308 9.90683C20.0999 10.0673 20.0057 10.3203 20.1815 10.524C20.3949 10.3574 20.5644 10.1845 20.6962 9.97471C20.8092 9.78957 20.9473 9.6291 21.1419 9.51184C21.2298 9.4563 21.2926 9.35138 21.3553 9.27732C21.3365 9.19709 21.3302 9.14772 21.3177 9.09834C21.2549 8.85765 21.2298 8.62313 21.2863 8.37009C21.3993 7.82699 21.4872 7.28389 21.5876 6.74078C21.5248 6.59266 21.4746 6.45072 21.4055 6.31494C21.3365 6.17299 21.3428 5.99402 21.1796 5.88293C20.7402 6.19768 20.3008 6.51243 19.8488 6.83336ZM21.9768 8.84531C22.0395 7.69738 22.1023 6.55563 22.1714 5.40771C22.209 5.44474 22.2153 5.48794 22.2216 5.52497C22.253 6.19768 22.4099 6.8457 22.5794 7.49372C22.7049 7.96894 22.9372 8.37626 23.4205 8.57993C23.7093 8.70336 23.998 8.81445 24.2868 8.93171C24.3182 8.94405 24.3621 8.92554 24.4374 8.91937C24.406 8.77742 24.3747 8.65399 24.3495 8.54907C24.0985 8.38861 23.885 8.24049 23.6653 8.10471C23.2761 7.85785 22.9937 7.52458 22.8054 7.10491C22.6673 6.79016 22.6359 6.45072 22.6108 6.11128C22.5794 5.67309 22.5543 5.22873 22.5229 4.79055C22.5103 4.57454 22.4852 4.35853 22.4601 4.1487C22.4538 4.11167 22.4225 4.08081 22.3911 4.03761C22.3095 4.0623 22.2341 4.08698 22.1463 4.11784C22.1211 4.2351 22.0898 4.34619 22.0709 4.45728C21.8449 5.75949 21.619 7.06788 21.3993 8.37626C21.3742 8.50587 21.3679 8.64164 21.3804 8.77742C21.3993 9.01194 21.4432 9.24029 21.4746 9.48098C21.6943 9.57356 22.3095 9.62293 22.5292 9.56122C22.5292 8.9996 22.5605 8.43181 22.5166 7.87019C22.4915 7.53692 22.3534 7.20983 22.2592 6.87656C22.2404 6.87656 22.2153 6.88273 22.1965 6.88273C22.1839 7.53692 22.1965 8.20963 21.9768 8.84531ZM27.6764 16.0167C27.7518 15.8316 27.6388 15.7575 27.5509 15.6711C27.2873 15.4119 27.0236 15.1465 26.76 14.8812C26.647 14.7701 26.5905 14.6281 26.5591 14.4738C26.4901 14.0788 26.4085 13.6839 26.3331 13.295C26.2013 12.6285 26.0256 11.9681 26.013 11.2893C26.0067 10.8758 25.787 10.6289 25.4355 10.4376C25.0086 10.6968 25.1154 11.1412 25.0275 11.5053C25.0965 11.6966 25.1467 11.8817 25.1719 12.0731C25.2158 12.5051 25.2535 12.9309 25.4606 13.3259C25.6489 13.6839 25.8184 14.048 26.013 14.3998C26.1009 14.5602 26.1323 14.7207 26.1197 14.8997C26.1072 15.0293 26.1197 15.1651 26.1197 15.3193C26.2139 15.3749 26.308 15.4428 26.4085 15.486C26.6031 15.5724 26.7788 15.6711 26.9232 15.8316C26.9734 15.8871 27.0299 15.9303 27.0864 15.9735C27.2622 16.134 27.463 16.134 27.6764 16.0167ZM29.7981 5.56817C30.3756 5.56817 30.9343 5.56817 31.493 5.56817C31.6122 5.32131 31.7252 5.09296 31.8508 4.84609C32.0705 4.84609 32.2776 4.85844 32.4848 4.83992C32.6856 4.82758 32.8991 4.91398 33.0874 4.75352C33.0685 4.68563 33.0623 4.62391 33.0372 4.56837C33.0121 4.50048 32.9744 4.44494 32.943 4.38939C32.6354 4.33385 28.6682 4.34002 28.3858 4.40174C28.3418 4.51283 28.2979 4.64243 28.2351 4.80289C28.6682 4.89547 29.0825 4.79055 29.4717 4.87695C29.591 5.11147 29.6977 5.33365 29.7981 5.56817ZM22.5543 3.25381C22.5543 3.42045 22.5543 3.59325 22.5543 3.75989C22.5354 3.76606 22.5229 3.76606 22.5041 3.77223C22.7112 4.08698 22.9183 4.40174 23.1192 4.71649C23.3452 4.69797 23.5523 4.80906 23.7658 4.69797C23.7846 4.6054 23.8034 4.50665 23.8223 4.39556C23.6779 4.36471 23.5523 4.34002 23.4268 4.31533C23.4268 4.30299 23.4268 4.29065 23.4268 4.2783C23.5398 4.25362 23.6591 4.2351 23.7658 4.21659C23.8913 3.98207 24.0043 3.77223 23.9792 3.52537C23.9666 3.42045 23.9541 3.31553 23.7783 3.31553C23.772 3.48834 23.7595 3.65497 23.7532 3.84629C23.6528 3.81543 23.5837 3.79692 23.4958 3.76606C23.5649 3.71051 23.6151 3.66731 23.6653 3.62411C23.6591 3.43896 23.521 3.24764 23.7281 3.09952C23.7909 3.09335 23.8599 3.09335 23.929 3.08718C23.929 2.96375 23.929 2.865 23.929 2.76626C23.9666 2.75391 23.9917 2.74157 24.0357 2.72305C24.0357 2.56876 24.0357 2.4083 24.0357 2.2355C23.8599 2.08738 23.6842 1.94543 23.5586 1.84051C23.2071 1.74794 22.9435 1.89606 22.6673 1.92074C22.435 1.94543 22.253 2.04418 22.1839 2.17995C22.1149 2.48236 22.0647 2.69837 22.0144 2.93289C22.1086 3.27233 22.1274 3.29702 22.3785 3.28467C22.4413 3.1489 22.4915 3.00078 22.5605 2.865C22.661 2.67985 22.8116 2.57493 23.0376 2.58111C23.2322 2.58728 23.4331 2.58111 23.6277 2.58111C23.3891 2.72305 23.1318 2.63048 22.8807 2.67985C22.6673 2.79094 22.5982 3.00695 22.5543 3.25381ZM36.5775 9.39458C37.0106 9.33904 37.4312 9.29584 37.8329 9.14154C37.8894 9.11686 37.9522 9.09217 37.9961 9.04897C38.3665 8.66633 38.7243 8.27752 38.8687 7.75293C39.1511 6.69141 39.3708 5.61137 39.4838 4.519C39.5027 4.35853 39.4838 4.19807 39.4838 4.03144C39.3081 4.0191 39.2265 4.09933 39.1888 4.22893C39.1511 4.36471 39.1135 4.50665 39.0821 4.6486C38.8498 5.64223 38.6301 6.62969 38.3916 7.61715C38.3477 7.79613 38.2912 7.98745 38.1782 8.12323C37.8894 8.47501 37.5253 8.72805 37.0546 8.79593C36.9416 8.81445 36.8349 8.84531 36.7156 8.86999C36.6591 9.03045 36.5398 9.1724 36.5775 9.39458ZM19.3717 12.141C19.3717 12.1842 19.378 12.2212 19.3717 12.2644C19.2588 13.0482 19.152 13.832 19.0391 14.6096C19.0139 14.7948 18.9323 14.9614 18.8068 15.1095C18.7252 15.2083 18.6624 15.3317 18.5808 15.4613C18.6624 15.5847 18.7315 15.6896 18.8131 15.8069C19.0139 15.7514 19.1897 15.702 19.3592 15.6588C19.378 15.5847 19.3906 15.5477 19.3969 15.5045C19.5224 14.7454 19.6354 13.9863 19.7735 13.2272C19.8865 12.5977 19.9367 11.9681 19.7798 11.3386C19.7672 11.2831 19.7484 11.2337 19.7295 11.172C19.5538 11.2954 19.5601 11.2954 19.491 11.4559C19.378 11.7089 19.2839 11.9743 19.1395 12.2088C18.7942 12.7705 18.7629 13.3691 18.8884 13.9924C18.8947 14.0233 18.9323 14.0418 18.9951 14.122C19.0516 13.4 19.1834 12.7643 19.3717 12.141ZM21.9454 4.29682C21.619 4.22276 21.3428 4.25979 21.1042 4.46962C20.9724 4.58688 20.8406 4.71649 20.6899 4.79672C20.464 4.91398 20.3133 5.08679 20.1878 5.29045C19.9869 5.61137 19.7986 5.95081 19.4847 6.17299C19.4847 6.45689 19.5161 6.70375 19.6228 6.99382C19.6793 6.83953 19.7233 6.73461 19.7609 6.63586C20.0308 6.46306 20.3008 6.30877 20.5519 6.12362C20.8029 5.93847 21.0352 5.71629 21.2737 5.51263C21.4118 5.78418 21.393 6.11128 21.6315 6.38283C21.7257 5.79035 21.8198 5.24108 21.9077 4.69797C21.9266 4.57454 21.9328 4.45111 21.9454 4.29682ZM40.2936 9.4563C39.8542 9.93768 39.3332 9.98706 38.8059 9.96237C38.492 9.95003 38.1844 9.89448 37.8769 9.85128C37.7702 9.83894 37.6634 9.79574 37.5065 9.85745C37.8204 10.129 38.0903 10.382 38.379 10.6166C38.6615 10.8511 38.9942 10.9992 39.3457 11.1103C39.7224 11.2276 40.099 11.3572 40.4756 11.4744C40.5258 11.4929 40.5823 11.4806 40.7141 11.4929C40.5949 11.3572 40.5321 11.2646 40.4505 11.1905C40.1492 10.9375 39.8416 10.6906 39.534 10.4438C39.4524 10.3759 39.352 10.3265 39.3143 10.1845C39.8165 10.4006 40.1806 10.74 40.6074 11.1041C40.6074 10.5116 40.4944 10.0179 40.2936 9.4563ZM41.5176 13.7394C41.3544 13.079 41.2163 12.8383 40.915 12.6841C40.7958 12.8137 40.6765 12.9556 40.5509 13.0914C40.3312 13.3383 40.1241 13.5975 39.8918 13.832C39.6533 14.0727 39.352 14.2146 38.9942 14.2023C38.944 14.2023 38.8875 14.2023 38.8059 14.2023C39.0068 14.3566 39.8353 14.7762 40.055 14.8194C40.212 14.8503 40.3815 14.8565 40.507 14.8688C40.8334 14.6219 41.254 14.1467 41.5176 13.7394ZM31.8633 3.3217C31.4302 3.25999 29.7416 3.2785 29.4968 3.34639C29.4843 3.6488 29.4654 3.95738 29.5094 4.28448C30.3003 4.28448 31.0661 4.28448 31.8571 4.28448C31.901 3.95738 31.8884 3.6488 31.8633 3.3217ZM39.9169 8.78359C40.2434 7.72824 40.2936 6.69141 40.4819 5.67309C40.2747 5.5188 40.1115 5.33982 39.8605 5.24108C39.8353 5.30896 39.804 5.35834 39.7977 5.40154C39.647 6.18534 39.4587 6.96296 39.465 7.77144C39.465 8.17877 39.6219 8.45649 39.9169 8.78359ZM37.9899 9.6723C38.0589 9.72168 38.084 9.74636 38.1091 9.75254C38.2221 9.78339 38.3288 9.81425 38.4418 9.83894C39.2076 10.0303 39.7412 9.62293 40.2496 9.16006C40.3187 9.09834 40.3501 8.98108 40.3877 8.88851C40.6074 8.32072 40.7267 7.72207 40.802 7.12342C40.8774 6.5618 40.9464 6.00019 41.1284 5.46326C41.1473 5.41388 41.1473 5.36451 41.1598 5.30279C41.0657 5.22256 41.0092 5.09913 40.8397 5.13616C40.8146 5.1917 40.7895 5.24108 40.7644 5.30279C40.5447 5.85207 40.4819 6.43837 40.4003 7.01851C40.325 7.53692 40.2245 8.04917 40.1178 8.56141C40.0802 8.75273 40.0048 8.94405 39.8416 9.07366C39.5215 9.32052 39.1888 9.54887 38.7557 9.5859C38.5234 9.60442 38.2849 9.63527 37.9899 9.6723ZM29.3525 4.88312C28.8628 4.95101 28.392 4.92632 27.9213 5.02507C27.7957 5.34599 27.6074 5.62989 27.5321 5.96933C27.6074 5.99402 27.6451 6.01253 27.6827 6.01253C28.323 6.01253 28.957 6.0187 29.5973 6.01253C29.6538 6.01253 29.704 5.9755 29.7793 5.95081C29.6349 5.59286 29.5031 5.25959 29.3525 4.88312ZM32.8488 5.99402C33.0058 5.8891 33.125 5.79035 33.2694 5.72864C33.4075 5.67309 33.5582 5.65458 33.7339 5.61755C33.6272 5.37685 33.577 5.13616 33.4515 4.95101C32.9367 4.95101 32.4534 4.95101 31.9449 4.95101C31.8131 5.28428 31.6373 5.6052 31.5306 5.95699C31.7754 6.02487 32.4032 6.04339 32.8488 5.99402ZM24.6383 5.67926C24.563 5.89527 24.519 6.08042 24.4311 6.24088C24.2868 6.50009 24.2114 6.77164 24.1738 7.05554C24.1361 7.35794 24.111 7.66653 24.0985 7.97511C24.0922 8.18494 24.1361 8.22197 24.3433 8.28369C24.3495 8.25283 24.3684 8.22814 24.3684 8.19729C24.3495 7.95659 24.4563 7.77762 24.6069 7.58629C24.9208 7.17897 25.1907 6.74078 25.492 6.29025C25.3413 6.19151 25.2032 6.1051 25.0714 6.01253C24.927 5.91378 24.8015 5.80887 24.6383 5.67926ZM32.0014 4.28448C32.2965 4.30299 32.5538 4.33385 32.83 4.26596C32.8426 3.69817 32.8551 3.14272 32.8237 2.59345C32.4848 2.52556 32.2274 2.53173 32.0014 2.61196C32.0014 3.15507 32.0014 3.70434 32.0014 4.28448ZM29.2457 2.57493C28.9507 2.53173 28.6934 2.53173 28.436 2.57493C28.3732 3.05015 28.392 4.07464 28.4674 4.28448C28.7185 4.30299 28.9695 4.32768 29.2395 4.25979C29.2457 3.70434 29.2457 3.15507 29.2457 2.57493ZM23.0878 9.93151C23.0439 9.89448 23.0125 9.85745 22.9811 9.84511C22.4036 9.65996 21.8136 9.6723 21.2235 9.69699C20.9034 9.70933 20.828 10.0117 20.6899 10.2216C20.9473 10.4623 21.1921 10.5857 21.5248 10.6598C22.0395 10.4191 22.5543 10.1784 23.0878 9.93151ZM39.3583 6.5186C39.3332 6.5186 39.3143 6.5186 39.2892 6.52478C39.2202 6.83336 39.1511 7.14194 39.0821 7.45669C38.9754 7.93191 38.8561 8.38861 38.5925 8.81445C38.3225 9.24646 37.9396 9.42544 37.45 9.4563C37.3747 9.46247 37.3056 9.4563 37.2303 9.46247C37.1801 9.46864 37.1299 9.48098 37.0232 9.50567C37.2617 9.6291 37.45 9.69082 37.6697 9.64145C37.8518 9.59824 38.0401 9.57973 38.2221 9.54887C38.5611 9.49333 38.8247 9.33904 39.0068 9.0428C39.1511 8.8021 39.2453 8.5429 39.3018 8.27135C39.3959 7.81464 39.3646 7.35177 39.3646 6.8889C39.3708 6.76547 39.3583 6.64204 39.3583 6.5186ZM20.6648 16.1834C20.6899 16.1834 20.7088 16.1895 20.7339 16.1895C20.759 16.1402 20.7967 16.0908 20.7967 16.0353C20.7967 15.9242 20.7841 15.8069 20.7653 15.6958C20.6711 15.0663 20.5707 14.4368 20.4765 13.8135C20.3196 12.7396 20.1689 11.6596 20.012 10.5857C19.9869 10.3944 19.9492 10.2031 19.9179 10.0117C19.899 9.90683 19.8488 9.8266 19.6982 9.83277C19.9995 11.8879 20.2945 13.9246 20.5895 15.9612C20.6021 16.0291 20.6397 16.1031 20.6648 16.1834ZM19.9492 12.9248C19.9116 13.1963 19.8676 13.4679 19.8425 13.7394C19.7986 14.2887 19.7735 14.8441 19.7484 15.3934C19.7421 15.4983 19.7986 15.5971 19.8174 15.6773C20.0434 15.776 20.2192 15.7946 20.3824 15.6711C20.4138 15.4119 20.1752 13.7394 19.9492 12.9248ZM35.2028 8.84531C35.2467 8.79593 35.2656 8.77742 35.2718 8.76508C35.3974 8.19729 35.5292 7.62332 35.6485 7.05554C35.661 6.99382 35.6422 6.91976 35.6359 6.85187C35.4288 6.77781 35.2405 6.70375 35.0082 6.62352C34.9517 7.28389 34.9015 7.91339 34.845 8.5429C34.9705 8.64164 35.0772 8.73422 35.2028 8.84531ZM39.6972 4.07464C39.5529 4.38939 39.4211 5.80887 39.5152 6.19768C39.6031 5.75332 39.6784 5.35834 39.76 4.93867C39.8981 5.04976 40.0048 5.14233 40.1241 5.22873C40.2434 5.32131 40.3626 5.4324 40.5635 5.43857C40.6137 5.29662 40.6639 5.16085 40.7079 5.0189C40.3563 4.6918 40.1115 4.30299 39.6972 4.07464ZM26.4461 8.60461C26.4524 7.70356 26.3771 7.07405 26.2578 6.8889C26.082 7.04319 25.9063 7.19748 25.7431 7.33326C25.8435 8.14174 25.9879 8.72187 26.126 8.88851C26.2327 8.78976 26.3394 8.69719 26.4461 8.60461ZM19.7923 8.96257C19.5475 7.41349 19.3152 5.90144 19.0767 4.38322C19.0014 4.38322 18.9637 4.38322 18.8884 4.38322C19.0642 5.83972 19.3152 7.26537 19.5098 8.70336C19.5224 8.78976 19.5601 8.87616 19.5914 8.96257C19.6542 8.96257 19.6919 8.96257 19.7923 8.96257ZM19.4282 8.98108C19.3278 8.3022 19.2211 7.62332 19.1207 6.93827C19.0516 6.99382 19.0139 7.05554 19.0077 7.11725C18.9512 7.83933 19.0077 8.54907 19.1395 9.26498C19.3969 9.41927 19.5475 9.74019 19.9053 9.72785C20.0246 9.59207 20.056 9.4563 20.0183 9.32052C19.899 9.10451 19.6668 9.09834 19.4282 8.98108ZM38.8687 2.37127C38.6741 2.35276 38.5171 2.32807 38.4041 2.4947C38.5736 2.82797 38.5422 3.1921 38.536 3.43279C38.6741 3.84012 38.7745 4.13636 38.8875 4.46962C39.013 4.24127 39.1197 4.04995 39.2327 3.84629C39.0507 3.37107 39.0507 2.85883 38.8687 2.37127ZM43.1999 0.957969C43.1622 1.23569 43.0932 1.47021 43.1434 1.73559C43.3819 1.76645 43.5891 1.85903 43.859 1.80348C43.8778 1.56279 43.8967 1.32827 43.9155 1.06906C43.6644 1.03203 43.4447 0.994999 43.1999 0.957969ZM37.6823 1.93309C37.5756 2.00715 37.45 2.09355 37.3119 2.18612C37.3621 2.26018 37.3935 2.31573 37.4249 2.35893C37.9208 2.3219 38.3979 2.2787 38.9 2.24167C38.9063 2.13675 38.9189 2.04417 38.9252 1.95777C38.8059 1.9084 38.718 1.87754 38.6364 1.84051C38.3979 1.93926 38.2033 1.95777 37.6823 1.93309ZM43.0618 1.73559C43.043 1.44553 43.1497 1.22335 43.0869 0.970312C42.8609 0.970312 42.6475 0.970312 42.4341 0.970312C42.3211 1.18632 42.3337 1.4085 42.3525 1.64302C42.5785 1.67388 42.7919 1.69856 43.0618 1.73559ZM36.8286 15.3749C36.3138 15.0848 36.1318 15.1095 35.5669 15.5477C35.6045 15.5909 35.6422 15.6526 35.6861 15.665C35.8556 15.7082 36.0314 15.776 36.1946 15.7514C36.4457 15.7143 36.747 15.7082 36.8286 15.3749ZM23.7407 9.20326C23.5021 9.09834 23.3075 9.0428 23.1506 8.93788C22.9811 8.82679 22.843 8.6725 22.6798 8.51821C22.6233 8.84531 22.7112 9.15389 22.7112 9.50567C23.0627 9.40692 23.3703 9.31435 23.7407 9.20326ZM22.9686 9.68465C23.4582 9.74019 23.929 9.76488 24.3433 9.46247C24.3747 9.33286 24.3621 9.22795 24.2052 9.14154C23.7909 9.28966 23.364 9.45013 22.9686 9.68465ZM41.1661 15.776C41.5365 15.7884 41.8691 15.8316 42.1265 15.5662C42.1014 15.3132 42.0889 15.2885 41.8503 15.0478C41.6306 15.2761 41.3795 15.4736 41.1661 15.776ZM21.2423 15.0478C21.054 14.7207 20.9097 14.4183 20.7025 14.1406C20.6837 14.1467 20.6648 14.1591 20.646 14.1652C20.7276 14.6405 20.8092 15.1218 20.8908 15.5971C20.9097 15.5971 20.9285 15.5971 20.9473 15.5971C21.0415 15.4181 21.1356 15.2391 21.2423 15.0478ZM31.0661 2.57493C30.7837 2.53791 30.5451 2.52556 30.294 2.58111C30.2375 2.72923 30.2313 2.865 30.3191 3.00695C30.564 3.01312 30.8088 3.05632 31.0661 2.97609C31.0661 2.84031 31.0661 2.72305 31.0661 2.57493ZM39.5905 8.53673C39.3269 8.82679 39.1386 9.14154 39.1072 9.33904C39.4085 9.27732 39.6219 9.09834 39.7914 8.83296C39.7286 8.74039 39.6596 8.64164 39.5905 8.53673ZM41.1473 5.8891C41.2665 5.96316 41.3544 6.0187 41.4737 6.08659C41.6055 5.74098 41.5427 5.41388 41.5741 5.08679C41.4549 5.24108 41.3481 5.40154 41.2603 5.56817C41.21 5.6484 41.1912 5.75332 41.1473 5.8891ZM34.2047 6.31494C34.1859 6.33345 34.1733 6.35814 34.1545 6.37666C34.3114 6.64204 34.5123 6.85804 34.8262 7.04936C34.8387 6.87039 34.8513 6.74695 34.8638 6.60501C34.6316 6.50009 34.4181 6.40751 34.2047 6.31494ZM17.5953 2.30955L17.6016 2.32807L17.6079 2.30955H17.5953ZM18.5494 1.93926H18.5369L18.5432 1.95777L18.5494 1.93926Z" fill="#3A2F3C"/>
<path d="M40.6327 17.3807C40.4444 17.4177 40.3251 17.3498 40.1996 17.319C40.0489 17.2819 39.8983 17.2387 39.7476 17.1893C39.2957 17.0536 38.8563 17.14 38.4357 17.3128C38.0402 17.4732 37.6448 17.4794 37.2493 17.3128C36.6718 17.0659 36.0943 17.0659 35.5168 17.3066C35.1088 17.4794 34.707 17.4794 34.299 17.3128C33.7215 17.0721 33.144 17.0659 32.5665 17.3128C32.1648 17.4856 31.763 17.4794 31.355 17.3066C30.8152 17.0721 30.2565 17.0659 29.7167 17.2943C29.2773 17.4794 28.8504 17.4856 28.411 17.3004C27.8524 17.0659 27.2937 17.0721 26.7413 17.3128C26.3458 17.4856 25.9504 17.4918 25.5549 17.3313C24.946 17.0783 24.3497 17.0844 23.7345 17.3436C23.3704 17.4979 22.9813 17.4918 22.6046 17.3313C22.0083 17.0783 21.4182 17.0659 20.8219 17.3436C20.7026 17.3992 20.5645 17.4115 20.4327 17.43C20.4076 17.4362 20.37 17.3992 20.3009 17.356C20.3762 17.319 20.4139 17.2881 20.4578 17.2758C20.7466 17.1893 21.0291 17.0906 21.3241 17.0165C21.7635 16.9055 22.2029 16.9733 22.6109 17.1461C23.0126 17.319 23.383 17.3128 23.791 17.14C24.3748 16.8931 24.9774 16.8993 25.5549 17.1461C25.9315 17.3066 26.2893 17.319 26.6722 17.1585C27.2874 16.8993 27.9089 16.8931 28.524 17.1585C28.8818 17.3128 29.2271 17.319 29.5849 17.1647C30.2126 16.8993 30.8403 16.8931 31.468 17.1708C31.807 17.319 32.1397 17.319 32.4724 17.177C33.1189 16.8993 33.7655 16.8993 34.412 17.177C34.7573 17.3251 35.0962 17.3128 35.4415 17.1647C36.0566 16.8993 36.6781 16.8993 37.2932 17.1585C37.6699 17.319 38.034 17.3128 38.4106 17.1461C38.9944 16.8931 39.5844 16.9055 40.1745 17.1585C40.2812 17.2017 40.3879 17.2326 40.4946 17.2758C40.5386 17.2881 40.5699 17.3251 40.6327 17.3807Z" fill="#3A2F3C"/>
<path d="M21.0039 18.8186C20.9788 18.7816 20.96 18.7445 20.9412 18.7137C20.9537 18.689 20.96 18.6581 20.9725 18.6581C21.1106 18.6211 21.2487 18.5717 21.3931 18.5656C21.6128 18.5471 21.8325 18.5532 22.0522 18.5656C22.184 18.5717 22.3221 18.5964 22.4477 18.6396C22.9499 18.8124 23.4458 18.8124 23.9479 18.6396C24.0735 18.5964 24.2116 18.5717 24.3434 18.5656C24.5631 18.5532 24.7828 18.5532 25.0025 18.5656C25.1155 18.5717 25.241 18.5779 25.3352 18.6273C25.7307 18.8248 26.1512 18.7445 26.5655 18.7445C26.6283 18.7445 26.6848 18.7199 26.7476 18.6952C27.3188 18.4853 27.89 18.4915 28.4549 18.6952C28.524 18.7199 28.593 18.7445 28.6684 18.7445C29.0827 18.7445 29.5032 18.8124 29.8987 18.6088C29.9803 18.5656 30.0807 18.5656 30.1749 18.5594C30.4072 18.5532 30.6331 18.5471 30.8654 18.5594C30.9909 18.5656 31.1165 18.5903 31.2295 18.6335C31.7316 18.8124 32.2275 18.8063 32.7297 18.6396C32.8553 18.5964 32.9934 18.5717 33.1252 18.5594C33.3135 18.5471 33.5018 18.5594 33.6901 18.5532C33.8784 18.5471 34.0605 18.5841 34.2362 18.6581C34.5501 18.7939 35.2908 18.7754 35.6172 18.6581C35.7741 18.6026 35.9373 18.5717 36.1006 18.5594C36.2951 18.5409 36.496 18.5471 36.6969 18.5594C36.8413 18.5717 36.9856 18.5964 37.1237 18.6396C37.6071 18.8001 38.0841 18.8001 38.5612 18.6396C38.6679 18.6026 38.7809 18.5656 38.8939 18.5594C39.1575 18.5471 39.4149 18.5471 39.6785 18.5594C39.7915 18.5656 39.8982 18.6088 40.0112 18.6335C40.0112 18.6952 40.0112 18.7322 40.0112 18.7692C39.9861 18.7816 39.961 18.8001 39.9485 18.8001C39.5091 18.6643 39.0697 18.6705 38.624 18.8063C38.0904 18.9606 37.5569 18.9482 37.017 18.7877C36.609 18.6643 36.1884 18.6705 35.7804 18.7816C35.2029 18.9482 34.6317 18.9482 34.0542 18.7816C33.6587 18.6643 33.2444 18.6643 32.849 18.7816C32.2589 18.9544 31.6814 18.9544 31.0914 18.7754C30.7398 18.6643 30.3569 18.6643 30.0054 18.7692C29.3714 18.9544 28.7563 18.9544 28.1285 18.7692C27.7833 18.6705 27.4192 18.6705 27.074 18.7692C26.4463 18.9544 25.8248 18.9606 25.1971 18.7692C24.8518 18.6643 24.4878 18.6643 24.1425 18.7631C23.5023 18.9482 22.8808 18.942 22.2343 18.7631C21.8388 18.652 21.412 18.6767 21.0039 18.8186Z" fill="#3A2F3C"/>
<path d="M20.6084 18.1397C20.69 18.0533 20.7214 17.9978 20.7716 17.9793C20.8971 17.9237 21.0227 17.862 21.1545 17.8497C21.5876 17.8065 22.027 17.7633 22.4602 17.8929C22.7301 17.9731 23.0063 18.041 23.295 18.0101C23.521 17.9854 23.747 17.9361 23.973 17.8867C24.4375 17.7818 24.9083 17.7633 25.3665 17.8929C25.8938 18.041 26.4148 18.0595 26.9358 17.8805C27.0425 17.8435 27.1618 17.8311 27.2748 17.825C27.7267 17.7941 28.1724 17.825 28.6055 17.9546C29.0261 18.078 29.4278 17.9978 29.8421 17.8929C30.3066 17.7756 30.7774 17.7633 31.2294 17.8929C31.7378 18.041 32.2337 18.0348 32.7422 17.8929C33.213 17.7633 33.6963 17.7633 34.1671 17.8929C34.6881 18.0348 35.1966 18.0533 35.705 17.8867C35.8117 17.8497 35.931 17.825 36.0377 17.825C36.4457 17.8188 36.8475 17.7941 37.2492 17.9237C37.7074 18.078 38.172 17.9978 38.6365 17.8867C39.2014 17.7509 39.7726 17.7509 40.3062 18.0225C40.3062 18.0533 40.3062 18.078 40.2999 18.0965C40.2936 18.115 40.2748 18.1274 40.2371 18.1706C40.1179 18.1212 39.9798 18.0842 39.8542 18.0163C39.4964 17.825 39.1386 17.8188 38.7746 17.9916C38.3414 18.1953 37.8895 18.2138 37.425 18.1397C37.2429 18.1089 37.0609 18.0472 36.8914 17.9731C36.5399 17.825 36.2009 17.8373 35.8619 17.9854C35.2342 18.2508 34.6065 18.2508 33.9788 17.9854C33.621 17.8311 33.2695 17.8188 32.918 17.9854C32.4848 18.1891 32.0329 18.2076 31.5684 18.1397C31.3738 18.1089 31.1854 18.0595 31.0034 17.9669C30.677 17.8065 30.338 17.8373 30.0053 17.9793C29.3776 18.2446 28.7499 18.2446 28.1222 17.9793C27.7769 17.8311 27.4317 17.8126 27.0927 17.9793C26.6533 18.1891 26.1888 18.2076 25.718 18.1397C25.5234 18.1089 25.3351 18.041 25.1531 17.9669C24.8267 17.8311 24.5065 17.825 24.1801 17.9669C23.5336 18.2446 22.887 18.2508 22.2405 17.9793C21.8701 17.825 21.5123 17.825 21.1545 18.0101C20.9285 18.1274 20.916 18.1212 20.6084 18.1397Z" fill="#3A2F3C"/>
<path d="M28.7688 1.05054C28.8567 1.05054 28.9383 1.05054 29.0764 1.05054C29.0073 1.14928 28.9634 1.211 28.932 1.2542C28.7751 1.24186 28.7563 1.1678 28.7688 1.05054Z" fill="#3A2F3C"/>
<path d="M32.3593 1.24804C32.3531 1.17398 32.3468 1.11844 32.3342 1.03821C32.4284 1.03821 32.5037 1.03821 32.5728 1.03821C32.6356 1.14313 32.5853 1.19867 32.3593 1.24804Z" fill="#3A2F3C"/>
<path d="M30.5953 1.04443C30.6706 1.04443 30.746 1.04443 30.8527 1.04443C30.8213 1.13084 30.7962 1.18638 30.7711 1.24193C30.6141 1.26044 30.5639 1.19872 30.5953 1.04443Z" fill="#3A2F3C"/>
<path d="M41.0406 11.4436C41.0406 11.6226 41.0406 11.8077 41.0406 11.9867C41.0155 11.9867 40.9967 11.9867 40.9716 11.9805C40.9967 11.8077 41.0218 11.6288 41.0406 11.4436Z" fill="#3A2F3C"/>
<path d="M41.7436 6.76545C41.7436 6.58648 41.7436 6.40133 41.7436 6.22235C41.7625 6.22235 41.7876 6.22235 41.8064 6.22852C41.7813 6.40133 41.7562 6.58031 41.7436 6.76545C41.7436 6.76545 41.7374 6.75928 41.7436 6.76545Z" fill="#3A2F3C"/>
<path d="M41.9508 4.45115C41.9508 4.40178 41.9508 4.35858 41.9508 4.3092H41.9571C41.9571 4.35858 41.9571 4.40178 41.9571 4.45115H41.9508Z" fill="#3A2F3C"/>
<path d="M41.9007 4.92627C41.9007 4.95713 41.9007 4.98181 41.8944 5.01267C41.8881 5.01267 41.8881 5.01267 41.8818 5.01267C41.8818 4.98181 41.8881 4.95713 41.8881 4.92627C41.9007 4.92627 41.9007 4.92627 41.9007 4.92627Z" fill="#3A2F3C"/>
<path d="M36.722 11.388C36.7094 11.3695 36.6969 11.351 36.7094 11.3757C36.6969 11.3448 36.7094 11.3695 36.722 11.388Z" fill="#3A2F3C"/>
<path d="M23.973 12.7519C23.9793 12.7334 23.9856 12.7211 23.9793 12.7273C23.9918 12.7149 23.9793 12.7334 23.973 12.7519Z" fill="#3A2F3C"/>
<path d="M23.5337 12.6228L23.5466 12.61L23.5272 12.6228H23.5337Z" fill="#3A2F3C"/>
<path d="M37.9272 3.09332C38.0402 2.97606 38.1156 3.01926 38.216 3.118C38.0967 3.18589 38.0151 3.19824 37.9272 3.09332Z" fill="#3A2F3C"/>
<path d="M37.9146 3.79075C37.9773 3.7784 38.0401 3.77223 38.1029 3.75989C38.1091 3.7784 38.1091 3.79075 38.1154 3.80926C38.0526 3.8216 37.9899 3.84012 37.9271 3.85246C37.9208 3.83395 37.9208 3.80926 37.9146 3.79075Z" fill="#3A2F3C"/>
<path d="M38.4105 4.04426C38.4169 4.03793 38.4169 4.0316 38.4233 4.02527C38.4169 4.0316 38.4105 4.03793 38.4105 4.04426C38.4105 4.04426 38.4105 4.03793 38.4105 4.04426Z" fill="#3A2F3C"/>
<path d="M21.4061 11.5734C21.3996 11.5734 21.3932 11.567 21.3867 11.567C21.3867 11.567 21.3932 11.5734 21.4061 11.5734Z" fill="#3A2F3C"/>
<path d="M33.7088 6.43219C33.7591 6.75929 33.8218 7.05552 33.8595 7.35793C33.9348 8.0183 34.0164 8.68483 33.9976 9.35137C33.9788 9.95619 33.9097 10.561 33.7402 11.1473C33.5331 11.8632 33.1502 12.4804 32.6543 13.0358C32.0956 13.6653 31.4553 14.2084 30.7586 14.6898C30.7146 14.7207 30.6707 14.7392 30.6205 14.7701C30.5828 14.7577 30.5389 14.7454 30.5075 14.7268C29.5847 14.122 28.775 13.4061 28.1598 12.4927C27.7644 11.9002 27.5258 11.2522 27.4317 10.5487C27.3187 9.66612 27.3312 8.78975 27.4254 7.90721C27.4693 7.5184 27.5195 7.13575 27.5698 6.74694C27.5823 6.6482 27.6137 6.54945 27.6388 6.43836C29.6601 6.43219 31.6625 6.43219 33.7088 6.43219ZM31.3047 8.12939C31.4993 7.99978 31.6625 7.89486 31.832 7.78995C31.7755 7.62331 31.7504 7.46902 31.5997 7.3641C31.0975 7.57394 30.5954 7.78995 30.0932 7.99978C30.2187 8.48734 30.6079 9.40074 30.7586 9.57355C31.3737 9.37605 32.1082 9.03661 32.2839 8.84529C32.24 8.75272 32.1898 8.6478 32.1395 8.54906C31.9512 8.61694 31.8006 8.67249 31.6123 8.74038C31.5056 8.53671 31.4114 8.34539 31.3047 8.12939ZM30.1183 11.3757C29.9865 11.4312 29.9049 11.4682 29.8233 11.5114C29.7417 11.5485 29.6601 11.5917 29.5596 11.641C29.6224 11.7768 29.6726 11.8941 29.7166 12.0052C30.043 11.9558 31.041 11.5176 31.2168 11.3633C31.0787 10.8819 30.7084 10.0302 30.564 9.8451C30.2376 9.91916 29.296 10.3265 29.1014 10.4869C29.1453 10.598 29.1893 10.7153 29.2332 10.8326C29.4404 10.7708 29.6161 10.7215 29.8044 10.6659C29.9112 10.919 30.0053 11.1288 30.1183 11.3757ZM30.8276 9.71549C31.0222 10.2648 31.2105 10.7585 31.4553 11.2522C31.9638 10.993 32.4785 10.8202 32.9556 10.524C32.8928 10.4314 32.8426 10.3573 32.7861 10.2586C32.5978 10.3203 32.422 10.382 32.2274 10.4499C32.1333 10.1907 31.9826 9.96853 31.9638 9.67846C32.127 9.57355 32.2902 9.4748 32.466 9.36371C32.422 9.26496 32.3906 9.19708 32.3467 9.09833C31.832 9.30817 31.3423 9.50566 30.8276 9.71549ZM29.886 8.16642C29.3713 8.33922 28.9068 8.55523 28.4109 8.78975C28.48 8.91318 28.5302 9.00576 28.5804 9.1045C28.7875 9.04279 28.957 8.98724 29.1579 8.92553C29.2458 9.19708 29.409 9.41926 29.4215 9.71549C29.2583 9.79572 29.0951 9.87595 28.9445 9.95001C28.9319 10.1043 28.957 10.2031 29.1014 10.2709C29.5534 10.0796 30.0053 9.8883 30.4887 9.68464C30.2941 9.17239 30.1246 8.66632 29.886 8.16642ZM29.7668 12.2397C30.043 12.9679 30.3443 13.6838 30.6644 14.4244C30.7586 14.3566 30.8213 14.3134 30.8841 14.2701C30.8653 14.2084 30.859 14.1714 30.8402 14.1344C30.5954 13.5357 30.3568 12.9309 30.112 12.3323C30.0869 12.2767 30.0555 12.2212 30.0241 12.1718C30.0116 12.1471 29.9739 12.1409 29.93 12.1163C29.886 12.1533 29.8421 12.1841 29.7668 12.2397ZM28.4423 8.5614C28.5239 8.13556 28.2665 7.88252 28.0029 7.61714C27.8773 8.0183 28.1535 8.59226 28.3419 8.62929C28.367 8.6046 28.4109 8.57991 28.4423 8.5614ZM28.8566 9.24645C28.7561 9.30817 28.6871 9.35137 28.6243 9.3884C28.6683 9.54269 28.6808 9.69081 28.8126 9.79572C28.8817 9.75252 28.9382 9.72166 29.0135 9.67229C28.9696 9.54269 28.9256 9.41925 28.8566 9.24645ZM29.4717 11.4497C29.5722 11.3942 29.635 11.3571 29.7228 11.3078C29.635 11.172 29.5596 11.0547 29.4717 10.9251C29.3901 10.9868 29.3399 11.0239 29.2709 11.0733C29.3399 11.1967 29.3964 11.3016 29.4717 11.4497Z" fill="#3A2F3C"/>
<path d="M23.4959 3.27231C23.3139 3.27231 23.1946 3.27231 23.0691 3.27231C23.2197 3.0995 23.2825 3.09333 23.4959 3.27231Z" fill="#3A2F3C"/>
<path d="M23.7282 3.95117C23.6278 4.10546 23.5587 4.10546 23.4081 4.01906C23.5273 3.99437 23.6027 3.97586 23.7282 3.95117Z" fill="#3A2F3C"/>
<path d="M23.5336 10.4622C23.4394 10.4869 23.3452 10.5054 23.2448 10.5301C23.2448 10.5116 23.2385 10.4992 23.2385 10.4807C23.339 10.4746 23.4394 10.4684 23.5336 10.4622Z" fill="#3A2F3C"/>
</g>
<defs>
<clipPath id="clip0">
<rect width="54.5173" height="18.6507" fill="white" transform="translate(0.866699 0.266724)"/>
</clipPath>
</defs>
</svg>
