<svg width="500" height="500" viewBox="0 0 500 500" fill="none" xmlns="http://www.w3.org/2000/svg">
<g clip-path="url(#clip0)">
<rect width="500" height="500" fill="#00CEDB"/>
<path d="M226.505 381.818L172.088 190.177H170.45C172.998 222.815 174.272 248.173 174.272 266.251V381.818H110.574V115.74H206.303L261.812 304.652H263.268L317.685 115.74H413.597V381.818H347.532V265.159C347.532 259.092 347.593 252.359 347.714 244.957C347.957 237.556 348.806 219.417 350.262 190.541H348.624L294.935 381.818H226.505Z" fill="white"/>
<path d="M350 627.273L196.477 81.8182L503.523 81.8182L350 627.273Z" fill="#00CEDB"/>
<path d="M331.818 190.909L382.993 381.818H280.644L331.818 190.909Z" fill="white"/>
</g>
<defs>
<clipPath id="clip0">
<rect width="500" height="500" fill="white"/>
</clipPath>
</defs>
</svg>
