<svg width="47" height="21" viewBox="0 0 47 21" fill="none" xmlns="http://www.w3.org/2000/svg">
<g clip-path="url(#clip0)">
<path d="M3.52979 6.24151C3.52979 10.7359 3.52979 15.2551 3.52979 19.8115C2.39008 19.8115 1.31369 19.8115 0.186646 19.8115C0.186646 13.6163 0.186646 7.42097 0.186646 1.13878C1.37701 1.13878 2.54204 1.12637 3.71974 1.1512C3.85903 1.1512 4.02366 1.34985 4.1123 1.48642C6.60699 5.60833 9.10168 9.74265 11.5837 13.8646C11.7357 14.1253 11.837 14.4233 12.0396 14.7088C12.0396 10.2144 12.0396 5.72006 12.0396 1.16362C13.2046 1.16362 14.2684 1.16362 15.3827 1.16362C15.3827 7.3589 15.3827 13.579 15.3827 19.8488C14.2304 19.8488 13.1033 19.8736 11.9636 19.824C11.7737 19.8115 11.5331 19.5384 11.4191 19.3397C9.27897 15.8386 7.15152 12.3126 5.02407 8.78667C4.51753 7.94242 4.03632 7.08576 3.52979 6.24151Z" fill="#3A2F3C"/>
<path d="M35.6315 13.7652C35.8974 15.491 36.7585 16.6829 38.4807 17.1671C39.5318 17.465 40.5702 17.4278 41.5833 17.0429C42.8243 16.5711 43.4448 15.6648 43.4954 14.3736C43.5461 13.1445 43.0522 12.1512 41.8745 11.667C40.8108 11.2325 39.6711 10.9966 38.582 10.6241C37.4676 10.2393 36.3026 9.9413 35.3022 9.3702C32.187 7.56996 32.2883 3.41081 35.5048 1.75956C38.0122 0.468359 40.6335 0.518021 43.1535 1.78439C44.7111 2.56656 45.5596 3.93225 45.9015 5.60833C45.9395 5.80698 45.9268 6.00562 45.9395 6.26635C44.9137 6.32842 43.964 6.3905 42.9762 6.45258C42.9256 6.31601 42.8749 6.2291 42.8496 6.14219C42.0898 3.78327 39.4178 2.75279 37.1764 3.9695C35.9607 4.62752 35.8467 6.12978 37.0244 6.92436C37.7083 7.38373 38.5187 7.66929 39.3165 7.93001C40.3929 8.27764 41.5199 8.47629 42.5963 8.83633C45.6229 9.85439 46.9272 11.6919 46.8006 14.6343C46.6866 17.1298 44.8757 19.2156 42.1025 19.8984C39.4558 20.5565 36.9484 20.2212 34.7324 18.5328C33.4027 17.5271 32.6809 16.149 32.4149 14.535C32.3516 14.175 32.4783 14.0508 32.8328 14.026C33.7573 13.9391 34.6564 13.8522 35.6315 13.7652Z" fill="#3A2F3C"/>
<path d="M30.6802 2.26855C30.9461 2.4672 31.1487 2.61619 31.402 2.80242C27.2737 8.58799 23.1708 14.3487 19.0299 20.1591C18.7513 19.9729 18.5107 19.8239 18.2321 19.6377C22.3857 13.8397 26.5139 8.07896 30.6802 2.26855Z" fill="#3A2F3C"/>
</g>
<defs>
<clipPath id="clip0">
<rect width="46.6267" height="19.368" fill="white" transform="translate(0.186646 0.815979)"/>
</clipPath>
</defs>
</svg>
