<svg width="46" height="17" viewBox="0 0 46 17" fill="none" xmlns="http://www.w3.org/2000/svg">
<g clip-path="url(#clip0)">
<path d="M13.8948 15.367C13.7378 15.21 13.6122 15.0216 13.4552 14.8646C12.8899 14.2364 12.3246 13.6398 11.7593 13.0431C10.6915 11.8497 9.59232 10.6877 8.52454 9.49427C7.86504 8.77196 7.17412 8.04964 6.51462 7.32732C5.66668 6.41657 4.81874 5.47442 3.9708 4.56367C3.78237 4.37524 3.62534 4.1868 3.43691 3.96697C3.43691 4.12399 3.43691 4.1868 3.43691 4.28102C3.43691 7.01327 3.43691 9.77692 3.43691 12.5092C3.43691 12.9174 3.49972 13.3257 3.62534 13.734C3.75096 14.1736 4.06501 14.4877 4.53609 14.6133C4.91295 14.7075 5.28981 14.7389 5.66668 14.7389C5.69808 14.7389 5.72949 14.7389 5.7923 14.7389C5.85511 14.896 5.8237 15.053 5.8237 15.21C4.94436 15.2728 4.06501 15.1786 3.18567 15.1786C2.30633 15.1786 1.45839 15.21 0.547638 15.2414C0.547638 15.1472 0.516233 15.0844 0.516233 14.9902C0.516233 14.9274 0.516233 14.8331 0.516233 14.7389C0.610448 14.7389 0.704664 14.7389 0.798879 14.7075C1.01872 14.6761 1.23855 14.6761 1.45839 14.6447C1.96087 14.5819 2.27492 14.2364 2.43195 13.7654C2.58897 13.3571 2.62038 12.9488 2.62038 12.5406C2.62038 11.0959 2.62038 9.61989 2.62038 8.17526C2.62038 6.79343 2.62038 5.3802 2.62038 3.99837C2.62038 3.65292 2.55757 3.30746 2.46335 2.962C2.27492 2.45952 1.92946 2.14547 1.45839 1.98844C1.05012 1.83142 0.610448 1.80001 0.170776 1.80001C0.170776 1.64299 0.170776 1.45456 0.170776 1.29753C1.33277 1.36034 2.46335 1.39175 3.62534 1.29753C3.71956 1.42315 3.81377 1.54877 3.90799 1.67439C4.37907 2.20828 4.81874 2.74217 5.28981 3.24465C6.13775 4.1554 6.98569 5.06615 7.83363 5.9769C8.39892 6.5736 8.93281 7.17029 9.4981 7.76699C10.1576 8.4579 10.7857 9.14882 11.4452 9.83973C12.1047 10.5306 12.7328 11.2216 13.3923 11.9125C13.4552 11.9753 13.518 12.1009 13.6436 12.1009C13.6436 12.0067 13.6436 11.9439 13.6436 11.8811C13.6436 9.21163 13.6436 6.54219 13.6436 3.84135C13.6436 3.5273 13.5808 3.24465 13.518 2.9306C13.3923 2.42812 13.0783 2.08266 12.5758 1.95704C12.2304 1.86282 11.9163 1.80001 11.5708 1.80001C11.4766 1.80001 11.351 1.80001 11.2568 1.80001C11.2568 1.61158 11.2568 1.48596 11.2568 1.29753C11.8221 1.26613 12.3874 1.36034 12.9527 1.32894C13.518 1.32894 14.0833 1.32894 14.6485 1.32894C15.2138 1.32894 15.7791 1.23472 16.3444 1.29753C16.3444 1.48596 16.3444 1.61158 16.3444 1.80001C16.156 1.80001 15.999 1.80001 15.8419 1.80001C15.5907 1.80001 15.3395 1.86282 15.1196 1.98844C14.7742 2.17688 14.6485 2.52233 14.5543 2.86779C14.4915 3.11903 14.4915 3.37027 14.4915 3.62151C14.4915 7.48435 14.4915 11.3786 14.4915 15.2414C14.4915 15.2728 14.4915 15.3042 14.4915 15.367C14.2403 15.367 14.0833 15.367 13.8948 15.367Z" fill="#343434"/>
<path d="M32.738 4.12395C32.6124 4.21816 32.4553 4.12395 32.2983 4.12395C32.5182 3.05617 32.8322 2.05121 32.9264 0.952026C33.0834 0.952026 33.2405 0.952026 33.3975 0.952026C33.5545 1.17186 33.7744 1.23467 34.057 1.23467C37.5116 1.23467 40.9347 1.23467 44.3893 1.23467C44.4835 1.23467 44.6091 1.23467 44.7662 1.23467C43.9182 2.36526 43.0703 3.43303 42.2537 4.53221C41.4372 5.63139 40.5579 6.73057 39.7413 7.79835C38.8934 8.86612 38.0769 9.9653 37.2289 11.0331C36.381 12.1009 35.5645 13.2 34.7165 14.2992C34.7793 14.2992 34.8421 14.3306 34.8735 14.3306C36.9777 14.3306 39.0818 14.3306 41.186 14.3306C41.8455 14.3306 42.4736 14.2364 43.1017 13.9852C43.51 13.8281 43.8554 13.5455 44.1381 13.1686C44.3893 12.8232 44.5777 12.4149 44.7662 12.0066C44.829 11.881 44.8604 11.7868 44.9232 11.6612C45.0802 11.6926 45.2058 11.724 45.3629 11.7554C45.0488 12.886 44.7662 13.9852 44.4521 15.0843C44.4207 15.0843 31.8586 15.0843 31.8586 15.0843C31.9215 14.8959 32.9892 13.5455 33.8372 12.4463C34.5281 11.5984 35.1876 10.719 35.8471 9.87109C36.5066 8.99174 37.1975 8.1124 37.857 7.26446C38.5165 6.38512 39.176 5.53718 39.867 4.68924C40.5265 3.80989 41.2174 2.96196 41.9083 2.05121C41.7827 2.05121 41.7199 2.0198 41.657 2.0198C39.5529 2.0198 37.4488 2.0198 35.3446 2.0198C35.0306 2.0198 34.7479 2.08261 34.4339 2.14542C33.8372 2.30245 33.4289 2.71071 33.1777 3.2446C32.9578 3.55865 32.8322 3.8413 32.738 4.12395Z" fill="#343434"/>
<path d="M30.3198 11.724C30.4454 11.7554 30.571 11.7868 30.728 11.8182C30.4454 12.9488 30.0999 14.048 29.8173 15.1786C29.7231 15.1786 29.6289 15.1786 29.5346 15.1786C28.3098 15.1786 27.085 15.1786 25.8916 15.1786C25.6404 15.1786 25.3892 15.1471 25.1379 15.1471C24.1958 15.1471 23.2536 15.1471 22.3115 15.1471C20.6784 15.1471 19.0767 15.1786 17.4437 15.1786C17.3494 15.1786 17.2866 15.1786 17.161 15.1786C17.2238 14.9587 17.3808 14.8331 17.5065 14.6761C17.9461 14.0794 18.4172 13.4827 18.8883 12.886C19.4222 12.1951 19.9561 11.5042 20.5214 10.8132C21.5891 9.43141 22.6569 8.04958 23.7247 6.63635C24.7925 5.25453 25.8288 3.90411 26.8966 2.52228C26.9908 2.39666 27.085 2.27104 27.1793 2.14542C27.1164 2.11401 27.085 2.08261 27.0222 2.08261C26.8338 2.08261 26.6454 2.08261 26.4883 2.08261C24.604 2.08261 22.6883 2.08261 20.804 2.08261C20.49 2.08261 20.2073 2.11401 19.8933 2.17682C19.1709 2.33385 18.7313 2.77352 18.4486 3.40162C18.3544 3.59005 18.323 3.77848 18.2602 3.96692C18.2288 4.02973 18.1974 4.09254 18.166 4.15535C18.0404 4.15535 17.8833 4.15535 17.7263 4.15535C17.7577 4.02973 17.7577 3.96692 17.7577 3.8727C17.9147 3.15038 18.0718 2.39666 18.2288 1.67434C18.2602 1.4545 18.2916 1.23467 18.2916 1.01483C18.4486 1.01483 18.6056 1.01483 18.7627 1.01483C18.8883 1.26607 19.1395 1.29748 19.3908 1.29748C22.7511 1.29748 26.1115 1.29748 29.5032 1.29748C29.6917 1.29748 29.8801 1.29748 30.1313 1.29748C26.771 5.6942 23.4106 10.0281 20.0503 14.3934C20.1445 14.3934 20.1759 14.4248 20.2387 14.4248C22.3429 14.4248 24.4156 14.4248 26.5197 14.4248C27.0536 14.4248 27.5561 14.3306 28.0586 14.205C28.7809 14.0166 29.3148 13.5769 29.6603 12.9174C29.9115 12.5091 30.0999 12.1323 30.3198 11.724Z" fill="#343434"/>
</g>
<defs>
<clipPath id="clip0">
<rect width="45.192" height="15.064" fill="white" transform="translate(0.170776 0.952026)"/>
</clipPath>
</defs>
</svg>
