<svg width="31" height="21" viewBox="0 0 31 21" fill="none" xmlns="http://www.w3.org/2000/svg">
<g clip-path="url(#clip0)">
<path d="M30.8198 1.07185C30.7171 1.24175 30.6143 1.41164 30.5459 1.58154C30.135 2.49897 29.7584 3.4164 29.3476 4.33383C29.0395 5.08137 28.7313 5.76095 28.4232 6.50849C28.1493 7.18806 27.8754 7.86764 27.5673 8.51324C27.1222 9.53261 26.7114 10.518 26.2321 11.5374C25.8213 12.4548 25.4447 13.3722 25.0338 14.2897C24.6915 15.0372 24.3491 15.8187 24.0067 16.6002C23.7671 17.1439 23.5274 17.7215 23.2878 18.2992C23.2878 18.3332 23.2535 18.3671 23.2535 18.4011C23.1166 18.673 23.1166 18.7069 23.4247 18.7069C24.1779 18.6729 24.9996 18.6729 25.7528 18.639C26.2663 18.605 26.7799 18.5031 27.2934 18.4351C27.7043 18.3671 28.0466 18.3332 28.4575 18.2652C28.7998 18.1972 29.1422 18.1293 29.4845 18.0613C29.8611 17.9934 30.2377 17.9254 30.6828 17.8235C30.5801 18.0613 30.5116 18.2652 30.4432 18.4351C30.3062 18.7069 30.2035 18.9788 30.0666 19.2506C30.0323 19.2846 30.0323 19.3185 29.9981 19.3865C29.9296 19.5224 29.8611 19.5904 29.6557 19.5904C29.4503 19.5564 29.2107 19.5904 29.0052 19.5904C25.5816 19.5904 22.1922 19.5904 18.7686 19.5904C18.7343 19.5904 18.6659 19.5564 18.6316 19.5564C18.7686 19.1826 18.9397 18.8428 19.0767 18.5031C19.3506 17.8575 19.6245 17.2119 19.9326 16.5663C20.1723 16.0566 20.3777 15.4789 20.6516 14.9692C20.8912 14.4256 21.1309 13.8819 21.4048 13.3043C21.6787 12.6587 21.9525 12.0131 22.2264 11.3675C22.5003 10.7219 22.8085 10.0423 23.0823 9.3967C23.3562 8.7511 23.6644 8.1055 23.9383 7.4599C24.3491 6.57644 24.6915 5.72697 25.1023 4.84352C25.3419 4.33383 25.5816 3.79017 25.8213 3.28049C25.9582 2.9407 26.1294 2.63489 26.2663 2.2951C26.3006 2.26112 26.3006 2.22714 26.3006 2.15918C26.3348 1.98929 26.3006 1.95531 26.1636 1.95531C25.9582 1.95531 25.6843 1.95531 25.4789 1.95531C24.7257 1.95531 24.0067 1.95531 23.2535 1.98929C22.8769 1.98929 22.5003 2.05724 22.158 2.09122C21.8156 2.1252 21.4732 2.15918 21.1309 2.26112C20.72 2.39703 20.3434 2.46499 19.9326 2.60091C19.6929 2.70284 19.4533 2.80478 19.1794 2.9407C19.0082 3.04263 18.8713 3.11059 18.7001 3.24651C17.9469 3.85813 17.2279 4.50373 16.4747 5.14933C16.4063 5.18331 16.372 5.21729 16.3035 5.28524C16.2008 5.38718 16.1666 5.38718 16.0639 5.28524C15.3107 4.7076 14.489 4.19792 13.6331 3.72221C13.0853 3.4164 12.4691 3.14457 11.8871 2.90672C11.2708 2.70284 10.6545 2.49897 10.0041 2.39703C9.21662 2.26112 8.36071 2.15918 7.57327 2.32908C7.26514 2.39703 6.92278 2.43101 6.58042 2.49897C6.16958 2.60091 5.79298 2.80478 5.45061 3.00865C5.03978 3.24651 4.69741 3.55232 4.45776 3.99404C4.1154 4.57169 4.1154 5.14933 4.45776 5.72697C4.76589 6.23665 5.2452 6.61042 5.79298 6.91623C6.58042 7.35796 7.5048 7.69775 8.39494 7.96958C9.11391 8.17345 9.79863 8.41131 10.4491 8.71712C11.4077 9.12486 12.3664 9.49863 13.2907 9.94036C14.2836 10.4161 15.208 10.9597 16.0297 11.6733C16.4405 12.0471 16.7144 12.4548 16.8856 12.9645C17.2279 13.712 17.1595 14.5275 17.1252 15.309C17.1252 15.4789 17.0567 15.7168 16.9883 15.8867C16.8171 16.4303 16.5774 17.008 16.2351 17.5177C15.7558 18.2652 15.1053 18.8428 14.2836 19.2166C13.8043 19.4545 13.2565 19.6583 12.743 19.7263C11.8528 19.8622 10.9284 19.9641 10.0383 19.8282C9.79863 19.7943 9.52474 19.7943 9.28509 19.7603C8.97696 19.7263 8.66883 19.6583 8.36071 19.5904C8.08682 19.5224 7.81292 19.4545 7.57327 19.3865C7.1282 19.2506 6.7516 19.1147 6.30652 18.9788C5.69027 18.8089 5.10825 18.537 4.52623 18.2652C4.01269 18.0273 3.46491 17.7555 3.05407 17.4157C2.88289 17.2458 2.84865 17.2798 2.64323 17.4497C2.36934 17.7215 2.09545 18.0273 1.78732 18.2992C1.71885 18.3671 1.61614 18.4351 1.54767 18.5031C1.37649 18.3332 1.2053 18.1972 1.06836 18.0613C1.2053 17.8914 1.37649 17.7555 1.54767 17.5856C2.30087 16.8381 2.9856 16.1245 3.7388 15.377C3.87574 15.2411 3.90998 15.2411 4.08116 15.377C4.76589 15.8527 5.45061 16.3624 6.13534 16.8041C6.7516 17.2119 7.40209 17.5177 8.08682 17.7895C8.49765 17.9594 8.87425 18.1293 9.31933 18.2652C9.73016 18.4011 10.141 18.4351 10.5518 18.571C10.9284 18.7069 11.305 18.7069 11.7159 18.7069C12.5033 18.7409 13.2565 18.571 13.9412 18.1633C14.4205 17.8575 14.7629 17.4157 14.8656 16.8041C15.0026 16.0566 14.7629 15.411 14.2836 14.8333C13.7016 14.1538 12.9484 13.678 12.1609 13.2703C11.5447 12.9645 10.9284 12.7606 10.2437 12.5567C9.83287 12.4548 9.49051 12.3189 9.11391 12.183C8.90849 12.115 8.66883 12.081 8.46342 12.0131C8.29223 11.9451 8.08682 11.9111 7.91563 11.8772C7.19667 11.6733 6.51194 11.4015 5.86145 11.0956C4.59471 10.484 3.53338 9.66853 2.81441 8.41131C2.36934 7.66377 2.19816 6.88225 2.26663 6.06676C2.30087 5.18331 2.609 4.36781 3.15678 3.68823C3.80727 2.83876 4.66318 2.19316 5.6218 1.71745C6.10111 1.4796 6.68312 1.27573 7.23091 1.17379C7.74445 1.03787 8.29223 1.0039 8.80578 0.901959C8.84002 0.901959 8.87425 0.867981 8.90849 0.867981C9.49051 0.867981 10.0725 0.867981 10.6545 0.867981C10.6888 0.867981 10.723 0.901959 10.7573 0.901959C11.7843 1.0039 12.743 1.20777 13.7016 1.54756C14.7629 1.92133 15.6873 2.36305 16.6117 2.97468C16.7829 3.07661 16.9198 3.17855 17.0567 3.28049C17.1937 3.38242 17.2622 3.34844 17.2622 3.14457C17.2622 3.11059 17.2622 3.07661 17.2622 3.04263C17.2964 2.46499 17.3306 1.85337 17.3649 1.27573C17.3991 1.0039 17.3991 1.0039 17.6388 1.0039C21.9525 1.0039 26.2663 1.0039 30.5459 1.0039C30.6486 1.07185 30.7171 1.10583 30.8198 1.07185C30.8198 1.03788 30.8198 1.0039 30.8198 1.07185Z" fill="#343434"/>
</g>
<defs>
<clipPath id="clip0">
<rect width="30.128" height="19.368" fill="white" transform="translate(0.794556 0.799988)"/>
</clipPath>
</defs>
</svg>
