<svg width="27" height="35" viewBox="0 0 27 35" fill="none" xmlns="http://www.w3.org/2000/svg">
<g clip-path="url(#clip0)">
<path d="M12.2759 34.3573C12.2759 33.7232 12.1709 32.9834 12.1709 32.3492C12.1709 25.3738 12.1709 18.3983 12.1709 11.3172C12.1709 10.6831 12.1709 10.1546 12.1709 9.41481C11.0154 9.62619 10.7002 10.2603 10.3851 11.1058C9.96486 12.4798 9.12447 13.3253 7.75884 13.748C7.54874 13.8537 7.33864 13.9594 7.12855 14.0651C5.86796 14.8049 5.65786 16.0732 6.49825 17.2358C6.8134 17.6585 7.23359 17.9756 7.65379 18.187C9.22952 19.1382 10.28 20.5121 10.3851 22.4145C10.3851 22.7316 10.4901 23.1543 10.7002 23.4714C10.9103 24.1055 11.2255 24.7397 11.3305 25.3738C11.4355 26.1136 11.3305 26.8534 11.3305 27.5932C11.3305 28.2274 11.3305 28.8615 11.3305 29.39C11.2255 29.39 11.0154 29.39 10.9103 29.39C10.7002 28.5444 10.3851 27.5932 10.175 26.7477C9.64972 23.9998 8.28408 21.6747 6.07806 19.878C5.55281 19.4552 5.13262 18.9268 4.60737 18.504C2.82154 17.2358 1.56096 15.5447 0.930664 13.3253V12.5855C2.19125 8.78068 5.34272 6.7726 8.38913 4.44745C10.8053 8.35793 14.9022 10.2603 18.3688 12.9025C20.4698 14.4879 22.4657 16.1789 24.0414 18.187C26.8777 21.6747 26.4575 26.0079 23.7263 29.0729C21.4152 31.7151 18.3688 32.9834 15.1123 33.8289" fill="#3A2F3C"/>
<path d="M21.5202 14.1708C18.6839 12.1627 15.9526 10.2603 13.2213 8.35795V3.91903C17.3182 2.96783 22.8858 7.51244 21.5202 14.1708Z" fill="#3A2F3C"/>
<path d="M12.2759 0.748383V7.40676C11.1204 6.66694 10.28 5.71575 9.64968 4.76455C9.01938 3.81335 8.70424 2.75647 9.33453 1.80527C9.96482 0.854071 10.9103 0.431317 12.2759 0.748383Z" fill="#3A2F3C"/>
<path d="M10.175 29.6014C6.39321 27.9104 5.02757 24.634 6.70835 21.7805C9.12448 23.7885 9.12448 26.8535 10.175 29.6014Z" fill="#3A2F3C"/>
</g>
<defs>
<clipPath id="clip0">
<rect width="25.1067" height="33.7147" fill="white" transform="translate(0.930664 0.6427)"/>
</clipPath>
</defs>
</svg>
