<svg width="25" height="24" viewBox="0 0 25 24" fill="none" xmlns="http://www.w3.org/2000/svg">
<g clip-path="url(#clip0)">
<path d="M24.504 0.856947C22.82 6.66681 21.0779 12.4197 19.3939 18.1726C17.7679 18.1726 16.2 18.1726 14.5741 18.1726C13.6449 14.0715 12.7739 9.97046 11.8448 5.86938H11.7867C11.206 8.43256 10.6834 10.9957 10.1027 13.5589H10.0446C9.98654 13.388 9.92847 13.2741 9.92847 13.1032C9.46391 10.9388 8.99935 8.83127 8.5348 6.66681C8.47673 6.32506 8.5348 5.9833 8.59287 5.64154C8.88321 4.1606 9.17356 2.62269 9.46391 1.14174C9.46391 1.02783 9.52198 0.970866 9.52198 0.856947C11.0899 0.856947 12.5997 0.856947 14.2256 0.856947C15.0967 4.90107 15.9677 8.94519 16.8388 12.9893H16.8969C17.7679 8.94519 18.697 4.90107 19.5681 0.799988C21.2521 0.856947 22.878 0.856947 24.504 0.856947Z" fill="#3A2F3C"/>
<path d="M0.114746 0.856995C1.79877 0.856995 3.42473 0.856995 5.10875 0.856995C6.38629 6.6099 7.72189 12.3628 8.99943 18.1727C7.66382 18.1727 6.38629 18.1727 5.05068 18.1727C3.42473 12.4198 1.79877 6.66686 0.114746 0.856995Z" fill="#3A2F3C"/>
<path d="M1.85681 23.7548C1.85681 22.6156 1.85681 21.5333 1.85681 20.4511C2.14716 20.3372 22.0651 20.3372 22.5297 20.4511C22.5297 21.5333 22.5297 22.6725 22.5297 23.7548C22.2393 23.8117 2.32137 23.8687 1.85681 23.7548Z" fill="#3A2F3C"/>
</g>
<defs>
<clipPath id="clip0">
<rect width="24.3893" height="22.9547" fill="white" transform="translate(0.114746 0.799988)"/>
</clipPath>
</defs>
</svg>
