<?xml version="1.0" encoding="utf-8"?>
<!-- Generator: Adobe Illustrator 23.0.4, SVG Export Plug-In . SVG Version: 6.00 Build 0)  -->
<svg version="1.1" id="Ebene_1" xmlns="http://www.w3.org/2000/svg" xmlns:xlink="http://www.w3.org/1999/xlink" x="0px" y="0px"
	 viewBox="0 0 1220 1114" style="enable-background:new 0 0 1220 1114;" xml:space="preserve">
<style type="text/css">
	.st0{opacity:0.5;clip-path:url(#SVGID_2_);}
	.st1{opacity:0.48;fill:#00CEDB;enable-background:new    ;}
</style>
<g>
	<defs>
		<rect id="SVGID_1_" x="123.8" y="254" width="1640" height="1114"/>
	</defs>
	<clipPath id="SVGID_2_">
		<use xlink:href="#SVGID_1_"  style="overflow:visible;"/>
	</clipPath>
	<g class="st0">
		<path class="st1" d="M978.2,1058.7L1105.9,254l-982,981.3L978.2,1058.7z"/>
		<path class="st1" d="M978.2,1323.7L1105.9,519l-795.4,647.7L978.2,1323.7z"/>
		<path class="st1" d="M978.2,1588.6l127.7-804.7L497,1098L978.2,1588.6z"/>
		<path class="st1" d="M1371,1058.7V352.2l-982,883.2L1371,1058.7z"/>
		<path class="st1" d="M1371,1323.7V617.1l-795.5,549.6L1371,1323.7z"/>
		<path class="st1" d="M1371,1588.6V882.1L762.1,1098L1371,1588.6z"/>
		<path class="st1" d="M1763.8,1058.7l-127.7-608.4l-982,785.1L1763.8,1058.7z"/>
		<path class="st1" d="M1763.8,1323.7l-127.7-608.4l-795.5,451.4L1763.8,1323.7z"/>
		<path class="st1" d="M1763.8,1588.6l-127.7-608.4L1027.3,1098L1763.8,1588.6z"/>
	</g>
</g>
</svg>
