<svg width="1220" height="1114" viewBox="0 0 1220 1114" fill="none" xmlns="http://www.w3.org/2000/svg">
<g opacity="0.5" clip-path="url(#clip0)">
<path opacity="0.48" d="M854.371 804.698L982.036 0L0 981.339L854.371 804.698Z" fill="#00CEDB"/>
<path opacity="0.48" d="M854.371 1069.66L982.036 264.961L186.587 912.645L854.371 1069.66Z" fill="#00CEDB"/>
<path opacity="0.48" d="M854.371 1334.62L982.036 529.923L373.173 843.951L854.371 1334.62Z" fill="#00CEDB"/>
<path opacity="0.48" d="M1247.19 804.698V98.1339L265.15 981.339L1247.19 804.698Z" fill="#00CEDB"/>
<path opacity="0.48" d="M1247.19 1069.66V363.095L451.736 912.645L1247.19 1069.66Z" fill="#00CEDB"/>
<path opacity="0.48" d="M1247.19 1334.62V628.057L638.323 843.951L1247.19 1334.62Z" fill="#00CEDB"/>
<path opacity="0.48" d="M1640 804.698L1512.34 196.268L530.299 981.339L1640 804.698Z" fill="#00CEDB"/>
<path opacity="0.48" d="M1640 1069.66L1512.34 461.229L716.886 912.645L1640 1069.66Z" fill="#00CEDB"/>
<path opacity="0.48" d="M1640 1334.62L1512.34 726.191L903.473 843.951L1640 1334.62Z" fill="#00CEDB"/>
</g>
<defs>
<clipPath id="clip0">
<rect width="1640" height="1114" fill="white"/>
</clipPath>
</defs>
</svg>
