<?xml version="1.0" encoding="utf-8"?>
<!-- Generator: Adobe Illustrator 23.0.6, SVG Export Plug-In . SVG Version: 6.00 Build 0)  -->
<svg version="1.1" id="Ebene_1" xmlns="http://www.w3.org/2000/svg" xmlns:xlink="http://www.w3.org/1999/xlink" x="0px" y="0px"
	 width="1850px" height="962px" viewBox="0 0 1850 962" style="enable-background:new 0 0 1850 962;" xml:space="preserve">
<style type="text/css">
	.st0{fill:#FFF8E8;filter:url(#Adobe_OpacityMaskFilter);}
	.st1{mask:url(#mask0_1_);}
	.st2{opacity:0.25;}
	.st3{fill:#73CE5F;}
</style>
<defs>
	<filter id="Adobe_OpacityMaskFilter" filterUnits="userSpaceOnUse" x="20" y="288.3" width="1803.1" height="1375.2">
		<feColorMatrix  type="matrix" values="1 0 0 0 0  0 1 0 0 0  0 0 1 0 0  0 0 0 1 0"/>
	</filter>
</defs>
<mask maskUnits="userSpaceOnUse" x="20" y="288.3" width="1803.1" height="1375.2" id="mask0_1_">
	<rect y="0" class="st0" width="1850" height="962"/>
</mask>
<g class="st1">
	<g class="st2">
		<path class="st3" d="M1107.9,930.2l164,677l407-1070.4L1107.9,930.2z"/>
	</g>
	<g class="st2">
		<path class="st3" d="M1008.7,538.6l162.3,818.3l652.2-974.3L1008.7,538.6z"/>
	</g>
	<g class="st2">
		<path class="st3" d="M907.8,288.3l162.3,818.3l568.4-574.1L907.8,288.3z"/>
	</g>
	<g class="st2">
		<path class="st3" d="M665.8,967.9l269.2,667.5l773.3-1281.8L665.8,967.9z"/>
	</g>
	<g class="st2">
		<path class="st3" d="M564.8,717.6L834,1385l689.5-881.6L564.8,717.6z"/>
	</g>
	<g class="st2">
		<path class="st3" d="M463.9,467.3L733,1134.8l605.8-481.4L463.9,467.3z"/>
	</g>
	<g class="st2">
		<path class="st3" d="M221.9,1146.9l376,516.6l810.7-1189.1L221.9,1146.9z"/>
	</g>
	<g class="st2">
		<path class="st3" d="M120.9,896.6l376,516.6l726.9-788.9L120.9,896.6z"/>
	</g>
	<g class="st2">
		<path class="st3" d="M20,646.3l376,516.6l643.2-388.7L20,646.3z"/>
	</g>
</g>
</svg>
