<svg width="1850" height="962" viewBox="0 0 1850 962" fill="none" xmlns="http://www.w3.org/2000/svg">
<mask id="mask0" mask-type="alpha" maskUnits="userSpaceOnUse" x="0" y="0" width="1850" height="962">
<rect width="1850" height="962" fill="#FFF8E8"/>
</mask>
<g mask="url(#mask0)">
<g style="mix-blend-mode:multiply" opacity="0.25">
<path d="M1107.92 930.175L1271.92 1607.21L1678.89 536.797L1107.92 930.175Z" fill="#E8A200"/>
</g>
<g style="mix-blend-mode:multiply" opacity="0.25">
<path d="M1008.72 538.588L1170.99 1356.92L1823.15 382.61L1008.72 538.588Z" fill="#E8A200"/>
</g>
<g style="mix-blend-mode:multiply" opacity="0.25">
<path d="M907.788 288.292L1070.06 1106.62L1638.47 532.527L907.788 288.292Z" fill="#E8A200"/>
</g>
<g style="mix-blend-mode:multiply" opacity="0.25">
<path d="M665.76 967.884L934.913 1635.34L1708.2 353.519L665.76 967.884Z" fill="#E8A200"/>
</g>
<g style="mix-blend-mode:multiply" opacity="0.25">
<path d="M564.829 717.588L833.981 1385.04L1523.52 503.435L564.829 717.588Z" fill="#E8A200"/>
</g>
<g style="mix-blend-mode:multiply" opacity="0.25">
<path d="M463.896 467.293L733.048 1134.75L1338.84 653.352L463.896 467.293Z" fill="#E8A200"/>
</g>
<g style="mix-blend-mode:multiply" opacity="0.25">
<path d="M221.868 1146.88L597.903 1663.46L1408.58 474.345L221.868 1146.88Z" fill="#E8A200"/>
</g>
<g style="mix-blend-mode:multiply" opacity="0.25">
<path d="M120.937 896.589L496.972 1413.17L1223.89 624.261L120.937 896.589Z" fill="#E8A200"/>
</g>
<g style="mix-blend-mode:multiply" opacity="0.25">
<path d="M20.006 646.294L396.041 1162.87L1039.21 774.178L20.006 646.294Z" fill="#E8A200"/>
</g>
</g>
</svg>
