<?xml version="1.0" encoding="utf-8"?>
<!-- Generator: Adobe Illustrator 23.0.4, SVG Export Plug-In . SVG Version: 6.00 Build 0)  -->
<svg version="1.1" id="Ebene_1" xmlns="http://www.w3.org/2000/svg" xmlns:xlink="http://www.w3.org/1999/xlink" x="0px" y="0px"
	 viewBox="0 0 1440 487" style="enable-background:new 0 0 1440 487;" xml:space="preserve">
<style type="text/css">
	.st0{opacity:0.9;}
	.st1{opacity:0.25;}
</style>
<g class="st0">
	<g>
		<g class="st1">
			<path d="M865.5-237.8h285.2L200,497.7L865.5-237.8z"/>
		</g>
		<g class="st1">
			<path d="M865.5-237.8L989.1,130L200,497.7L865.5-237.8z"/>
		</g>
		<g class="st1">
			<path d="M865.5-237.8l-38,735.5H200L865.5-237.8z"/>
		</g>
		<g class="st1">
			<path d="M865.5-237.8L665.9,865.5L200,497.7L865.5-237.8z"/>
		</g>
		<g class="st1">
			<path d="M865.5-237.8L504.2,1233.3L200,497.7L865.5-237.8z"/>
		</g>
		<g class="st1">
			<path d="M865.5-237.8h465.9L200,328L865.5-237.8z"/>
		</g>
		<g class="st1">
			<path d="M865.5-237.8L1169.7,130L200,328L865.5-237.8z"/>
		</g>
		<g class="st1">
			<path d="M865.5-237.8l142.6,735.5L200,328L865.5-237.8z"/>
		</g>
		<g class="st1">
			<path d="M865.5-237.8l-19,1103.3L200,328L865.5-237.8z"/>
		</g>
		<g class="st1">
			<path d="M865.5-237.8L684.9,1233.3L200,328L865.5-237.8z"/>
		</g>
		<g class="st1">
			<path d="M865.5-237.8H1512L200,158.3L865.5-237.8z"/>
		</g>
		<g class="st1">
			<path d="M865.5-237.8L1350.4,130L200,158.3L865.5-237.8z"/>
		</g>
		<g class="st1">
			<path d="M865.5-237.8l323.2,735.5L200,158.3L865.5-237.8z"/>
		</g>
		<g class="st1">
			<path d="M865.5-237.8l161.6,1103.3L200,158.3L865.5-237.8z"/>
		</g>
		<g class="st1">
			<path d="M865.5-237.8v1471.1L200,158.3L865.5-237.8z"/>
		</g>
	</g>
</g>
</svg>
