<?xml version="1.0" encoding="utf-8"?>
<!-- Generator: Adobe Illustrator 23.0.4, SVG Export Plug-In . SVG Version: 6.00 Build 0)  -->
<svg version="1.1" id="Ebene_1" xmlns="http://www.w3.org/2000/svg" xmlns:xlink="http://www.w3.org/1999/xlink" x="0px" y="0px"
	 viewBox="0 0 500 500" style="enable-background:new 0 0 500 500;" xml:space="preserve">
<style type="text/css">
	.st0{opacity:0.25;}
	.st1{fill:#29B96F;}
</style>
<g class="st0">
	<path class="st1" d="M103-533.8l-990.8,990.9l-4.2-4.2L98.8-538L103-533.8z M111.3-525.4l-4.2-4.2l-990.8,990.9l4.2,4.2
		L111.3-525.4z M119.7-517.2l-4.2-4.2l-990.9,991.1l4.2,4.2L119.7-517.2z M127.9-508.8l-4.2-4.2L-867,477.9l4.2,4.2L127.9-508.8z
		 M136.3-500.4l-4.2-4.2l-990.8,990.9l4.2,4.2L136.3-500.4z M144.7-492.1l-4.2-4.2l-990.8,990.9l4.2,4.2L144.7-492.1z M152.9-483.8
		l-4.2-4.2L-842,503.1l4.2,4.2L152.9-483.8z M161.3-475.4l-4.2-4.2l-990.8,990.9l4.2,4.2L161.3-475.4z M169.7-467.1l-4.2-4.2
		l-990.8,990.9l4.2,4.2L169.7-467.1z M178.1-458.8l-4.2-4.2l-990.8,991.1l4.2,4.2L178.1-458.8z M186.3-450.4l-4.2-4.2l-990.8,991.1
		l4.2,4.2L186.3-450.4z M194.7-442.1l-4.2-4.2l-990.8,990.9l4.2,4.2L194.7-442.1z M203.1-433.7l-4.2-4.2L-791.9,553l4.2,4.2
		L203.1-433.7z M211.4-425.5l-4.2-4.2l-990.8,991.1l4.2,4.2L211.4-425.5z M219.7-417.1l-4.2-4.2l-990.8,990.9l4.2,4.2L219.7-417.1z
		 M228.1-408.7l-4.2-4.2L-766.9,578l4.2,4.2L228.1-408.7z M236.4-400.3l-4.2-4.2l-990.8,990.9l4.2,4.2L236.4-400.3z M244.8-392.1
		l-4.2-4.2l-990.9,991.1l4.2,4.2L244.8-392.1z M253-383.7l-4.2-4.2L-741.9,603l4.2,4.2L253-383.7z M261.4-375.3l-4.2-4.2
		l-990.8,990.9l4.2,4.2L261.4-375.3z M269.8-366.9l-4.2-4.2l-990.8,990.9l4.2,4.2L269.8-366.9z M278.2-358.7l-4.2-4.2l-990.9,991.1
		l4.2,4.2L278.2-358.7z M286.4-350.3l-4.2-4.2l-990.8,990.9l4.2,4.2L286.4-350.3z M294.8-341.9l-4.2-4.2l-990.8,990.9l4.2,4.2
		L294.8-341.9z M303.2-333.7l-4.2-4.2l-990.8,991.1l4.2,4.2L303.2-333.7z M311.4-325.3l-4.2-4.2l-990.8,991.1l4.2,4.2L311.4-325.3z
		 M319.8-316.9l-4.2-4.2l-990.8,990.9l4.2,4.2L319.8-316.9z M328.2-308.6l-4.2-4.2l-990.8,990.9l4.2,4.2L328.2-308.6z M336.5-300.3
		l-4.2-4.2l-990.8,991.1l4.2,4.2L336.5-300.3z M344.8-292l-4.2-4.2l-990.8,991.1l4.2,4.2L344.8-292z M353.2-283.6l-4.2-4.2
		l-990.8,990.9l4.2,4.2L353.2-283.6z M361.5-275.2l-4.2-4.2l-990.8,990.9l4.2,4.2L361.5-275.2z M369.9-267l-4.2-4.2L-625,719.9
		l4.2,4.2L369.9-267z M378.1-258.6l-4.2-4.2l-990.8,990.9l4.2,4.2L378.1-258.6z M386.5-250.2l-4.2-4.2l-990.8,990.9l4.2,4.2
		L386.5-250.2z M394.9-241.8l-4.2-4.2l-990.8,990.9l4.2,4.2L394.9-241.8z M403.3-233.6l-4.2-4.2l-990.9,991.1l4.2,4.2L403.3-233.6z
		 M411.5-225.2l-4.2-4.2l-990.8,990.9l4.2,4.2L411.5-225.2z M419.9-216.8l-4.2-4.2l-990.8,990.9l4.2,4.2L419.9-216.8z M428.3-208.4
		l-4.2-4.2l-990.8,990.9l4.2,4.2L428.3-208.4z M436.5-200.2l-4.2-4.2l-990.8,991.1l4.2,4.2L436.5-200.2z M444.9-191.8l-4.2-4.2
		l-990.8,990.9l4.2,4.2L444.9-191.8z M453.3-183.4l-4.2-4.2l-990.8,990.9l4.2,4.2L453.3-183.4z M461.6-175.2l-4.2-4.2l-990.8,991.1
		l4.2,4.2L461.6-175.2z M469.9-166.8l-4.2-4.2l-990.8,991.1l4.2,4.2L469.9-166.8z M478.3-158.5l-4.2-4.2l-990.8,990.9l4.2,4.2
		L478.3-158.5z M486.6-150.1l-4.2-4.2l-990.8,990.9l4.2,4.2L486.6-150.1z M495-141.8l-4.2-4.2l-990.7,991l4.2,4.2L495-141.8z
		 M503.2-133.5l-4.2-4.2l-990.8,990.9l4.2,4.2L503.2-133.5z M511.6-125.1l-4.2-4.2l-990.8,990.9l4.2,4.2L511.6-125.1z M520-116.7
		l-4.2-4.2L-475,870l4.2,4.2L520-116.7z M528.4-108.5l-4.2-4.2l-990.9,991.1l4.2,4.2L528.4-108.5z M536.6-100.1l-4.2-4.2
		l-990.8,990.9l4.2,4.2L536.6-100.1z M545-91.7l-4.2-4.2L-450,895l4.2,4.2L545-91.7z M553.4-83.3l-4.2-4.2l-990.8,990.9l4.2,4.2
		L553.4-83.3z M561.6-75.1l-4.2-4.2l-990.8,991.1l4.2,4.2L561.6-75.1z M570-66.7l-4.2-4.2L-425,920l4.2,4.2L570-66.7z M578.4-58.3
		l-4.2-4.2l-990.8,990.9l4.2,4.2L578.4-58.3z M586.7-50.1l-4.2-4.2l-990.8,991.1l4.2,4.2L586.7-50.1z M595-41.7l-4.2-4.2L-400,945.2
		l4.2,4.2L595-41.7z M603.4-33.3l-4.2-4.2l-990.8,990.9l4.2,4.2L603.4-33.3z M611.7-25l-4.2-4.2l-990.8,990.9l4.2,4.2L611.7-25z
		 M620.1-16.7l-4.2-4.2L-374.8,970l4.2,4.2L620.1-16.7z M628.3-8.3l-4.2-4.2l-990.8,990.9l4.2,4.2L628.3-8.3z M774.8-138.1l-4.2-4.2
		l-822.7,823l4.2,4.2L774.8-138.1z M783.2-129.7l-4.2-4.2L-43.8,689l4.2,4.2L783.2-129.7z M791.6-121.5l-4.2-4.2l-822.9,823l4.2,4.2
		L791.6-121.5z M800-113.1l-4.2-4.2l-822.9,823l4.2,4.2L800-113.1z M808.2-104.7l-4.2-4.2l-822.7,823l4.2,4.2L808.2-104.7z
		 M816.6-96.5l-4.2-4.2l-822.9,823l4.2,4.2L816.6-96.5z M825-88.1l-4.2-4.2l-822.9,823l4.2,4.2L825-88.1z M833.2-79.7l-4.2-4.2
		L6.3,739.1l4.2,4.2L833.2-79.7z M841.6-71.3l-4.2-4.2l-822.7,823l4.2,4.2L841.6-71.3z M850-63.1l-4.2-4.2l-822.9,823l4.2,4.2
		L850-63.1z M858.3-54.7l-4.2-4.2l-822.9,823l4.2,4.2L858.3-54.7z M866.6-46.4l-4.2-4.2l-822.7,823l4.2,4.2L866.6-46.4z M875-38
		l-4.2-4.2L48,780.8l4.2,4.2L875-38z M883.3-29.7l-4.2-4.2l-822.9,823l4.2,4.2L883.3-29.7z M891.7-21.4l-4.2-4.2l-822.9,823l4.2,4.2
		L891.7-21.4z M899.9-13l-4.2-4.2L73,805.8l4.2,4.2L899.9-13z M908.3-4.6l-4.2-4.2L81.3,814.1l4.2,4.2L908.3-4.6z M916.7,3.6
		l-4.2-4.2l-822.9,823l4.2,4.2L916.7,3.6z M925.1,12l-4.2-4.2L98,830.8l4.2,4.2L925.1,12z M933.3,20.4l-4.2-4.2l-822.7,823l4.2,4.2
		L933.3,20.4z M941.7,28.6l-4.2-4.2l-822.9,823l4.2,4.2L941.7,28.6z M950.1,37l-4.2-4.2L123,855.8l4.2,4.2L950.1,37z M958.5,45.4
		l-4.2-4.2l-822.9,823l4.2,4.2L958.5,45.4z M966.7,53.8l-4.2-4.2l-822.7,823l4.2,4.2L966.7,53.8z M975.1,62l-4.2-4.2L148,880.8
		l4.2,4.2L975.1,62z M983.4,70.4l-4.2-4.2l-822.9,823l4.2,4.2L983.4,70.4z M991.7,78.8l-4.2-4.2l-822.7,823l4.2,4.2L991.7,78.8z
		 M1000,87.1l-4.2-4.2L173.1,906l4.2,4.2L1000,87.1z M1008.4,95.4l-4.2-4.2l-822.9,823l4.2,4.2L1008.4,95.4z M1016.8,103.8l-4.2-4.2
		l-822.9,823l4.2,4.2L1016.8,103.8z M1025,112.1l-4.2-4.2L198.1,931l4.2,4.2L1025,112.1z M1033.4,120.5l-4.2-4.2L206.4,939.2
		l4.2,4.2L1033.4,120.5z M1041.8,128.8l-4.2-4.2l-822.9,823l4.2,4.2L1041.8,128.8z M1050.2,137.1l-4.2-4.2L223.1,956l4.2,4.2
		L1050.2,137.1z M1058.4,145.5l-4.2-4.2l-822.9,823l4.2,4.2L1058.4,145.5z M1066.8,153.9l-4.2-4.2l-822.9,823l4.2,4.2L1066.8,153.9z
		 M1075.2,162.1l-4.2-4.2l-822.9,823l4.2,4.2L1075.2,162.1z M1083.6,170.5l-4.2-4.2l-822.9,823l4.2,4.2L1083.6,170.5z M1091.8,178.9
		l-4.2-4.2l-822.9,823l4.2,4.2L1091.8,178.9z M1100.2,187.1l-4.2-4.2l-822.9,823l4.2,4.2L1100.2,187.1z M1108.5,195.5l-4.2-4.2
		l-822.9,823l4.2,4.2L1108.5,195.5z M1116.8,203.9l-4.2-4.2l-822.9,823l4.2,4.2L1116.8,203.9z M1125.2,212.3l-4.2-4.2l-822.9,823
		l4.2,4.2L1125.2,212.3z M1133.5,220.5l-4.2-4.2l-822.9,823l4.2,4.2L1133.5,220.5z M1141.9,228.9l-4.2-4.2l-822.9,823l4.2,4.2
		L1141.9,228.9z M1150.1,237.3l-4.2-4.2l-822.9,823l4.2,4.2L1150.1,237.3z M1158.5,245.6l-4.2-4.2l-822.9,823l4.2,4.2L1158.5,245.6z
		 M1166.9,253.9l-4.2-4.2l-822.9,823l4.2,4.2L1166.9,253.9z M1175.3,262.3l-4.2-4.2l-822.9,823l4.2,4.2L1175.3,262.3z M1183.5,270.6
		l-4.2-4.2l-822.9,823l4.2,4.2L1183.5,270.6z M1191.9,279l-4.2-4.2l-822.9,823l4.2,4.2L1191.9,279z M1200.3,287.2l-4.2-4.2
		l-822.9,823l4.2,4.2L1200.3,287.2z M1208.7,295.6l-4.2-4.2l-822.9,823l4.2,4.2L1208.7,295.6z M1216.9,304l-4.2-4.2l-822.9,823
		l4.2,4.2L1216.9,304z M1225.3,312.2l-4.2-4.2l-822.9,823l4.2,4.2L1225.3,312.2z M1233.6,320.6l-4.2-4.2l-822.9,823l4.2,4.2
		L1233.6,320.6z M1241.9,329l-4.2-4.2l-822.9,823l4.2,4.2L1241.9,329z M1250.2,337.4l-4.2-4.2l-822.7,823l4.2,4.2L1250.2,337.4z
		 M1258.6,345.6l-4.2-4.2l-822.9,823l4.2,4.2L1258.6,345.6z M1267,354l-4.2-4.2l-822.9,823l4.2,4.2L1267,354z M1275.2,362.4
		l-4.2-4.2l-822.9,823l4.2,4.2L1275.2,362.4z M1283.6,370.8l-4.2-4.2l-822.9,823l4.2,4.2L1283.6,370.8z M464.9,1197.8l4.2,4.2
		L1292,379l-4.2-4.2L464.9,1197.8z"/>
</g>
</svg>
