<?xml version="1.0" encoding="utf-8"?>
<!-- Generator: Adobe Illustrator 23.0.4, SVG Export Plug-In . SVG Version: 6.00 Build 0)  -->
<svg version="1.1" id="Ebene_1" xmlns="http://www.w3.org/2000/svg" xmlns:xlink="http://www.w3.org/1999/xlink" x="0px" y="0px"
	 viewBox="0 0 375 50" style="enable-background:new 0 0 375 50;" xml:space="preserve">
<style type="text/css">
	.st0{fill:#29B96F;}
</style>
<g>
	<polygon class="st0" points="284.7,-60 200.1,-11.2 284.7,37.6 369.3,-11.2 	"/>
	<polygon class="st0" points="197.6,38.5 218.9,1.6 154.9,13.9 	"/>
	<polygon class="st0" points="43.7,26 63.8,37.6 73.8,20.2 	"/>
	<path class="st0" d="M93.6,34.4c-4.5-2.6-11.6-2.6-16.1,0c-2.5,1.5-3.9,3.5-3.9,5.8c0,2.3,1.4,4.3,3.9,5.8c2.3,1.3,5.2,2,8.1,2
		c2.9,0,5.8-0.7,8.1-2h0c2.5-1.5,3.9-3.5,3.9-5.8C97.6,37.9,96.2,35.9,93.6,34.4z"/>
	<polygon class="st0" points="133.6,28.1 151.7,38.6 169.8,28.1 151.7,17.7 	"/>
	<path class="st0" d="M138,34.9c-4.5-2.6-11.6-2.6-16.1,0c-2.5,1.5-3.9,3.5-3.9,5.8c0,2.3,1.4,4.3,3.9,5.8c2.3,1.3,5.2,2,8.1,2
		c2.9,0,5.8-0.7,8.1-2c2.5-1.5,3.9-3.5,3.9-5.8C141.9,38.4,140.5,36.3,138,34.9z"/>
	<polygon class="st0" points="79.7,-21.4 20.8,-12.3 63.9,12.6 	"/>
</g>
</svg>
