<?xml version="1.0" encoding="utf-8"?>
<!-- Generator: Adobe Illustrator 23.0.4, SVG Export Plug-In . SVG Version: 6.00 Build 0)  -->
<svg version="1.1" id="Ebene_1" xmlns="http://www.w3.org/2000/svg" xmlns:xlink="http://www.w3.org/1999/xlink" x="0px" y="0px"
	 viewBox="0 0 1377 83" style="enable-background:new 0 0 1377 83;" xml:space="preserve">
<style type="text/css">
	.st0{fill:#29B96F;}
</style>
<g>
	<polygon class="st0" points="401.8,-38.5 528.3,34.5 654.9,-38.5 528.3,-111.5 	"/>
	<polygon class="st0" points="397.8,36 429.5,-18.9 334.4,-0.6 	"/>
	<polygon class="st0" points="167.5,17.6 197.1,34.6 211.8,9 	"/>
	<path class="st0" d="M242.2,30.5c-7.1-4.1-18.2-4.1-25.3,0c-3.7,2.1-5.7,5-5.7,8.2c0,3.1,2,6,5.7,8.2c3.5,2,8.1,3.1,12.6,3.1
		c4.5,0,9.1-1,12.6-3.1c3.7-2.1,5.7-5,5.7-8.2C247.9,35.5,245.9,32.6,242.2,30.5z"/>
	<polygon class="st0" points="302,20.5 328.8,35.9 355.5,20.5 328.8,5 	"/>
	<path class="st0" d="M308.7,31.2c-7.1-4.1-18.2-4.1-25.3,0c-3.7,2.1-5.7,5-5.7,8.2s2,6,5.7,8.2c3.5,2,8.1,3.1,12.6,3.1
		c4.5,0,9.1-1,12.6-3.1c3.7-2.1,5.7-5,5.7-8.2S312.4,33.3,308.7,31.2z"/>
	<polygon class="st0" points="1206.1,14.2 1208.1,9.9 1166,16.4 1196.8,34.2 	"/>
	<polygon class="st0" points="1266.1,45.1 1239.4,60.6 1266.1,76 1292.9,60.6 	"/>
	<polygon class="st0" points="1098.8,15.3 1108.1,-4.6 1110.1,-8.9 1068,-2.4 	"/>
	<polygon class="st0" points="1198,72.5 1207.3,52.6 1209.3,48.3 1167.2,54.8 	"/>
</g>
</svg>
