<?xml version="1.0" encoding="utf-8"?>
<!-- Generator: Adobe Illustrator 23.0.4, SVG Export Plug-In . SVG Version: 6.00 Build 0)  -->
<svg version="1.1" id="Ebene_1" xmlns="http://www.w3.org/2000/svg" xmlns:xlink="http://www.w3.org/1999/xlink" x="0px" y="0px"
	 viewBox="0 0 768 83" style="enable-background:new 0 0 768 83;" xml:space="preserve">
<style type="text/css">
	.st0{fill:#29B96F;}
</style>
<g>
	<polygon class="st0" points="515.4,-111.7 388.4,-38.5 515.4,34.8 642.3,-38.5 	"/>
	<polygon class="st0" points="384.6,36.1 416.6,-19.3 320.6,-0.8 	"/>
	<polygon class="st0" points="153.7,17.3 183.8,34.7 198.9,8.6 	"/>
	<path class="st0" d="M228.7,29.9c-6.8-3.9-17.4-3.9-24.2,0c-3.8,2.2-5.9,5.3-5.9,8.7c0,3.4,2.1,6.5,5.9,8.7c3.4,2,7.7,2.9,12.1,2.9
		c4.3,0,8.7-1,12.1-2.9c3.8-2.2,5.9-5.3,5.9-8.7S232.5,32.1,228.7,29.9z"/>
	<polygon class="st0" points="288.6,20.5 315.8,36.2 343,20.5 315.8,4.8 	"/>
	<path class="st0" d="M295.2,30.6c-6.8-3.9-17.4-3.9-24.2,0c-3.8,2.2-5.9,5.3-5.9,8.7s2.1,6.5,5.9,8.7c3.4,2,7.7,2.9,12.1,2.9
		c4.3,0,8.7-1,12.1-2.9c3.8-2.2,5.9-5.3,5.9-8.7S299,32.8,295.2,30.6z"/>
</g>
</svg>
