<svg width="1440" height="219" viewBox="0 0 1440 219" fill="none" xmlns="http://www.w3.org/2000/svg">
<mask id="mask0" mask-type="alpha" maskUnits="userSpaceOnUse" x="0" y="0" width="1440" height="219">
<rect width="1440" height="219" fill="#C4C4C4"/>
</mask>
<g mask="url(#mask0)">
<g style="mix-blend-mode:multiply">
<path d="M644.251 -16.448L608.818 0.686951L585.392 -110.706L644.251 -16.448Z" fill="#E8A200"/>
</g>
<g style="mix-blend-mode:multiply">
<path d="M705.916 -11.1375L667.702 -4.5581L641.123 -104.182L705.916 -11.1375Z" fill="#E8A200"/>
</g>
<g style="mix-blend-mode:multiply">
<path d="M767.58 -5.82716L726.587 -9.80337L696.854 -97.6584L767.58 -5.82716Z" fill="#E8A200"/>
</g>
<g style="mix-blend-mode:multiply">
<path d="M890.909 4.79394L844.357 -20.2934L808.317 -84.6106L890.909 4.79394Z" fill="#E8A200"/>
</g>
<g style="mix-blend-mode:multiply">
<path d="M952.573 10.1045L903.242 -25.5384L864.048 -78.0867L952.573 10.1045Z" fill="#E8A200"/>
</g>
<g style="mix-blend-mode:multiply">
<path d="M1014.24 15.4148L962.127 -30.7837L919.78 -71.563L1014.24 15.4148Z" fill="#E8A200"/>
</g>
<g style="mix-blend-mode:multiply">
<path d="M1075.9 20.7253L1021.01 -36.0287L975.511 -65.0391L1075.9 20.7253Z" fill="#E8A200"/>
</g>
<g style="mix-blend-mode:multiply">
<path d="M1137.56 26.0356L1079.9 -41.274L1031.24 -58.5154L1137.56 26.0356Z" fill="#E8A200"/>
</g>
<g style="mix-blend-mode:multiply">
<path d="M1199.23 31.3464L1138.78 -46.5188L1086.97 -51.9912L1199.23 31.3464Z" fill="#E8A200"/>
</g>
<g style="mix-blend-mode:multiply">
<path d="M227.667 -60.5922L192.458 21.9891L141 -66.0073L227.667 -60.5922Z" fill="#E8A200"/>
</g>
<g style="mix-blend-mode:multiply">
<path d="M224.958 23.343L192.458 77.4946L141 -17.2708L224.958 23.343Z" fill="#E8A200"/>
</g>
<g style="mix-blend-mode:multiply">
<path d="M222.25 107.278L192.458 133L141 31.4658L222.25 107.278Z" fill="#E8A200"/>
</g>
<g style="mix-blend-mode:multiply">
<path d="M288.604 -71.4223L247.979 1.68236L196.521 -74.1299L288.604 -71.4223Z" fill="#E8A200"/>
</g>
<g style="mix-blend-mode:multiply">
<path d="M285.896 12.5126L247.979 57.1877L196.521 -25.3936L285.896 12.5126Z" fill="#E8A200"/>
</g>
<g style="mix-blend-mode:multiply">
<path d="M283.188 96.4477L247.979 112.693L196.521 23.343L283.188 96.4477Z" fill="#E8A200"/>
</g>
<g style="mix-blend-mode:multiply">
<path d="M346.833 1.6822L303.5 36.8808L252.042 -33.5164L346.833 1.6822Z" fill="#E8A200"/>
</g>
<g style="mix-blend-mode:multiply">
<path d="M344.125 85.6173L303.5 92.3863L252.042 15.2202L344.125 85.6173Z" fill="#E8A200"/>
</g>
<g style="mix-blend-mode:multiply">
<path d="M407.771 -9.14794L359.021 16.5741L307.562 -41.6389L407.771 -9.14794Z" fill="#E8A200"/>
</g>
<g style="mix-blend-mode:multiply">
<path d="M405.062 74.787L359.021 72.0794L307.562 7.09741L405.062 74.787Z" fill="#E8A200"/>
</g>
<g style="mix-blend-mode:multiply">
<path d="M466 63.9566L414.542 51.7724L363.083 -1.02539L466 63.9566Z" fill="#E8A200"/>
</g>
<g style="mix-blend-mode:multiply">
<path d="M526.937 53.1264L470.062 31.4658L418.604 -9.14795L526.937 53.1264Z" fill="#E8A200"/>
</g>
<g style="mix-blend-mode:multiply">
<path d="M587.875 42.296L525.583 11.1589L474.125 -17.2708L587.875 42.296Z" fill="#E8A200"/>
</g>
<g style="mix-blend-mode:multiply">
<path d="M648.813 31.4656L581.104 -9.14808L529.646 -25.3936L648.813 31.4656Z" fill="#E8A200"/>
</g>
<g style="mix-blend-mode:multiply">
<path d="M709.75 20.6353L636.625 -29.455L585.167 -33.5164L709.75 20.6353Z" fill="#E8A200"/>
</g>
<g style="mix-blend-mode:multiply">
<path d="M770.688 9.80505L692.146 -49.7617L640.688 -41.639L770.688 9.80505Z" fill="#E8A200"/>
</g>
</g>
</svg>
