<svg width="1439" height="1440" viewBox="0 0 1439 1440" fill="none" xmlns="http://www.w3.org/2000/svg">
<mask id="mask0" mask-type="alpha" maskUnits="userSpaceOnUse" x="0" y="-1" width="1440" height="1441">
<rect y="-0.000732422" width="1440" height="1440" fill="black"/>
</mask>
<g mask="url(#mask0)">
<rect y="-0.000732422" width="1440" height="1440" fill="black"/>
<g style="mix-blend-mode:screen" opacity="0.25">
<path d="M1027.52 -946H1613.17L-339 575.832L1027.52 -946Z" fill="white" fill-opacity="0.25"/>
</g>
<g style="mix-blend-mode:screen" opacity="0.25">
<path d="M1027.52 -946L1281.3 -185.084L-339 575.832L1027.52 -946Z" fill="white" fill-opacity="0.25"/>
</g>
<g style="mix-blend-mode:screen" opacity="0.25">
<path d="M1027.52 -946L949.435 575.832H-339L1027.52 -946Z" fill="white" fill-opacity="0.25"/>
</g>
<g style="mix-blend-mode:screen" opacity="0.25">
<path d="M1027.52 -946L617.565 1336.75L-339 575.832L1027.52 -946Z" fill="white" fill-opacity="0.25"/>
</g>
<g style="mix-blend-mode:screen" opacity="0.25">
<path d="M1027.52 -946L285.696 2097.66L-339 575.832L1027.52 -946Z" fill="white" fill-opacity="0.25"/>
</g>
<g style="mix-blend-mode:screen" opacity="0.25">
<path d="M1027.52 -946H1984.09L-339 224.64L1027.52 -946Z" fill="white" fill-opacity="0.25"/>
</g>
<g style="mix-blend-mode:screen" opacity="0.25">
<path d="M1027.52 -946L1652.22 -185.084L-339 224.64L1027.52 -946Z" fill="white" fill-opacity="0.25"/>
</g>
<g style="mix-blend-mode:screen" opacity="0.25">
<path d="M1027.52 -946L1320.35 575.832L-339 224.64L1027.52 -946Z" fill="white" fill-opacity="0.25"/>
</g>
<g style="mix-blend-mode:screen" opacity="0.25">
<path d="M1027.52 -946L988.478 1336.75L-339 224.64L1027.52 -946Z" fill="white" fill-opacity="0.25"/>
</g>
<g style="mix-blend-mode:screen" opacity="0.25">
<path d="M1027.52 -946L656.609 2097.66L-339 224.64L1027.52 -946Z" fill="white" fill-opacity="0.25"/>
</g>
<g style="mix-blend-mode:screen" opacity="0.25">
<path d="M1027.52 -946L1691.26 575.832L-339 -126.552L1027.52 -946Z" fill="white" fill-opacity="0.25"/>
</g>
<g style="mix-blend-mode:screen" opacity="0.25">
<path d="M1027.52 -946L1359.39 1336.75L-339 -126.552L1027.52 -946Z" fill="white" fill-opacity="0.25"/>
</g>
<g style="mix-blend-mode:screen" opacity="0.25">
<path d="M1027.52 -946V2097.66L-339 -126.552L1027.52 -946Z" fill="white" fill-opacity="0.25"/>
</g>
</g>
</svg>
