<?xml version="1.0" encoding="utf-8"?>
<!-- Generator: Adobe Illustrator 23.0.4, SVG Export Plug-In . SVG Version: 6.00 Build 0)  -->
<svg version="1.1" id="Ebene_1" xmlns="http://www.w3.org/2000/svg" xmlns:xlink="http://www.w3.org/1999/xlink" x="0px" y="0px"
	 viewBox="0 0 500 500" style="enable-background:new 0 0 500 500;" xml:space="preserve">
<style type="text/css">
	.st0{fill:#C4C4C4;filter:url(#Adobe_OpacityMaskFilter);}
	.st1{opacity:0.25;mask:url(#mask0_1_);}
	.st2{fill:none;stroke:#29B96F;stroke-width:2.5;}
</style>
<defs>
	<filter id="Adobe_OpacityMaskFilter" filterUnits="userSpaceOnUse" x="-598.6" y="-569.6" width="1703" height="1703">
		<feColorMatrix  type="matrix" values="1 0 0 0 0  0 1 0 0 0  0 0 1 0 0  0 0 0 1 0"/>
	</filter>
</defs>
<mask maskUnits="userSpaceOnUse" x="-598.6" y="-569.6" width="1703" height="1703" id="mask0_1_">
	<rect class="st0" width="500" height="500"/>
</mask>
<g class="st1">
	<path class="st2" d="M-597.6,241.7l25.7-34.7c5.8-7.8,12.7-14.8,20.5-20.6l23.7-17.7c7.8-5.8,14.7-12.8,20.5-20.6l16.9-22.7
		c5.9-7.9,12.9-14.9,20.8-20.8l22.6-16.8c7.9-5.9,14.9-12.9,20.8-20.8l16.7-22.5c5.9-8,13-15,21-20.9l21.6-15.9
		c7.9-5.8,15-12.8,20.8-20.7l17.5-23.5c5.9-7.9,12.9-14.9,20.8-20.7l21.8-16c7.9-5.8,15-12.8,20.8-20.7l17.6-23.6
		c5.8-7.8,12.8-14.7,20.6-20.5l22.6-16.8c8-5.9,15.1-13,20.9-21l15.9-21.5c5.9-8,13-15.1,20.9-21l22.6-16.8
		c7.8-5.8,14.8-12.7,20.6-20.5l17.7-23.7c5.8-7.8,12.8-14.7,20.6-20.5l22.7-16.9c7.9-5.9,14.9-12.9,20.8-20.8l16.8-22.6
		c5.9-7.9,12.9-14.9,20.8-20.8l22.6-16.8c7.9-5.9,14.9-12.9,20.8-20.8l16.8-22.6c5.9-7.9,12.9-14.9,20.8-20.8l22.5-16.7
		c8-5.9,15-13,20.9-21l15.9-21.6c5.8-7.9,12.8-15,20.7-20.8l35.4-26.4"/>
	<path class="st2" d="M-583.5,255.9l25.7-34.7c5.8-7.8,12.7-14.8,20.5-20.6l23.7-17.7c7.8-5.8,14.7-12.8,20.5-20.6l16.9-22.7
		c5.9-7.9,12.9-14.9,20.8-20.8l22.6-16.8c7.9-5.9,14.9-12.9,20.8-20.8l16.7-22.5c5.9-8,13-15,21-20.9l21.6-15.9
		c7.9-5.8,15-12.8,20.8-20.7l17.5-23.5c5.9-7.9,12.9-14.9,20.8-20.7l21.8-16c7.9-5.8,15-12.8,20.8-20.7l17.6-23.6
		c5.8-7.8,12.8-14.7,20.6-20.5l22.6-16.8c8-5.9,15-13,20.9-21l15.9-21.5c5.9-8,13-15.1,20.9-21l22.6-16.8
		c7.8-5.8,14.8-12.7,20.6-20.5l17.7-23.7c5.8-7.8,12.8-14.7,20.6-20.5l22.7-16.9c7.9-5.9,14.9-12.9,20.8-20.8l16.8-22.6
		c5.9-7.9,12.9-14.9,20.8-20.8L53-383.7c7.9-5.9,14.9-12.9,20.8-20.8l16.8-22.6c5.9-7.9,12.9-14.9,20.8-20.8l22.5-16.7
		c8-5.9,15-13,20.9-21l15.9-21.6c5.8-7.9,12.8-15,20.7-20.8l35.4-26.4"/>
	<path class="st2" d="M-569.3,270l25.7-34.7c5.8-7.8,12.7-14.8,20.5-20.6l23.7-17.7c7.8-5.8,14.7-12.8,20.5-20.6l16.9-22.7
		c5.9-7.9,12.9-14.9,20.8-20.8l22.6-16.8c7.9-5.9,14.9-12.9,20.8-20.8l16.7-22.5c5.9-8,13-15,21-20.9l21.6-15.9
		c7.9-5.8,15-12.8,20.8-20.7l17.5-23.5c5.9-7.9,12.9-14.9,20.8-20.7l21.8-16c7.9-5.8,15-12.8,20.8-20.7l17.6-23.6
		c5.8-7.8,12.8-14.7,20.6-20.5l22.6-16.8c8-5.9,15-13,20.9-21l15.9-21.5c5.9-8,13-15.1,20.9-21l22.6-16.8
		c7.8-5.8,14.8-12.7,20.6-20.5l17.7-23.7c5.8-7.8,12.8-14.7,20.6-20.5l22.7-16.9c7.9-5.9,14.9-12.9,20.8-20.8L23.8-332
		c5.9-7.9,12.9-14.9,20.8-20.8l22.6-16.8c7.9-5.9,14.9-12.9,20.8-20.8l16.8-22.6c5.9-7.9,12.9-14.9,20.8-20.8l22.5-16.7
		c8-5.9,15-13,20.9-21l15.9-21.6c5.8-7.9,12.8-15,20.7-20.8l35.4-26.4"/>
	<path class="st2" d="M-555.2,284.1l25.7-34.7c5.8-7.8,12.7-14.8,20.5-20.6l23.7-17.7c7.8-5.8,14.7-12.8,20.5-20.6l16.9-22.7
		c5.9-7.9,12.9-14.9,20.8-20.8l22.6-16.8c7.9-5.9,14.9-12.9,20.8-20.8l16.7-22.5c5.9-8,13-15,21-20.9l21.6-15.9
		c7.9-5.8,15-12.8,20.8-20.7l17.5-23.5C-280.1-2-273-9-265.1-14.8l21.8-16c7.9-5.8,15-12.8,20.8-20.7l17.6-23.6
		c5.8-7.8,12.8-14.7,20.6-20.5l22.6-16.8c8-5.9,15-13,20.9-21l15.9-21.5c5.9-8,13-15.1,20.9-21l22.6-16.8
		c7.8-5.8,14.8-12.7,20.6-20.5l17.7-23.7c5.8-7.8,12.8-14.7,20.6-20.5l22.7-16.9c7.9-5.9,14.9-12.9,20.8-20.8l16.8-22.6
		c5.9-7.9,12.9-14.9,20.8-20.8l22.6-16.8c7.9-5.9,14.9-12.9,20.8-20.8l16.8-22.6c5.9-7.9,12.9-14.9,20.8-20.8l22.5-16.7
		c8-5.9,15-13,20.9-21l15.9-21.6c5.8-7.9,12.8-15,20.7-20.8l35.4-26.4"/>
	<path class="st2" d="M-541,298.3l25.7-34.7c5.8-7.8,12.7-14.8,20.5-20.6l23.7-17.7c7.8-5.8,14.7-12.8,20.5-20.6l16.9-22.7
		c5.9-7.9,12.9-14.9,20.8-20.8l22.6-16.8c7.9-5.9,14.9-12.9,20.8-20.8l16.7-22.5c5.9-8,13-15,21-20.9l21.6-15.9
		c7.9-5.8,15-12.8,20.8-20.7l17.5-23.5c5.9-7.9,12.9-14.9,20.8-20.7l21.8-16c7.9-5.8,15-12.8,20.8-20.7l17.6-23.6
		c5.8-7.8,12.8-14.7,20.6-20.5l22.6-16.8c8-5.9,15-13,20.9-21l15.9-21.5c5.9-8,13-15.1,20.9-21l22.6-16.8
		c7.8-5.8,14.8-12.7,20.6-20.5l17.7-23.7c5.8-7.8,12.8-14.7,20.6-20.5l22.7-16.9c7.9-5.9,14.9-12.9,20.8-20.8L52-303.7
		c5.9-7.9,12.9-14.9,20.8-20.8l22.6-16.8c7.9-5.9,14.9-12.9,20.8-20.8l16.8-22.6c5.9-7.9,12.9-14.9,20.8-20.8l22.5-16.7
		c8-5.9,15-13,20.9-21l15.9-21.6c5.8-7.9,12.8-15,20.7-20.8l35.4-26.4"/>
	<path class="st2" d="M-526.9,312.4l25.7-34.7c5.8-7.8,12.7-14.8,20.5-20.6l23.7-17.7c7.8-5.8,14.7-12.8,20.5-20.6l16.9-22.7
		c5.9-7.9,12.9-14.9,20.8-20.8l22.6-16.8c7.9-5.9,14.9-12.9,20.8-20.8l16.7-22.5c5.9-8,13-15.1,21-20.9l21.6-15.9
		c7.9-5.8,15-12.8,20.8-20.7l17.5-23.5c5.9-7.9,12.9-14.9,20.8-20.7l21.8-16c7.9-5.8,15-12.8,20.8-20.7l17.6-23.6
		c5.8-7.8,12.8-14.7,20.6-20.5l22.6-16.8c8-5.9,15-13,20.9-21l15.9-21.5c5.9-8,13-15.1,20.9-21l22.6-16.8
		c7.8-5.8,14.8-12.7,20.6-20.5l17.7-23.7c5.8-7.8,12.8-14.7,20.6-20.5l22.7-16.9c7.9-5.9,14.9-12.9,20.8-20.8l16.8-22.6
		C72-297.5,79-304.5,87-310.4l22.6-16.8c7.9-5.9,14.9-12.9,20.8-20.8l16.8-22.6c5.9-7.9,12.9-14.9,20.8-20.8l22.5-16.7
		c8-5.9,15-13,20.9-21l15.9-21.6c5.8-7.9,12.8-15,20.7-20.8l35.4-26.4"/>
	<path class="st2" d="M-512.8,326.6l25.7-34.7c5.8-7.8,12.7-14.8,20.5-20.6l23.7-17.7c7.8-5.8,14.7-12.8,20.5-20.6l16.9-22.7
		c5.9-7.9,12.9-14.9,20.8-20.8l22.6-16.8c7.9-5.9,14.9-12.9,20.8-20.8l16.7-22.5c5.9-8,13-15,21-20.9l21.6-15.9
		c7.9-5.8,15-12.8,20.8-20.7l17.5-23.5c5.9-7.9,12.9-14.9,20.8-20.7l21.8-16c7.9-5.8,15-12.8,20.8-20.7l17.6-23.6
		c5.8-7.8,12.8-14.7,20.6-20.5l22.6-16.8c8-5.9,15.1-13,20.9-21l15.9-21.5c5.9-8,13-15.1,20.9-21l22.6-16.8
		c7.8-5.8,14.8-12.7,20.6-20.5l17.7-23.7c5.8-7.8,12.8-14.7,20.6-20.5L42.8-232c7.9-5.9,14.9-12.9,20.8-20.8l16.8-22.6
		c5.9-7.9,12.9-14.9,20.8-20.8l22.6-16.8c7.9-5.9,14.9-12.9,20.8-20.8l16.8-22.6c5.9-7.9,12.9-14.9,20.8-20.8l22.5-16.7
		c8-5.9,15-13,20.9-21l15.9-21.6c5.8-7.9,12.8-15,20.7-20.8l35.4-26.4"/>
	<path class="st2" d="M-498.6,340.7l25.7-34.7c5.8-7.8,12.7-14.8,20.5-20.6l23.7-17.7c7.8-5.8,14.7-12.8,20.5-20.6l16.9-22.7
		c5.9-7.9,12.9-14.9,20.8-20.8l22.6-16.8c7.9-5.9,14.9-12.9,20.8-20.8l16.7-22.5c5.9-8,13-15,21-20.9l21.6-15.9
		c7.9-5.8,15-12.8,20.8-20.7l17.5-23.5c5.9-7.9,12.9-14.9,20.8-20.7l21.8-16c7.9-5.8,15-12.8,20.8-20.7l17.6-23.6
		c5.8-7.8,12.8-14.7,20.6-20.5l22.6-16.8c8-5.9,15-13,20.9-21l15.9-21.5c5.9-8,13-15.1,20.9-21l22.6-16.8
		C-16.9-142-10-149-4.1-156.8l17.7-23.7c5.8-7.8,12.8-14.7,20.6-20.5l22.7-16.9c7.9-5.9,14.9-12.9,20.8-20.8l16.8-22.6
		c5.9-7.9,12.9-14.9,20.8-20.8l22.6-16.8c7.9-5.9,14.9-12.9,20.8-20.8l16.8-22.6c5.9-7.9,12.9-14.9,20.8-20.8l22.5-16.7
		c8-5.9,15-13,20.9-21l15.9-21.6c5.8-7.9,12.8-15,20.7-20.8l35.4-26.4"/>
	<path class="st2" d="M-484.5,354.9l25.7-34.7c5.8-7.8,12.7-14.8,20.5-20.6l23.7-17.7c7.8-5.8,14.7-12.8,20.5-20.6l16.9-22.7
		c5.9-7.9,12.9-14.9,20.8-20.8l22.6-16.8c7.9-5.9,14.9-12.9,20.8-20.8l16.7-22.5c5.9-8,13-15,21-20.9l21.6-15.9
		c7.9-5.8,15-12.8,20.8-20.7l17.5-23.5c5.9-7.9,12.9-14.9,20.8-20.7l21.8-16c7.9-5.8,15-12.8,20.8-20.7l17.6-23.6
		c5.8-7.8,12.8-14.7,20.6-20.5L-91-41.8c8-5.9,15-13,20.9-21l15.9-21.5c5.9-8,13-15.1,20.9-21l22.6-16.8
		c7.8-5.8,14.8-12.7,20.6-20.5l17.7-23.7c5.8-7.8,12.8-14.7,20.6-20.5l22.7-16.9c7.9-5.9,14.9-12.9,20.8-20.8l16.8-22.6
		c5.9-7.9,12.9-14.9,20.8-20.8l22.6-16.8c7.9-5.9,14.9-12.9,20.8-20.8l16.8-22.6c5.9-7.9,12.9-14.9,20.8-20.8l22.5-16.7
		c8-5.9,15-13,20.9-21l15.9-21.6c5.8-7.9,12.8-15,20.7-20.8l35.4-26.4"/>
	<path class="st2" d="M-470.3,369l25.7-34.7c5.8-7.8,12.7-14.8,20.5-20.6l23.7-17.7c7.8-5.8,14.7-12.8,20.5-20.6l16.9-22.7
		c5.9-7.9,12.9-14.9,20.8-20.8l22.6-16.8c7.9-5.9,14.9-12.9,20.8-20.8l16.7-22.5c5.9-8,13-15,21-20.9l21.6-15.9
		c7.9-5.8,15-12.8,20.8-20.7l17.5-23.5c5.9-7.9,12.9-14.9,20.8-20.7l21.8-16c7.9-5.8,15-12.8,20.8-20.7L-120,9.7
		c5.8-7.8,12.8-14.7,20.6-20.5l22.6-16.8c8-5.9,15-13,20.9-21L-40-70.2c5.9-8,13-15.1,20.9-21l22.6-16.8
		c7.8-5.8,14.8-12.7,20.6-20.5l17.7-23.7c5.8-7.8,12.8-14.7,20.6-20.5l22.7-16.9c7.9-5.9,14.9-12.9,20.8-20.8l16.8-22.6
		c5.9-7.9,12.9-14.9,20.8-20.8l22.6-16.8c7.9-5.9,14.9-12.9,20.8-20.8l16.8-22.6c5.9-7.9,12.9-14.9,20.8-20.8l22.5-16.7
		c8-5.9,15-13,20.9-21l15.9-21.6c5.8-7.9,12.8-15,20.7-20.8l35.4-26.4"/>
	<path class="st2" d="M-456.2,383.1l25.7-34.7c5.8-7.8,12.7-14.8,20.5-20.6l23.7-17.7c7.8-5.8,14.7-12.8,20.5-20.6l16.9-22.7
		c5.9-7.9,12.9-14.9,20.8-20.8l22.6-16.8c7.9-5.9,14.9-12.9,20.8-20.8L-268,186c5.9-8,13-15.1,21-20.9l21.6-15.9
		c7.9-5.8,15-12.8,20.8-20.7l17.5-23.5c5.9-7.9,12.9-14.9,20.8-20.7l21.8-16c7.9-5.8,15-12.8,20.8-20.7l17.6-23.6
		c5.8-7.8,12.8-14.7,20.6-20.5l22.6-16.8c8-5.9,15-13,20.9-21L-25.9-56c5.9-8,13-15.1,20.9-21l22.6-16.8
		c7.8-5.8,14.8-12.7,20.6-20.5L56-138.1c5.8-7.8,12.8-14.7,20.6-20.5l22.7-16.9c7.9-5.9,14.9-12.9,20.8-20.8l16.8-22.6
		c5.9-7.9,12.9-14.9,20.8-20.8l22.6-16.8c7.9-5.9,14.9-12.9,20.8-20.8l16.8-22.6c5.9-7.9,12.9-14.9,20.8-20.8l22.5-16.7
		c8-5.9,15-13,20.9-21l15.9-21.6c5.8-7.9,12.8-15,20.7-20.8l35.4-26.4"/>
	<path class="st2" d="M-442,397.3l25.7-34.7c5.8-7.8,12.7-14.8,20.5-20.6l23.7-17.7c7.8-5.8,14.7-12.8,20.5-20.6l16.9-22.7
		c5.9-7.9,12.9-14.9,20.8-20.8l22.6-16.8c7.9-5.9,14.9-12.9,20.8-20.8l16.7-22.5c5.9-8,13-15.1,21-20.9l21.6-15.9
		c7.9-5.8,15-12.8,20.8-20.7l17.5-23.5c5.9-7.9,12.9-14.9,20.8-20.7l21.8-16c7.9-5.8,15-12.8,20.8-20.7L-91.8,38
		c5.8-7.8,12.8-14.7,20.6-20.5l22.6-16.8c8-5.9,15-13,20.9-21l15.9-21.5c5.9-8,13-15.1,20.9-21l22.6-16.8
		c7.8-5.8,14.8-12.7,20.6-20.5l17.7-23.7c5.8-7.8,12.8-14.7,20.6-20.5l22.7-16.9c7.9-5.9,14.9-12.9,20.8-20.8l16.8-22.6
		c5.9-7.9,12.9-14.9,20.8-20.8l22.6-16.8c7.9-5.9,14.9-12.9,20.8-20.8l16.8-22.6c5.9-7.9,12.9-14.9,20.8-20.8l22.5-16.7
		c8-5.9,15-13,20.9-21l15.9-21.6c5.8-7.9,12.8-15,20.7-20.8l35.4-26.4"/>
	<path class="st2" d="M-427.9,411.4l25.7-34.7c5.8-7.8,12.7-14.8,20.5-20.6l23.7-17.7c7.8-5.8,14.7-12.8,20.5-20.6l16.9-22.7
		c5.9-7.9,12.9-14.9,20.8-20.8l22.6-16.8c7.9-5.9,14.9-12.9,20.8-20.8l16.7-22.5c5.9-8,13-15.1,21-20.9l21.6-15.9
		c7.9-5.8,15-12.8,20.8-20.7l17.5-23.5c5.9-7.9,12.9-14.9,20.8-20.7l21.8-16c7.9-5.8,15-12.8,20.8-20.7l17.6-23.6
		c5.8-7.8,12.8-14.7,20.6-20.5l22.6-16.8c8-5.9,15-13,20.9-21L2.4-27.7c5.9-8,13-15.1,20.9-21L46-65.5c7.8-5.8,14.8-12.7,20.6-20.5
		l17.7-23.7c5.8-7.8,12.8-14.7,20.6-20.5l22.7-16.9c7.9-5.9,14.9-12.9,20.8-20.8l16.8-22.6c5.9-7.9,12.9-14.9,20.8-20.8l22.6-16.8
		c7.9-5.9,14.9-12.9,20.8-20.8l16.8-22.6c5.9-7.9,12.9-14.9,20.8-20.8l22.5-16.7c8-5.9,15-13,20.9-21l15.9-21.6
		c5.8-7.9,12.8-15,20.7-20.8l35.4-26.4"/>
	<path class="st2" d="M-413.8,425.6l25.7-34.7c5.8-7.8,12.7-14.8,20.5-20.6l23.7-17.7c7.8-5.8,14.7-12.8,20.5-20.6l16.9-22.7
		c5.9-7.9,12.9-14.9,20.8-20.8l22.6-16.8c7.9-5.9,14.9-12.9,20.8-20.8l16.7-22.5c5.9-8,13-15.1,21-20.9l21.6-15.9
		c7.9-5.8,15-12.8,20.8-20.7l17.5-23.5c5.9-7.9,12.9-14.9,20.8-20.7l21.8-16c7.9-5.8,15-12.8,20.8-20.7l17.6-23.6
		c5.8-7.8,12.8-14.7,20.6-20.5l22.6-16.8c8-5.9,15-13,20.9-21l15.9-21.5c5.9-8,13-15.1,20.9-21l22.6-16.8
		c7.8-5.8,14.8-12.7,20.6-20.5l17.7-23.7c5.8-7.8,12.8-14.7,20.6-20.5l22.7-16.9c7.9-5.9,14.9-12.9,20.8-20.8l16.8-22.6
		c5.9-7.9,12.9-14.9,20.8-20.8l22.6-16.8c7.9-5.9,14.9-12.9,20.8-20.8l16.8-22.6c5.9-7.9,12.9-14.9,20.8-20.8l22.5-16.7
		c8-5.9,15-13,20.9-21l15.9-21.6c5.8-7.9,12.8-15,20.7-20.8l35.4-26.4"/>
	<path class="st2" d="M-399.6,439.7l25.7-34.7c5.8-7.8,12.7-14.8,20.5-20.6l23.7-17.7c7.8-5.8,14.7-12.8,20.5-20.6l16.9-22.7
		c5.9-7.9,12.9-14.9,20.8-20.8l22.6-16.8c7.9-5.9,14.9-12.9,20.8-20.8l16.7-22.5c5.9-8,13-15,21-20.9l21.6-15.9
		c7.9-5.8,15-12.8,20.8-20.7l17.5-23.5c5.9-7.9,12.9-14.9,20.8-20.7l21.8-16c7.9-5.8,15-12.8,20.8-20.7l17.6-23.6
		c5.8-7.8,12.8-14.7,20.6-20.5l22.6-16.8c8-5.9,15-13,20.9-21L30.7,0.5c5.9-8,13-15.1,20.9-21l22.6-16.8C82.1-43,89-50,94.9-57.8
		l17.7-23.7c5.8-7.8,12.8-14.7,20.6-20.5l22.7-16.9c7.9-5.9,14.9-12.9,20.8-20.8l16.8-22.6c5.9-7.9,12.9-14.9,20.8-20.8l22.6-16.8
		c7.9-5.9,14.9-12.9,20.8-20.8l16.8-22.6c5.9-7.9,12.9-14.9,20.8-20.8l22.5-16.7c8-5.9,15-13,20.9-21l15.9-21.6
		c5.8-7.9,12.8-15,20.7-20.8l35.4-26.4"/>
	<path class="st2" d="M-385.5,453.9l25.7-34.7c5.8-7.8,12.7-14.8,20.5-20.6l23.7-17.7c7.8-5.8,14.7-12.8,20.5-20.6l16.9-22.7
		c5.9-7.9,12.9-14.9,20.8-20.8l22.6-16.8c7.9-5.9,14.9-12.9,20.8-20.8l16.7-22.5c5.9-8,13-15,21-20.9l21.6-15.9
		c7.9-5.8,15-12.8,20.8-20.7l17.5-23.5c5.9-7.9,12.9-14.9,20.8-20.7l21.8-16c7.9-5.8,15-12.8,20.8-20.7l17.6-23.6
		c5.8-7.8,12.8-14.7,20.6-20.5L8,57.2c8-5.9,15-13,20.9-21l15.9-21.5c5.9-8,13-15.1,20.9-21l22.6-16.8c7.8-5.8,14.8-12.7,20.6-20.5
		l17.7-23.7c5.8-7.8,12.8-14.7,20.6-20.5l22.7-16.9c7.9-5.9,14.9-12.9,20.8-20.8l16.8-22.6c5.9-7.9,12.9-14.9,20.8-20.8l22.6-16.8
		c7.9-5.9,14.9-12.9,20.8-20.8l16.8-22.6c5.9-7.9,12.9-14.9,20.8-20.8l22.5-16.7c8-5.9,15-13,20.9-21l15.9-21.6
		c5.8-7.9,12.8-15,20.7-20.8l35.4-26.4"/>
	<path class="st2" d="M-371.3,468l25.7-34.7c5.8-7.8,12.7-14.8,20.5-20.6l23.7-17.7c7.8-5.8,14.7-12.8,20.5-20.6l16.9-22.7
		c5.9-7.9,12.9-14.9,20.8-20.8l22.6-16.8c7.9-5.9,14.9-12.9,20.8-20.8l16.7-22.5c5.9-8,13-15,21-20.9l21.6-15.9
		c7.9-5.8,15-12.8,20.8-20.7l17.5-23.5c5.9-7.9,12.9-14.9,20.8-20.7l21.8-16c7.9-5.8,15-12.8,20.8-20.7l17.6-23.6
		c5.8-7.8,12.8-14.7,20.6-20.5l22.6-16.8c8-5.9,15-13,20.9-21L59,28.8c5.9-8,13-15.1,20.9-21L102.6-9c7.8-5.8,14.8-12.7,20.6-20.5
		l17.7-23.7c5.8-7.8,12.8-14.7,20.6-20.5l22.7-16.9c7.9-5.9,14.9-12.9,20.8-20.8l16.8-22.6c5.9-7.9,12.9-14.9,20.8-20.8l22.6-16.8
		c7.9-5.9,14.9-12.9,20.8-20.8l16.8-22.6c5.9-7.9,12.9-14.9,20.8-20.8l22.5-16.7c8-5.9,15.1-13,20.9-21l15.9-21.6
		c5.8-7.9,12.8-15,20.7-20.8l35.4-26.4"/>
	<path class="st2" d="M-357.2,482.1l25.7-34.7c5.8-7.8,12.7-14.8,20.5-20.6l23.7-17.7c7.8-5.8,14.7-12.8,20.5-20.6l16.9-22.7
		c5.9-7.9,12.9-14.9,20.8-20.8l22.6-16.8c7.9-5.9,14.9-12.9,20.8-20.8L-169,285c5.9-8,13-15,21-20.9l21.6-15.9
		c7.9-5.8,15-12.8,20.8-20.7l17.5-23.5c5.9-7.9,12.9-14.9,20.8-20.7l21.8-16c7.9-5.8,15-12.8,20.8-20.7l17.6-23.6
		c5.8-7.8,12.8-14.7,20.6-20.5l22.6-16.8c8-5.9,15-13,20.9-21L73.1,43c5.9-8,13-15.1,20.9-21l22.6-16.8c7.8-5.8,14.8-12.7,20.6-20.5
		L155-39.1c5.8-7.8,12.8-14.7,20.6-20.5l22.7-16.9c7.9-5.9,14.9-12.9,20.8-20.8l16.8-22.6c5.9-7.9,12.9-14.9,20.8-20.8l22.6-16.8
		c7.9-5.9,14.9-12.9,20.8-20.8l16.8-22.6c5.9-7.9,12.9-14.9,20.8-20.8l22.5-16.7c8-5.9,15.1-13,20.9-21l15.9-21.6
		c5.8-7.9,12.8-15,20.7-20.8l35.4-26.4"/>
	<path class="st2" d="M-343.1,496.3l25.7-34.7c5.8-7.8,12.7-14.8,20.5-20.6l23.7-17.7c7.8-5.8,14.7-12.8,20.5-20.6l16.9-22.7
		c5.9-7.9,12.9-14.9,20.8-20.8l22.6-16.8c7.9-5.9,14.9-12.9,20.8-20.8l16.7-22.5c5.9-8,13-15.1,21-20.9l21.6-15.9
		c7.9-5.8,15-12.8,20.8-20.7l17.5-23.5c5.9-7.9,12.9-14.9,20.8-20.7l21.8-16c7.9-5.8,15-12.8,20.8-20.7L7.2,137
		c5.8-7.8,12.8-14.7,20.6-20.5l22.6-16.8c8-5.9,15-13,20.9-21l15.9-21.5c5.9-8,13-15.1,20.9-21l22.6-16.8
		c7.8-5.8,14.8-12.7,20.6-20.5l17.7-23.7c5.8-7.8,12.8-14.7,20.6-20.5l22.7-16.9c7.9-5.9,14.9-12.9,20.8-20.8l16.8-22.6
		c5.9-7.9,12.9-14.9,20.8-20.8l22.6-16.8c7.9-5.9,14.9-12.9,20.8-20.8l16.8-22.6c5.9-7.9,12.9-14.9,20.8-20.8l22.5-16.7
		c8-5.9,15.1-13,20.9-21l15.9-21.6c5.8-7.9,12.8-15,20.7-20.8l35.4-26.4"/>
	<path class="st2" d="M-328.9,510.4l25.7-34.7c5.8-7.8,12.7-14.8,20.5-20.6l23.7-17.7c7.8-5.8,14.7-12.8,20.5-20.6l16.9-22.7
		c5.9-7.9,12.9-14.9,20.8-20.8l22.6-16.8c7.9-5.9,14.9-12.9,20.8-20.8l16.7-22.5c5.9-8,13-15.1,21-20.9l21.6-15.9
		c7.9-5.8,15-12.8,20.8-20.7l17.5-23.5c5.9-7.9,12.9-14.9,20.8-20.7l21.8-16c7.9-5.8,15-12.8,20.8-20.7l17.6-23.6
		c5.8-7.8,12.8-14.7,20.6-20.5l22.6-16.8c8-5.9,15-13,20.9-21l15.9-21.5c5.9-8,13-15.1,20.9-21L145,33.5
		c7.8-5.8,14.8-12.7,20.6-20.5l17.7-23.7c5.8-7.8,12.8-14.7,20.6-20.5l22.7-16.9c7.9-5.9,14.9-12.9,20.8-20.8l16.8-22.6
		c5.9-7.9,12.9-14.9,20.8-20.8l22.6-16.8c7.9-5.9,14.9-12.9,20.8-20.8l16.8-22.6c5.9-7.9,12.9-14.9,20.8-20.8l22.5-16.7
		c8-5.9,15-13,20.9-21l15.9-21.6c5.8-7.9,12.8-15,20.7-20.8l35.4-26.4"/>
	<path class="st2" d="M-314.8,524.6l25.7-34.7c5.8-7.8,12.7-14.8,20.5-20.6l23.7-17.7c7.8-5.8,14.7-12.8,20.5-20.6l16.9-22.7
		c5.9-7.9,12.9-14.9,20.8-20.8l22.6-16.8c7.9-5.9,14.9-12.9,20.8-20.8l16.7-22.5c5.9-8,13-15.1,21-20.9l21.6-15.9
		c7.9-5.8,15-12.8,20.8-20.7l17.5-23.5c5.9-7.9,12.9-14.9,20.8-20.7l21.8-16c7.9-5.8,15-12.8,20.8-20.7l17.6-23.6
		c5.8-7.8,12.8-14.7,20.6-20.5l22.6-16.8c8-5.9,15-13,20.9-21l15.9-21.5c5.9-8,13-15.1,20.9-21l22.6-16.8
		c7.8-5.8,14.8-12.7,20.6-20.5l17.7-23.7c5.8-7.8,12.8-14.7,20.6-20.5l22.7-16.9c7.9-5.9,14.9-12.9,20.8-20.8l16.8-22.6
		c5.9-7.9,12.9-14.9,20.8-20.8l22.6-16.8c7.9-5.9,14.9-12.9,20.8-20.8l16.8-22.6c5.9-7.9,12.9-14.9,20.8-20.8l22.5-16.7
		c8-5.9,15-13,20.9-21l15.9-21.6c5.8-7.9,12.8-15,20.7-20.8l35.4-26.4"/>
	<path class="st2" d="M-300.6,538.7l25.7-34.7c5.8-7.8,12.7-14.8,20.5-20.6l23.7-17.7c7.8-5.8,14.7-12.8,20.5-20.6l16.9-22.7
		c5.9-7.9,12.9-14.9,20.8-20.8l22.6-16.8c7.9-5.9,14.9-12.9,20.8-20.8l16.7-22.5c5.9-8,13-15,21-20.9l21.6-15.9
		c7.9-5.8,15-12.8,20.8-20.7l17.5-23.5c5.9-7.9,12.9-14.9,20.8-20.7l21.8-16c7.9-5.8,15-12.8,20.8-20.7l17.6-23.6
		c5.8-7.8,12.8-14.7,20.6-20.5l22.6-16.8c8-5.9,15-13,20.9-21l15.9-21.5c5.9-8,13-15.1,20.9-21l22.6-16.8
		C181.1,56,188,49,193.9,41.2l17.7-23.7c5.8-7.8,12.8-14.7,20.6-20.5l22.7-16.9c7.9-5.9,14.9-12.9,20.8-20.8l16.8-22.6
		c5.9-7.9,12.9-14.9,20.8-20.8l22.6-16.8c7.9-5.9,14.9-12.9,20.8-20.8l16.8-22.6c5.9-7.9,12.9-14.9,20.8-20.8l22.5-16.7
		c8-5.9,15-13,20.9-21l15.9-21.6c5.8-7.9,12.8-15,20.7-20.8l35.4-26.4"/>
	<path class="st2" d="M-286.5,552.8l25.7-34.7c5.8-7.8,12.7-14.8,20.5-20.6l23.7-17.7c7.8-5.8,14.7-12.8,20.5-20.6l16.9-22.7
		c5.9-7.9,12.9-14.9,20.8-20.8l22.6-16.8c7.9-5.9,14.9-12.9,20.8-20.8l16.7-22.5c5.9-8,13-15,21-20.9l21.6-15.9
		c7.9-5.8,15-12.8,20.8-20.7l17.5-23.5c5.9-7.9,12.9-14.9,20.8-20.7l21.8-16c7.9-5.8,15-12.8,20.8-20.7l17.6-23.6
		c5.8-7.8,12.8-14.7,20.6-20.5l22.6-16.8c8-5.9,15.1-13,20.9-21l15.9-21.5c5.9-8,13-15.1,20.9-21l22.6-16.8
		c7.8-5.8,14.8-12.7,20.6-20.5l17.7-23.7c5.8-7.8,12.8-14.7,20.6-20.5l22.7-16.9c7.9-5.9,14.9-12.9,20.8-20.8l16.8-22.6
		c5.9-7.9,12.9-14.9,20.8-20.8L350-86.7c7.9-5.9,14.9-12.9,20.8-20.8l16.8-22.6c5.9-7.9,12.9-14.9,20.8-20.8l22.5-16.7
		c8-5.9,15-13,20.9-21l15.9-21.6c5.8-7.9,12.8-15,20.7-20.8l35.4-26.4"/>
	<path class="st2" d="M-272.3,567l25.7-34.7c5.8-7.8,12.7-14.8,20.5-20.6l23.7-17.7c7.8-5.8,14.7-12.8,20.5-20.6l16.9-22.7
		c5.9-7.9,12.9-14.9,20.8-20.8l22.6-16.8c7.9-5.9,14.9-12.9,20.8-20.8l16.7-22.5c5.9-8,13-15,21-20.9l21.6-15.9
		c7.9-5.8,15-12.8,20.8-20.7l17.5-23.5c5.9-7.9,12.9-14.9,20.8-20.7l21.8-16c7.9-5.8,15-12.8,20.8-20.7l17.6-23.6
		c5.8-7.8,12.8-14.7,20.6-20.5l22.6-16.8c8-5.9,15-13,20.9-21l15.9-21.5c5.9-8,13-15.1,20.9-21L201.5,90
		c7.8-5.8,14.8-12.7,20.6-20.5l17.7-23.7c5.8-7.8,12.8-14.7,20.6-20.5l22.7-16.9c7.9-5.9,14.9-12.9,20.8-20.8L320.7-35
		c5.9-7.9,12.9-14.9,20.8-20.8l22.6-16.8c7.9-5.9,14.9-12.9,20.8-20.8l16.8-22.6c5.9-7.9,12.9-14.9,20.8-20.8l22.5-16.7
		c8-5.9,15-13,20.9-21l15.9-21.6c5.8-7.9,12.8-15,20.7-20.8l35.4-26.4"/>
	<path class="st2" d="M-258.2,581.1l25.7-34.7c5.8-7.8,12.7-14.8,20.5-20.6l23.7-17.7c7.8-5.8,14.7-12.8,20.5-20.6l16.9-22.7
		c5.9-7.9,12.9-14.9,20.8-20.8l22.6-16.8c7.9-5.9,14.9-12.9,20.8-20.8L-70,384c5.9-8,13-15,21-20.9l21.6-15.9
		c7.9-5.8,15-12.8,20.8-20.7L11,302.9C16.9,295,24,288,31.9,282.2l21.8-16c7.9-5.8,15-12.8,20.8-20.7l17.6-23.6
		c5.8-7.8,12.8-14.7,20.6-20.5l22.6-16.8c8-5.9,15-13,20.9-21l15.9-21.5c5.9-8,13-15.1,20.9-21l22.6-16.8
		c7.8-5.8,14.8-12.7,20.6-20.5L254,59.9c5.8-7.8,12.8-14.7,20.6-20.5l22.7-16.9c7.9-5.9,14.9-12.9,20.8-20.8l16.8-22.6
		c5.9-7.9,12.9-14.9,20.8-20.8l22.6-16.8c7.9-5.9,14.9-12.9,20.8-20.8l16.8-22.6c5.9-7.9,12.9-14.9,20.8-20.8l22.5-16.7
		c8-5.9,15.1-13,20.9-21L496-182c5.8-7.9,12.8-15,20.7-20.8l35.4-26.4"/>
	<path class="st2" d="M-244.1,595.3l25.7-34.7c5.8-7.8,12.7-14.8,20.5-20.6l23.7-17.7c7.8-5.8,14.7-12.8,20.5-20.6l16.9-22.7
		c5.9-7.9,12.9-14.9,20.8-20.8l22.6-16.8c7.9-5.9,14.9-12.9,20.8-20.8l16.7-22.5c5.9-8,13-15.1,21-20.9l21.6-15.9
		c7.9-5.8,15-12.8,20.8-20.7L25.2,317c5.9-7.9,12.9-14.9,20.8-20.7l21.8-16c7.9-5.8,15-12.8,20.8-20.7l17.6-23.6
		c5.8-7.8,12.8-14.7,20.6-20.5l22.6-16.8c8-5.9,15-13,20.9-21l15.9-21.5c5.9-8,13-15.1,20.9-21l22.6-16.8
		c7.8-5.8,14.8-12.7,20.6-20.5l17.7-23.7c5.8-7.8,12.8-14.7,20.6-20.5l22.7-16.9c7.9-5.9,14.9-12.9,20.8-20.8L349-6.7
		c5.9-7.9,12.9-14.9,20.8-20.8l22.6-16.8c7.9-5.9,14.9-12.9,20.8-20.8L430-87.7c5.9-7.9,12.9-14.9,20.8-20.8l22.5-16.7
		c8-5.9,15.1-13,20.9-21l15.9-21.6c5.8-7.9,12.8-15,20.7-20.8l35.4-26.4"/>
	<path class="st2" d="M-229.9,609.4l25.7-34.7c5.8-7.8,12.7-14.8,20.5-20.6l23.7-17.7c7.8-5.8,14.7-12.8,20.5-20.6l16.9-22.7
		c5.9-7.9,12.9-14.9,20.8-20.8l22.6-16.8c7.9-5.9,14.9-12.9,20.8-20.8l16.7-22.5c5.9-8,13-15.1,21-20.9L1,375.4
		c7.9-5.8,15-12.8,20.8-20.7l17.5-23.5c5.9-7.9,12.9-14.9,20.8-20.7l21.8-16c7.9-5.8,15-12.8,20.8-20.7l17.6-23.6
		c5.8-7.8,12.8-14.7,20.6-20.5l22.6-16.8c8-5.9,15-13,20.9-21l15.9-21.5c5.9-8,13-15.1,20.9-21l22.6-16.8
		c7.8-5.8,14.8-12.7,20.6-20.5l17.7-23.7c5.8-7.8,12.8-14.7,20.6-20.5l22.7-16.9c7.9-5.9,14.9-12.9,20.8-20.8l16.8-22.6
		C369-0.5,376-7.5,383.9-13.4l22.6-16.8c7.9-5.9,14.9-12.9,20.8-20.8l16.8-22.6c5.9-7.9,12.9-14.9,20.8-20.8l22.5-16.7
		c8-5.9,15-13,20.9-21l15.9-21.6c5.8-7.9,12.8-15,20.7-20.8l35.4-26.4"/>
	<path class="st2" d="M-215.8,623.6l25.7-34.7c5.8-7.8,12.7-14.8,20.5-20.6l23.7-17.7c7.8-5.8,14.7-12.8,20.5-20.6l16.9-22.7
		c5.9-7.9,12.9-14.9,20.8-20.8l22.6-16.8c7.9-5.9,14.9-12.9,20.8-20.8l16.7-22.5c5.9-8,13-15,21-20.9l21.6-15.9
		c7.9-5.8,15-12.8,20.8-20.7l17.5-23.5c5.9-7.9,12.9-14.9,20.8-20.7l21.8-16c7.9-5.8,15-12.8,20.8-20.7l17.6-23.6
		c5.8-7.8,12.8-14.7,20.6-20.5l22.6-16.8c8-5.9,15-13,20.9-21l15.9-21.5c5.9-8,13-15.1,20.9-21l22.6-16.8
		c7.8-5.8,14.8-12.7,20.6-20.5l17.7-23.7c5.8-7.8,12.8-14.7,20.6-20.5l22.7-16.9c7.9-5.9,14.9-12.9,20.8-20.8l16.8-22.6
		c5.9-7.9,12.9-14.9,20.8-20.8L420.7-16c7.9-5.9,14.9-12.9,20.8-20.8l16.8-22.6c5.9-7.9,12.9-14.9,20.8-20.8l22.5-16.7
		c8-5.9,15-13,20.9-21l15.9-21.6c5.8-7.9,12.8-15,20.7-20.8l35.4-26.4"/>
	<path class="st2" d="M-201.6,637.7l25.7-34.7c5.8-7.8,12.7-14.8,20.5-20.6l23.7-17.7c7.8-5.8,14.7-12.8,20.5-20.6l16.9-22.7
		c5.9-7.9,12.9-14.9,20.8-20.8l22.6-16.8c7.9-5.9,14.9-12.9,20.8-20.8l16.7-22.5c5.9-8,13-15,21-20.9l21.6-15.9
		c7.9-5.8,15-12.8,20.8-20.7l17.5-23.5c5.9-7.9,12.9-14.9,20.8-20.7l21.8-16c7.9-5.8,15-12.8,20.8-20.7l17.6-23.6
		c5.8-7.8,12.8-14.7,20.6-20.5l22.6-16.8c8-5.9,15-13,20.9-21l15.9-21.5c5.9-8,13-15.1,20.9-21l22.6-16.8
		c7.8-5.8,14.8-12.7,20.6-20.5l17.7-23.7c5.8-7.8,12.8-14.7,20.6-20.5l22.7-16.9c7.9-5.9,14.9-12.9,20.8-20.8l16.8-22.6
		c5.9-7.9,12.9-14.9,20.8-20.8l22.6-16.8c7.9-5.9,14.9-12.9,20.8-20.8l16.8-22.6c5.9-7.9,12.9-14.9,20.8-20.8l22.5-16.7
		c8-5.9,15-13,20.9-21l15.9-21.6c5.8-7.9,12.8-15,20.7-20.8l35.4-26.4"/>
	<path class="st2" d="M-187.5,651.8l25.7-34.7c5.8-7.8,12.7-14.8,20.5-20.6l23.7-17.7c7.8-5.8,14.7-12.8,20.5-20.6l16.9-22.7
		c5.9-7.9,12.9-14.9,20.8-20.8l22.6-16.8c7.9-5.9,14.9-12.9,20.8-20.8l16.7-22.5c5.9-8,13-15,21-20.9l21.6-15.9
		c7.9-5.8,15-12.8,20.8-20.7l17.5-23.5c5.9-7.9,12.9-14.9,20.8-20.7l21.8-16c7.9-5.8,15-12.8,20.8-20.7l17.6-23.6
		c5.8-7.8,12.8-14.7,20.6-20.5l22.6-16.8c8-5.9,15.1-13,20.9-21l15.9-21.5c5.9-8,13-15.1,20.9-21l22.6-16.8
		c7.8-5.8,14.8-12.7,20.6-20.5l17.7-23.7c5.8-7.8,12.8-14.7,20.6-20.5L368,93.2c7.9-5.9,14.9-12.9,20.8-20.8l16.8-22.6
		c5.9-7.9,12.9-14.9,20.8-20.8L449,12.3c7.9-5.9,14.9-12.9,20.8-20.8l16.8-22.6c5.9-7.9,12.9-14.9,20.8-20.8l22.5-16.7
		c8-5.9,15-13,20.9-21l15.9-21.6c5.8-7.9,12.8-15,20.7-20.8l35.4-26.4"/>
	<path class="st2" d="M-173.3,666l25.7-34.7c5.8-7.8,12.7-14.8,20.5-20.6l23.7-17.7c7.8-5.8,14.7-12.8,20.5-20.6l16.9-22.7
		c5.9-7.9,12.9-14.9,20.8-20.8l22.6-16.8c7.9-5.9,14.9-12.9,20.8-20.8l16.7-22.5c5.9-8,13-15,21-20.9l21.6-15.9
		c7.9-5.8,15-12.8,20.8-20.7l17.5-23.5c5.9-7.9,12.9-14.9,20.8-20.7l21.8-16c7.9-5.8,15-12.8,20.8-20.7l17.6-23.6
		c5.8-7.8,12.8-14.7,20.6-20.5l22.6-16.8c8-5.9,15.1-13,20.9-21l15.9-21.5c5.9-8,13-15.1,20.9-21l22.6-16.8
		c7.8-5.8,14.8-12.7,20.6-20.5l17.7-23.7c5.8-7.8,12.8-14.7,20.6-20.5l22.7-16.9c7.9-5.9,14.9-12.9,20.8-20.8L419.7,64
		c5.9-7.9,12.9-14.9,20.8-20.8l22.6-16.8c7.9-5.9,14.9-12.9,20.8-20.8L500.7-17c5.9-7.9,12.9-14.9,20.8-20.8L544-54.4
		c8-5.9,15-13,20.9-21l15.9-21.6c5.8-7.9,12.8-15,20.7-20.8l35.4-26.4"/>
	<path class="st2" d="M-159.2,680.1l25.7-34.7c5.8-7.8,12.7-14.8,20.5-20.6l23.7-17.7c7.8-5.8,14.7-12.8,20.5-20.6l16.9-22.7
		c5.9-7.9,12.9-14.9,20.8-20.8l22.6-16.8c7.9-5.9,14.9-12.9,20.8-20.8L29,483c5.9-8,13-15,21-20.9l21.6-15.9
		c7.9-5.8,15-12.8,20.8-20.7l17.5-23.5c5.9-7.9,12.9-14.9,20.8-20.7l21.8-16c7.9-5.8,15-12.8,20.8-20.7l17.6-23.6
		c5.8-7.8,12.8-14.7,20.6-20.5l22.6-16.8c8-5.9,15.1-13,20.9-21l15.9-21.5c5.9-8,13-15.1,20.9-21l22.6-16.8
		c7.8-5.8,14.8-12.7,20.6-20.5l17.7-23.7c5.8-7.8,12.8-14.7,20.6-20.5l22.7-16.9c7.9-5.9,14.9-12.9,20.8-20.8l16.8-22.6
		c5.9-7.9,12.9-14.9,20.8-20.8l22.6-16.8c7.9-5.9,14.9-12.9,20.8-20.8l16.8-22.6c5.9-7.9,12.9-14.9,20.8-20.8l22.5-16.7
		c8-5.9,15-13,20.9-21L595-83c5.8-7.9,12.8-15,20.7-20.8l35.4-26.4"/>
	<path class="st2" d="M-145.1,694.3l25.7-34.7c5.8-7.8,12.7-14.8,20.5-20.6l23.7-17.7c7.8-5.8,14.7-12.8,20.5-20.6l16.9-22.7
		c5.9-7.9,12.9-14.9,20.8-20.8l22.6-16.8c7.9-5.9,14.9-12.9,20.8-20.8l16.7-22.5c5.9-8,13-15,21-20.9l21.6-15.9
		c7.9-5.8,15-12.8,20.8-20.7l17.5-23.5c5.9-7.9,12.9-14.9,20.8-20.7l21.8-16c7.9-5.8,15-12.8,20.8-20.7l17.6-23.6
		c5.8-7.8,12.8-14.7,20.6-20.5l22.6-16.8c8-5.9,15-13,20.9-21l15.9-21.5c5.9-8,13-15.1,20.9-21l22.6-16.8
		c7.8-5.8,14.8-12.7,20.6-20.5l17.7-23.7c5.8-7.8,12.8-14.7,20.6-20.5l22.7-16.9c7.9-5.9,14.9-12.9,20.8-20.8L448,92.2
		c5.9-7.9,12.9-14.9,20.8-20.8l22.6-16.8c7.9-5.9,14.9-12.9,20.8-20.8L529,11.3c5.9-7.9,12.9-14.9,20.8-20.8l22.5-16.7
		c8-5.9,15-13,20.9-21l15.9-21.6c5.8-7.9,12.8-15,20.7-20.8l35.4-26.4"/>
	<path class="st2" d="M-130.9,708.4l25.7-34.7c5.8-7.8,12.7-14.8,20.5-20.6l23.7-17.7c7.8-5.8,14.7-12.8,20.5-20.6l16.9-22.7
		c5.9-7.9,12.9-14.9,20.8-20.8l22.6-16.8c7.9-5.9,14.9-12.9,20.8-20.8l16.7-22.5c5.9-8,13-15,21-20.9l21.6-15.9
		c7.9-5.8,15-12.8,20.8-20.7l17.5-23.5c5.9-7.9,12.9-14.9,20.8-20.7l21.8-16c7.9-5.8,15-12.8,20.8-20.7l17.6-23.6
		c5.8-7.8,12.8-14.7,20.6-20.5l22.6-16.8c8-5.9,15-13,20.9-21l15.9-21.5c5.9-8,13-15.1,20.9-21l22.6-16.8
		c7.8-5.8,14.8-12.7,20.6-20.5l17.7-23.7c5.8-7.8,12.8-14.7,20.6-20.5l22.7-16.9c7.9-5.9,14.9-12.9,20.8-20.8l16.8-22.6
		c5.9-7.9,12.9-14.9,20.8-20.8l22.6-16.8c7.9-5.9,14.9-12.9,20.8-20.8l16.8-22.6c5.9-7.9,12.9-14.9,20.8-20.8L586.4-12
		c8-5.9,15-13,20.9-21l15.9-21.6c5.8-7.9,12.8-15,20.7-20.8l35.4-26.4"/>
	<path class="st2" d="M-116.8,722.6l25.7-34.7c5.8-7.8,12.7-14.8,20.5-20.6l23.7-17.7c7.8-5.8,14.7-12.8,20.5-20.6l16.9-22.7
		c5.9-7.9,12.9-14.9,20.8-20.8L34,568.7c7.9-5.9,14.9-12.9,20.8-20.8l16.7-22.5c5.9-8,13-15,21-20.9l21.6-15.9
		c7.9-5.8,15-12.8,20.8-20.7l17.5-23.5c5.9-7.9,12.9-14.9,20.8-20.7l21.8-16c7.9-5.8,15-12.8,20.8-20.7l17.6-23.6
		c5.8-7.8,12.8-14.7,20.6-20.5l22.6-16.8c8-5.9,15-13,20.9-21l15.9-21.5c5.9-8,13-15.1,20.9-21l22.6-16.8
		c7.8-5.8,14.8-12.7,20.6-20.5l17.7-23.7c5.8-7.8,12.8-14.7,20.6-20.5l22.7-16.9c7.9-5.9,14.9-12.9,20.8-20.8l16.8-22.6
		c5.9-7.9,12.9-14.9,20.8-20.8L519.7,83c7.9-5.9,14.9-12.9,20.8-20.8l16.8-22.6c5.9-7.9,12.9-14.9,20.8-20.8l22.5-16.7
		c8-5.9,15-13,20.9-21l15.9-21.6c5.8-7.9,12.8-15,20.7-20.8l35.4-26.4"/>
	<path class="st2" d="M-102.6,736.7l25.7-34.7c5.8-7.8,12.7-14.8,20.5-20.6l23.7-17.7c7.8-5.8,14.7-12.8,20.5-20.6l16.9-22.7
		c5.9-7.9,12.9-14.9,20.8-20.8l22.6-16.8c7.9-5.9,14.9-12.9,20.8-20.8l16.7-22.5c5.9-8,13-15.1,21-20.9l21.6-15.9
		c7.9-5.8,15-12.8,20.8-20.7l17.5-23.5c5.9-7.9,12.9-14.9,20.8-20.7l21.8-16c7.9-5.8,15-12.8,20.8-20.7l17.6-23.6
		c5.8-7.8,12.8-14.7,20.6-20.5l22.6-16.8c8-5.9,15-13,20.9-21l15.9-21.5c5.9-8,13-15.1,20.9-21l22.6-16.8
		c7.8-5.8,14.8-12.7,20.6-20.5l17.7-23.7c5.8-7.8,12.8-14.7,20.6-20.5l22.7-16.9c7.9-5.9,14.9-12.9,20.8-20.8l16.8-22.6
		c5.9-7.9,12.9-14.9,20.8-20.8l22.6-16.8c7.9-5.9,14.9-12.9,20.8-20.8l16.8-22.6c5.9-7.9,12.9-14.9,20.8-20.8l22.5-16.7
		c8-5.9,15-13,20.9-21l15.9-21.6c5.8-7.9,12.8-15,20.7-20.8l35.4-26.4"/>
	<path class="st2" d="M-88.5,750.8l25.7-34.7c5.8-7.8,12.7-14.8,20.5-20.6l23.7-17.7c7.8-5.8,14.7-12.8,20.5-20.6l16.9-22.7
		c5.9-7.9,12.9-14.9,20.8-20.8L62.3,597c7.9-5.9,14.9-12.9,20.8-20.8l16.7-22.5c5.9-8,13-15,21-20.9l21.6-15.9
		c7.9-5.8,15-12.8,20.8-20.7l17.5-23.5c5.9-7.9,12.9-14.9,20.8-20.7l21.8-16c7.9-5.8,15-12.8,20.8-20.7l17.6-23.6
		c5.8-7.8,12.8-14.7,20.6-20.5l22.6-16.8c8-5.9,15-13,20.9-21l15.9-21.5c5.9-8,13-15.1,20.9-21l22.6-16.8
		c7.8-5.8,14.8-12.7,20.6-20.5l17.7-23.7c5.8-7.8,12.8-14.7,20.6-20.5l22.7-16.9c7.9-5.9,14.9-12.9,20.8-20.8l16.8-22.6
		c5.9-7.9,12.9-14.9,20.8-20.8l22.6-16.8c7.9-5.9,14.9-12.9,20.8-20.8l16.8-22.6c5.9-7.9,12.9-14.9,20.8-20.8l22.5-16.7
		c8-5.9,15-13,20.9-21l15.9-21.6c5.8-7.9,12.8-15,20.7-20.8l35.4-26.4"/>
	<path class="st2" d="M-74.4,765l25.7-34.7c5.8-7.8,12.7-14.8,20.5-20.6L-4.4,692c7.8-5.8,14.7-12.8,20.5-20.6L33,648.7
		c5.9-7.9,12.9-14.9,20.8-20.8l22.6-16.8c7.9-5.9,14.9-12.9,20.8-20.8l16.7-22.5c5.9-8,13-15,21-20.9l21.6-15.9
		c7.9-5.8,15-12.8,20.8-20.7l17.5-23.5c5.9-7.9,12.9-14.9,20.8-20.7l21.8-16c7.9-5.8,15-12.8,20.8-20.7l17.6-23.6
		c5.8-7.8,12.8-14.7,20.6-20.5l22.6-16.8c8-5.9,15.1-13,20.9-21l15.9-21.5c5.9-8,13-15.1,20.9-21l22.6-16.8
		c7.8-5.8,14.8-12.7,20.6-20.5l17.7-23.7c5.8-7.8,12.8-14.7,20.6-20.5l22.7-16.9c7.9-5.9,14.9-12.9,20.8-20.8l16.8-22.6
		c5.9-7.9,12.9-14.9,20.8-20.8l22.6-16.8c7.9-5.9,14.9-12.9,20.8-20.8L599.7,82c5.9-7.9,12.9-14.9,20.8-20.8L643,44.5
		c8-5.9,15-13,20.9-21l15.9-21.6c5.8-7.9,12.8-15,20.7-20.8L736-45.3"/>
	<path class="st2" d="M-60.2,779.1l25.7-34.7c5.8-7.8,12.7-14.8,20.5-20.6l23.7-17.7c7.8-5.8,14.7-12.8,20.5-20.6l16.9-22.7
		C53,654.9,60,647.9,67.9,642l22.6-16.8c7.9-5.9,14.9-12.9,20.8-20.8L128,582c5.9-8,13-15,21-20.9l21.6-15.9
		c7.9-5.8,15-12.8,20.8-20.7l17.5-23.5c5.9-7.9,12.9-14.9,20.8-20.7l21.8-16c7.9-5.8,15-12.8,20.8-20.7l17.6-23.6
		c5.8-7.8,12.8-14.7,20.6-20.5l22.6-16.8c8-5.9,15.1-13,20.9-21l15.9-21.5c5.9-8,13-15.1,20.9-21l22.6-16.8
		c7.8-5.8,14.8-12.7,20.6-20.5l17.7-23.7c5.8-7.8,12.8-14.7,20.6-20.5l22.7-16.9c7.9-5.9,14.9-12.9,20.8-20.8l16.8-22.6
		c5.9-7.9,12.9-14.9,20.8-20.8l22.6-16.8c7.9-5.9,14.9-12.9,20.8-20.8l16.8-22.6c5.9-7.9,12.9-14.9,20.8-20.8l22.5-16.7
		c8-5.9,15.1-13,20.9-21L694,16c5.8-7.9,12.8-15,20.7-20.8l35.4-26.4"/>
	<path class="st2" d="M-46.1,793.3l25.7-34.7c5.8-7.8,12.7-14.8,20.5-20.6l23.7-17.7c7.8-5.8,14.7-12.8,20.5-20.6l16.9-22.7
		c5.9-7.9,12.9-14.9,20.8-20.8l22.6-16.8c7.9-5.9,14.9-12.9,20.8-20.8l16.7-22.5c5.9-8,13-15,21-20.9l21.6-15.9
		c7.9-5.8,15-12.8,20.8-20.7l17.5-23.5c5.9-7.9,12.9-14.9,20.8-20.7l21.8-16c7.9-5.8,15-12.8,20.8-20.7l17.6-23.6
		c5.8-7.8,12.8-14.7,20.6-20.5l22.6-16.8c8-5.9,15.1-13,20.9-21l15.9-21.5c5.9-8,13-15.1,20.9-21l22.6-16.8
		c7.8-5.8,14.8-12.7,20.6-20.5l17.7-23.7c5.8-7.8,12.8-14.7,20.6-20.5l22.7-16.9c7.9-5.9,14.9-12.9,20.8-20.8l16.8-22.6
		c5.9-7.9,12.9-14.9,20.8-20.8l22.6-16.8c7.9-5.9,14.9-12.9,20.8-20.8l16.8-22.6c5.9-7.9,12.9-14.9,20.8-20.8l22.5-16.7
		c8-5.9,15-13,20.9-21l15.9-21.6c5.8-7.9,12.8-15,20.7-20.8l35.4-26.4"/>
	<path class="st2" d="M-31.9,807.4l25.7-34.7c5.8-7.8,12.7-14.8,20.5-20.6L38,734.4c7.8-5.8,14.7-12.8,20.5-20.6l16.9-22.7
		c5.9-7.9,12.9-14.9,20.8-20.8l22.6-16.8c7.9-5.9,14.9-12.9,20.8-20.8l16.7-22.5c5.9-8,13-15.1,21-20.9l21.6-15.9
		c7.9-5.8,15-12.8,20.8-20.7l17.5-23.5c5.9-7.9,12.9-14.9,20.8-20.7l21.8-16c7.9-5.8,15-12.8,20.8-20.7l17.6-23.6
		c5.8-7.8,12.8-14.7,20.6-20.5l22.6-16.8c8-5.9,15-13,20.9-21l15.9-21.5c5.9-8,13-15.1,20.9-21l22.6-16.8
		c7.8-5.8,14.8-12.7,20.6-20.5l17.7-23.7c5.8-7.8,12.8-14.7,20.6-20.5l22.7-16.9c7.9-5.9,14.9-12.9,20.8-20.8l16.8-22.6
		c5.9-7.9,12.9-14.9,20.8-20.8l22.6-16.8c7.9-5.9,14.9-12.9,20.8-20.8l16.8-22.6c5.9-7.9,12.9-14.9,20.8-20.8L685.4,87
		c8-5.9,15.1-13,20.9-21l15.9-21.6c5.8-7.9,12.8-15,20.7-20.8l35.4-26.4"/>
	<path class="st2" d="M-17.8,821.6l25.7-34.7c5.8-7.8,12.7-14.8,20.5-20.6l23.7-17.7c7.8-5.8,14.7-12.8,20.5-20.6l16.9-22.7
		c5.9-7.9,12.9-14.9,20.8-20.8l22.6-16.8c7.9-5.9,14.9-12.9,20.8-20.8l16.7-22.5c5.9-8,13-15,21-20.9l21.6-15.9
		c7.9-5.8,15-12.8,20.8-20.7l17.5-23.5c5.9-7.9,12.9-14.9,20.8-20.7l21.8-16c7.9-5.8,15-12.8,20.8-20.7l17.6-23.6
		c5.8-7.8,12.8-14.7,20.6-20.5l22.6-16.8c8-5.9,15-13,20.9-21l15.9-21.5c5.9-8,13-15.1,20.9-21l22.6-16.8
		c7.8-5.8,14.8-12.7,20.6-20.5l17.7-23.7c5.8-7.8,12.8-14.7,20.6-20.5l22.7-16.9c7.9-5.9,14.9-12.9,20.8-20.8l16.8-22.6
		c5.9-7.9,12.9-14.9,20.8-20.8l22.6-16.8c7.9-5.9,14.9-12.9,20.8-20.8l16.8-22.6c5.9-7.9,12.9-14.9,20.8-20.8l22.5-16.7
		c8-5.9,15-13,20.9-21l15.9-21.6c5.8-7.9,12.8-15,20.7-20.8l35.4-26.4"/>
	<path class="st2" d="M-3.6,835.7L22.1,801c5.8-7.8,12.7-14.8,20.5-20.6l23.7-17.7c7.8-5.8,14.7-12.8,20.5-20.6l16.9-22.7
		c5.9-7.9,12.9-14.9,20.8-20.8l22.6-16.8c7.9-5.9,14.9-12.9,20.8-20.8l16.7-22.5c5.9-8,13-15.1,21-20.9l21.6-15.9
		c7.9-5.8,15-12.8,20.8-20.7l17.5-23.5c5.9-7.9,12.9-14.9,20.8-20.7l21.8-16c7.9-5.8,15-12.8,20.8-20.7l17.6-23.6
		c5.8-7.8,12.8-14.7,20.6-20.5l22.6-16.8c8-5.9,15-13,20.9-21l15.9-21.5c5.9-8,13-15.1,20.9-21l22.6-16.8
		c7.8-5.8,14.8-12.7,20.6-20.5l17.7-23.7c5.8-7.8,12.8-14.7,20.6-20.5l22.7-16.9c7.9-5.9,14.9-12.9,20.8-20.8l16.8-22.6
		c5.9-7.9,12.9-14.9,20.8-20.8l22.6-16.8c7.9-5.9,14.9-12.9,20.8-20.8l16.8-22.6c5.9-7.9,12.9-14.9,20.8-20.8l22.5-16.7
		c8-5.9,15-13,20.9-21l15.9-21.6c5.8-7.9,12.8-15,20.7-20.8l35.4-26.4"/>
	<path class="st2" d="M10.5,849.8l25.7-34.7c5.8-7.8,12.7-14.8,20.5-20.6l23.7-17.7c7.8-5.8,14.7-12.8,20.5-20.6l16.9-22.7
		c5.9-7.9,12.9-14.9,20.8-20.8l22.6-16.8c7.9-5.9,14.9-12.9,20.8-20.8l16.7-22.5c5.9-8,13-15,21-20.9l21.6-15.9
		c7.9-5.8,15-12.8,20.8-20.7l17.5-23.5c5.9-7.9,12.9-14.9,20.8-20.7l21.8-16c7.9-5.8,15-12.8,20.8-20.7l17.6-23.6
		c5.8-7.8,12.8-14.7,20.6-20.5l22.6-16.8c8-5.9,15.1-13,20.9-21l15.9-21.5c5.9-8,13-15.1,20.9-21l22.6-16.8
		c7.8-5.8,14.8-12.7,20.6-20.5l17.7-23.7c5.8-7.8,12.8-14.7,20.6-20.5l22.7-16.9c7.9-5.9,14.9-12.9,20.8-20.8l16.8-22.6
		c5.9-7.9,12.9-14.9,20.8-20.8l22.6-16.8c7.9-5.9,14.9-12.9,20.8-20.8l16.8-22.6c5.9-7.9,12.9-14.9,20.8-20.8l22.5-16.7
		c8-5.9,15-13,20.9-21l15.9-21.6c5.8-7.9,12.8-15,20.7-20.8l35.4-26.4"/>
	<path class="st2" d="M24.6,864l25.7-34.7c5.8-7.8,12.7-14.8,20.5-20.6L94.6,791c7.8-5.8,14.7-12.8,20.5-20.6l16.9-22.7
		c5.9-7.9,12.9-14.9,20.8-20.8l22.6-16.8c7.9-5.9,14.9-12.9,20.8-20.8l16.7-22.5c5.9-8,13-15,21-20.9l21.6-15.9
		c7.9-5.8,15-12.8,20.8-20.7l17.5-23.5c5.9-7.9,12.9-14.9,20.8-20.7l21.8-16c7.9-5.8,15-12.8,20.8-20.7l17.6-23.6
		c5.8-7.8,12.8-14.7,20.6-20.5l22.6-16.8c8-5.9,15.1-13,20.9-21l15.9-21.5c5.9-8,13-15.1,20.9-21l22.6-16.8
		c7.8-5.8,14.8-12.7,20.6-20.5l17.7-23.7c5.8-7.8,12.8-14.7,20.6-20.5l22.7-16.9c7.9-5.9,14.9-12.9,20.8-20.8l16.8-22.6
		c5.9-7.9,12.9-14.9,20.8-20.8l22.6-16.8c7.9-5.9,14.9-12.9,20.8-20.8l16.8-22.6c5.9-7.9,12.9-14.9,20.8-20.8l22.5-16.7
		c8-5.9,15-13,20.9-21l15.9-21.6c5.8-7.9,12.8-15,20.7-20.8L835,53.7"/>
	<path class="st2" d="M38.8,878.1l25.7-34.7c5.8-7.8,12.7-14.8,20.5-20.6l23.7-17.7c7.8-5.8,14.7-12.8,20.5-20.6l16.9-22.7
		c5.9-7.9,12.9-14.9,20.8-20.8l22.6-16.8c7.9-5.9,14.9-12.9,20.8-20.8L227,681c5.9-8,13-15,21-20.9l21.6-15.9
		c7.9-5.8,15-12.8,20.8-20.7l17.5-23.5c5.9-7.9,12.9-14.9,20.8-20.7l21.8-16c7.9-5.8,15-12.8,20.8-20.7l17.6-23.6
		c5.8-7.8,12.8-14.7,20.6-20.5l22.6-16.8c8-5.9,15.1-13,20.9-21l15.9-21.5c5.9-8,13-15.1,20.9-21l22.6-16.8
		c7.8-5.8,14.8-12.7,20.6-20.5l17.7-23.7c5.8-7.8,12.8-14.7,20.6-20.5l22.7-16.9c7.9-5.9,14.9-12.9,20.8-20.8l16.8-22.6
		c5.9-7.9,12.9-14.9,20.8-20.8l22.6-16.8c7.9-5.9,14.9-12.9,20.8-20.8l16.8-22.6c5.9-7.9,12.9-14.9,20.8-20.8l22.5-16.7
		c8-5.9,15-13,20.9-21L793,115c5.8-7.9,12.8-15,20.7-20.8l35.4-26.4"/>
	<path class="st2" d="M52.9,892.3l25.7-34.7c5.8-7.8,12.7-14.8,20.5-20.6l23.7-17.7c7.8-5.8,14.7-12.8,20.5-20.6l16.9-22.7
		c5.9-7.9,12.9-14.9,20.8-20.8l22.6-16.8c7.9-5.9,14.9-12.9,20.8-20.8l16.7-22.5c5.9-8,13-15,21-20.9l21.6-15.9
		c7.9-5.8,15-12.8,20.8-20.7l17.5-23.5c5.9-7.9,12.9-14.9,20.8-20.7l21.8-16c7.9-5.8,15-12.8,20.8-20.7l17.6-23.6
		c5.8-7.8,12.8-14.7,20.6-20.5l22.6-16.8c8-5.9,15-13,20.9-21l15.9-21.5c5.9-8,13-15.1,20.9-21l22.6-16.8
		c7.8-5.8,14.8-12.7,20.6-20.5l17.7-23.7c5.8-7.8,12.8-14.7,20.6-20.5l22.7-16.9c7.9-5.9,14.9-12.9,20.8-20.8l16.8-22.6
		c5.9-7.9,12.9-14.9,20.8-20.8l22.6-16.8c7.9-5.9,14.9-12.9,20.8-20.8l16.8-22.6c5.9-7.9,12.9-14.9,20.8-20.8l22.5-16.7
		c8-5.9,15-13,20.9-21l15.9-21.6c5.8-7.9,12.8-15,20.7-20.8l35.4-26.4"/>
	<path class="st2" d="M67.1,906.4l25.7-34.7c5.8-7.8,12.7-14.8,20.5-20.6l23.7-17.7c7.8-5.8,14.7-12.8,20.5-20.6l16.9-22.7
		c5.9-7.9,12.9-14.9,20.8-20.8l22.6-16.8c7.9-5.9,14.9-12.9,20.8-20.8l16.7-22.5c5.9-8,13-15.1,21-20.9l21.6-15.9
		c7.9-5.8,15-12.8,20.8-20.7l17.5-23.5c5.9-7.9,12.9-14.9,20.8-20.7l21.8-16c7.9-5.8,15-12.8,20.8-20.7l17.6-23.6
		c5.8-7.8,12.8-14.7,20.6-20.5l22.6-16.8c8-5.9,15-13,20.9-21l15.9-21.5c5.9-8,13-15.1,20.9-21l22.6-16.8
		c7.8-5.8,14.8-12.7,20.6-20.5l17.7-23.7c5.8-7.8,12.8-14.7,20.6-20.5l22.7-16.9c7.9-5.9,14.9-12.9,20.8-20.8l16.8-22.6
		c5.9-7.9,12.9-14.9,20.8-20.8l22.6-16.8c7.9-5.9,14.9-12.9,20.8-20.8l16.8-22.6c5.9-7.9,12.9-14.9,20.8-20.8l22.5-16.7
		c8-5.9,15.1-13,20.9-21l15.9-21.6c5.8-7.9,12.8-15,20.7-20.8l35.4-26.4"/>
	<path class="st2" d="M81.2,920.5l25.7-34.7c5.8-7.8,12.7-14.8,20.5-20.6l23.7-17.7c7.8-5.8,14.7-12.8,20.5-20.6l16.9-22.7
		c5.9-7.9,12.9-14.9,20.8-20.8l22.6-16.8c7.9-5.9,14.9-12.9,20.8-20.8l16.7-22.5c5.9-8,13-15,21-20.9l21.6-15.9
		c7.9-5.8,15-12.8,20.8-20.7l17.5-23.5c5.9-7.9,12.9-14.9,20.8-20.7l21.8-16c7.9-5.8,15-12.8,20.8-20.7l17.6-23.6
		c5.8-7.8,12.8-14.7,20.6-20.5l22.6-16.8c8-5.9,15-13,20.9-21l15.9-21.5c5.9-8,13-15.1,20.9-21l22.6-16.8
		c7.8-5.8,14.8-12.7,20.6-20.5l17.7-23.7c5.8-7.8,12.8-14.7,20.6-20.5l22.7-16.9c7.9-5.9,14.9-12.9,20.8-20.8l16.8-22.6
		c5.9-7.9,12.9-14.9,20.8-20.8l22.6-16.8c7.9-5.9,14.9-12.9,20.8-20.8l16.8-22.6c5.9-7.9,12.9-14.9,20.8-20.8l22.5-16.7
		c8-5.9,15-13,20.9-21l15.9-21.6c5.8-7.9,12.8-15,20.7-20.8l35.4-26.4"/>
	<path class="st2" d="M95.4,934.7l25.7-34.7c5.8-7.8,12.7-14.8,20.5-20.6l23.7-17.7c7.8-5.8,14.7-12.8,20.5-20.6l16.9-22.7
		c5.9-7.9,12.9-14.9,20.8-20.8l22.6-16.8C254,775,261,768,266.9,760l16.7-22.5c5.9-8,13-15,21-20.9l21.6-15.9
		c7.9-5.8,15-12.8,20.8-20.7l17.5-23.5c5.9-7.9,12.9-14.9,20.8-20.7l21.8-16c7.9-5.8,15-12.8,20.8-20.7l17.6-23.6
		c5.8-7.8,12.8-14.7,20.6-20.5l22.6-16.8c8-5.9,15-13,20.9-21l15.9-21.5c5.9-8,13-15.1,20.9-21l22.6-16.8
		c7.8-5.8,14.8-12.7,20.6-20.5l17.7-23.7c5.8-7.8,12.8-14.7,20.6-20.5l22.7-16.9c7.9-5.9,14.9-12.9,20.8-20.8l16.8-22.6
		c5.9-7.9,12.9-14.9,20.8-20.8l22.6-16.8c7.9-5.9,14.9-12.9,20.8-20.8l16.8-22.6c5.9-7.9,12.9-14.9,20.8-20.8l22.5-16.7
		c8-5.9,15-13,20.9-21l15.9-21.6c5.8-7.9,12.8-15,20.7-20.8l35.4-26.4"/>
	<path class="st2" d="M109.5,948.8l25.7-34.7c5.8-7.8,12.7-14.8,20.5-20.6l23.7-17.7c7.8-5.8,14.7-12.8,20.5-20.6l16.9-22.7
		c5.9-7.9,12.9-14.9,20.8-20.8l22.6-16.8c7.9-5.9,14.9-12.9,20.8-20.8l16.7-22.5c5.9-8,13-15,21-20.9l21.6-15.9
		c7.9-5.8,15-12.8,20.8-20.7l17.5-23.5c5.9-7.9,12.9-14.9,20.8-20.7l21.8-16c7.9-5.8,15-12.8,20.8-20.7l17.6-23.6
		c5.8-7.8,12.8-14.7,20.6-20.5l22.6-16.8c8-5.9,15-13,20.9-21l15.9-21.5c5.9-8,13-15.1,20.9-21l22.6-16.8
		c7.8-5.8,14.8-12.7,20.6-20.5l17.7-23.7c5.8-7.8,12.8-14.7,20.6-20.5l22.7-16.9c7.9-5.9,14.9-12.9,20.8-20.8l16.8-22.6
		c5.9-7.9,12.9-14.9,20.8-20.8l22.6-16.8c7.9-5.9,14.9-12.9,20.8-20.8l16.8-22.6c5.9-7.9,12.9-14.9,20.8-20.8l22.5-16.7
		c8-5.9,15-13,20.9-21l15.9-21.6c5.8-7.9,12.8-15,20.7-20.8l35.4-26.4"/>
	<path class="st2" d="M123.6,963l25.7-34.7c5.8-7.8,12.7-14.8,20.5-20.6l23.7-17.7c7.8-5.8,14.7-12.8,20.5-20.6l16.9-22.7
		c5.9-7.9,12.9-14.9,20.8-20.8l22.6-16.8c7.9-5.9,14.9-12.9,20.8-20.8l16.7-22.5c5.9-8,13-15,21-20.9l21.6-15.9
		c7.9-5.8,15-12.8,20.8-20.7l17.5-23.5c5.9-7.9,12.9-14.9,20.8-20.7l21.8-16c7.9-5.8,15-12.8,20.8-20.7l17.6-23.6
		c5.8-7.8,12.8-14.7,20.6-20.5l22.6-16.8c8-5.9,15-13,20.9-21l15.9-21.5c5.9-8,13-15.1,20.9-21l22.6-16.8
		c7.8-5.8,14.8-12.7,20.6-20.5l17.7-23.7c5.8-7.8,12.8-14.7,20.6-20.5l22.7-16.9c7.9-5.9,14.9-12.9,20.8-20.8l16.8-22.6
		c5.9-7.9,12.9-14.9,20.8-20.8l22.6-16.8c7.9-5.9,14.9-12.9,20.8-20.8l16.8-22.6c5.9-7.9,12.9-14.9,20.8-20.8l22.5-16.7
		c8-5.9,15-13,20.9-21l15.9-21.6c5.8-7.9,12.8-15,20.7-20.8l35.4-26.4"/>
	<path class="st2" d="M137.8,977.1l25.7-34.7c5.8-7.8,12.7-14.8,20.5-20.6l23.7-17.7c7.8-5.8,14.7-12.8,20.5-20.6l16.9-22.7
		c5.9-7.9,12.9-14.9,20.8-20.8l22.6-16.8c7.9-5.9,14.9-12.9,20.8-20.8L326,780c5.9-8,13-15,21-20.9l21.6-15.9
		c7.9-5.8,15-12.8,20.8-20.7l17.5-23.5c5.9-7.9,12.9-14.9,20.8-20.7l21.8-16c7.9-5.8,15-12.8,20.8-20.7l17.6-23.6
		c5.8-7.8,12.8-14.7,20.6-20.5l22.6-16.8c8-5.9,15-13,20.9-21l15.9-21.5c5.9-8,13-15.1,20.9-21l22.6-16.8
		c7.8-5.8,14.8-12.7,20.6-20.5l17.7-23.7c5.8-7.8,12.8-14.7,20.6-20.5l22.7-16.9c7.9-5.9,14.9-12.9,20.8-20.8l16.8-22.6
		c5.9-7.9,12.9-14.9,20.8-20.8l22.6-16.8c7.9-5.9,14.9-12.9,20.8-20.8l16.8-22.6c5.9-7.9,12.9-14.9,20.8-20.8l22.5-16.7
		c8-5.9,15-13,20.9-21L892,214c5.8-7.9,12.8-15,20.7-20.8l35.4-26.4"/>
	<path class="st2" d="M151.9,991.3l25.7-34.7c5.8-7.8,12.7-14.8,20.5-20.6l23.7-17.7c7.8-5.8,14.7-12.8,20.5-20.6l16.9-22.7
		c5.9-7.9,12.9-14.9,20.8-20.8l22.6-16.8c7.9-5.9,14.9-12.9,20.8-20.8l16.7-22.5c5.9-8,13-15,21-20.9l21.6-15.9
		c7.9-5.8,15-12.8,20.8-20.7l17.5-23.5c5.9-7.9,12.9-14.9,20.8-20.7l21.8-16c7.9-5.8,15-12.8,20.8-20.7l17.6-23.6
		c5.8-7.8,12.8-14.7,20.6-20.5l22.6-16.8c8-5.9,15-13,20.9-21l15.9-21.5c5.9-8,13-15.1,20.9-21l22.6-16.8
		c7.8-5.8,14.8-12.7,20.6-20.5l17.7-23.7c5.8-7.8,12.8-14.7,20.6-20.5l22.7-16.9c7.9-5.9,14.9-12.9,20.8-20.8l16.8-22.6
		c5.9-7.9,12.9-14.9,20.8-20.8l22.6-16.8c7.9-5.9,14.9-12.9,20.8-20.8l16.8-22.6c5.9-7.9,12.9-14.9,20.8-20.8l22.5-16.7
		c8-5.9,15-13,20.9-21l15.9-21.6c5.8-7.9,12.8-15,20.7-20.8l35.4-26.4"/>
	<path class="st2" d="M166.1,1005.4l25.7-34.7c5.8-7.8,12.7-14.8,20.5-20.6l23.7-17.7c7.8-5.8,14.7-12.8,20.5-20.6l16.9-22.7
		c5.9-7.9,12.9-14.9,20.8-20.8l22.6-16.8c7.9-5.9,14.9-12.9,20.8-20.8l16.7-22.5c5.9-8,13-15,21-20.9l21.6-15.9
		c7.9-5.8,15-12.8,20.8-20.7l17.5-23.5c5.9-7.9,12.9-14.9,20.8-20.7l21.8-16c7.9-5.8,15-12.8,20.8-20.7l17.6-23.6
		c5.8-7.8,12.8-14.7,20.6-20.5l22.6-16.8c8-5.9,15-13,20.9-21l15.9-21.5c5.9-8,13-15.1,20.9-21l22.6-16.8
		c7.8-5.8,14.8-12.7,20.6-20.5l17.7-23.7c5.8-7.8,12.8-14.7,20.6-20.5l22.7-16.9c7.9-5.9,14.9-12.9,20.8-20.8l16.8-22.6
		c5.9-7.9,12.9-14.9,20.8-20.8l22.6-16.8c7.9-5.9,14.9-12.9,20.8-20.8l16.8-22.6c5.9-7.9,12.9-14.9,20.8-20.8l22.5-16.7
		c8-5.9,15-13,20.9-21l15.9-21.6c5.8-7.9,12.8-15,20.7-20.8l35.4-26.4"/>
	<path class="st2" d="M180.2,1019.5l25.7-34.7c5.8-7.8,12.7-14.8,20.5-20.6l23.7-17.7c7.8-5.8,14.7-12.8,20.5-20.6l16.9-22.7
		c5.9-7.9,12.9-14.9,20.8-20.8l22.6-16.8c7.9-5.9,14.9-12.9,20.8-20.8l16.7-22.5c5.9-8,13-15,21-20.9l21.6-15.9
		c7.9-5.8,15-12.8,20.8-20.7l17.5-23.5c5.9-7.9,12.9-14.9,20.8-20.7l21.8-16c7.9-5.8,15-12.8,20.8-20.7l17.6-23.6
		c5.8-7.8,12.8-14.7,20.6-20.5l22.6-16.8c8-5.9,15-13,20.9-21l15.9-21.5c5.9-8,13-15.1,20.9-21l22.6-16.8
		c7.8-5.8,14.8-12.7,20.6-20.5l17.7-23.7c5.8-7.8,12.8-14.7,20.6-20.5l22.7-16.9c7.9-5.9,14.9-12.9,20.8-20.8l16.8-22.6
		c5.9-7.9,12.9-14.9,20.8-20.8l22.6-16.8c7.9-5.9,14.9-12.9,20.8-20.8l16.8-22.6c5.9-7.9,12.9-14.9,20.8-20.8l22.5-16.7
		c8-5.9,15-13,20.9-21l15.9-21.6c5.8-7.9,12.8-15,20.7-20.8l35.4-26.4"/>
	<path class="st2" d="M194.3,1033.7l25.7-34.7c5.8-7.8,12.7-14.8,20.5-20.6l23.7-17.7c7.8-5.8,14.7-12.8,20.5-20.6l16.9-22.7
		c5.9-7.9,12.9-14.9,20.8-20.8l22.6-16.8C353,874,360,867,365.9,859l16.7-22.5c5.9-8,13-15,21-20.9l21.6-15.9
		c7.9-5.8,15-12.8,20.8-20.7l17.5-23.5c5.9-7.9,12.9-14.9,20.8-20.7l21.8-16c7.9-5.8,15-12.8,20.8-20.7l17.6-23.6
		c5.8-7.8,12.8-14.7,20.6-20.5l22.6-16.8c8-5.9,15-13,20.9-21l15.9-21.5c5.9-8,13-15.1,20.9-21l22.6-16.8
		c7.8-5.8,14.8-12.7,20.6-20.5l17.7-23.7c5.8-7.8,12.8-14.7,20.6-20.5l22.7-16.9c7.9-5.9,14.9-12.9,20.8-20.8l16.8-22.6
		c5.9-7.9,12.9-14.9,20.8-20.8l22.6-16.8c7.9-5.9,14.9-12.9,20.8-20.8l16.8-22.6c5.9-7.9,12.9-14.9,20.8-20.8l22.5-16.7
		c8-5.9,15-13,20.9-21l15.9-21.6c5.8-7.9,12.8-15,20.7-20.8l35.4-26.4"/>
	<path class="st2" d="M208.5,1047.8l25.7-34.7c5.8-7.8,12.7-14.8,20.5-20.6l23.7-17.7c7.8-5.8,14.7-12.8,20.5-20.6l16.9-22.7
		c5.9-7.9,12.9-14.9,20.8-20.8l22.6-16.8c7.9-5.9,14.9-12.9,20.8-20.8l16.7-22.5c5.9-8,13-15,21-20.9l21.6-15.9
		c7.9-5.8,15-12.8,20.8-20.7l17.5-23.5c5.9-7.9,12.9-14.9,20.8-20.7l21.8-16c7.9-5.8,15-12.8,20.8-20.7l17.6-23.6
		c5.8-7.8,12.8-14.7,20.6-20.5l22.6-16.8c8-5.9,15-13,20.9-21l15.9-21.5c5.9-8,13-15.1,20.9-21l22.6-16.8
		c7.8-5.8,14.8-12.7,20.6-20.5l17.7-23.7c5.8-7.8,12.8-14.7,20.6-20.5l22.7-16.9c7.9-5.9,14.9-12.9,20.8-20.8l16.8-22.6
		c5.9-7.9,12.9-14.9,20.8-20.8l22.6-16.8c7.9-5.9,14.9-12.9,20.8-20.8l16.8-22.6c5.9-7.9,12.9-14.9,20.8-20.8l22.5-16.7
		c8-5.9,15-13,20.9-21l15.9-21.6c5.8-7.9,12.8-15,20.7-20.8l35.4-26.4"/>
	<path class="st2" d="M222.6,1062l25.7-34.7c5.8-7.8,12.7-14.8,20.5-20.6l23.7-17.7c7.8-5.8,14.7-12.8,20.5-20.6l16.9-22.7
		c5.9-7.9,12.9-14.9,20.8-20.8l22.6-16.8c7.9-5.9,14.9-12.9,20.8-20.8l16.7-22.5c5.9-8,13-15,21-20.9l21.6-15.9
		c7.9-5.8,15-12.8,20.8-20.7l17.5-23.5c5.9-7.9,12.9-14.9,20.8-20.7l21.8-16c7.9-5.8,15-12.8,20.8-20.7l17.6-23.6
		c5.8-7.8,12.8-14.7,20.6-20.5l22.6-16.8c8-5.9,15-13,20.9-21l15.9-21.5c5.9-8,13-15.1,20.9-21l22.6-16.8
		c7.8-5.8,14.8-12.7,20.6-20.5l17.7-23.7c5.8-7.8,12.8-14.7,20.6-20.5l22.7-16.9c7.9-5.9,14.9-12.9,20.8-20.8l16.8-22.6
		c5.9-7.9,12.9-14.9,20.8-20.8l22.6-16.8c7.9-5.9,14.9-12.9,20.8-20.8l16.8-22.6c5.9-7.9,12.9-14.9,20.8-20.8l22.5-16.7
		c8-5.9,15-13,20.9-21l15.9-21.6c5.8-7.9,12.8-15,20.7-20.8l35.4-26.4"/>
	<path class="st2" d="M236.8,1076.1l25.7-34.7c5.8-7.8,12.7-14.8,20.5-20.6l23.7-17.7c7.8-5.8,14.7-12.8,20.5-20.6l16.9-22.7
		c5.9-7.9,12.9-14.9,20.8-20.8l22.6-16.8c7.9-5.9,14.9-12.9,20.8-20.8L425,879c5.9-8,13-15,21-20.9l21.6-15.9
		c7.9-5.8,15-12.8,20.8-20.7l17.5-23.5c5.9-7.9,12.9-14.9,20.8-20.7l21.8-16c7.9-5.8,15-12.8,20.8-20.7l17.6-23.6
		c5.8-7.8,12.8-14.7,20.6-20.5l22.6-16.8c8-5.9,15-13,20.9-21l15.9-21.5c5.9-8,13-15.1,20.9-21l22.6-16.8
		c7.8-5.8,14.8-12.7,20.6-20.5l17.7-23.7c5.8-7.8,12.8-14.7,20.6-20.5l22.7-16.9c7.9-5.9,14.9-12.9,20.8-20.8l16.8-22.6
		c5.9-7.9,12.9-14.9,20.8-20.8l22.6-16.8c7.9-5.9,14.9-12.9,20.8-20.8l16.8-22.6c5.9-7.9,12.9-14.9,20.8-20.8l22.5-16.7
		c8-5.9,15-13,20.9-21L991,313c5.8-7.9,12.8-15,20.7-20.8l35.4-26.4"/>
	<path class="st2" d="M250.9,1090.2l25.7-34.7c5.8-7.8,12.7-14.8,20.5-20.6l23.7-17.7c7.8-5.8,14.7-12.8,20.5-20.6l16.9-22.7
		c5.9-7.9,12.9-14.9,20.8-20.8l22.6-16.8c7.9-5.9,14.9-12.9,20.8-20.8l16.7-22.5c5.9-8,13-15,21-20.9l21.6-15.9
		c7.9-5.8,15-12.8,20.8-20.7l17.5-23.5c5.9-7.9,12.9-14.9,20.8-20.7l21.8-16c7.9-5.8,15-12.8,20.8-20.7l17.6-23.6
		c5.8-7.8,12.8-14.7,20.6-20.5l22.6-16.8c8-5.9,15.1-13,20.9-21l15.9-21.5c5.9-8,13-15.1,20.9-21l22.6-16.8
		c7.8-5.8,14.8-12.7,20.6-20.5l17.7-23.7c5.8-7.8,12.8-14.7,20.6-20.5l22.7-16.9c7.9-5.9,14.9-12.9,20.8-20.8l16.8-22.6
		c5.9-7.9,12.9-14.9,20.8-20.8l22.6-16.8c7.9-5.9,14.9-12.9,20.8-20.8l16.8-22.6c5.9-7.9,12.9-14.9,20.8-20.8l22.5-16.7
		c8-5.9,15-13,20.9-21l15.9-21.6c5.8-7.9,12.8-15,20.7-20.8l35.4-26.4"/>
	<path class="st2" d="M265.1,1104.4l25.7-34.7c5.8-7.8,12.7-14.8,20.5-20.6l23.7-17.7c7.8-5.8,14.7-12.8,20.5-20.6l16.9-22.7
		c5.9-7.9,12.9-14.9,20.8-20.8l22.6-16.8c7.9-5.9,14.9-12.9,20.8-20.8l16.7-22.5c5.9-8,13-15,21-20.9l21.6-15.9
		c7.9-5.8,15-12.8,20.8-20.7l17.5-23.5c5.9-7.9,12.9-14.9,20.8-20.7l21.8-16c7.9-5.8,15-12.8,20.8-20.7l17.6-23.6
		c5.8-7.8,12.8-14.7,20.6-20.5l22.6-16.8c8-5.9,15-13,20.9-21l15.9-21.5c5.9-8,13-15.1,20.9-21l22.6-16.8
		c7.8-5.8,14.8-12.7,20.6-20.5l17.7-23.7c5.8-7.8,12.8-14.7,20.6-20.5l22.7-16.9c7.9-5.9,14.9-12.9,20.8-20.8l16.8-22.6
		c5.9-7.9,12.9-14.9,20.8-20.8l22.6-16.8c7.9-5.9,14.9-12.9,20.8-20.8l16.8-22.6c5.9-7.9,12.9-14.9,20.8-20.8l22.5-16.7
		c8-5.9,15-13,20.9-21l16-21.6c5.8-7.9,12.8-15,20.7-20.8l35.4-26.4"/>
	<path class="st2" d="M279.2,1118.5l25.7-34.7c5.8-7.8,12.7-14.8,20.5-20.6l23.7-17.7c7.8-5.8,14.7-12.8,20.5-20.6l16.9-22.7
		c5.9-7.9,12.9-14.9,20.8-20.8l22.6-16.8c7.9-5.9,14.9-12.9,20.8-20.8l16.7-22.5c5.9-8,13-15,21-20.9l21.6-15.9
		c7.9-5.8,15-12.8,20.8-20.7l17.5-23.5c5.9-7.9,12.9-14.9,20.8-20.7l21.8-16c7.9-5.8,15-12.8,20.8-20.7l17.6-23.6
		c5.8-7.8,12.8-14.7,20.6-20.5l22.6-16.8c8-5.9,15-13,20.9-21l15.9-21.5c5.9-8,13-15.1,20.9-21l22.6-16.8
		c7.8-5.8,14.8-12.7,20.6-20.5l17.7-23.7c5.8-7.8,12.8-14.7,20.6-20.5l22.7-16.9c7.9-5.9,14.9-12.9,20.8-20.8l16.8-22.6
		c5.9-7.9,12.9-14.9,20.8-20.8l22.6-16.8c7.9-5.9,14.9-12.9,20.8-20.8l16.8-22.6c5.9-7.9,12.9-14.9,20.8-20.8l22.5-16.7
		c8-5.9,15.1-13,21-21l15.9-21.6c5.8-7.9,12.8-15,20.7-20.8l35.4-26.4"/>
	<path class="st2" d="M293.3,1132.7L319,1098c5.8-7.8,12.7-14.8,20.5-20.6l23.7-17.7c7.8-5.8,14.7-12.8,20.5-20.6l16.9-22.8
		c5.9-7.9,12.9-14.9,20.8-20.8l22.6-16.8c7.9-5.9,14.9-12.9,20.8-20.8l16.7-22.5c5.9-8,13-15,21-20.9l21.6-15.9
		c7.9-5.8,15-12.8,20.8-20.7l17.5-23.5c5.9-7.9,12.9-14.9,20.8-20.7l21.8-16c7.9-5.8,15-12.8,20.8-20.7l17.6-23.6
		c5.8-7.8,12.8-14.7,20.6-20.5l22.6-16.8c8-5.9,15-13,20.9-21l15.9-21.5c5.9-8,13-15.1,20.9-21l22.6-16.8
		c7.8-5.8,14.8-12.7,20.6-20.5l17.7-23.7c5.8-7.8,12.8-14.7,20.6-20.5l22.7-16.9c7.9-5.9,14.9-12.9,20.8-20.8l16.8-22.6
		c5.9-7.9,12.9-14.9,20.8-20.8l22.6-16.8c7.9-5.9,14.9-12.9,20.8-20.8l16.8-22.6c5.9-7.9,12.9-14.9,20.8-20.8l22.5-16.7
		c8-5.9,15-13,21-21l15.9-21.6c5.8-7.9,12.8-15,20.7-20.8l35.4-26.4"/>
</g>
</svg>
