<svg width="40" height="18" viewBox="0 0 40 18" fill="none" xmlns="http://www.w3.org/2000/svg">
<path d="M4.53283 12.605C2.03678 12.605 0 14.6318 0 17.1379H9.05567C9.05567 14.6318 7.02887 12.605 4.53283 12.605Z" fill="#29B96F"/>
<path d="M31.5914 3.52942C29.0954 3.52942 27.0586 5.55621 27.0586 8.06224H36.1143C36.1143 5.55621 34.0875 3.52942 31.5914 3.52942Z" fill="#29B96F"/>
<path d="M35.4772 12.605C32.9811 12.605 30.9443 14.6318 30.9443 17.1379H40C40 14.6318 37.9732 12.605 35.4772 12.605Z" fill="#29B96F"/>
<path d="M30.3352 15.1111C31.5033 12.8946 30.6447 10.1589 28.4382 8.99078L24.2148 17.0081C26.4313 18.1762 29.167 17.3276 30.3352 15.1111Z" fill="#29B96F"/>
<path d="M17.0589 17.6471C21.932 17.6471 25.8824 13.6966 25.8824 8.82353C25.8824 3.95043 21.932 0 17.0589 0C12.1858 0 8.23535 3.95043 8.23535 8.82353C8.23535 13.6966 12.1858 17.6471 17.0589 17.6471Z" fill="#29B96F"/>
</svg>
