<svg width="37" height="33" viewBox="0 0 37 33" fill="none" xmlns="http://www.w3.org/2000/svg">
<g clip-path="url(#clip0)">
<path d="M18.7175 10.0592C21.4421 10.0592 23.6508 7.89598 23.6508 5.22749C23.6508 2.55899 21.4421 0.395752 18.7175 0.395752C15.9929 0.395752 13.7842 2.55899 13.7842 5.22749C13.7842 7.89598 15.9929 10.0592 18.7175 10.0592Z" fill="#29B96F"/>
<path d="M32.0666 32.7968C34.7912 32.7968 37 30.6336 37 27.9651C37 25.2966 34.7912 23.1333 32.0666 23.1333C29.342 23.1333 27.1333 25.2966 27.1333 27.9651C27.1333 30.6336 29.342 32.7968 32.0666 32.7968Z" fill="#29B96F"/>
<path d="M4.93333 32.7968C7.65794 32.7968 9.86667 30.6336 9.86667 27.9651C9.86667 25.2966 7.65794 23.1333 4.93333 23.1333C2.20873 23.1333 0 25.2966 0 27.9651C0 30.6336 2.20873 32.7968 4.93333 32.7968Z" fill="#29B96F"/>
<path d="M13.1518 10.5933L6.9126 21.1771L10.4309 23.1666L16.6702 12.5828L13.1518 10.5933Z" fill="#29B96F"/>
<path d="M20.6705 12.524L26.9097 23.1078L30.428 21.1182L24.1888 10.5344L20.6705 12.524Z" fill="#29B96F"/>
<path d="M24.5214 25.9755H12.043V29.9546H24.5214V25.9755Z" fill="#29B96F"/>
</g>
<defs>
<clipPath id="clip0">
<rect width="37" height="32.4011" fill="white" transform="translate(0 0.395752)"/>
</clipPath>
</defs>
</svg>
