<svg width="30" height="28" viewBox="0 0 30 28" fill="none" xmlns="http://www.w3.org/2000/svg">
<path d="M23.435 21.6821L21.793 23.7938L27.8356 27.2385L29.4776 25.1267L23.435 21.6821Z" fill="#29B96F"/>
<path d="M11.7397 15.1222L8.48047 25.1431L20.1842 22.6062L11.7397 15.1222Z" fill="#29B96F"/>
<path d="M0.925781 2.4375L2.40726 17.786L9.81467 13.4732L0.925781 2.4375Z" fill="#29B96F"/>
<path d="M1.66699 0.661621L17.9633 7.38453L10.4077 11.6973L1.66699 0.661621Z" fill="#29B96F"/>
<path d="M4.18555 18.8007L7.29665 23.3672L9.96332 14.3611L4.18555 18.8007Z" fill="#29B96F"/>
<path d="M12.7773 14.488L24.3329 11.6974L21.5181 21.7183L12.7773 14.488Z" fill="#29B96F"/>
<path d="M22.5556 10.8095L19.0001 7.89197L12.0371 13.0927L22.5556 10.8095Z" fill="#29B96F"/>
</svg>
