<svg width="116" height="119" viewBox="0 0 116 119" fill="none" xmlns="http://www.w3.org/2000/svg">
<g clip-path="url(#clip0)">
<path d="M20.4392 82.2818L62.7002 79.8612L61.0534 51.1897L18.7925 53.6102L20.4392 82.2818Z" fill="#29B96F"/>
<path d="M7.72301 96.0627L18.376 83.7415L13.1055 79.1974L2.45255 91.5186L7.72301 96.0627Z" fill="#29B96F"/>
<path d="M19.4787 97.609L25.6738 85.7328L20.6014 83.0942L14.4063 94.9704L19.4787 97.609Z" fill="#29B96F"/>
<path d="M27.2892 111.06L20.8555 97.9849L16.491 100.126L22.9247 113.202L27.2892 111.06Z" fill="#29B96F"/>
<path d="M3.37695 62.2265L18.8221 81.8286L16.3502 54.0469L3.37695 62.2265Z" fill="#29B96F"/>
<path d="M78.5024 72.6487L64.6083 50.5621L64.1074 79.7152L78.5024 72.6487Z" fill="#29B96F"/>
<path d="M64.3331 80.9252L61.8936 104.238L74.1883 78.5052L64.3331 80.9252Z" fill="#29B96F"/>
<path d="M61.0529 83.7969L60.7944 98.5751L55.0752 81.5221L61.0529 83.7969Z" fill="#29B96F"/>
<path d="M2.06836 110.627L2.37532 93.3156L9.08006 113.273L2.06836 110.627Z" fill="#29B96F"/>
<path d="M69.8264 118.839L64.9312 101.753L62.1523 118.839H69.8264Z" fill="#29B96F"/>
<path d="M2.8273 113.499L11.2607 119H0L2.8273 113.499Z" fill="#29B96F"/>
<path d="M51.9902 115.612L57.9356 107.497L57.3379 118.726L51.9902 115.612Z" fill="#29B96F"/>
<path d="M2.63344 61.4683L9.91979 56.354L1.8418 52.611L2.63344 61.4683Z" fill="#29B96F"/>
<path d="M27.659 111.611L23.4746 118.839H31.8434L27.659 111.611Z" fill="#29B96F"/>
<path d="M115.999 49.578L90.0527 53.7081L93.6878 35.7194L115.999 49.578Z" fill="#29B96F"/>
<path d="M66.0293 49.3844L91.6688 35.7194L83.4131 73.6006L66.0293 49.3844Z" fill="#29B96F"/>
<path d="M109.343 57.1284L101.863 52.482L111.702 52.2722L109.343 57.1284Z" fill="#29B96F"/>
<path d="M68.4688 35.1063L87.452 36.9133L68.7919 32.3636L68.4688 35.1063Z" fill="#29B96F"/>
<path d="M102.558 24.9423L87 35.2192L103.657 26.6847L102.558 24.9423Z" fill="#29B96F"/>
<path d="M71.5547 8.42166L62.7012 19.6182L78.4209 8.43779L71.5547 8.42166Z" fill="#29B96F"/>
<path d="M62.0225 20.6991L67.2247 32.9444L65.1729 19.2471L62.0225 20.6991Z" fill="#29B96F"/>
<path d="M55.6895 14.0683L62.0226 19.3601L57.0142 12.3743L55.6895 14.0683Z" fill="#29B96F"/>
<path d="M56.626 11.8258L57.2722 3.61386L58.7586 12.0678L56.626 11.8258Z" fill="#29B96F"/>
<path d="M103.931 23.7645L112.073 21.0703L104.561 25.8941L103.931 23.7645Z" fill="#29B96F"/>
<path d="M54.9139 13.181L46.6582 13.1487L54.9785 11.0352L54.9139 13.181Z" fill="#29B96F"/>
<path d="M70.4559 8.1151L69.0342 0L72.5723 7.8247L70.4559 8.1151Z" fill="#29B96F"/>
<path d="M109.683 21.2155L108.374 15.9721L106.937 21.7479L109.683 21.2155Z" fill="#29B96F"/>
<path d="M84.4148 5.75961L73.2188 7.61495L81.8299 8.11509L84.4148 5.75961Z" fill="#29B96F"/>
<path d="M103.043 23.1837L100.717 15.2784L105.127 22.6513L103.043 23.1837Z" fill="#29B96F"/>
<path d="M64.6396 15.7301L63.9287 4.43671L66.3683 12.697L64.6396 15.7301Z" fill="#29B96F"/>
</g>
<defs>
<clipPath id="clip0">
<rect width="116" height="119" fill="white"/>
</clipPath>
</defs>
</svg>
