<svg width="34" height="31" viewBox="0 0 34 31" fill="none" xmlns="http://www.w3.org/2000/svg">
<g clip-path="url(#clip0)">
<path d="M7.28576 8.70078C9.76194 8.70078 11.7693 6.75282 11.7693 4.3499C11.7693 1.94698 9.76194 -0.000976562 7.28576 -0.000976562C4.80958 -0.000976562 2.80225 1.94698 2.80225 4.3499C2.80225 6.75282 4.80958 8.70078 7.28576 8.70078Z" fill="#29B96F"/>
<path d="M26.5275 8.70078C29.0036 8.70078 31.011 6.75282 31.011 4.3499C31.011 1.94698 29.0036 -0.000976562 26.5275 -0.000976562C24.0513 -0.000976562 22.0439 1.94698 22.0439 4.3499C22.0439 6.75282 24.0513 8.70078 26.5275 8.70078Z" fill="#29B96F"/>
<path d="M7.47253 10.3325L0 22.66H14.7582L7.47253 10.3325Z" fill="#29B96F"/>
<path d="M26.5277 22.66L34.0002 10.3325H19.0552L26.5277 22.66Z" fill="#29B96F"/>
<path d="M10.6486 24.4727H3.92334V30.999H10.6486V24.4727Z" fill="#29B96F"/>
<path d="M29.8898 24.4727H23.1646V30.999H29.8898V24.4727Z" fill="#29B96F"/>
</g>
<defs>
<clipPath id="clip0">
<rect width="34" height="31" fill="white" transform="translate(0 -0.000976562)"/>
</clipPath>
</defs>
</svg>
