<svg width="21" height="20" viewBox="0 0 21 20" fill="none" xmlns="http://www.w3.org/2000/svg">
<path d="M8.36193 14.6968C8.18063 15.1583 8.01582 15.5868 7.83453 16.0153C7.78509 16.1142 7.6862 16.2295 7.58732 16.2625C6.58197 16.6086 5.56015 16.6086 4.85146 15.4714C4.50536 14.9275 4.07685 14.4661 3.41761 14.3177C3.26928 14.2848 3.08799 14.3177 2.93966 14.3177C2.92317 14.3507 2.90669 14.4001 2.89021 14.4331C2.9891 14.532 3.0715 14.6638 3.18687 14.7297C3.69778 15.0264 4.06037 15.4714 4.24166 16.0153C4.70313 17.4491 6.02162 17.6634 7.2577 17.5315C7.78509 17.4821 7.78509 17.4491 7.78509 18.0095C7.78509 18.3721 7.83453 18.7511 7.83453 19.1137C7.83453 19.9213 7.48843 20.185 6.7303 19.8718C6.02162 19.5752 5.31293 19.262 4.67017 18.85C2.32986 17.3173 0.780636 15.1747 0.22028 12.4224C-0.86747 7.01661 2.16505 1.98988 7.29066 0.440665C12.1031 -1.00967 17.3111 1.21527 19.4537 5.71461C22.1566 11.3511 19.4042 17.8117 13.7677 19.8718C12.9931 20.152 12.68 19.9378 12.68 19.1137C12.68 18.3556 12.6635 17.5975 12.68 16.8558C12.6964 16.0812 12.5646 15.356 11.9878 14.7297C12.3668 14.6638 12.68 14.6144 12.9766 14.5485C15.4653 14.0211 16.5201 12.5707 16.6354 10.0821C16.6849 9.0273 16.4376 8.0714 15.7784 7.23086C15.696 7.1155 15.6795 6.90124 15.7125 6.73643C15.8938 6.01126 15.8278 5.31906 15.5971 4.62686C15.4982 4.3302 15.3334 4.24779 15.0697 4.34668C14.4105 4.62686 13.7512 4.94 13.0755 5.22017C12.8777 5.30258 12.6305 5.3685 12.4328 5.31906C10.9659 4.97296 9.49912 4.97296 8.03231 5.30258C7.81805 5.35202 7.53787 5.26962 7.30714 5.18721C6.66438 4.92351 6.0381 4.62686 5.39533 4.36316C5.06571 4.23131 4.88442 4.36316 4.80202 4.69278C4.60424 5.3685 4.53832 6.02775 4.75257 6.71995C4.80202 6.8518 4.78554 7.06605 4.70313 7.16494C3.51649 8.6812 3.63186 10.3293 4.19222 12.0104C4.68665 13.4772 5.8568 14.1529 7.29066 14.4825C7.66972 14.5649 8.03231 14.6309 8.36193 14.6968Z" fill="#3A2F3C"/>
</svg>
