<?xml version="1.0" encoding="utf-8"?>
<!-- Generator: Adobe Illustrator 23.0.4, SVG Export Plug-In . SVG Version: 6.00 Build 0)  -->
<svg version="1.1" id="Ebene_1" xmlns="http://www.w3.org/2000/svg" xmlns:xlink="http://www.w3.org/1999/xlink" x="0px" y="0px"
	 viewBox="0 0 21 20" style="enable-background:new 0 0 21 20;" xml:space="preserve">
<path d="M8.4,14.7C8.2,15.2,8,15.6,7.8,16c0,0.1-0.1,0.2-0.2,0.2c-1,0.3-2,0.3-2.7-0.8c-0.3-0.5-0.8-1-1.4-1.2c-0.1,0-0.3,0-0.5,0
	c0,0,0,0.1,0,0.1c0.1,0.1,0.2,0.2,0.3,0.3C3.7,15,4.1,15.5,4.2,16c0.5,1.4,1.8,1.6,3,1.5c0.5,0,0.5-0.1,0.5,0.5c0,0.4,0,0.7,0,1.1
	c0,0.8-0.3,1.1-1.1,0.8c-0.7-0.3-1.4-0.6-2.1-1c-2.3-1.5-3.9-3.7-4.4-6.4C-0.9,7,2.2,2,7.3,0.4c4.8-1.5,10,0.8,12.2,5.3
	c2.7,5.6,0,12.1-5.7,14.2c-0.8,0.3-1.1,0.1-1.1-0.8c0-0.8,0-1.5,0-2.3c0-0.8-0.1-1.5-0.7-2.1c0.4-0.1,0.7-0.1,1-0.2
	c2.5-0.5,3.5-2,3.7-4.5c0-1.1-0.2-2-0.9-2.9c-0.1-0.1-0.1-0.3-0.1-0.5c0.2-0.7,0.1-1.4-0.1-2.1c-0.1-0.3-0.3-0.4-0.5-0.3
	c-0.7,0.3-1.3,0.6-2,0.9c-0.2,0.1-0.4,0.1-0.6,0.1C11,5,9.5,5,8,5.3c-0.2,0-0.5,0-0.7-0.1C6.7,4.9,6,4.6,5.4,4.4
	c-0.3-0.1-0.5,0-0.6,0.3c-0.2,0.7-0.3,1.3,0,2c0,0.1,0,0.3,0,0.4C3.5,8.7,3.6,10.3,4.2,12c0.5,1.5,1.7,2.1,3.1,2.5
	C7.7,14.6,8,14.6,8.4,14.7z"/>
</svg>
