<svg width="36" height="37" viewBox="0 0 36 37" fill="none" xmlns="http://www.w3.org/2000/svg">
<g clip-path="url(#clip0)">
<path d="M36.0003 0L25.5054 4.701L31.485 10.7628L36.0003 0Z" fill="#29B96F"/>
<path d="M16.4749 11.8765L6.10205 13.1136L10.6173 17.8146L16.4749 11.8765Z" fill="#29B96F"/>
<path d="M24.2849 19.9175L23.0646 30.4329L18.5493 25.7319L24.2849 19.9175Z" fill="#29B96F"/>
<path d="M1.46484 36.4946L9.64111 33.0307L7.20044 30.6802L1.46484 36.4946Z" fill="#29B96F"/>
<path d="M30.4364 11.6437L24.4824 5.60791L18.5284 11.6437L24.4824 17.6796L30.4364 11.6437Z" fill="#29B96F"/>
<path d="M23.4775 18.6872L17.5234 12.6514L11.5694 18.6872L17.5234 24.723L23.4775 18.6872Z" fill="#29B96F"/>
<path d="M10.4953 30.309C12.9216 30.309 14.8885 28.3151 14.8885 25.8554C14.8885 23.3958 12.9216 21.4019 10.4953 21.4019C8.06896 21.4019 6.10205 23.3958 6.10205 25.8554C6.10205 28.3151 8.06896 30.309 10.4953 30.309Z" fill="#29B96F"/>
<path d="M0.976506 29.443C-0.365867 30.8038 -0.365867 33.0306 0.976506 34.3914L5.85786 29.443C4.51549 28.0822 2.31888 28.0822 0.976506 29.443Z" fill="#29B96F"/>
</g>
<defs>
<clipPath id="clip0">
<rect width="36" height="36.4946" fill="white"/>
</clipPath>
</defs>
</svg>
