<svg width="30" height="38" viewBox="0 0 30 38" fill="none" xmlns="http://www.w3.org/2000/svg">
<path d="M28.8333 16.1465L30.0004 18.4841L27.3779 18.3201L28.8333 16.1465Z" fill="#29B96F"/>
<path d="M23.0394 27.2068L24.2064 29.5446L21.584 29.3805L23.0394 27.2068Z" fill="#29B96F"/>
<path d="M11.1758 15.5996L17.3407 20.3573L19.7023 17.3222L11.1758 15.5996Z" fill="#29B96F"/>
<path d="M20.76 16.8024L24.069 22.7496L17.2451 22.6266L20.76 16.8024Z" fill="#29B96F"/>
<path d="M24.0016 23.4607L20.5828 29.3396L17.1777 23.4607H24.0016Z" fill="#29B96F"/>
<path d="M0 0L4.31128 13.3982L18.1788 16.0916L0 0Z" fill="#29B96F"/>
<path d="M24.8795 18.2791C26.4795 18.2791 27.7765 16.9876 27.7765 15.3944C27.7765 13.8013 26.4795 12.5098 24.8795 12.5098C23.2795 12.5098 21.9824 13.8013 21.9824 15.3944C21.9824 16.9876 23.2795 18.2791 24.8795 18.2791Z" fill="#29B96F"/>
<path d="M15.4677 24.8875L8.23438 35.7445L10.9689 37.5508L18.2021 26.6937L15.4677 24.8875Z" fill="#29B96F"/>
</svg>
