<?xml version="1.0" encoding="utf-8"?>
<!-- Generator: Adobe Illustrator 23.0.4, SVG Export Plug-In . SVG Version: 6.00 Build 0)  -->
<svg version="1.1" id="Ebene_1" xmlns="http://www.w3.org/2000/svg" xmlns:xlink="http://www.w3.org/1999/xlink" x="0px" y="0px"
	 viewBox="0 0 25 20" style="enable-background:new 0 0 25 20;" xml:space="preserve">
<path d="M0,17.6c2.6,0.2,4.9-0.3,7-1.8c-0.8-0.3-1.6-0.6-2.3-1c-0.9-0.5-1.5-1.3-1.9-2.3C2.7,12.2,2.7,12,3.1,12
	c0.4,0,0.8,0,1.3-0.1c-0.3-0.1-0.6-0.3-0.9-0.4C1.9,10.6,1,9.2,0.9,7.3C0.9,7,1.1,7,1.3,7.1c0.5,0.2,0.9,0.3,1.4,0.4
	c-1.9-2-2.3-4.1-1.1-6.7c2.7,3.2,6,5,10.2,5.3c0-0.6,0-1.1,0-1.5c0.3-2.9,2.7-4.8,5.7-4.6c1,0.1,1.9,0.4,2.6,1.1
	c0.4,0.4,0.8,0.4,1.3,0.2c0.6-0.3,1.2-0.5,1.9-0.8c0.1-0.1,0.3-0.1,0.5-0.2c-0.2,1.1-0.9,1.9-1.6,2.5c0,0,0,0.1,0.1,0.1
	c0.7-0.2,1.4-0.4,2.1-0.6c0,0,0.1,0.1,0.1,0.1c-0.1,0.2-0.2,0.4-0.4,0.5c-0.6,0.6-1.1,1.2-1.7,1.8C22.1,5,22,5.3,22,5.6
	c0.1,3-0.9,5.8-2.6,8.3c-2.2,3.2-5.1,5.1-8.9,5.8C7,20.4,3.6,19.9,0.4,18c-0.1-0.1-0.2-0.1-0.3-0.2C0.1,17.8,0.1,17.7,0,17.6z"/>
</svg>
