<svg width="20" height="20" viewBox="0 0 20 20" fill="none" xmlns="http://www.w3.org/2000/svg">
<path d="M19.9399 10.01C19.9399 12.0506 19.8756 14.1073 19.956 16.1478C20.0202 18.0599 18.4456 19.988 16.2123 19.988C12.0508 20.004 7.8893 20.004 3.72782 19.988C1.97646 19.9719 0.546458 18.815 0.112636 17.1279C0.0162306 16.7584 0.00016315 16.3567 0.00016315 15.9711C0.00016315 11.9863 0.0162306 8.00161 0.00016315 4.01687C-0.0159043 1.9763 1.15702 0.690902 2.53883 0.224945C2.94051 0.0964049 3.37433 0.0160675 3.79209 0.0160675C7.92143 0 12.0347 0.0160675 16.1641 0C18.3653 0 20.0202 1.8799 19.972 3.77586C19.8917 5.84856 19.9399 7.93734 19.9399 10.01ZM10.7814 7.00542C10.9903 6.95722 11.1189 6.92509 11.2313 6.89295C12.3239 6.66801 12.8541 7.13396 12.6935 8.21048C12.5007 9.47982 11.7616 10.4921 10.9421 11.44C10.4762 11.9863 10.0102 11.906 9.76919 11.2312C9.47998 10.4278 9.25503 9.57622 9.07829 8.72464C8.83728 7.71239 8.72481 6.65194 8.48379 5.62362C8.16245 4.27395 7.08592 3.40631 5.59165 4.53103C4.61153 5.2862 3.67962 6.12171 2.7477 6.94115C2.66737 7.00542 2.61916 7.19823 2.66737 7.2625C2.79591 7.47138 2.97265 7.66419 3.11725 7.857C3.40647 7.68026 3.66355 7.51958 3.90456 7.37498C4.19378 7.19823 4.48299 7.23037 4.69187 7.48745C4.88468 7.72846 5.10962 8.00161 5.18996 8.29082C5.68805 9.9297 6.13794 11.5847 6.6521 13.2075C6.89311 13.9466 7.21446 14.6857 7.61615 15.3444C8.06604 16.0836 8.66054 16.2282 9.47998 16.0193C10.203 15.8265 10.7975 15.4248 11.3438 14.9428C13.2719 13.2235 14.7822 11.1669 15.9873 8.90139C16.63 7.69633 16.9192 6.39486 16.4372 5.04519C16.2605 4.5471 15.923 4.20968 15.4249 4.03294C14.6376 3.75979 13.8664 3.82406 13.1112 4.12934C11.858 4.62744 11.2474 5.68789 10.7814 7.00542Z" fill="#3A2F3C"/>
</svg>
