<?xml version="1.0" encoding="utf-8"?>
<!-- Generator: Adobe Illustrator 23.0.4, SVG Export Plug-In . SVG Version: 6.00 Build 0)  -->
<svg version="1.1" id="Ebene_1" xmlns="http://www.w3.org/2000/svg" xmlns:xlink="http://www.w3.org/1999/xlink" x="0px" y="0px"
	 viewBox="0 0 20 20" style="enable-background:new 0 0 20 20;" xml:space="preserve">
<path d="M19.9,10c0,2-0.1,4.1,0,6.1c0.1,1.9-1.5,3.8-3.7,3.8c-4.2,0-8.3,0-12.5,0c-1.8,0-3.2-1.2-3.6-2.9C0,16.8,0,16.4,0,16
	c0-4,0-8,0-12c0-2,1.2-3.3,2.5-3.8C2.9,0.1,3.4,0,3.8,0C7.9,0,12,0,16.2,0C18.4,0,20,1.9,20,3.8C19.9,5.8,19.9,7.9,19.9,10z M10.8,7
	c0.2,0,0.3-0.1,0.4-0.1c1.1-0.2,1.6,0.2,1.5,1.3c-0.2,1.3-0.9,2.3-1.8,3.2c-0.5,0.5-0.9,0.5-1.2-0.2c-0.3-0.8-0.5-1.7-0.7-2.5
	c-0.2-1-0.4-2.1-0.6-3.1C8.2,4.3,7.1,3.4,5.6,4.5c-1,0.8-1.9,1.6-2.8,2.4C2.7,7,2.6,7.2,2.7,7.3C2.8,7.5,3,7.7,3.1,7.9
	c0.3-0.2,0.5-0.3,0.8-0.5c0.3-0.2,0.6-0.1,0.8,0.1C4.9,7.7,5.1,8,5.2,8.3c0.5,1.6,0.9,3.3,1.5,4.9c0.2,0.7,0.6,1.5,1,2.1
	c0.4,0.7,1,0.9,1.9,0.7c0.7-0.2,1.3-0.6,1.9-1.1c1.9-1.7,3.4-3.8,4.6-6c0.6-1.2,0.9-2.5,0.4-3.9c-0.2-0.5-0.5-0.8-1-1
	c-0.8-0.3-1.6-0.2-2.3,0.1C11.9,4.6,11.2,5.7,10.8,7z"/>
</svg>
