<svg width="360" height="360" viewBox="0 0 360 360" fill="none" xmlns="http://www.w3.org/2000/svg">
<rect width="360" height="360" fill="white"/>
<rect x="139.5" y="156.5" width="47" height="47" stroke="#29B96F"/>
<path d="M97.5117 180.592C94.6172 179.76 92.5078 178.74 91.1836 177.533C89.8711 176.314 89.2148 174.814 89.2148 173.033C89.2148 171.018 90.0176 169.354 91.623 168.041C93.2402 166.717 95.3379 166.055 97.916 166.055C99.6738 166.055 101.238 166.395 102.609 167.074C103.992 167.754 105.059 168.691 105.809 169.887C106.57 171.082 106.951 172.389 106.951 173.807H103.559C103.559 172.26 103.066 171.047 102.082 170.168C101.098 169.277 99.709 168.832 97.916 168.832C96.252 168.832 94.9512 169.201 94.0137 169.939C93.0879 170.666 92.625 171.68 92.625 172.98C92.625 174.023 93.0645 174.908 93.9434 175.635C94.834 176.35 96.3398 177.006 98.4609 177.604C100.594 178.201 102.258 178.863 103.453 179.59C104.66 180.305 105.551 181.143 106.125 182.104C106.711 183.064 107.004 184.195 107.004 185.496C107.004 187.57 106.195 189.234 104.578 190.488C102.961 191.73 100.799 192.352 98.0918 192.352C96.334 192.352 94.6934 192.018 93.1699 191.35C91.6465 190.67 90.4688 189.744 89.6367 188.572C88.8164 187.4 88.4062 186.07 88.4062 184.582H91.7988C91.7988 186.129 92.3672 187.354 93.5039 188.256C94.6523 189.146 96.1816 189.592 98.0918 189.592C99.873 189.592 101.238 189.229 102.188 188.502C103.137 187.775 103.611 186.785 103.611 185.531C103.611 184.277 103.172 183.311 102.293 182.631C101.414 181.939 99.8203 181.26 97.5117 180.592Z" fill="#3A2F3C"/>
<path d="M115.248 168.375V172.98H118.799V175.494H115.248V187.289C115.248 188.051 115.406 188.625 115.723 189.012C116.039 189.387 116.578 189.574 117.34 189.574C117.715 189.574 118.23 189.504 118.887 189.363V192C118.031 192.234 117.199 192.352 116.391 192.352C114.938 192.352 113.842 191.912 113.104 191.033C112.365 190.154 111.996 188.906 111.996 187.289V175.494H108.533V172.98H111.996V168.375H115.248Z" fill="#3A2F3C"/>
<path d="M131.807 175.898C131.314 175.816 130.781 175.775 130.207 175.775C128.074 175.775 126.627 176.684 125.865 178.5V192H122.613V172.98H125.777L125.83 175.178C126.896 173.479 128.408 172.629 130.365 172.629C130.998 172.629 131.479 172.711 131.807 172.875V175.898Z" fill="#3A2F3C"/>
<path d="M163.078 183.879C162.762 186.586 161.76 188.678 160.072 190.154C158.396 191.619 156.164 192.352 153.375 192.352C150.352 192.352 147.926 191.268 146.098 189.1C144.281 186.932 143.373 184.031 143.373 180.398V177.938C143.373 175.559 143.795 173.467 144.639 171.662C145.494 169.857 146.701 168.475 148.26 167.514C149.818 166.541 151.623 166.055 153.674 166.055C156.393 166.055 158.572 166.816 160.213 168.34C161.854 169.852 162.809 171.949 163.078 174.633H159.686C159.393 172.594 158.754 171.117 157.77 170.203C156.797 169.289 155.432 168.832 153.674 168.832C151.518 168.832 149.824 169.629 148.594 171.223C147.375 172.816 146.766 175.084 146.766 178.025V180.504C146.766 183.281 147.346 185.49 148.506 187.131C149.666 188.771 151.289 189.592 153.375 189.592C155.25 189.592 156.686 189.17 157.682 188.326C158.689 187.471 159.357 185.988 159.686 183.879H163.078Z" fill="#3A2F3C"/>
<path d="M170.443 175.283C171.885 173.514 173.76 172.629 176.068 172.629C180.088 172.629 182.115 174.896 182.15 179.432V192H178.898V179.414C178.887 178.043 178.57 177.029 177.949 176.373C177.34 175.717 176.385 175.389 175.084 175.389C174.029 175.389 173.104 175.67 172.307 176.232C171.51 176.795 170.889 177.533 170.443 178.447V192H167.191V165H170.443V175.283Z" fill="#3A2F3C"/>
<path d="M205.531 192C205.344 191.625 205.192 190.957 205.074 189.996C203.563 191.566 201.758 192.352 199.66 192.352C197.785 192.352 196.244 191.824 195.037 190.77C193.842 189.703 193.244 188.355 193.244 186.727C193.244 184.746 193.994 183.211 195.494 182.121C197.006 181.02 199.127 180.469 201.858 180.469H205.022V178.975C205.022 177.838 204.682 176.936 204.002 176.268C203.322 175.588 202.32 175.248 200.996 175.248C199.836 175.248 198.863 175.541 198.078 176.127C197.293 176.713 196.901 177.422 196.901 178.254H193.631C193.631 177.305 193.965 176.391 194.633 175.512C195.313 174.621 196.227 173.918 197.375 173.402C198.535 172.887 199.807 172.629 201.19 172.629C203.381 172.629 205.098 173.18 206.34 174.281C207.582 175.371 208.227 176.877 208.274 178.799V187.553C208.274 189.299 208.496 190.688 208.942 191.719V192H205.531ZM200.135 189.521C201.154 189.521 202.121 189.258 203.035 188.73C203.949 188.203 204.611 187.518 205.022 186.674V182.771H202.473C198.488 182.771 196.496 183.938 196.496 186.27C196.496 187.289 196.836 188.086 197.516 188.66C198.195 189.234 199.069 189.521 200.135 189.521Z" fill="#3A2F3C"/>
<path d="M216.447 172.98L216.553 175.371C218.006 173.543 219.904 172.629 222.248 172.629C226.268 172.629 228.295 174.896 228.33 179.432V192H225.078V179.414C225.067 178.043 224.75 177.029 224.129 176.373C223.52 175.717 222.565 175.389 221.264 175.389C220.209 175.389 219.283 175.67 218.486 176.232C217.69 176.795 217.069 177.533 216.623 178.447V192H213.371V172.98H216.447Z" fill="#3A2F3C"/>
<path d="M232.461 182.332C232.461 179.367 233.147 177.012 234.518 175.266C235.889 173.508 237.705 172.629 239.967 172.629C242.287 172.629 244.098 173.449 245.399 175.09L245.557 172.98H248.527V191.543C248.527 194.004 247.795 195.943 246.33 197.361C244.877 198.779 242.92 199.488 240.459 199.488C239.088 199.488 237.746 199.195 236.434 198.609C235.121 198.023 234.119 197.221 233.428 196.201L235.115 194.25C236.51 195.973 238.215 196.834 240.231 196.834C241.813 196.834 243.043 196.389 243.922 195.498C244.813 194.607 245.258 193.354 245.258 191.736V190.102C243.957 191.602 242.182 192.352 239.932 192.352C237.705 192.352 235.901 191.455 234.518 189.662C233.147 187.869 232.461 185.426 232.461 182.332ZM235.731 182.701C235.731 184.846 236.17 186.533 237.049 187.764C237.928 188.982 239.158 189.592 240.74 189.592C242.791 189.592 244.297 188.66 245.258 186.797V178.113C244.262 176.297 242.768 175.389 240.776 175.389C239.194 175.389 237.957 176.004 237.067 177.234C236.176 178.465 235.731 180.287 235.731 182.701Z" fill="#3A2F3C"/>
<path d="M261.342 192.352C258.764 192.352 256.666 191.508 255.049 189.82C253.432 188.121 252.623 185.854 252.623 183.018V182.42C252.623 180.533 252.981 178.852 253.695 177.375C254.422 175.887 255.43 174.727 256.719 173.895C258.02 173.051 259.426 172.629 260.938 172.629C263.41 172.629 265.332 173.443 266.703 175.072C268.074 176.701 268.76 179.033 268.76 182.068V183.422H255.875C255.922 185.297 256.467 186.814 257.51 187.975C258.565 189.123 259.901 189.697 261.518 189.697C262.666 189.697 263.639 189.463 264.436 188.994C265.233 188.525 265.93 187.904 266.527 187.131L268.514 188.678C266.92 191.127 264.529 192.352 261.342 192.352ZM260.938 175.301C259.625 175.301 258.524 175.781 257.633 176.742C256.742 177.691 256.192 179.027 255.981 180.75H265.508V180.504C265.414 178.852 264.969 177.574 264.172 176.672C263.375 175.758 262.297 175.301 260.938 175.301Z" fill="#3A2F3C"/>
<line x1="83" y1="179.5" x2="135" y2="179.5" stroke="#E55E4E"/>
<rect x="148.504" y="105.5" width="30" height="29" rx="14.5" fill="white" stroke="#29B96F"/>
<line x1="159.004" y1="120" x2="168.004" y2="120" stroke="#29B96F"/>
<line x1="163.504" y1="124.6" x2="163.504" y2="115.6" stroke="#29B96F"/>
<rect x="94.5" y="225.5" width="30" height="29" rx="14.5" fill="white" stroke="#E55E4E"/>
<line x1="105" y1="240" x2="114" y2="240" stroke="#E55E4E"/>
<path d="M114.275 124H113.186V116.775L111 117.578V116.594L114.105 115.428H114.275V124Z" fill="#9F9E97"/>
<path d="M123.041 124H117.451V123.221L120.404 119.939C120.842 119.443 121.143 119.041 121.307 118.732C121.475 118.42 121.559 118.098 121.559 117.766C121.559 117.32 121.424 116.955 121.154 116.67C120.885 116.385 120.525 116.242 120.076 116.242C119.537 116.242 119.117 116.396 118.816 116.705C118.52 117.01 118.371 117.436 118.371 117.982H117.287C117.287 117.197 117.539 116.562 118.043 116.078C118.551 115.594 119.229 115.352 120.076 115.352C120.869 115.352 121.496 115.561 121.957 115.979C122.418 116.393 122.648 116.945 122.648 117.637C122.648 118.477 122.113 119.477 121.043 120.637L118.758 123.115H123.041V124Z" fill="#9F9E97"/>
<path d="M124.266 123.432C124.266 123.244 124.32 123.088 124.43 122.963C124.543 122.838 124.711 122.775 124.934 122.775C125.156 122.775 125.324 122.838 125.438 122.963C125.555 123.088 125.613 123.244 125.613 123.432C125.613 123.611 125.555 123.762 125.438 123.883C125.324 124.004 125.156 124.064 124.934 124.064C124.711 124.064 124.543 124.004 124.43 123.883C124.32 123.762 124.266 123.611 124.266 123.432ZM124.271 118.258C124.271 118.07 124.326 117.914 124.436 117.789C124.549 117.664 124.717 117.602 124.939 117.602C125.162 117.602 125.33 117.664 125.443 117.789C125.561 117.914 125.619 118.07 125.619 118.258C125.619 118.438 125.561 118.588 125.443 118.709C125.33 118.83 125.162 118.891 124.939 118.891C124.717 118.891 124.549 118.83 124.436 118.709C124.326 118.588 124.271 118.438 124.271 118.258Z" fill="#9F9E97"/>
<path d="M130.658 124H129.568V116.775L127.383 117.578V116.594L130.488 115.428H130.658V124Z" fill="#9F9E97"/>
<path d="M134.332 119.723L134.766 115.469H139.137V116.471H135.686L135.428 118.797C135.846 118.551 136.32 118.428 136.852 118.428C137.629 118.428 138.246 118.686 138.703 119.201C139.16 119.713 139.389 120.406 139.389 121.281C139.389 122.16 139.15 122.854 138.674 123.361C138.201 123.865 137.539 124.117 136.688 124.117C135.934 124.117 135.318 123.908 134.842 123.49C134.365 123.072 134.094 122.494 134.027 121.756H135.053C135.119 122.244 135.293 122.613 135.574 122.863C135.855 123.109 136.227 123.232 136.688 123.232C137.191 123.232 137.586 123.061 137.871 122.717C138.16 122.373 138.305 121.898 138.305 121.293C138.305 120.723 138.148 120.266 137.836 119.922C137.527 119.574 137.115 119.4 136.6 119.4C136.127 119.4 135.756 119.504 135.486 119.711L135.199 119.945L134.332 119.723Z" fill="#9F9E97"/>
<path d="M60.2715 244H59.1816V236.775L56.9961 237.578V236.594L60.1016 235.428H60.2715V244Z" fill="#9F9E97"/>
<path d="M69.0371 244H63.4473V243.221L66.4004 239.939C66.8379 239.443 67.1387 239.041 67.3027 238.732C67.4707 238.42 67.5547 238.098 67.5547 237.766C67.5547 237.32 67.4199 236.955 67.1504 236.67C66.8809 236.385 66.5215 236.242 66.0723 236.242C65.5332 236.242 65.1133 236.396 64.8125 236.705C64.5156 237.01 64.3672 237.436 64.3672 237.982H63.2832C63.2832 237.197 63.5352 236.562 64.0391 236.078C64.5469 235.594 65.2246 235.352 66.0723 235.352C66.8652 235.352 67.4922 235.561 67.9531 235.979C68.4141 236.393 68.6445 236.945 68.6445 237.637C68.6445 238.477 68.1094 239.477 67.0391 240.637L64.7539 243.115H69.0371V244Z" fill="#9F9E97"/>
<path d="M70.2617 243.432C70.2617 243.244 70.3164 243.088 70.4258 242.963C70.5391 242.838 70.707 242.775 70.9297 242.775C71.1523 242.775 71.3203 242.838 71.4336 242.963C71.5508 243.088 71.6094 243.244 71.6094 243.432C71.6094 243.611 71.5508 243.762 71.4336 243.883C71.3203 244.004 71.1523 244.064 70.9297 244.064C70.707 244.064 70.5391 244.004 70.4258 243.883C70.3164 243.762 70.2617 243.611 70.2617 243.432ZM70.2676 238.258C70.2676 238.07 70.3223 237.914 70.4316 237.789C70.5449 237.664 70.7129 237.602 70.9355 237.602C71.1582 237.602 71.3262 237.664 71.4395 237.789C71.5566 237.914 71.6152 238.07 71.6152 238.258C71.6152 238.438 71.5566 238.588 71.4395 238.709C71.3262 238.83 71.1582 238.891 70.9355 238.891C70.7129 238.891 70.5449 238.83 70.4316 238.709C70.3223 238.588 70.2676 238.438 70.2676 238.258Z" fill="#9F9E97"/>
<path d="M76.6543 244H75.5645V236.775L73.3789 237.578V236.594L76.4844 235.428H76.6543V244Z" fill="#9F9E97"/>
<path d="M84.4062 241.135H85.5898V242.02H84.4062V244H83.3164V242.02H79.4316V241.381L83.252 235.469H84.4062V241.135ZM80.6621 241.135H83.3164V236.951L83.1875 237.186L80.6621 241.135Z" fill="#9F9E97"/>
</svg>
