<svg width="360" height="360" viewBox="0 0 360 360" fill="none" xmlns="http://www.w3.org/2000/svg">
<rect width="360" height="360" fill="white"/>
<mask id="path-1-inside-1" fill="white">
<path fill-rule="evenodd" clip-rule="evenodd" d="M94 90C91.7909 90 90 91.7909 90 94V146C90 148.209 91.7909 150 94 150H109.686L120.314 160.627L130.941 150H206C208.209 150 210 148.209 210 146V94C210 91.7909 208.209 90 206 90H94Z"/>
</mask>
<path fill-rule="evenodd" clip-rule="evenodd" d="M94 90C91.7909 90 90 91.7909 90 94V146C90 148.209 91.7909 150 94 150H109.686L120.314 160.627L130.941 150H206C208.209 150 210 148.209 210 146V94C210 91.7909 208.209 90 206 90H94Z" fill="white"/>
<path d="M109.686 150L110.393 149.293L110.1 149H109.686V150ZM120.314 160.627L119.607 161.335L120.314 162.042L121.021 161.335L120.314 160.627ZM130.941 150V149H130.527L130.234 149.293L130.941 150ZM91 94C91 92.3431 92.3431 91 94 91V89C91.2386 89 89 91.2386 89 94H91ZM91 146V94H89V146H91ZM94 149C92.3431 149 91 147.657 91 146H89C89 148.761 91.2386 151 94 151V149ZM109.686 149H94V151H109.686V149ZM121.021 159.92L110.393 149.293L108.979 150.707L119.607 161.335L121.021 159.92ZM130.234 149.293L119.607 159.92L121.021 161.335L131.648 150.707L130.234 149.293ZM206 149H130.941V151H206V149ZM209 146C209 147.657 207.657 149 206 149V151C208.761 151 211 148.761 211 146H209ZM209 94V146H211V94H209ZM206 91C207.657 91 209 92.3431 209 94H211C211 91.2386 208.761 89 206 89V91ZM94 91H206V89H94V91Z" fill="#29B96F" mask="url(#path-1-inside-1)"/>
<mask id="path-3-inside-2" fill="white">
<path fill-rule="evenodd" clip-rule="evenodd" d="M266 180C268.209 180 270 181.791 270 184V236C270 238.209 268.209 240 266 240H250.314L239.686 250.627L229.059 240H154C151.791 240 150 238.209 150 236V184C150 181.791 151.791 180 154 180H266Z"/>
</mask>
<path fill-rule="evenodd" clip-rule="evenodd" d="M266 180C268.209 180 270 181.791 270 184V236C270 238.209 268.209 240 266 240H250.314L239.686 250.627L229.059 240H154C151.791 240 150 238.209 150 236V184C150 181.791 151.791 180 154 180H266Z" fill="white"/>
<path d="M250.314 240L249.607 239.293L249.9 239H250.314V240ZM239.686 250.627L240.393 251.335L239.686 252.042L238.979 251.335L239.686 250.627ZM229.059 240V239H229.473L229.766 239.293L229.059 240ZM269 184C269 182.343 267.657 181 266 181V179C268.761 179 271 181.239 271 184H269ZM269 236V184H271V236H269ZM266 239C267.657 239 269 237.657 269 236H271C271 238.761 268.761 241 266 241V239ZM250.314 239H266V241H250.314V239ZM238.979 249.92L249.607 239.293L251.021 240.707L240.393 251.335L238.979 249.92ZM229.766 239.293L240.393 249.92L238.979 251.335L228.352 240.707L229.766 239.293ZM154 239H229.059V241H154V239ZM151 236C151 237.657 152.343 239 154 239V241C151.239 241 149 238.761 149 236H151ZM151 184V236H149V184H151ZM154 181C152.343 181 151 182.343 151 184H149C149 181.239 151.239 179 154 179V181ZM266 181H154V179H266V181Z" fill="#647CC1" mask="url(#path-3-inside-2)"/>
<rect x="164.5" y="270.5" width="30" height="29" rx="14.5" fill="white" stroke="#29B96F"/>
<line x1="173.854" y1="284.646" x2="178.854" y2="289.646" stroke="#29B96F"/>
<line x1="184.929" y1="280.257" x2="178.929" y2="290.257" stroke="#29B96F"/>
<circle cx="239.5" cy="262.5" r="7.5" fill="#4E618D"/>
<circle cx="120.5" cy="172.5" r="7.5" fill="#29B96F"/>
<path d="M257.271 267H256.182V259.775L253.996 260.578V259.594L257.102 258.428H257.271V267Z" fill="#9F9E97"/>
<path d="M266.037 267H260.447V266.221L263.4 262.939C263.838 262.443 264.139 262.041 264.303 261.732C264.471 261.42 264.555 261.098 264.555 260.766C264.555 260.32 264.42 259.955 264.15 259.67C263.881 259.385 263.521 259.242 263.072 259.242C262.533 259.242 262.113 259.396 261.812 259.705C261.516 260.01 261.367 260.436 261.367 260.982H260.283C260.283 260.197 260.535 259.562 261.039 259.078C261.547 258.594 262.225 258.352 263.072 258.352C263.865 258.352 264.492 258.561 264.953 258.979C265.414 259.393 265.645 259.945 265.645 260.637C265.645 261.477 265.109 262.477 264.039 263.637L261.754 266.115H266.037V267Z" fill="#9F9E97"/>
<path d="M267.262 266.432C267.262 266.244 267.316 266.088 267.426 265.963C267.539 265.838 267.707 265.775 267.93 265.775C268.152 265.775 268.32 265.838 268.434 265.963C268.551 266.088 268.609 266.244 268.609 266.432C268.609 266.611 268.551 266.762 268.434 266.883C268.32 267.004 268.152 267.064 267.93 267.064C267.707 267.064 267.539 267.004 267.426 266.883C267.316 266.762 267.262 266.611 267.262 266.432ZM267.268 261.258C267.268 261.07 267.322 260.914 267.432 260.789C267.545 260.664 267.713 260.602 267.936 260.602C268.158 260.602 268.326 260.664 268.439 260.789C268.557 260.914 268.615 261.07 268.615 261.258C268.615 261.438 268.557 261.588 268.439 261.709C268.326 261.83 268.158 261.891 267.936 261.891C267.713 261.891 267.545 261.83 267.432 261.709C267.322 261.588 267.268 261.438 267.268 261.258Z" fill="#9F9E97"/>
<path d="M273.654 267H272.564V259.775L270.379 260.578V259.594L273.484 258.428H273.654V267Z" fill="#9F9E97"/>
<path d="M277.328 262.723L277.762 258.469H282.133V259.471H278.682L278.424 261.797C278.842 261.551 279.316 261.428 279.848 261.428C280.625 261.428 281.242 261.686 281.699 262.201C282.156 262.713 282.385 263.406 282.385 264.281C282.385 265.16 282.146 265.854 281.67 266.361C281.197 266.865 280.535 267.117 279.684 267.117C278.93 267.117 278.314 266.908 277.838 266.49C277.361 266.072 277.09 265.494 277.023 264.756H278.049C278.115 265.244 278.289 265.613 278.57 265.863C278.852 266.109 279.223 266.232 279.684 266.232C280.188 266.232 280.582 266.061 280.867 265.717C281.156 265.373 281.301 264.898 281.301 264.293C281.301 263.723 281.145 263.266 280.832 262.922C280.523 262.574 280.111 262.4 279.596 262.4C279.123 262.4 278.752 262.504 278.482 262.711L278.195 262.945L277.328 262.723Z" fill="#9F9E97"/>
<path d="M82.2715 177H81.1816V169.775L78.9961 170.578V169.594L82.1016 168.428H82.2715V177Z" fill="#9F9E97"/>
<path d="M91.0371 177H85.4473V176.221L88.4004 172.939C88.8379 172.443 89.1387 172.041 89.3027 171.732C89.4707 171.42 89.5547 171.098 89.5547 170.766C89.5547 170.32 89.4199 169.955 89.1504 169.67C88.8809 169.385 88.5215 169.242 88.0723 169.242C87.5332 169.242 87.1133 169.396 86.8125 169.705C86.5156 170.01 86.3672 170.436 86.3672 170.982H85.2832C85.2832 170.197 85.5352 169.562 86.0391 169.078C86.5469 168.594 87.2246 168.352 88.0723 168.352C88.8652 168.352 89.4922 168.561 89.9531 168.979C90.4141 169.393 90.6445 169.945 90.6445 170.637C90.6445 171.477 90.1094 172.477 89.0391 173.637L86.7539 176.115H91.0371V177Z" fill="#9F9E97"/>
<path d="M92.2617 176.432C92.2617 176.244 92.3164 176.088 92.4258 175.963C92.5391 175.838 92.707 175.775 92.9297 175.775C93.1523 175.775 93.3203 175.838 93.4336 175.963C93.5508 176.088 93.6094 176.244 93.6094 176.432C93.6094 176.611 93.5508 176.762 93.4336 176.883C93.3203 177.004 93.1523 177.064 92.9297 177.064C92.707 177.064 92.5391 177.004 92.4258 176.883C92.3164 176.762 92.2617 176.611 92.2617 176.432ZM92.2676 171.258C92.2676 171.07 92.3223 170.914 92.4316 170.789C92.5449 170.664 92.7129 170.602 92.9355 170.602C93.1582 170.602 93.3262 170.664 93.4395 170.789C93.5566 170.914 93.6152 171.07 93.6152 171.258C93.6152 171.438 93.5566 171.588 93.4395 171.709C93.3262 171.83 93.1582 171.891 92.9355 171.891C92.7129 171.891 92.5449 171.83 92.4316 171.709C92.3223 171.588 92.2676 171.438 92.2676 171.258Z" fill="#9F9E97"/>
<path d="M98.6543 177H97.5645V169.775L95.3789 170.578V169.594L98.4844 168.428H98.6543V177Z" fill="#9F9E97"/>
<path d="M107.18 173.361C107.18 174.631 106.963 175.574 106.529 176.191C106.096 176.809 105.418 177.117 104.496 177.117C103.586 177.117 102.912 176.816 102.475 176.215C102.037 175.609 101.811 174.707 101.795 173.508V172.061C101.795 170.807 102.012 169.875 102.445 169.266C102.879 168.656 103.559 168.352 104.484 168.352C105.402 168.352 106.078 168.646 106.512 169.236C106.945 169.822 107.168 170.729 107.18 171.955V173.361ZM106.096 171.879C106.096 170.961 105.967 170.293 105.709 169.875C105.451 169.453 105.043 169.242 104.484 169.242C103.93 169.242 103.525 169.451 103.271 169.869C103.018 170.287 102.887 170.93 102.879 171.797V173.531C102.879 174.453 103.012 175.135 103.277 175.576C103.547 176.014 103.953 176.232 104.496 176.232C105.031 176.232 105.428 176.025 105.686 175.611C105.947 175.197 106.084 174.545 106.096 173.654V171.879Z" fill="#9F9E97"/>
<path d="M169.342 319H168.252V311.775L166.066 312.578V311.594L169.172 310.428H169.342V319Z" fill="#9F9E97"/>
<path d="M178.107 319H172.518V318.221L175.471 314.939C175.908 314.443 176.209 314.041 176.373 313.732C176.541 313.42 176.625 313.098 176.625 312.766C176.625 312.32 176.49 311.955 176.221 311.67C175.951 311.385 175.592 311.242 175.143 311.242C174.604 311.242 174.184 311.396 173.883 311.705C173.586 312.01 173.438 312.436 173.438 312.982H172.354C172.354 312.197 172.605 311.562 173.109 311.078C173.617 310.594 174.295 310.352 175.143 310.352C175.936 310.352 176.562 310.561 177.023 310.979C177.484 311.393 177.715 311.945 177.715 312.637C177.715 313.477 177.18 314.477 176.109 315.637L173.824 318.115H178.107V319Z" fill="#9F9E97"/>
<path d="M179.332 318.432C179.332 318.244 179.387 318.088 179.496 317.963C179.609 317.838 179.777 317.775 180 317.775C180.223 317.775 180.391 317.838 180.504 317.963C180.621 318.088 180.68 318.244 180.68 318.432C180.68 318.611 180.621 318.762 180.504 318.883C180.391 319.004 180.223 319.064 180 319.064C179.777 319.064 179.609 319.004 179.496 318.883C179.387 318.762 179.332 318.611 179.332 318.432ZM179.338 313.258C179.338 313.07 179.393 312.914 179.502 312.789C179.615 312.664 179.783 312.602 180.006 312.602C180.229 312.602 180.396 312.664 180.51 312.789C180.627 312.914 180.686 313.07 180.686 313.258C180.686 313.438 180.627 313.588 180.51 313.709C180.396 313.83 180.229 313.891 180.006 313.891C179.783 313.891 179.615 313.83 179.502 313.709C179.393 313.588 179.338 313.438 179.338 313.258Z" fill="#9F9E97"/>
<path d="M187.752 319H182.162V318.221L185.115 314.939C185.553 314.443 185.854 314.041 186.018 313.732C186.186 313.42 186.27 313.098 186.27 312.766C186.27 312.32 186.135 311.955 185.865 311.67C185.596 311.385 185.236 311.242 184.787 311.242C184.248 311.242 183.828 311.396 183.527 311.705C183.23 312.01 183.082 312.436 183.082 312.982H181.998C181.998 312.197 182.25 311.562 182.754 311.078C183.262 310.594 183.939 310.352 184.787 310.352C185.58 310.352 186.207 310.561 186.668 310.979C187.129 311.393 187.359 311.945 187.359 312.637C187.359 313.477 186.824 314.477 185.754 315.637L183.469 318.115H187.752V319Z" fill="#9F9E97"/>
<path d="M194.25 315.361C194.25 316.631 194.033 317.574 193.6 318.191C193.166 318.809 192.488 319.117 191.566 319.117C190.656 319.117 189.982 318.816 189.545 318.215C189.107 317.609 188.881 316.707 188.865 315.508V314.061C188.865 312.807 189.082 311.875 189.516 311.266C189.949 310.656 190.629 310.352 191.555 310.352C192.473 310.352 193.148 310.646 193.582 311.236C194.016 311.822 194.238 312.729 194.25 313.955V315.361ZM193.166 313.879C193.166 312.961 193.037 312.293 192.779 311.875C192.521 311.453 192.113 311.242 191.555 311.242C191 311.242 190.596 311.451 190.342 311.869C190.088 312.287 189.957 312.93 189.949 313.797V315.531C189.949 316.453 190.082 317.135 190.348 317.576C190.617 318.014 191.023 318.232 191.566 318.232C192.102 318.232 192.498 318.025 192.756 317.611C193.018 317.197 193.154 316.545 193.166 315.654V313.879Z" fill="#9F9E97"/>
<path d="M52.9189 54.6279L56.2588 48.2031H58.1748L53.7627 56.2275V61H52.0752V56.2275L47.6631 48.2031H49.5967L52.9189 54.6279Z" fill="#3A2F3C"/>
<path d="M58.5615 56.1572C58.5615 55.2256 58.7432 54.3877 59.1064 53.6436C59.4756 52.8994 59.9854 52.3252 60.6357 51.9209C61.292 51.5166 62.0391 51.3145 62.877 51.3145C64.1719 51.3145 65.2178 51.7627 66.0146 52.6592C66.8174 53.5557 67.2188 54.748 67.2188 56.2363V56.3506C67.2188 57.2764 67.04 58.1084 66.6826 58.8467C66.3311 59.5791 65.8242 60.1504 65.1621 60.5605C64.5059 60.9707 63.75 61.1758 62.8945 61.1758C61.6055 61.1758 60.5596 60.7275 59.7568 59.8311C58.96 58.9346 58.5615 57.748 58.5615 56.2715V56.1572ZM60.1963 56.3506C60.1963 57.4053 60.4395 58.252 60.9258 58.8906C61.418 59.5293 62.0742 59.8486 62.8945 59.8486C63.7207 59.8486 64.377 59.5264 64.8633 58.8818C65.3496 58.2314 65.5928 57.3232 65.5928 56.1572C65.5928 55.1143 65.3438 54.2705 64.8457 53.626C64.3535 52.9756 63.6973 52.6504 62.877 52.6504C62.0742 52.6504 61.4268 52.9697 60.9346 53.6084C60.4424 54.2471 60.1963 55.1611 60.1963 56.3506Z" fill="#3A2F3C"/>
<path d="M75.1289 60.0596C74.4961 60.8037 73.5674 61.1758 72.3428 61.1758C71.3291 61.1758 70.5557 60.8828 70.0225 60.2969C69.4951 59.7051 69.2285 58.832 69.2227 57.6777V51.4902H70.8486V57.6338C70.8486 59.0752 71.4346 59.7959 72.6064 59.7959C73.8486 59.7959 74.6748 59.333 75.085 58.4072V51.4902H76.7109V61H75.1641L75.1289 60.0596Z" fill="#3A2F3C"/>
<path d="M85.4209 61H83.7949V47.5H85.4209V61Z" fill="#3A2F3C"/>
<path d="M89.7979 61H88.1719V51.4902H89.7979V61ZM88.04 48.9678C88.04 48.7041 88.1191 48.4814 88.2773 48.2998C88.4414 48.1182 88.6816 48.0273 88.998 48.0273C89.3145 48.0273 89.5547 48.1182 89.7188 48.2998C89.8828 48.4814 89.9648 48.7041 89.9648 48.9678C89.9648 49.2314 89.8828 49.4512 89.7188 49.627C89.5547 49.8027 89.3145 49.8906 88.998 49.8906C88.6816 49.8906 88.4414 49.8027 88.2773 49.627C88.1191 49.4512 88.04 49.2314 88.04 48.9678Z" fill="#3A2F3C"/>
<path d="M95.0625 56.5967L94.043 57.6602V61H92.417V47.5H94.043V55.665L94.9131 54.6191L97.875 51.4902H99.8525L96.1523 55.4629L100.283 61H98.376L95.0625 56.5967Z" fill="#3A2F3C"/>
<path d="M105.302 61.1758C104.013 61.1758 102.964 60.7539 102.155 59.9102C101.347 59.0605 100.942 57.9268 100.942 56.5088V56.21C100.942 55.2666 101.121 54.4258 101.479 53.6875C101.842 52.9434 102.346 52.3633 102.99 51.9473C103.641 51.5254 104.344 51.3145 105.1 51.3145C106.336 51.3145 107.297 51.7217 107.982 52.5361C108.668 53.3506 109.011 54.5166 109.011 56.0342V56.7109H102.568C102.592 57.6484 102.864 58.4072 103.386 58.9873C103.913 59.5615 104.581 59.8486 105.39 59.8486C105.964 59.8486 106.45 59.7314 106.849 59.4971C107.247 59.2627 107.596 58.9521 107.895 58.5654L108.888 59.3389C108.091 60.5635 106.896 61.1758 105.302 61.1758ZM105.1 52.6504C104.443 52.6504 103.893 52.8906 103.447 53.3711C103.002 53.8457 102.727 54.5137 102.621 55.375H107.385V55.252C107.338 54.4258 107.115 53.7871 106.717 53.3359C106.318 52.8789 105.779 52.6504 105.1 52.6504Z" fill="#3A2F3C"/>
<path d="M123.398 56.3506C123.398 57.7979 123.067 58.9639 122.405 59.8486C121.743 60.7334 120.847 61.1758 119.716 61.1758C118.562 61.1758 117.653 60.8096 116.991 60.0771V64.6562H115.365V51.4902H116.851L116.93 52.5449C117.592 51.7246 118.512 51.3145 119.689 51.3145C120.832 51.3145 121.734 51.7451 122.396 52.6064C123.064 53.4678 123.398 54.666 123.398 56.2012V56.3506ZM121.772 56.166C121.772 55.0938 121.544 54.2471 121.087 53.626C120.63 53.0049 120.003 52.6943 119.206 52.6943C118.222 52.6943 117.483 53.1309 116.991 54.0039V58.5479C117.478 59.415 118.222 59.8486 119.224 59.8486C120.003 59.8486 120.621 59.541 121.078 58.9258C121.541 58.3047 121.772 57.3848 121.772 56.166Z" fill="#3A2F3C"/>
<path d="M125.042 56.1572C125.042 55.2256 125.224 54.3877 125.587 53.6436C125.956 52.8994 126.466 52.3252 127.116 51.9209C127.772 51.5166 128.52 51.3145 129.357 51.3145C130.652 51.3145 131.698 51.7627 132.495 52.6592C133.298 53.5557 133.699 54.748 133.699 56.2363V56.3506C133.699 57.2764 133.521 58.1084 133.163 58.8467C132.812 59.5791 132.305 60.1504 131.643 60.5605C130.986 60.9707 130.23 61.1758 129.375 61.1758C128.086 61.1758 127.04 60.7275 126.237 59.8311C125.44 58.9346 125.042 57.748 125.042 56.2715V56.1572ZM126.677 56.3506C126.677 57.4053 126.92 58.252 127.406 58.8906C127.898 59.5293 128.555 59.8486 129.375 59.8486C130.201 59.8486 130.857 59.5264 131.344 58.8818C131.83 58.2314 132.073 57.3232 132.073 56.1572C132.073 55.1143 131.824 54.2705 131.326 53.626C130.834 52.9756 130.178 52.6504 129.357 52.6504C128.555 52.6504 127.907 52.9697 127.415 53.6084C126.923 54.2471 126.677 55.1611 126.677 56.3506Z" fill="#3A2F3C"/>
<path d="M137.944 49.1875V51.4902H139.72V52.7471H137.944V58.6445C137.944 59.0254 138.023 59.3125 138.182 59.5059C138.34 59.6934 138.609 59.7871 138.99 59.7871C139.178 59.7871 139.436 59.752 139.764 59.6816V61C139.336 61.1172 138.92 61.1758 138.516 61.1758C137.789 61.1758 137.241 60.9561 136.872 60.5166C136.503 60.0771 136.318 59.4531 136.318 58.6445V52.7471H134.587V51.4902H136.318V49.1875H137.944Z" fill="#3A2F3C"/>
<path d="M147.498 61C147.404 60.8125 147.328 60.4785 147.27 59.998C146.514 60.7832 145.611 61.1758 144.562 61.1758C143.625 61.1758 142.854 60.9121 142.251 60.3848C141.653 59.8516 141.354 59.1777 141.354 58.3633C141.354 57.373 141.729 56.6055 142.479 56.0605C143.235 55.5098 144.296 55.2344 145.661 55.2344H147.243V54.4873C147.243 53.9189 147.073 53.4678 146.733 53.1338C146.394 52.7939 145.893 52.624 145.23 52.624C144.65 52.624 144.164 52.7705 143.771 53.0635C143.379 53.3564 143.183 53.7109 143.183 54.127H141.548C141.548 53.6523 141.715 53.1953 142.049 52.7559C142.389 52.3105 142.846 51.959 143.42 51.7012C144 51.4434 144.636 51.3145 145.327 51.3145C146.423 51.3145 147.281 51.5898 147.902 52.1406C148.523 52.6855 148.846 53.4385 148.869 54.3994V58.7764C148.869 59.6494 148.98 60.3438 149.203 60.8594V61H147.498ZM144.8 59.7607C145.31 59.7607 145.793 59.6289 146.25 59.3652C146.707 59.1016 147.038 58.7588 147.243 58.3369V56.3857H145.969C143.977 56.3857 142.98 56.9688 142.98 58.1348C142.98 58.6445 143.15 59.043 143.49 59.3301C143.83 59.6172 144.267 59.7607 144.8 59.7607Z" fill="#3A2F3C"/>
<path d="M153.624 49.1875V51.4902H155.399V52.7471H153.624V58.6445C153.624 59.0254 153.703 59.3125 153.861 59.5059C154.02 59.6934 154.289 59.7871 154.67 59.7871C154.857 59.7871 155.115 59.752 155.443 59.6816V61C155.016 61.1172 154.6 61.1758 154.195 61.1758C153.469 61.1758 152.921 60.9561 152.552 60.5166C152.183 60.0771 151.998 59.4531 151.998 58.6445V52.7471H150.267V51.4902H151.998V49.1875H153.624Z" fill="#3A2F3C"/>
<path d="M156.7 56.1572C156.7 55.2256 156.882 54.3877 157.245 53.6436C157.614 52.8994 158.124 52.3252 158.774 51.9209C159.431 51.5166 160.178 51.3145 161.016 51.3145C162.311 51.3145 163.356 51.7627 164.153 52.6592C164.956 53.5557 165.357 54.748 165.357 56.2363V56.3506C165.357 57.2764 165.179 58.1084 164.821 58.8467C164.47 59.5791 163.963 60.1504 163.301 60.5605C162.645 60.9707 161.889 61.1758 161.033 61.1758C159.744 61.1758 158.698 60.7275 157.896 59.8311C157.099 58.9346 156.7 57.748 156.7 56.2715V56.1572ZM158.335 56.3506C158.335 57.4053 158.578 58.252 159.064 58.8906C159.557 59.5293 160.213 59.8486 161.033 59.8486C161.859 59.8486 162.516 59.5264 163.002 58.8818C163.488 58.2314 163.731 57.3232 163.731 56.1572C163.731 55.1143 163.482 54.2705 162.984 53.626C162.492 52.9756 161.836 52.6504 161.016 52.6504C160.213 52.6504 159.565 52.9697 159.073 53.6084C158.581 54.2471 158.335 55.1611 158.335 56.3506Z" fill="#3A2F3C"/>
<path d="M177.732 61C177.639 60.8125 177.562 60.4785 177.504 59.998C176.748 60.7832 175.846 61.1758 174.797 61.1758C173.859 61.1758 173.089 60.9121 172.485 60.3848C171.888 59.8516 171.589 59.1777 171.589 58.3633C171.589 57.373 171.964 56.6055 172.714 56.0605C173.47 55.5098 174.53 55.2344 175.896 55.2344H177.478V54.4873C177.478 53.9189 177.308 53.4678 176.968 53.1338C176.628 52.7939 176.127 52.624 175.465 52.624C174.885 52.624 174.398 52.7705 174.006 53.0635C173.613 53.3564 173.417 53.7109 173.417 54.127H171.782C171.782 53.6523 171.949 53.1953 172.283 52.7559C172.623 52.3105 173.08 51.959 173.654 51.7012C174.234 51.4434 174.87 51.3145 175.562 51.3145C176.657 51.3145 177.516 51.5898 178.137 52.1406C178.758 52.6855 179.08 53.4385 179.104 54.3994V58.7764C179.104 59.6494 179.215 60.3438 179.438 60.8594V61H177.732ZM175.034 59.7607C175.544 59.7607 176.027 59.6289 176.484 59.3652C176.941 59.1016 177.272 58.7588 177.478 58.3369V56.3857H176.203C174.211 56.3857 173.215 56.9688 173.215 58.1348C173.215 58.6445 173.385 59.043 173.725 59.3301C174.064 59.6172 174.501 59.7607 175.034 59.7607Z" fill="#3A2F3C"/>
<path d="M183.19 51.4902L183.243 52.6855C183.97 51.7715 184.919 51.3145 186.091 51.3145C188.101 51.3145 189.114 52.4482 189.132 54.7158V61H187.506V54.707C187.5 54.0215 187.342 53.5146 187.031 53.1865C186.727 52.8584 186.249 52.6943 185.599 52.6943C185.071 52.6943 184.608 52.835 184.21 53.1162C183.812 53.3975 183.501 53.7666 183.278 54.2236V61H181.652V51.4902H183.19Z" fill="#3A2F3C"/>
<path d="M191.188 56.166C191.188 54.707 191.534 53.5352 192.226 52.6504C192.917 51.7598 193.822 51.3145 194.941 51.3145C196.055 51.3145 196.937 51.6953 197.587 52.457V47.5H199.213V61H197.719L197.64 59.9805C196.989 60.7773 196.084 61.1758 194.924 61.1758C193.822 61.1758 192.923 60.7246 192.226 59.8223C191.534 58.9199 191.188 57.7422 191.188 56.2891V56.166ZM192.814 56.3506C192.814 57.4287 193.037 58.2725 193.482 58.8818C193.928 59.4912 194.543 59.7959 195.328 59.7959C196.359 59.7959 197.112 59.333 197.587 58.4072V54.0391C197.101 53.1426 196.354 52.6943 195.346 52.6943C194.549 52.6943 193.928 53.002 193.482 53.6172C193.037 54.2324 192.814 55.1436 192.814 56.3506Z" fill="#3A2F3C"/>
<path d="M208.274 61H206.587V48.2031H208.274V61Z" fill="#3A2F3C"/>
<path d="M217.345 61H215.719V47.5H217.345V61Z" fill="#3A2F3C"/>
<path d="M221.722 61H220.096V51.4902H221.722V61ZM219.964 48.9678C219.964 48.7041 220.043 48.4814 220.201 48.2998C220.365 48.1182 220.605 48.0273 220.922 48.0273C221.238 48.0273 221.479 48.1182 221.643 48.2998C221.807 48.4814 221.889 48.7041 221.889 48.9678C221.889 49.2314 221.807 49.4512 221.643 49.627C221.479 49.8027 221.238 49.8906 220.922 49.8906C220.605 49.8906 220.365 49.8027 220.201 49.627C220.043 49.4512 219.964 49.2314 219.964 48.9678Z" fill="#3A2F3C"/>
<path d="M226.986 56.5967L225.967 57.6602V61H224.341V47.5H225.967V55.665L226.837 54.6191L229.799 51.4902H231.776L228.076 55.4629L232.207 61H230.3L226.986 56.5967Z" fill="#3A2F3C"/>
<path d="M237.226 61.1758C235.937 61.1758 234.888 60.7539 234.079 59.9102C233.271 59.0605 232.866 57.9268 232.866 56.5088V56.21C232.866 55.2666 233.045 54.4258 233.402 53.6875C233.766 52.9434 234.27 52.3633 234.914 51.9473C235.564 51.5254 236.268 51.3145 237.023 51.3145C238.26 51.3145 239.221 51.7217 239.906 52.5361C240.592 53.3506 240.935 54.5166 240.935 56.0342V56.7109H234.492C234.516 57.6484 234.788 58.4072 235.31 58.9873C235.837 59.5615 236.505 59.8486 237.313 59.8486C237.888 59.8486 238.374 59.7314 238.772 59.4971C239.171 59.2627 239.52 58.9521 239.818 58.5654L240.812 59.3389C240.015 60.5635 238.819 61.1758 237.226 61.1758ZM237.023 52.6504C236.367 52.6504 235.816 52.8906 235.371 53.3711C234.926 53.8457 234.65 54.5137 234.545 55.375H239.309V55.252C239.262 54.4258 239.039 53.7871 238.641 53.3359C238.242 52.8789 237.703 52.6504 237.023 52.6504Z" fill="#3A2F3C"/>
<path d="M259.787 56.3506C259.787 57.7979 259.456 58.9639 258.794 59.8486C258.132 60.7334 257.235 61.1758 256.104 61.1758C254.95 61.1758 254.042 60.8096 253.38 60.0771V64.6562H251.754V51.4902H253.239L253.318 52.5449C253.98 51.7246 254.9 51.3145 256.078 51.3145C257.221 51.3145 258.123 51.7451 258.785 52.6064C259.453 53.4678 259.787 54.666 259.787 56.2012V56.3506ZM258.161 56.166C258.161 55.0938 257.933 54.2471 257.476 53.626C257.019 53.0049 256.392 52.6943 255.595 52.6943C254.61 52.6943 253.872 53.1309 253.38 54.0039V58.5479C253.866 59.415 254.61 59.8486 255.612 59.8486C256.392 59.8486 257.01 59.541 257.467 58.9258C257.93 58.3047 258.161 57.3848 258.161 56.166Z" fill="#3A2F3C"/>
<path d="M261.431 56.1572C261.431 55.2256 261.612 54.3877 261.976 53.6436C262.345 52.8994 262.854 52.3252 263.505 51.9209C264.161 51.5166 264.908 51.3145 265.746 51.3145C267.041 51.3145 268.087 51.7627 268.884 52.6592C269.687 53.5557 270.088 54.748 270.088 56.2363V56.3506C270.088 57.2764 269.909 58.1084 269.552 58.8467C269.2 59.5791 268.693 60.1504 268.031 60.5605C267.375 60.9707 266.619 61.1758 265.764 61.1758C264.475 61.1758 263.429 60.7275 262.626 59.8311C261.829 58.9346 261.431 57.748 261.431 56.2715V56.1572ZM263.065 56.3506C263.065 57.4053 263.309 58.252 263.795 58.8906C264.287 59.5293 264.943 59.8486 265.764 59.8486C266.59 59.8486 267.246 59.5264 267.732 58.8818C268.219 58.2314 268.462 57.3232 268.462 56.1572C268.462 55.1143 268.213 54.2705 267.715 53.626C267.223 52.9756 266.566 52.6504 265.746 52.6504C264.943 52.6504 264.296 52.9697 263.804 53.6084C263.312 54.2471 263.065 55.1611 263.065 56.3506Z" fill="#3A2F3C"/>
<path d="M274.333 49.1875V51.4902H276.108V52.7471H274.333V58.6445C274.333 59.0254 274.412 59.3125 274.57 59.5059C274.729 59.6934 274.998 59.7871 275.379 59.7871C275.566 59.7871 275.824 59.752 276.152 59.6816V61C275.725 61.1172 275.309 61.1758 274.904 61.1758C274.178 61.1758 273.63 60.9561 273.261 60.5166C272.892 60.0771 272.707 59.4531 272.707 58.6445V52.7471H270.976V51.4902H272.707V49.1875H274.333Z" fill="#3A2F3C"/>
<path d="M283.887 61C283.793 60.8125 283.717 60.4785 283.658 59.998C282.902 60.7832 282 61.1758 280.951 61.1758C280.014 61.1758 279.243 60.9121 278.64 60.3848C278.042 59.8516 277.743 59.1777 277.743 58.3633C277.743 57.373 278.118 56.6055 278.868 56.0605C279.624 55.5098 280.685 55.2344 282.05 55.2344H283.632V54.4873C283.632 53.9189 283.462 53.4678 283.122 53.1338C282.782 52.7939 282.281 52.624 281.619 52.624C281.039 52.624 280.553 52.7705 280.16 53.0635C279.768 53.3564 279.571 53.7109 279.571 54.127H277.937C277.937 53.6523 278.104 53.1953 278.438 52.7559C278.777 52.3105 279.234 51.959 279.809 51.7012C280.389 51.4434 281.024 51.3145 281.716 51.3145C282.812 51.3145 283.67 51.5898 284.291 52.1406C284.912 52.6855 285.234 53.4385 285.258 54.3994V58.7764C285.258 59.6494 285.369 60.3438 285.592 60.8594V61H283.887ZM281.188 59.7607C281.698 59.7607 282.182 59.6289 282.639 59.3652C283.096 59.1016 283.427 58.7588 283.632 58.3369V56.3857H282.357C280.365 56.3857 279.369 56.9688 279.369 58.1348C279.369 58.6445 279.539 59.043 279.879 59.3301C280.219 59.6172 280.655 59.7607 281.188 59.7607Z" fill="#3A2F3C"/>
<path d="M289.433 52.6416C290.153 51.7568 291.091 51.3145 292.245 51.3145C294.255 51.3145 295.269 52.4482 295.286 54.7158V61H293.66V54.707C293.654 54.0215 293.496 53.5146 293.186 53.1865C292.881 52.8584 292.403 52.6943 291.753 52.6943C291.226 52.6943 290.763 52.835 290.364 53.1162C289.966 53.3975 289.655 53.7666 289.433 54.2236V61H287.807V47.5H289.433V52.6416Z" fill="#3A2F3C"/>
<path d="M299.927 49.1875V51.4902H301.702V52.7471H299.927V58.6445C299.927 59.0254 300.006 59.3125 300.164 59.5059C300.322 59.6934 300.592 59.7871 300.973 59.7871C301.16 59.7871 301.418 59.752 301.746 59.6816V61C301.318 61.1172 300.902 61.1758 300.498 61.1758C299.771 61.1758 299.224 60.9561 298.854 60.5166C298.485 60.0771 298.301 59.4531 298.301 58.6445V52.7471H296.569V51.4902H298.301V49.1875H299.927Z" fill="#3A2F3C"/>
<path d="M303.003 56.1572C303.003 55.2256 303.185 54.3877 303.548 53.6436C303.917 52.8994 304.427 52.3252 305.077 51.9209C305.733 51.5166 306.48 51.3145 307.318 51.3145C308.613 51.3145 309.659 51.7627 310.456 52.6592C311.259 53.5557 311.66 54.748 311.66 56.2363V56.3506C311.66 57.2764 311.481 58.1084 311.124 58.8467C310.772 59.5791 310.266 60.1504 309.604 60.5605C308.947 60.9707 308.191 61.1758 307.336 61.1758C306.047 61.1758 305.001 60.7275 304.198 59.8311C303.401 58.9346 303.003 57.748 303.003 56.2715V56.1572ZM304.638 56.3506C304.638 57.4053 304.881 58.252 305.367 58.8906C305.859 59.5293 306.516 59.8486 307.336 59.8486C308.162 59.8486 308.818 59.5264 309.305 58.8818C309.791 58.2314 310.034 57.3232 310.034 56.1572C310.034 55.1143 309.785 54.2705 309.287 53.626C308.795 52.9756 308.139 52.6504 307.318 52.6504C306.516 52.6504 305.868 52.9697 305.376 53.6084C304.884 54.2471 304.638 55.1611 304.638 56.3506Z" fill="#3A2F3C"/>
<rect x="245.5" y="42.5" width="71" height="26" stroke="#9F9E97"/>
</svg>
