<svg width="510" height="360" viewBox="0 0 510 360" fill="none" xmlns="http://www.w3.org/2000/svg">
<rect width="510" height="360" fill="white"/>
<rect width="510" height="360" fill="white"/>
<rect x="30.5" y="91.5" width="29" height="29" fill="white" stroke="#9F9E97"/>
<path d="M82.5469 110H81.416L77.1211 103.426V110H75.9902V101.469H77.1211L81.4277 108.072V101.469H82.5469V110ZM84.0879 106.771C84.0879 106.15 84.209 105.592 84.4512 105.096C84.6973 104.6 85.0371 104.217 85.4707 103.947C85.9082 103.678 86.4062 103.543 86.9648 103.543C87.8281 103.543 88.5254 103.842 89.0566 104.439C89.5918 105.037 89.8594 105.832 89.8594 106.824V106.9C89.8594 107.518 89.7402 108.072 89.502 108.564C89.2676 109.053 88.9297 109.434 88.4883 109.707C88.0508 109.98 87.5469 110.117 86.9766 110.117C86.1172 110.117 85.4199 109.818 84.8848 109.221C84.3535 108.623 84.0879 107.832 84.0879 106.848V106.771ZM85.1777 106.9C85.1777 107.604 85.3398 108.168 85.6641 108.594C85.9922 109.02 86.4297 109.232 86.9766 109.232C87.5273 109.232 87.9648 109.018 88.2891 108.588C88.6133 108.154 88.7754 107.549 88.7754 106.771C88.7754 106.076 88.6094 105.514 88.2773 105.084C87.9492 104.65 87.5117 104.434 86.9648 104.434C86.4297 104.434 85.998 104.646 85.6699 105.072C85.3418 105.498 85.1777 106.107 85.1777 106.9ZM94.2832 104.633C94.1191 104.605 93.9414 104.592 93.75 104.592C93.0391 104.592 92.5566 104.895 92.3027 105.5V110H91.2188V103.66H92.2734L92.291 104.393C92.6465 103.826 93.1504 103.543 93.8027 103.543C94.0137 103.543 94.1738 103.57 94.2832 103.625V104.633ZM101.004 108.506L102.223 103.66H103.307L101.461 110H100.582L99.041 105.195L97.541 110H96.6621L94.8223 103.66H95.9004L97.1484 108.406L98.625 103.66H99.498L101.004 108.506ZM107.045 110.117C106.186 110.117 105.486 109.836 104.947 109.273C104.408 108.707 104.139 107.951 104.139 107.006V106.807C104.139 106.178 104.258 105.617 104.496 105.125C104.738 104.629 105.074 104.242 105.504 103.965C105.938 103.684 106.406 103.543 106.91 103.543C107.734 103.543 108.375 103.814 108.832 104.357C109.289 104.9 109.518 105.678 109.518 106.689V107.141H105.223C105.238 107.766 105.42 108.271 105.768 108.658C106.119 109.041 106.564 109.232 107.104 109.232C107.486 109.232 107.811 109.154 108.076 108.998C108.342 108.842 108.574 108.635 108.773 108.377L109.436 108.893C108.904 109.709 108.107 110.117 107.045 110.117ZM106.91 104.434C106.473 104.434 106.105 104.594 105.809 104.914C105.512 105.23 105.328 105.676 105.258 106.25H108.434V106.168C108.402 105.617 108.254 105.191 107.988 104.891C107.723 104.586 107.363 104.434 106.91 104.434ZM110.52 106.777C110.52 105.789 110.748 105.004 111.205 104.422C111.662 103.836 112.268 103.543 113.021 103.543C113.795 103.543 114.398 103.816 114.832 104.363L114.885 103.66H115.875V109.848C115.875 110.668 115.631 111.314 115.143 111.787C114.658 112.26 114.006 112.496 113.186 112.496C112.729 112.496 112.281 112.398 111.844 112.203C111.406 112.008 111.072 111.74 110.842 111.4L111.404 110.75C111.869 111.324 112.438 111.611 113.109 111.611C113.637 111.611 114.047 111.463 114.34 111.166C114.637 110.869 114.785 110.451 114.785 109.912V109.367C114.352 109.867 113.76 110.117 113.01 110.117C112.268 110.117 111.666 109.818 111.205 109.221C110.748 108.623 110.52 107.809 110.52 106.777ZM111.609 106.9C111.609 107.615 111.756 108.178 112.049 108.588C112.342 108.994 112.752 109.197 113.279 109.197C113.963 109.197 114.465 108.887 114.785 108.266V105.371C114.453 104.766 113.955 104.463 113.291 104.463C112.764 104.463 112.352 104.668 112.055 105.078C111.758 105.488 111.609 106.096 111.609 106.9ZM118.693 110H117.609V103.66H118.693V110ZM117.521 101.979C117.521 101.803 117.574 101.654 117.68 101.533C117.789 101.412 117.949 101.352 118.16 101.352C118.371 101.352 118.531 101.412 118.641 101.533C118.75 101.654 118.805 101.803 118.805 101.979C118.805 102.154 118.75 102.301 118.641 102.418C118.531 102.535 118.371 102.594 118.16 102.594C117.949 102.594 117.789 102.535 117.68 102.418C117.574 102.301 117.521 102.154 117.521 101.979ZM124.348 110C124.285 109.875 124.234 109.652 124.195 109.332C123.691 109.855 123.09 110.117 122.391 110.117C121.766 110.117 121.252 109.941 120.85 109.59C120.451 109.234 120.252 108.785 120.252 108.242C120.252 107.582 120.502 107.07 121.002 106.707C121.506 106.34 122.213 106.156 123.123 106.156H124.178V105.658C124.178 105.279 124.064 104.979 123.838 104.756C123.611 104.529 123.277 104.416 122.836 104.416C122.449 104.416 122.125 104.514 121.863 104.709C121.602 104.904 121.471 105.141 121.471 105.418H120.381C120.381 105.102 120.492 104.797 120.715 104.504C120.941 104.207 121.246 103.973 121.629 103.801C122.016 103.629 122.439 103.543 122.9 103.543C123.631 103.543 124.203 103.727 124.617 104.094C125.031 104.457 125.246 104.959 125.262 105.6V108.518C125.262 109.1 125.336 109.562 125.484 109.906V110H124.348ZM122.549 109.174C122.889 109.174 123.211 109.086 123.516 108.91C123.82 108.734 124.041 108.506 124.178 108.225V106.924H123.328C122 106.924 121.336 107.312 121.336 108.09C121.336 108.43 121.449 108.695 121.676 108.887C121.902 109.078 122.193 109.174 122.549 109.174ZM127.986 103.66L128.021 104.457C128.506 103.848 129.139 103.543 129.92 103.543C131.26 103.543 131.936 104.299 131.947 105.811V110H130.863V105.805C130.859 105.348 130.754 105.01 130.547 104.791C130.344 104.572 130.025 104.463 129.592 104.463C129.24 104.463 128.932 104.557 128.666 104.744C128.4 104.932 128.193 105.178 128.045 105.482V110H126.961V103.66H127.986ZM138.568 107.311L138.732 108.436L138.973 107.422L140.66 101.469H141.609L143.256 107.422L143.49 108.453L143.672 107.305L144.996 101.469H146.127L144.059 110H143.033L141.275 103.783L141.141 103.133L141.006 103.783L139.184 110H138.158L136.096 101.469H137.221L138.568 107.311ZM146.736 106.771C146.736 106.15 146.857 105.592 147.1 105.096C147.346 104.6 147.686 104.217 148.119 103.947C148.557 103.678 149.055 103.543 149.613 103.543C150.477 103.543 151.174 103.842 151.705 104.439C152.24 105.037 152.508 105.832 152.508 106.824V106.9C152.508 107.518 152.389 108.072 152.15 108.564C151.916 109.053 151.578 109.434 151.137 109.707C150.699 109.98 150.195 110.117 149.625 110.117C148.766 110.117 148.068 109.818 147.533 109.221C147.002 108.623 146.736 107.832 146.736 106.848V106.771ZM147.826 106.9C147.826 107.604 147.988 108.168 148.312 108.594C148.641 109.02 149.078 109.232 149.625 109.232C150.176 109.232 150.613 109.018 150.938 108.588C151.262 108.154 151.424 107.549 151.424 106.771C151.424 106.076 151.258 105.514 150.926 105.084C150.598 104.65 150.16 104.434 149.613 104.434C149.078 104.434 148.646 104.646 148.318 105.072C147.99 105.498 147.826 106.107 147.826 106.9ZM153.58 106.771C153.58 106.15 153.701 105.592 153.943 105.096C154.189 104.6 154.529 104.217 154.963 103.947C155.4 103.678 155.898 103.543 156.457 103.543C157.32 103.543 158.018 103.842 158.549 104.439C159.084 105.037 159.352 105.832 159.352 106.824V106.9C159.352 107.518 159.232 108.072 158.994 108.564C158.76 109.053 158.422 109.434 157.98 109.707C157.543 109.98 157.039 110.117 156.469 110.117C155.609 110.117 154.912 109.818 154.377 109.221C153.846 108.623 153.58 107.832 153.58 106.848V106.771ZM154.67 106.9C154.67 107.604 154.832 108.168 155.156 108.594C155.484 109.02 155.922 109.232 156.469 109.232C157.02 109.232 157.457 109.018 157.781 108.588C158.105 108.154 158.268 107.549 158.268 106.771C158.268 106.076 158.102 105.514 157.77 105.084C157.441 104.65 157.004 104.434 156.457 104.434C155.922 104.434 155.49 104.646 155.162 105.072C154.834 105.498 154.67 106.107 154.67 106.9ZM160.447 106.777C160.447 105.805 160.678 105.023 161.139 104.434C161.6 103.84 162.203 103.543 162.949 103.543C163.691 103.543 164.279 103.797 164.713 104.305V101H165.797V110H164.801L164.748 109.32C164.314 109.852 163.711 110.117 162.938 110.117C162.203 110.117 161.604 109.816 161.139 109.215C160.678 108.613 160.447 107.828 160.447 106.859V106.777ZM161.531 106.9C161.531 107.619 161.68 108.182 161.977 108.588C162.273 108.994 162.684 109.197 163.207 109.197C163.895 109.197 164.396 108.889 164.713 108.271V105.359C164.389 104.762 163.891 104.463 163.219 104.463C162.688 104.463 162.273 104.668 161.977 105.078C161.68 105.488 161.531 106.096 161.531 106.9Z" fill="black"/>
<rect x="30.5" y="151.5" width="59" height="59" fill="white" stroke="#9F9E97"/>
<path d="M30.403 194.647C46.9057 199.104 81.8406 204.024 89.5589 188.049" stroke="#3A2F3C"/>
<path d="M64.8348 173.742L69.0517 194.009L49.3917 187.527L64.8348 173.742Z" fill="#29B96F"/>
<rect x="30.5" y="151.5" width="59" height="59" stroke="#9F9E97"/>
<path d="M121.98 189V171.938H126.797C128.281 171.938 129.594 172.266 130.734 172.922C131.875 173.578 132.754 174.512 133.371 175.723C133.996 176.934 134.312 178.324 134.32 179.895V180.984C134.32 182.594 134.008 184.004 133.383 185.215C132.766 186.426 131.879 187.355 130.723 188.004C129.574 188.652 128.234 188.984 126.703 189H121.98ZM124.23 173.789V187.16H126.598C128.332 187.16 129.68 186.621 130.641 185.543C131.609 184.465 132.094 182.93 132.094 180.938V179.941C132.094 178.004 131.637 176.5 130.723 175.43C129.816 174.352 128.527 173.805 126.855 173.789H124.23ZM145.219 189C145.094 188.75 144.992 188.305 144.914 187.664C143.906 188.711 142.703 189.234 141.305 189.234C140.055 189.234 139.027 188.883 138.223 188.18C137.426 187.469 137.027 186.57 137.027 185.484C137.027 184.164 137.527 183.141 138.527 182.414C139.535 181.68 140.949 181.312 142.77 181.312H144.879V180.316C144.879 179.559 144.652 178.957 144.199 178.512C143.746 178.059 143.078 177.832 142.195 177.832C141.422 177.832 140.773 178.027 140.25 178.418C139.727 178.809 139.465 179.281 139.465 179.836H137.285C137.285 179.203 137.508 178.594 137.953 178.008C138.406 177.414 139.016 176.945 139.781 176.602C140.555 176.258 141.402 176.086 142.324 176.086C143.785 176.086 144.93 176.453 145.758 177.188C146.586 177.914 147.016 178.918 147.047 180.199V186.035C147.047 187.199 147.195 188.125 147.492 188.812V189H145.219ZM141.621 187.348C142.301 187.348 142.945 187.172 143.555 186.82C144.164 186.469 144.605 186.012 144.879 185.449V182.848H143.18C140.523 182.848 139.195 183.625 139.195 185.18C139.195 185.859 139.422 186.391 139.875 186.773C140.328 187.156 140.91 187.348 141.621 187.348ZM152.496 176.32L152.566 177.914C153.535 176.695 154.801 176.086 156.363 176.086C159.043 176.086 160.395 177.598 160.418 180.621V189H158.25V180.609C158.242 179.695 158.031 179.02 157.617 178.582C157.211 178.145 156.574 177.926 155.707 177.926C155.004 177.926 154.387 178.113 153.855 178.488C153.324 178.863 152.91 179.355 152.613 179.965V189H150.445V176.32H152.496ZM168.773 187.465C169.547 187.465 170.223 187.23 170.801 186.762C171.379 186.293 171.699 185.707 171.762 185.004H173.812C173.773 185.73 173.523 186.422 173.062 187.078C172.602 187.734 171.984 188.258 171.211 188.648C170.445 189.039 169.633 189.234 168.773 189.234C167.047 189.234 165.672 188.66 164.648 187.512C163.633 186.355 163.125 184.777 163.125 182.777V182.414C163.125 181.18 163.352 180.082 163.805 179.121C164.258 178.16 164.906 177.414 165.75 176.883C166.602 176.352 167.605 176.086 168.762 176.086C170.184 176.086 171.363 176.512 172.301 177.363C173.246 178.215 173.75 179.32 173.812 180.68H171.762C171.699 179.859 171.387 179.188 170.824 178.664C170.27 178.133 169.582 177.867 168.762 177.867C167.66 177.867 166.805 178.266 166.195 179.062C165.594 179.852 165.293 180.996 165.293 182.496V182.906C165.293 184.367 165.594 185.492 166.195 186.281C166.797 187.07 167.656 187.465 168.773 187.465ZM181.512 189.234C179.793 189.234 178.395 188.672 177.316 187.547C176.238 186.414 175.699 184.902 175.699 183.012V182.613C175.699 181.355 175.938 180.234 176.414 179.25C176.898 178.258 177.57 177.484 178.43 176.93C179.297 176.367 180.234 176.086 181.242 176.086C182.891 176.086 184.172 176.629 185.086 177.715C186 178.801 186.457 180.355 186.457 182.379V183.281H177.867C177.898 184.531 178.262 185.543 178.957 186.316C179.66 187.082 180.551 187.465 181.629 187.465C182.395 187.465 183.043 187.309 183.574 186.996C184.105 186.684 184.57 186.27 184.969 185.754L186.293 186.785C185.23 188.418 183.637 189.234 181.512 189.234ZM181.242 177.867C180.367 177.867 179.633 178.188 179.039 178.828C178.445 179.461 178.078 180.352 177.938 181.5H184.289V181.336C184.227 180.234 183.93 179.383 183.398 178.781C182.867 178.172 182.148 177.867 181.242 177.867ZM195.27 189V171.938H200.086C201.57 171.938 202.883 172.266 204.023 172.922C205.164 173.578 206.043 174.512 206.66 175.723C207.285 176.934 207.602 178.324 207.609 179.895V180.984C207.609 182.594 207.297 184.004 206.672 185.215C206.055 186.426 205.168 187.355 204.012 188.004C202.863 188.652 201.523 188.984 199.992 189H195.27ZM197.52 173.789V187.16H199.887C201.621 187.16 202.969 186.621 203.93 185.543C204.898 184.465 205.383 182.93 205.383 180.938V179.941C205.383 178.004 204.926 176.5 204.012 175.43C203.105 174.352 201.816 173.805 200.145 173.789H197.52ZM218.508 189C218.383 188.75 218.281 188.305 218.203 187.664C217.195 188.711 215.992 189.234 214.594 189.234C213.344 189.234 212.316 188.883 211.512 188.18C210.715 187.469 210.316 186.57 210.316 185.484C210.316 184.164 210.816 183.141 211.816 182.414C212.824 181.68 214.238 181.312 216.059 181.312H218.168V180.316C218.168 179.559 217.941 178.957 217.488 178.512C217.035 178.059 216.367 177.832 215.484 177.832C214.711 177.832 214.062 178.027 213.539 178.418C213.016 178.809 212.754 179.281 212.754 179.836H210.574C210.574 179.203 210.797 178.594 211.242 178.008C211.695 177.414 212.305 176.945 213.07 176.602C213.844 176.258 214.691 176.086 215.613 176.086C217.074 176.086 218.219 176.453 219.047 177.188C219.875 177.914 220.305 178.918 220.336 180.199V186.035C220.336 187.199 220.484 188.125 220.781 188.812V189H218.508ZM214.91 187.348C215.59 187.348 216.234 187.172 216.844 186.82C217.453 186.469 217.895 186.012 218.168 185.449V182.848H216.469C213.812 182.848 212.484 183.625 212.484 185.18C212.484 185.859 212.711 186.391 213.164 186.773C213.617 187.156 214.199 187.348 214.91 187.348ZM225.785 176.32L225.855 177.914C226.824 176.695 228.09 176.086 229.652 176.086C232.332 176.086 233.684 177.598 233.707 180.621V189H231.539V180.609C231.531 179.695 231.32 179.02 230.906 178.582C230.5 178.145 229.863 177.926 228.996 177.926C228.293 177.926 227.676 178.113 227.145 178.488C226.613 178.863 226.199 179.355 225.902 179.965V189H223.734V176.32H225.785ZM242.062 187.465C242.836 187.465 243.512 187.23 244.09 186.762C244.668 186.293 244.988 185.707 245.051 185.004H247.102C247.062 185.73 246.812 186.422 246.352 187.078C245.891 187.734 245.273 188.258 244.5 188.648C243.734 189.039 242.922 189.234 242.062 189.234C240.336 189.234 238.961 188.66 237.938 187.512C236.922 186.355 236.414 184.777 236.414 182.777V182.414C236.414 181.18 236.641 180.082 237.094 179.121C237.547 178.16 238.195 177.414 239.039 176.883C239.891 176.352 240.895 176.086 242.051 176.086C243.473 176.086 244.652 176.512 245.59 177.363C246.535 178.215 247.039 179.32 247.102 180.68H245.051C244.988 179.859 244.676 179.188 244.113 178.664C243.559 178.133 242.871 177.867 242.051 177.867C240.949 177.867 240.094 178.266 239.484 179.062C238.883 179.852 238.582 180.996 238.582 182.496V182.906C238.582 184.367 238.883 185.492 239.484 186.281C240.086 187.07 240.945 187.465 242.062 187.465ZM254.801 189.234C253.082 189.234 251.684 188.672 250.605 187.547C249.527 186.414 248.988 184.902 248.988 183.012V182.613C248.988 181.355 249.227 180.234 249.703 179.25C250.188 178.258 250.859 177.484 251.719 176.93C252.586 176.367 253.523 176.086 254.531 176.086C256.18 176.086 257.461 176.629 258.375 177.715C259.289 178.801 259.746 180.355 259.746 182.379V183.281H251.156C251.188 184.531 251.551 185.543 252.246 186.316C252.949 187.082 253.84 187.465 254.918 187.465C255.684 187.465 256.332 187.309 256.863 186.996C257.395 186.684 257.859 186.27 258.258 185.754L259.582 186.785C258.52 188.418 256.926 189.234 254.801 189.234ZM254.531 177.867C253.656 177.867 252.922 178.188 252.328 178.828C251.734 179.461 251.367 180.352 251.227 181.5H257.578V181.336C257.516 180.234 257.219 179.383 256.688 178.781C256.156 178.172 255.438 177.867 254.531 177.867ZM268.559 189V171.938H273.375C274.859 171.938 276.172 172.266 277.312 172.922C278.453 173.578 279.332 174.512 279.949 175.723C280.574 176.934 280.891 178.324 280.898 179.895V180.984C280.898 182.594 280.586 184.004 279.961 185.215C279.344 186.426 278.457 187.355 277.301 188.004C276.152 188.652 274.812 188.984 273.281 189H268.559ZM270.809 173.789V187.16H273.176C274.91 187.16 276.258 186.621 277.219 185.543C278.188 184.465 278.672 182.93 278.672 180.938V179.941C278.672 178.004 278.215 176.5 277.301 175.43C276.395 174.352 275.105 173.805 273.434 173.789H270.809ZM291.797 189C291.672 188.75 291.57 188.305 291.492 187.664C290.484 188.711 289.281 189.234 287.883 189.234C286.633 189.234 285.605 188.883 284.801 188.18C284.004 187.469 283.605 186.57 283.605 185.484C283.605 184.164 284.105 183.141 285.105 182.414C286.113 181.68 287.527 181.312 289.348 181.312H291.457V180.316C291.457 179.559 291.23 178.957 290.777 178.512C290.324 178.059 289.656 177.832 288.773 177.832C288 177.832 287.352 178.027 286.828 178.418C286.305 178.809 286.043 179.281 286.043 179.836H283.863C283.863 179.203 284.086 178.594 284.531 178.008C284.984 177.414 285.594 176.945 286.359 176.602C287.133 176.258 287.98 176.086 288.902 176.086C290.363 176.086 291.508 176.453 292.336 177.188C293.164 177.914 293.594 178.918 293.625 180.199V186.035C293.625 187.199 293.773 188.125 294.07 188.812V189H291.797ZM288.199 187.348C288.879 187.348 289.523 187.172 290.133 186.82C290.742 186.469 291.184 186.012 291.457 185.449V182.848H289.758C287.102 182.848 285.773 183.625 285.773 185.18C285.773 185.859 286 186.391 286.453 186.773C286.906 187.156 287.488 187.348 288.199 187.348ZM299.074 176.32L299.145 177.914C300.113 176.695 301.379 176.086 302.941 176.086C305.621 176.086 306.973 177.598 306.996 180.621V189H304.828V180.609C304.82 179.695 304.609 179.02 304.195 178.582C303.789 178.145 303.152 177.926 302.285 177.926C301.582 177.926 300.965 178.113 300.434 178.488C299.902 178.863 299.488 179.355 299.191 179.965V189H297.023V176.32H299.074ZM315.352 187.465C316.125 187.465 316.801 187.23 317.379 186.762C317.957 186.293 318.277 185.707 318.34 185.004H320.391C320.352 185.73 320.102 186.422 319.641 187.078C319.18 187.734 318.562 188.258 317.789 188.648C317.023 189.039 316.211 189.234 315.352 189.234C313.625 189.234 312.25 188.66 311.227 187.512C310.211 186.355 309.703 184.777 309.703 182.777V182.414C309.703 181.18 309.93 180.082 310.383 179.121C310.836 178.16 311.484 177.414 312.328 176.883C313.18 176.352 314.184 176.086 315.34 176.086C316.762 176.086 317.941 176.512 318.879 177.363C319.824 178.215 320.328 179.32 320.391 180.68H318.34C318.277 179.859 317.965 179.188 317.402 178.664C316.848 178.133 316.16 177.867 315.34 177.867C314.238 177.867 313.383 178.266 312.773 179.062C312.172 179.852 311.871 180.996 311.871 182.496V182.906C311.871 184.367 312.172 185.492 312.773 186.281C313.375 187.07 314.234 187.465 315.352 187.465ZM328.09 189.234C326.371 189.234 324.973 188.672 323.895 187.547C322.816 186.414 322.277 184.902 322.277 183.012V182.613C322.277 181.355 322.516 180.234 322.992 179.25C323.477 178.258 324.148 177.484 325.008 176.93C325.875 176.367 326.812 176.086 327.82 176.086C329.469 176.086 330.75 176.629 331.664 177.715C332.578 178.801 333.035 180.355 333.035 182.379V183.281H324.445C324.477 184.531 324.84 185.543 325.535 186.316C326.238 187.082 327.129 187.465 328.207 187.465C328.973 187.465 329.621 187.309 330.152 186.996C330.684 186.684 331.148 186.27 331.547 185.754L332.871 186.785C331.809 188.418 330.215 189.234 328.09 189.234ZM327.82 177.867C326.945 177.867 326.211 178.188 325.617 178.828C325.023 179.461 324.656 180.352 324.516 181.5H330.867V181.336C330.805 180.234 330.508 179.383 329.977 178.781C329.445 178.172 328.727 177.867 327.82 177.867Z" fill="black"/>
<path d="M451.897 178.784C452.521 178.736 453.049 178.592 453.421 178.28V185H454.405V176.672H453.577C453.529 177.296 452.893 177.884 451.897 177.92V178.784ZM463.102 184.112C460.246 184.112 459.646 184.124 459.178 184.136C460.426 183.248 461.002 182.768 461.302 182.504C462.574 181.4 463.162 180.464 463.162 179.168C463.162 177.572 462.142 176.576 460.486 176.576C458.782 176.576 457.714 177.716 457.714 179.264C457.714 179.564 457.75 179.78 457.822 180.02L458.782 180.164C458.662 179.756 458.626 179.552 458.626 179.276C458.626 178.184 459.322 177.452 460.39 177.452C461.458 177.452 462.154 178.028 462.154 179.144C462.154 180.224 461.53 181.22 460.102 182.396L457.786 184.292V185H463.102V184.112ZM466.026 183.536H464.982V185H466.026V183.536ZM466.026 179.108H464.982V180.584H466.026V179.108ZM468.151 178.784C468.775 178.736 469.303 178.592 469.675 178.28V185H470.659V176.672H469.831C469.783 177.296 469.147 177.884 468.151 177.92V178.784ZM475.431 177.584H478.887V176.732H474.639L474.339 181.172L475.191 181.292C475.443 180.608 475.995 180.212 476.727 180.212C477.747 180.212 478.383 180.968 478.383 182.264C478.383 183.584 477.675 184.268 476.571 184.268C475.815 184.268 475.131 183.812 474.963 182.66L474.015 183.104C474.351 184.412 475.275 185.144 476.595 185.144C478.311 185.144 479.391 184.016 479.391 182.192C479.391 180.512 478.479 179.384 477.063 179.384C476.283 179.384 475.671 179.684 475.215 180.188L475.431 177.584Z" fill="#9F9E97"/>
<rect x="23" y="143" width="465" height="76" stroke="#29B96F" stroke-width="2" stroke-dasharray="5 5"/>
<circle cx="419.5" cy="181.5" r="7.5" fill="#29B96F"/>
<rect x="359.5" y="166.5" width="30" height="29" rx="14.5" fill="white" stroke="#35C1B7"/>
<line x1="374.5" y1="183" x2="374.5" y2="174" stroke="#35C1B7"/>
<line x1="374.5" y1="187" x2="374.5" y2="186" stroke="#35C1B7"/>
<rect x="30.5" y="241.5" width="29" height="29" fill="white" stroke="#9F9E97"/>
<path d="M78.1582 256.033L77.1152 257.117V260H75.9902V251.469H77.1152V255.688L80.9062 251.469H82.2656L78.9082 255.236L82.5293 260H81.1816L78.1582 256.033ZM87.2578 260C87.1953 259.875 87.1445 259.652 87.1055 259.332C86.6016 259.855 86 260.117 85.3008 260.117C84.6758 260.117 84.1621 259.941 83.7598 259.59C83.3613 259.234 83.1621 258.785 83.1621 258.242C83.1621 257.582 83.4121 257.07 83.9121 256.707C84.416 256.34 85.123 256.156 86.0332 256.156H87.0879V255.658C87.0879 255.279 86.9746 254.979 86.748 254.756C86.5215 254.529 86.1875 254.416 85.7461 254.416C85.3594 254.416 85.0352 254.514 84.7734 254.709C84.5117 254.904 84.3809 255.141 84.3809 255.418H83.291C83.291 255.102 83.4023 254.797 83.625 254.504C83.8516 254.207 84.1562 253.973 84.5391 253.801C84.9258 253.629 85.3496 253.543 85.8105 253.543C86.541 253.543 87.1133 253.727 87.5273 254.094C87.9414 254.457 88.1562 254.959 88.1719 255.6V258.518C88.1719 259.1 88.2461 259.562 88.3945 259.906V260H87.2578ZM85.459 259.174C85.7988 259.174 86.1211 259.086 86.4258 258.91C86.7305 258.734 86.9512 258.506 87.0879 258.225V256.924H86.2383C84.9102 256.924 84.2461 257.312 84.2461 258.09C84.2461 258.43 84.3594 258.695 84.5859 258.887C84.8125 259.078 85.1035 259.174 85.459 259.174ZM90.4043 260V254.498H89.4023V253.66H90.4043V253.01C90.4043 252.33 90.5859 251.805 90.9492 251.434C91.3125 251.062 91.8262 250.877 92.4902 250.877C92.7402 250.877 92.9883 250.91 93.2344 250.977L93.1758 251.855C92.9922 251.82 92.7969 251.803 92.5898 251.803C92.2383 251.803 91.9668 251.906 91.7754 252.113C91.584 252.316 91.4883 252.609 91.4883 252.992V253.66H92.8418V254.498H91.4883V260H90.4043ZM95.8125 257.064L95.1328 257.773V260H94.0488V251H95.1328V256.443L95.7129 255.746L97.6875 253.66H99.0059L96.5391 256.309L99.293 260H98.0215L95.8125 257.064ZM104.039 260C103.977 259.875 103.926 259.652 103.887 259.332C103.383 259.855 102.781 260.117 102.082 260.117C101.457 260.117 100.943 259.941 100.541 259.59C100.143 259.234 99.9434 258.785 99.9434 258.242C99.9434 257.582 100.193 257.07 100.693 256.707C101.197 256.34 101.904 256.156 102.814 256.156H103.869V255.658C103.869 255.279 103.756 254.979 103.529 254.756C103.303 254.529 102.969 254.416 102.527 254.416C102.141 254.416 101.816 254.514 101.555 254.709C101.293 254.904 101.162 255.141 101.162 255.418H100.072C100.072 255.102 100.184 254.797 100.406 254.504C100.633 254.207 100.938 253.973 101.32 253.801C101.707 253.629 102.131 253.543 102.592 253.543C103.322 253.543 103.895 253.727 104.309 254.094C104.723 254.457 104.938 254.959 104.953 255.6V258.518C104.953 259.1 105.027 259.562 105.176 259.906V260H104.039ZM102.24 259.174C102.58 259.174 102.902 259.086 103.207 258.91C103.512 258.734 103.732 258.506 103.869 258.225V256.924H103.02C101.691 256.924 101.027 257.312 101.027 258.09C101.027 258.43 101.141 258.695 101.367 258.887C101.594 259.078 101.885 259.174 102.24 259.174ZM109.342 256.771C109.342 256.15 109.463 255.592 109.705 255.096C109.951 254.6 110.291 254.217 110.725 253.947C111.162 253.678 111.66 253.543 112.219 253.543C113.082 253.543 113.779 253.842 114.311 254.439C114.846 255.037 115.113 255.832 115.113 256.824V256.9C115.113 257.518 114.994 258.072 114.756 258.564C114.521 259.053 114.184 259.434 113.742 259.707C113.305 259.98 112.801 260.117 112.23 260.117C111.371 260.117 110.674 259.818 110.139 259.221C109.607 258.623 109.342 257.832 109.342 256.848V256.771ZM110.432 256.9C110.432 257.604 110.594 258.168 110.918 258.594C111.246 259.02 111.684 259.232 112.23 259.232C112.781 259.232 113.219 259.018 113.543 258.588C113.867 258.154 114.029 257.549 114.029 256.771C114.029 256.076 113.863 255.514 113.531 255.084C113.203 254.65 112.766 254.434 112.219 254.434C111.684 254.434 111.252 254.646 110.924 255.072C110.596 255.498 110.432 256.107 110.432 256.9ZM117.498 253.66L117.533 254.457C118.018 253.848 118.65 253.543 119.432 253.543C120.771 253.543 121.447 254.299 121.459 255.811V260H120.375V255.805C120.371 255.348 120.266 255.01 120.059 254.791C119.855 254.572 119.537 254.463 119.104 254.463C118.752 254.463 118.443 254.557 118.178 254.744C117.912 254.932 117.705 255.178 117.557 255.482V260H116.473V253.66H117.498ZM127.541 252.125V253.66H128.725V254.498H127.541V258.43C127.541 258.684 127.594 258.875 127.699 259.004C127.805 259.129 127.984 259.191 128.238 259.191C128.363 259.191 128.535 259.168 128.754 259.121V260C128.469 260.078 128.191 260.117 127.922 260.117C127.438 260.117 127.072 259.971 126.826 259.678C126.58 259.385 126.457 258.969 126.457 258.43V254.498H125.303V253.66H126.457V252.125H127.541ZM131.08 254.428C131.561 253.838 132.186 253.543 132.955 253.543C134.295 253.543 134.971 254.299 134.982 255.811V260H133.898V255.805C133.895 255.348 133.789 255.01 133.582 254.791C133.379 254.572 133.061 254.463 132.627 254.463C132.275 254.463 131.967 254.557 131.701 254.744C131.436 254.932 131.229 255.178 131.08 255.482V260H129.996V251H131.08V254.428ZM139.236 260.117C138.377 260.117 137.678 259.836 137.139 259.273C136.6 258.707 136.33 257.951 136.33 257.006V256.807C136.33 256.178 136.449 255.617 136.688 255.125C136.93 254.629 137.266 254.242 137.695 253.965C138.129 253.684 138.598 253.543 139.102 253.543C139.926 253.543 140.566 253.814 141.023 254.357C141.48 254.9 141.709 255.678 141.709 256.689V257.141H137.414C137.43 257.766 137.611 258.271 137.959 258.658C138.311 259.041 138.756 259.232 139.295 259.232C139.678 259.232 140.002 259.154 140.268 258.998C140.533 258.842 140.766 258.635 140.965 258.377L141.627 258.893C141.096 259.709 140.299 260.117 139.236 260.117ZM139.102 254.434C138.664 254.434 138.297 254.594 138 254.914C137.703 255.23 137.52 255.676 137.449 256.25H140.625V256.168C140.594 255.617 140.445 255.191 140.18 254.891C139.914 254.586 139.555 254.434 139.102 254.434ZM148.629 256.197C147.664 255.92 146.961 255.58 146.52 255.178C146.082 254.771 145.863 254.271 145.863 253.678C145.863 253.006 146.131 252.451 146.666 252.014C147.205 251.572 147.904 251.352 148.764 251.352C149.35 251.352 149.871 251.465 150.328 251.691C150.789 251.918 151.145 252.23 151.395 252.629C151.648 253.027 151.775 253.463 151.775 253.936H150.645C150.645 253.42 150.48 253.016 150.152 252.723C149.824 252.426 149.361 252.277 148.764 252.277C148.209 252.277 147.775 252.4 147.463 252.646C147.154 252.889 147 253.227 147 253.66C147 254.008 147.146 254.303 147.439 254.545C147.736 254.783 148.238 255.002 148.945 255.201C149.656 255.4 150.211 255.621 150.609 255.863C151.012 256.102 151.309 256.381 151.5 256.701C151.695 257.021 151.793 257.398 151.793 257.832C151.793 258.523 151.523 259.078 150.984 259.496C150.445 259.91 149.725 260.117 148.822 260.117C148.236 260.117 147.689 260.006 147.182 259.783C146.674 259.557 146.281 259.248 146.004 258.857C145.73 258.467 145.594 258.023 145.594 257.527H146.725C146.725 258.043 146.914 258.451 147.293 258.752C147.676 259.049 148.186 259.197 148.822 259.197C149.416 259.197 149.871 259.076 150.188 258.834C150.504 258.592 150.662 258.262 150.662 257.844C150.662 257.426 150.516 257.104 150.223 256.877C149.93 256.646 149.398 256.42 148.629 256.197ZM154.154 254.428C154.635 253.838 155.26 253.543 156.029 253.543C157.369 253.543 158.045 254.299 158.057 255.811V260H156.973V255.805C156.969 255.348 156.863 255.01 156.656 254.791C156.453 254.572 156.135 254.463 155.701 254.463C155.35 254.463 155.041 254.557 154.775 254.744C154.51 254.932 154.303 255.178 154.154 255.482V260H153.07V251H154.154V254.428ZM159.393 256.771C159.393 256.15 159.514 255.592 159.756 255.096C160.002 254.6 160.342 254.217 160.775 253.947C161.213 253.678 161.711 253.543 162.27 253.543C163.133 253.543 163.83 253.842 164.361 254.439C164.896 255.037 165.164 255.832 165.164 256.824V256.9C165.164 257.518 165.045 258.072 164.807 258.564C164.572 259.053 164.234 259.434 163.793 259.707C163.355 259.98 162.852 260.117 162.281 260.117C161.422 260.117 160.725 259.818 160.189 259.221C159.658 258.623 159.393 257.832 159.393 256.848V256.771ZM160.482 256.9C160.482 257.604 160.645 258.168 160.969 258.594C161.297 259.02 161.734 259.232 162.281 259.232C162.832 259.232 163.27 259.018 163.594 258.588C163.918 258.154 164.08 257.549 164.08 256.771C164.08 256.076 163.914 255.514 163.582 255.084C163.254 254.65 162.816 254.434 162.27 254.434C161.734 254.434 161.303 254.646 160.975 255.072C160.646 255.498 160.482 256.107 160.482 256.9ZM169.588 254.633C169.424 254.605 169.246 254.592 169.055 254.592C168.344 254.592 167.861 254.895 167.607 255.5V260H166.523V253.66H167.578L167.596 254.393C167.951 253.826 168.455 253.543 169.107 253.543C169.318 253.543 169.479 253.57 169.588 253.625V254.633ZM173.104 260.117C172.244 260.117 171.545 259.836 171.006 259.273C170.467 258.707 170.197 257.951 170.197 257.006V256.807C170.197 256.178 170.316 255.617 170.555 255.125C170.797 254.629 171.133 254.242 171.562 253.965C171.996 253.684 172.465 253.543 172.969 253.543C173.793 253.543 174.434 253.814 174.891 254.357C175.348 254.9 175.576 255.678 175.576 256.689V257.141H171.281C171.297 257.766 171.479 258.271 171.826 258.658C172.178 259.041 172.623 259.232 173.162 259.232C173.545 259.232 173.869 259.154 174.135 258.998C174.4 258.842 174.633 258.635 174.832 258.377L175.494 258.893C174.963 259.709 174.166 260.117 173.104 260.117ZM172.969 254.434C172.531 254.434 172.164 254.594 171.867 254.914C171.57 255.23 171.387 255.676 171.316 256.25H174.492V256.168C174.461 255.617 174.312 255.191 174.047 254.891C173.781 254.586 173.422 254.434 172.969 254.434Z" fill="black"/>
<rect x="30.5" y="286.5" width="29" height="29" fill="white" stroke="#9F9E97"/>
<path d="M82.5469 305H81.416V301.057H77.1152V305H75.9902V296.469H77.1152V300.137H81.416V296.469H82.5469V305ZM88.2891 305C88.2266 304.875 88.1758 304.652 88.1367 304.332C87.6328 304.855 87.0312 305.117 86.332 305.117C85.707 305.117 85.1934 304.941 84.791 304.59C84.3926 304.234 84.1934 303.785 84.1934 303.242C84.1934 302.582 84.4434 302.07 84.9434 301.707C85.4473 301.34 86.1543 301.156 87.0645 301.156H88.1191V300.658C88.1191 300.279 88.0059 299.979 87.7793 299.756C87.5527 299.529 87.2188 299.416 86.7773 299.416C86.3906 299.416 86.0664 299.514 85.8047 299.709C85.543 299.904 85.4121 300.141 85.4121 300.418H84.3223C84.3223 300.102 84.4336 299.797 84.6562 299.504C84.8828 299.207 85.1875 298.973 85.5703 298.801C85.957 298.629 86.3809 298.543 86.8418 298.543C87.5723 298.543 88.1445 298.727 88.5586 299.094C88.9727 299.457 89.1875 299.959 89.2031 300.6V303.518C89.2031 304.1 89.2773 304.562 89.4258 304.906V305H88.2891ZM86.4902 304.174C86.8301 304.174 87.1523 304.086 87.457 303.91C87.7617 303.734 87.9824 303.506 88.1191 303.225V301.924H87.2695C85.9414 301.924 85.2773 302.312 85.2773 303.09C85.2773 303.43 85.3906 303.695 85.6172 303.887C85.8438 304.078 86.1348 304.174 86.4902 304.174ZM93.9668 299.633C93.8027 299.605 93.625 299.592 93.4336 299.592C92.7227 299.592 92.2402 299.895 91.9863 300.5V305H90.9023V298.66H91.957L91.9746 299.393C92.3301 298.826 92.834 298.543 93.4863 298.543C93.6973 298.543 93.8574 298.57 93.9668 298.625V299.633ZM94.5879 301.777C94.5879 300.805 94.8184 300.023 95.2793 299.434C95.7402 298.84 96.3438 298.543 97.0898 298.543C97.832 298.543 98.4199 298.797 98.8535 299.305V296H99.9375V305H98.9414L98.8887 304.32C98.4551 304.852 97.8516 305.117 97.0781 305.117C96.3438 305.117 95.7441 304.816 95.2793 304.215C94.8184 303.613 94.5879 302.828 94.5879 301.859V301.777ZM95.6719 301.9C95.6719 302.619 95.8203 303.182 96.1172 303.588C96.4141 303.994 96.8242 304.197 97.3477 304.197C98.0352 304.197 98.5371 303.889 98.8535 303.271V300.359C98.5293 299.762 98.0312 299.463 97.3594 299.463C96.8281 299.463 96.4141 299.668 96.1172 300.078C95.8203 300.488 95.6719 301.096 95.6719 301.9ZM103.881 301.818H101.021V300.934H103.881V301.818ZM105.111 305V296.469H107.9C108.826 296.469 109.521 296.66 109.986 297.043C110.455 297.426 110.689 297.992 110.689 298.742C110.689 299.141 110.576 299.494 110.35 299.803C110.123 300.107 109.814 300.344 109.424 300.512C109.885 300.641 110.248 300.887 110.514 301.25C110.783 301.609 110.918 302.039 110.918 302.539C110.918 303.305 110.67 303.906 110.174 304.344C109.678 304.781 108.977 305 108.07 305H105.111ZM106.236 301.01V304.08H108.094C108.617 304.08 109.029 303.945 109.33 303.676C109.635 303.402 109.787 303.027 109.787 302.551C109.787 301.523 109.229 301.01 108.111 301.01H106.236ZM106.236 300.107H107.936C108.428 300.107 108.82 299.984 109.113 299.738C109.41 299.492 109.559 299.158 109.559 298.736C109.559 298.268 109.422 297.928 109.148 297.717C108.875 297.502 108.459 297.395 107.9 297.395H106.236V300.107ZM112.131 301.771C112.131 301.15 112.252 300.592 112.494 300.096C112.74 299.6 113.08 299.217 113.514 298.947C113.951 298.678 114.449 298.543 115.008 298.543C115.871 298.543 116.568 298.842 117.1 299.439C117.635 300.037 117.902 300.832 117.902 301.824V301.9C117.902 302.518 117.783 303.072 117.545 303.564C117.311 304.053 116.973 304.434 116.531 304.707C116.094 304.98 115.59 305.117 115.02 305.117C114.16 305.117 113.463 304.818 112.928 304.221C112.396 303.623 112.131 302.832 112.131 301.848V301.771ZM113.221 301.9C113.221 302.604 113.383 303.168 113.707 303.594C114.035 304.02 114.473 304.232 115.02 304.232C115.57 304.232 116.008 304.018 116.332 303.588C116.656 303.154 116.818 302.549 116.818 301.771C116.818 301.076 116.652 300.514 116.32 300.084C115.992 299.65 115.555 299.434 115.008 299.434C114.473 299.434 114.041 299.646 113.713 300.072C113.385 300.498 113.221 301.107 113.221 301.9ZM120.439 305H119.355V298.66H120.439V305ZM119.268 296.979C119.268 296.803 119.32 296.654 119.426 296.533C119.535 296.412 119.695 296.352 119.906 296.352C120.117 296.352 120.277 296.412 120.387 296.533C120.496 296.654 120.551 296.803 120.551 296.979C120.551 297.154 120.496 297.301 120.387 297.418C120.277 297.535 120.117 297.594 119.906 297.594C119.695 297.594 119.535 297.535 119.426 297.418C119.32 297.301 119.268 297.154 119.268 296.979ZM123.357 305H122.273V296H123.357V305ZM127.729 305.117C126.869 305.117 126.17 304.836 125.631 304.273C125.092 303.707 124.822 302.951 124.822 302.006V301.807C124.822 301.178 124.941 300.617 125.18 300.125C125.422 299.629 125.758 299.242 126.188 298.965C126.621 298.684 127.09 298.543 127.594 298.543C128.418 298.543 129.059 298.814 129.516 299.357C129.973 299.9 130.201 300.678 130.201 301.689V302.141H125.906C125.922 302.766 126.104 303.271 126.451 303.658C126.803 304.041 127.248 304.232 127.787 304.232C128.17 304.232 128.494 304.154 128.76 303.998C129.025 303.842 129.258 303.635 129.457 303.377L130.119 303.893C129.588 304.709 128.791 305.117 127.729 305.117ZM127.594 299.434C127.156 299.434 126.789 299.594 126.492 299.914C126.195 300.23 126.012 300.676 125.941 301.25H129.117V301.168C129.086 300.617 128.938 300.191 128.672 299.891C128.406 299.586 128.047 299.434 127.594 299.434ZM131.197 301.777C131.197 300.805 131.428 300.023 131.889 299.434C132.35 298.84 132.953 298.543 133.699 298.543C134.441 298.543 135.029 298.797 135.463 299.305V296H136.547V305H135.551L135.498 304.32C135.064 304.852 134.461 305.117 133.688 305.117C132.953 305.117 132.354 304.816 131.889 304.215C131.428 303.613 131.197 302.828 131.197 301.859V301.777ZM132.281 301.9C132.281 302.619 132.43 303.182 132.727 303.588C133.023 303.994 133.434 304.197 133.957 304.197C134.645 304.197 135.146 303.889 135.463 303.271V300.359C135.139 299.762 134.641 299.463 133.969 299.463C133.438 299.463 133.023 299.668 132.727 300.078C132.43 300.488 132.281 301.096 132.281 301.9ZM143.221 302.311L143.385 303.436L143.625 302.422L145.312 296.469H146.262L147.908 302.422L148.143 303.453L148.324 302.305L149.648 296.469H150.779L148.711 305H147.686L145.928 298.783L145.793 298.133L145.658 298.783L143.836 305H142.811L140.748 296.469H141.873L143.221 302.311ZM151.389 301.771C151.389 301.15 151.51 300.592 151.752 300.096C151.998 299.6 152.338 299.217 152.771 298.947C153.209 298.678 153.707 298.543 154.266 298.543C155.129 298.543 155.826 298.842 156.357 299.439C156.893 300.037 157.16 300.832 157.16 301.824V301.9C157.16 302.518 157.041 303.072 156.803 303.564C156.568 304.053 156.23 304.434 155.789 304.707C155.352 304.98 154.848 305.117 154.277 305.117C153.418 305.117 152.721 304.818 152.186 304.221C151.654 303.623 151.389 302.832 151.389 301.848V301.771ZM152.479 301.9C152.479 302.604 152.641 303.168 152.965 303.594C153.293 304.02 153.73 304.232 154.277 304.232C154.828 304.232 155.266 304.018 155.59 303.588C155.914 303.154 156.076 302.549 156.076 301.771C156.076 301.076 155.91 300.514 155.578 300.084C155.25 299.65 154.812 299.434 154.266 299.434C153.73 299.434 153.299 299.646 152.971 300.072C152.643 300.498 152.479 301.107 152.479 301.9ZM159.545 298.66L159.58 299.457C160.064 298.848 160.697 298.543 161.479 298.543C162.818 298.543 163.494 299.299 163.506 300.811V305H162.422V300.805C162.418 300.348 162.312 300.01 162.105 299.791C161.902 299.572 161.584 299.463 161.15 299.463C160.799 299.463 160.49 299.557 160.225 299.744C159.959 299.932 159.752 300.178 159.604 300.482V305H158.52V298.66H159.545ZM164.877 301.777C164.877 300.805 165.107 300.023 165.568 299.434C166.029 298.84 166.633 298.543 167.379 298.543C168.121 298.543 168.709 298.797 169.143 299.305V296H170.227V305H169.23L169.178 304.32C168.744 304.852 168.141 305.117 167.367 305.117C166.633 305.117 166.033 304.816 165.568 304.215C165.107 303.613 164.877 302.828 164.877 301.859V301.777ZM165.961 301.9C165.961 302.619 166.109 303.182 166.406 303.588C166.703 303.994 167.113 304.197 167.637 304.197C168.324 304.197 168.826 303.889 169.143 303.271V300.359C168.818 299.762 168.32 299.463 167.648 299.463C167.117 299.463 166.703 299.668 166.406 300.078C166.109 300.488 165.961 301.096 165.961 301.9ZM174.545 305.117C173.686 305.117 172.986 304.836 172.447 304.273C171.908 303.707 171.639 302.951 171.639 302.006V301.807C171.639 301.178 171.758 300.617 171.996 300.125C172.238 299.629 172.574 299.242 173.004 298.965C173.438 298.684 173.906 298.543 174.41 298.543C175.234 298.543 175.875 298.814 176.332 299.357C176.789 299.9 177.018 300.678 177.018 301.689V302.141H172.723C172.738 302.766 172.92 303.271 173.268 303.658C173.619 304.041 174.064 304.232 174.604 304.232C174.986 304.232 175.311 304.154 175.576 303.998C175.842 303.842 176.074 303.635 176.273 303.377L176.936 303.893C176.404 304.709 175.607 305.117 174.545 305.117ZM174.41 299.434C173.973 299.434 173.605 299.594 173.309 299.914C173.012 300.23 172.828 300.676 172.758 301.25H175.934V301.168C175.902 300.617 175.754 300.191 175.488 299.891C175.223 299.586 174.863 299.434 174.41 299.434ZM181.342 299.633C181.178 299.605 181 299.592 180.809 299.592C180.098 299.592 179.615 299.895 179.361 300.5V305H178.277V298.66H179.332L179.35 299.393C179.705 298.826 180.209 298.543 180.861 298.543C181.072 298.543 181.232 298.57 181.342 298.625V299.633ZM183.521 305H182.438V296H183.521V305ZM189.176 305C189.113 304.875 189.062 304.652 189.023 304.332C188.52 304.855 187.918 305.117 187.219 305.117C186.594 305.117 186.08 304.941 185.678 304.59C185.279 304.234 185.08 303.785 185.08 303.242C185.08 302.582 185.33 302.07 185.83 301.707C186.334 301.34 187.041 301.156 187.951 301.156H189.006V300.658C189.006 300.279 188.893 299.979 188.666 299.756C188.439 299.529 188.105 299.416 187.664 299.416C187.277 299.416 186.953 299.514 186.691 299.709C186.43 299.904 186.299 300.141 186.299 300.418H185.209C185.209 300.102 185.32 299.797 185.543 299.504C185.77 299.207 186.074 298.973 186.457 298.801C186.844 298.629 187.268 298.543 187.729 298.543C188.459 298.543 189.031 298.727 189.445 299.094C189.859 299.457 190.074 299.959 190.09 300.6V303.518C190.09 304.1 190.164 304.562 190.312 304.906V305H189.176ZM187.377 304.174C187.717 304.174 188.039 304.086 188.344 303.91C188.648 303.734 188.869 303.506 189.006 303.225V301.924H188.156C186.828 301.924 186.164 302.312 186.164 303.09C186.164 303.43 186.277 303.695 186.504 303.887C186.73 304.078 187.021 304.174 187.377 304.174ZM192.814 298.66L192.85 299.457C193.334 298.848 193.967 298.543 194.748 298.543C196.088 298.543 196.764 299.299 196.775 300.811V305H195.691V300.805C195.688 300.348 195.582 300.01 195.375 299.791C195.172 299.572 194.854 299.463 194.42 299.463C194.068 299.463 193.76 299.557 193.494 299.744C193.229 299.932 193.021 300.178 192.873 300.482V305H191.789V298.66H192.814ZM198.146 301.777C198.146 300.805 198.377 300.023 198.838 299.434C199.299 298.84 199.902 298.543 200.648 298.543C201.391 298.543 201.979 298.797 202.412 299.305V296H203.496V305H202.5L202.447 304.32C202.014 304.852 201.41 305.117 200.637 305.117C199.902 305.117 199.303 304.816 198.838 304.215C198.377 303.613 198.146 302.828 198.146 301.859V301.777ZM199.23 301.9C199.23 302.619 199.379 303.182 199.676 303.588C199.973 303.994 200.383 304.197 200.906 304.197C201.594 304.197 202.096 303.889 202.412 303.271V300.359C202.088 299.762 201.59 299.463 200.918 299.463C200.387 299.463 199.973 299.668 199.676 300.078C199.379 300.488 199.23 301.096 199.23 301.9ZM212.074 305C212.012 304.875 211.961 304.652 211.922 304.332C211.418 304.855 210.816 305.117 210.117 305.117C209.492 305.117 208.979 304.941 208.576 304.59C208.178 304.234 207.979 303.785 207.979 303.242C207.979 302.582 208.229 302.07 208.729 301.707C209.232 301.34 209.939 301.156 210.85 301.156H211.904V300.658C211.904 300.279 211.791 299.979 211.564 299.756C211.338 299.529 211.004 299.416 210.562 299.416C210.176 299.416 209.852 299.514 209.59 299.709C209.328 299.904 209.197 300.141 209.197 300.418H208.107C208.107 300.102 208.219 299.797 208.441 299.504C208.668 299.207 208.973 298.973 209.355 298.801C209.742 298.629 210.166 298.543 210.627 298.543C211.357 298.543 211.93 298.727 212.344 299.094C212.758 299.457 212.973 299.959 212.988 300.6V303.518C212.988 304.1 213.062 304.562 213.211 304.906V305H212.074ZM210.275 304.174C210.615 304.174 210.938 304.086 211.242 303.91C211.547 303.734 211.768 303.506 211.904 303.225V301.924H211.055C209.727 301.924 209.062 302.312 209.062 303.09C209.062 303.43 209.176 303.695 209.402 303.887C209.629 304.078 209.92 304.174 210.275 304.174ZM215.713 298.66L215.748 299.457C216.232 298.848 216.865 298.543 217.646 298.543C218.986 298.543 219.662 299.299 219.674 300.811V305H218.59V300.805C218.586 300.348 218.48 300.01 218.273 299.791C218.07 299.572 217.752 299.463 217.318 299.463C216.967 299.463 216.658 299.557 216.393 299.744C216.127 299.932 215.92 300.178 215.771 300.482V305H214.688V298.66H215.713ZM221.045 301.777C221.045 300.805 221.275 300.023 221.736 299.434C222.197 298.84 222.801 298.543 223.547 298.543C224.289 298.543 224.877 298.797 225.311 299.305V296H226.395V305H225.398L225.346 304.32C224.912 304.852 224.309 305.117 223.535 305.117C222.801 305.117 222.201 304.816 221.736 304.215C221.275 303.613 221.045 302.828 221.045 301.859V301.777ZM222.129 301.9C222.129 302.619 222.277 303.182 222.574 303.588C222.871 303.994 223.281 304.197 223.805 304.197C224.492 304.197 224.994 303.889 225.311 303.271V300.359C224.986 299.762 224.488 299.463 223.816 299.463C223.285 299.463 222.871 299.668 222.574 300.078C222.277 300.488 222.129 301.096 222.129 301.9ZM232.529 297.125V298.66H233.713V299.498H232.529V303.43C232.529 303.684 232.582 303.875 232.688 304.004C232.793 304.129 232.973 304.191 233.227 304.191C233.352 304.191 233.523 304.168 233.742 304.121V305C233.457 305.078 233.18 305.117 232.91 305.117C232.426 305.117 232.061 304.971 231.814 304.678C231.568 304.385 231.445 303.969 231.445 303.43V299.498H230.291V298.66H231.445V297.125H232.529ZM236.068 299.428C236.549 298.838 237.174 298.543 237.943 298.543C239.283 298.543 239.959 299.299 239.971 300.811V305H238.887V300.805C238.883 300.348 238.777 300.01 238.57 299.791C238.367 299.572 238.049 299.463 237.615 299.463C237.264 299.463 236.955 299.557 236.689 299.744C236.424 299.932 236.217 300.178 236.068 300.482V305H234.984V296H236.068V299.428ZM244.225 305.117C243.365 305.117 242.666 304.836 242.127 304.273C241.588 303.707 241.318 302.951 241.318 302.006V301.807C241.318 301.178 241.438 300.617 241.676 300.125C241.918 299.629 242.254 299.242 242.684 298.965C243.117 298.684 243.586 298.543 244.09 298.543C244.914 298.543 245.555 298.814 246.012 299.357C246.469 299.9 246.697 300.678 246.697 301.689V302.141H242.402C242.418 302.766 242.6 303.271 242.947 303.658C243.299 304.041 243.744 304.232 244.283 304.232C244.666 304.232 244.99 304.154 245.256 303.998C245.521 303.842 245.754 303.635 245.953 303.377L246.615 303.893C246.084 304.709 245.287 305.117 244.225 305.117ZM244.09 299.434C243.652 299.434 243.285 299.594 242.988 299.914C242.691 300.23 242.508 300.676 242.438 301.25H245.613V301.168C245.582 300.617 245.434 300.191 245.168 299.891C244.902 299.586 244.543 299.434 244.09 299.434ZM255.926 301.057H252.229V304.08H256.523V305H251.104V296.469H256.465V297.395H252.229V300.137H255.926V301.057ZM258.779 298.66L258.814 299.457C259.299 298.848 259.932 298.543 260.713 298.543C262.053 298.543 262.729 299.299 262.74 300.811V305H261.656V300.805C261.652 300.348 261.547 300.01 261.34 299.791C261.137 299.572 260.818 299.463 260.385 299.463C260.033 299.463 259.725 299.557 259.459 299.744C259.193 299.932 258.986 300.178 258.838 300.482V305H257.754V298.66H258.779ZM264.111 301.777C264.111 300.805 264.342 300.023 264.803 299.434C265.264 298.84 265.867 298.543 266.613 298.543C267.355 298.543 267.943 298.797 268.377 299.305V296H269.461V305H268.465L268.412 304.32C267.979 304.852 267.375 305.117 266.602 305.117C265.867 305.117 265.268 304.816 264.803 304.215C264.342 303.613 264.111 302.828 264.111 301.859V301.777ZM265.195 301.9C265.195 302.619 265.344 303.182 265.641 303.588C265.938 303.994 266.348 304.197 266.871 304.197C267.559 304.197 268.061 303.889 268.377 303.271V300.359C268.053 299.762 267.555 299.463 266.883 299.463C266.352 299.463 265.938 299.668 265.641 300.078C265.344 300.488 265.195 301.096 265.195 301.9ZM273.838 301.771C273.838 301.15 273.959 300.592 274.201 300.096C274.447 299.6 274.787 299.217 275.221 298.947C275.658 298.678 276.156 298.543 276.715 298.543C277.578 298.543 278.275 298.842 278.807 299.439C279.342 300.037 279.609 300.832 279.609 301.824V301.9C279.609 302.518 279.49 303.072 279.252 303.564C279.018 304.053 278.68 304.434 278.238 304.707C277.801 304.98 277.297 305.117 276.727 305.117C275.867 305.117 275.17 304.818 274.635 304.221C274.104 303.623 273.838 302.832 273.838 301.848V301.771ZM274.928 301.9C274.928 302.604 275.09 303.168 275.414 303.594C275.742 304.02 276.18 304.232 276.727 304.232C277.277 304.232 277.715 304.018 278.039 303.588C278.363 303.154 278.525 302.549 278.525 301.771C278.525 301.076 278.359 300.514 278.027 300.084C277.699 299.65 277.262 299.434 276.715 299.434C276.18 299.434 275.748 299.646 275.42 300.072C275.092 300.498 274.928 301.107 274.928 301.9ZM281.502 305V299.498H280.5V298.66H281.502V298.01C281.502 297.33 281.684 296.805 282.047 296.434C282.41 296.062 282.924 295.877 283.588 295.877C283.838 295.877 284.086 295.91 284.332 295.977L284.273 296.855C284.09 296.82 283.895 296.803 283.688 296.803C283.336 296.803 283.064 296.906 282.873 297.113C282.682 297.316 282.586 297.609 282.586 297.992V298.66H283.939V299.498H282.586V305H281.502ZM289.588 297.125V298.66H290.771V299.498H289.588V303.43C289.588 303.684 289.641 303.875 289.746 304.004C289.852 304.129 290.031 304.191 290.285 304.191C290.41 304.191 290.582 304.168 290.801 304.121V305C290.516 305.078 290.238 305.117 289.969 305.117C289.484 305.117 289.119 304.971 288.873 304.678C288.627 304.385 288.504 303.969 288.504 303.43V299.498H287.35V298.66H288.504V297.125H289.588ZM293.127 299.428C293.607 298.838 294.232 298.543 295.002 298.543C296.342 298.543 297.018 299.299 297.029 300.811V305H295.945V300.805C295.941 300.348 295.836 300.01 295.629 299.791C295.426 299.572 295.107 299.463 294.674 299.463C294.322 299.463 294.014 299.557 293.748 299.744C293.482 299.932 293.275 300.178 293.127 300.482V305H292.043V296H293.127V299.428ZM301.283 305.117C300.424 305.117 299.725 304.836 299.186 304.273C298.646 303.707 298.377 302.951 298.377 302.006V301.807C298.377 301.178 298.496 300.617 298.734 300.125C298.977 299.629 299.312 299.242 299.742 298.965C300.176 298.684 300.645 298.543 301.148 298.543C301.973 298.543 302.613 298.814 303.07 299.357C303.527 299.9 303.756 300.678 303.756 301.689V302.141H299.461C299.477 302.766 299.658 303.271 300.006 303.658C300.357 304.041 300.803 304.232 301.342 304.232C301.725 304.232 302.049 304.154 302.314 303.998C302.58 303.842 302.812 303.635 303.012 303.377L303.674 303.893C303.143 304.709 302.346 305.117 301.283 305.117ZM301.148 299.434C300.711 299.434 300.344 299.594 300.047 299.914C299.75 300.23 299.566 300.676 299.496 301.25H302.672V301.168C302.641 300.617 302.492 300.191 302.227 299.891C301.961 299.586 301.602 299.434 301.148 299.434ZM310.002 302.311L310.166 303.436L310.406 302.422L312.094 296.469H313.043L314.689 302.422L314.924 303.453L315.105 302.305L316.43 296.469H317.561L315.492 305H314.467L312.709 298.783L312.574 298.133L312.439 298.783L310.617 305H309.592L307.529 296.469H308.654L310.002 302.311ZM318.17 301.771C318.17 301.15 318.291 300.592 318.533 300.096C318.779 299.6 319.119 299.217 319.553 298.947C319.99 298.678 320.488 298.543 321.047 298.543C321.91 298.543 322.607 298.842 323.139 299.439C323.674 300.037 323.941 300.832 323.941 301.824V301.9C323.941 302.518 323.822 303.072 323.584 303.564C323.35 304.053 323.012 304.434 322.57 304.707C322.133 304.98 321.629 305.117 321.059 305.117C320.199 305.117 319.502 304.818 318.967 304.221C318.436 303.623 318.17 302.832 318.17 301.848V301.771ZM319.26 301.9C319.26 302.604 319.422 303.168 319.746 303.594C320.074 304.02 320.512 304.232 321.059 304.232C321.609 304.232 322.047 304.018 322.371 303.588C322.695 303.154 322.857 302.549 322.857 301.771C322.857 301.076 322.691 300.514 322.359 300.084C322.031 299.65 321.594 299.434 321.047 299.434C320.512 299.434 320.08 299.646 319.752 300.072C319.424 300.498 319.26 301.107 319.26 301.9ZM328.365 299.633C328.201 299.605 328.023 299.592 327.832 299.592C327.121 299.592 326.639 299.895 326.385 300.5V305H325.301V298.66H326.355L326.373 299.393C326.729 298.826 327.232 298.543 327.885 298.543C328.096 298.543 328.256 298.57 328.365 298.625V299.633ZM330.545 305H329.461V296H330.545V305ZM332.021 301.777C332.021 300.805 332.252 300.023 332.713 299.434C333.174 298.84 333.777 298.543 334.523 298.543C335.266 298.543 335.854 298.797 336.287 299.305V296H337.371V305H336.375L336.322 304.32C335.889 304.852 335.285 305.117 334.512 305.117C333.777 305.117 333.178 304.816 332.713 304.215C332.252 303.613 332.021 302.828 332.021 301.859V301.777ZM333.105 301.9C333.105 302.619 333.254 303.182 333.551 303.588C333.848 303.994 334.258 304.197 334.781 304.197C335.469 304.197 335.971 303.889 336.287 303.271V300.359C335.963 299.762 335.465 299.463 334.793 299.463C334.262 299.463 333.848 299.668 333.551 300.078C333.254 300.488 333.105 301.096 333.105 301.9Z" fill="black"/>
<path d="M45.9902 65V56.4688H48.3984C49.1406 56.4688 49.7969 56.6328 50.3672 56.9609C50.9375 57.2891 51.377 57.7559 51.6855 58.3613C51.998 58.9668 52.1562 59.6621 52.1602 60.4473V60.9922C52.1602 61.7969 52.0039 62.502 51.6914 63.1074C51.3828 63.7129 50.9395 64.1777 50.3613 64.502C49.7871 64.8262 49.1172 64.9922 48.3516 65H45.9902ZM47.1152 57.3945V64.0801H48.2988C49.166 64.0801 49.8398 63.8105 50.3203 63.2715C50.8047 62.7324 51.0469 61.9648 51.0469 60.9688V60.4707C51.0469 59.502 50.8184 58.75 50.3613 58.2148C49.9082 57.6758 49.2637 57.4023 48.4277 57.3945H47.1152ZM57.6094 65C57.5469 64.875 57.4961 64.6523 57.457 64.332C56.9531 64.8555 56.3516 65.1172 55.6523 65.1172C55.0273 65.1172 54.5137 64.9414 54.1113 64.5898C53.7129 64.2344 53.5137 63.7852 53.5137 63.2422C53.5137 62.582 53.7637 62.0703 54.2637 61.707C54.7676 61.3398 55.4746 61.1562 56.3848 61.1562H57.4395V60.6582C57.4395 60.2793 57.3262 59.9785 57.0996 59.7559C56.873 59.5293 56.5391 59.416 56.0977 59.416C55.7109 59.416 55.3867 59.5137 55.125 59.709C54.8633 59.9043 54.7324 60.1406 54.7324 60.418H53.6426C53.6426 60.1016 53.7539 59.7969 53.9766 59.5039C54.2031 59.207 54.5078 58.9727 54.8906 58.8008C55.2773 58.6289 55.7012 58.543 56.1621 58.543C56.8926 58.543 57.4648 58.7266 57.8789 59.0938C58.293 59.457 58.5078 59.959 58.5234 60.5996V63.5176C58.5234 64.0996 58.5977 64.5625 58.7461 64.9062V65H57.6094ZM55.8105 64.1738C56.1504 64.1738 56.4727 64.0859 56.7773 63.9102C57.082 63.7344 57.3027 63.5059 57.4395 63.2246V61.9238H56.5898C55.2617 61.9238 54.5977 62.3125 54.5977 63.0898C54.5977 63.4297 54.7109 63.6953 54.9375 63.8867C55.1641 64.0781 55.4551 64.1738 55.8105 64.1738ZM61.248 58.6602L61.2832 59.457C61.7676 58.8477 62.4004 58.543 63.1816 58.543C64.5215 58.543 65.1973 59.2988 65.209 60.8105V65H64.125V60.8047C64.1211 60.3477 64.0156 60.0098 63.8086 59.791C63.6055 59.5723 63.2871 59.4629 62.8535 59.4629C62.502 59.4629 62.1934 59.5566 61.9277 59.7441C61.6621 59.9316 61.4551 60.1777 61.3066 60.4824V65H60.2227V58.6602H61.248ZM69.3867 64.2324C69.7734 64.2324 70.1113 64.1152 70.4004 63.8809C70.6895 63.6465 70.8496 63.3535 70.8809 63.002H71.9062C71.8867 63.3652 71.7617 63.7109 71.5312 64.0391C71.3008 64.3672 70.9922 64.6289 70.6055 64.8242C70.2227 65.0195 69.8164 65.1172 69.3867 65.1172C68.5234 65.1172 67.8359 64.8301 67.3242 64.2559C66.8164 63.6777 66.5625 62.8887 66.5625 61.8887V61.707C66.5625 61.0898 66.6758 60.541 66.9023 60.0605C67.1289 59.5801 67.4531 59.207 67.875 58.9414C68.3008 58.6758 68.8027 58.543 69.3809 58.543C70.0918 58.543 70.6816 58.7559 71.1504 59.1816C71.623 59.6074 71.875 60.1602 71.9062 60.8398H70.8809C70.8496 60.4297 70.6934 60.0938 70.4121 59.832C70.1348 59.5664 69.791 59.4336 69.3809 59.4336C68.8301 59.4336 68.4023 59.6328 68.0977 60.0312C67.7969 60.4258 67.6465 60.998 67.6465 61.748V61.9531C67.6465 62.6836 67.7969 63.2461 68.0977 63.6406C68.3984 64.0352 68.8281 64.2324 69.3867 64.2324ZM75.7559 65.1172C74.8965 65.1172 74.1973 64.8359 73.6582 64.2734C73.1191 63.707 72.8496 62.9512 72.8496 62.0059V61.8066C72.8496 61.1777 72.9688 60.6172 73.207 60.125C73.4492 59.6289 73.7852 59.2422 74.2148 58.9648C74.6484 58.6836 75.1172 58.543 75.6211 58.543C76.4453 58.543 77.0859 58.8145 77.543 59.3574C78 59.9004 78.2285 60.6777 78.2285 61.6895V62.1406H73.9336C73.9492 62.7656 74.1309 63.2715 74.4785 63.6582C74.8301 64.041 75.2754 64.2324 75.8145 64.2324C76.1973 64.2324 76.5215 64.1543 76.7871 63.998C77.0527 63.8418 77.2852 63.6348 77.4844 63.377L78.1465 63.8926C77.6152 64.709 76.8184 65.1172 75.7559 65.1172ZM75.6211 59.4336C75.1836 59.4336 74.8164 59.5938 74.5195 59.9141C74.2227 60.2305 74.0391 60.6758 73.9688 61.25H77.1445V61.168C77.1133 60.6172 76.9648 60.1914 76.6992 59.8906C76.4336 59.5859 76.0742 59.4336 75.6211 59.4336Z" fill="black"/>
<path d="M210.504 61.1973C209.539 60.9199 208.836 60.5801 208.395 60.1777C207.957 59.7715 207.738 59.2715 207.738 58.6777C207.738 58.0059 208.006 57.4512 208.541 57.0137C209.08 56.5723 209.779 56.3516 210.639 56.3516C211.225 56.3516 211.746 56.4648 212.203 56.6914C212.664 56.918 213.02 57.2305 213.27 57.6289C213.523 58.0273 213.65 58.4629 213.65 58.9355H212.52C212.52 58.4199 212.355 58.0156 212.027 57.7227C211.699 57.4258 211.236 57.2773 210.639 57.2773C210.084 57.2773 209.65 57.4004 209.338 57.6465C209.029 57.8887 208.875 58.2266 208.875 58.6602C208.875 59.0078 209.021 59.3027 209.314 59.5449C209.611 59.7832 210.113 60.002 210.82 60.2012C211.531 60.4004 212.086 60.6211 212.484 60.8633C212.887 61.1016 213.184 61.3809 213.375 61.7012C213.57 62.0215 213.668 62.3984 213.668 62.832C213.668 63.5234 213.398 64.0781 212.859 64.4961C212.32 64.9102 211.6 65.1172 210.697 65.1172C210.111 65.1172 209.564 65.0059 209.057 64.7832C208.549 64.5566 208.156 64.248 207.879 63.8574C207.605 63.4668 207.469 63.0234 207.469 62.5273H208.6C208.6 63.043 208.789 63.4512 209.168 63.752C209.551 64.0488 210.061 64.1973 210.697 64.1973C211.291 64.1973 211.746 64.0762 212.062 63.834C212.379 63.5918 212.537 63.2617 212.537 62.8438C212.537 62.4258 212.391 62.1035 212.098 61.877C211.805 61.6465 211.273 61.4199 210.504 61.1973ZM217.576 65.1172C216.717 65.1172 216.018 64.8359 215.479 64.2734C214.939 63.707 214.67 62.9512 214.67 62.0059V61.8066C214.67 61.1777 214.789 60.6172 215.027 60.125C215.27 59.6289 215.605 59.2422 216.035 58.9648C216.469 58.6836 216.938 58.543 217.441 58.543C218.266 58.543 218.906 58.8145 219.363 59.3574C219.82 59.9004 220.049 60.6777 220.049 61.6895V62.1406H215.754C215.77 62.7656 215.951 63.2715 216.299 63.6582C216.65 64.041 217.096 64.2324 217.635 64.2324C218.018 64.2324 218.342 64.1543 218.607 63.998C218.873 63.8418 219.105 63.6348 219.305 63.377L219.967 63.8926C219.436 64.709 218.639 65.1172 217.576 65.1172ZM217.441 59.4336C217.004 59.4336 216.637 59.5938 216.34 59.9141C216.043 60.2305 215.859 60.6758 215.789 61.25H218.965V61.168C218.934 60.6172 218.785 60.1914 218.52 59.8906C218.254 59.5859 217.895 59.4336 217.441 59.4336ZM225.223 65C225.16 64.875 225.109 64.6523 225.07 64.332C224.566 64.8555 223.965 65.1172 223.266 65.1172C222.641 65.1172 222.127 64.9414 221.725 64.5898C221.326 64.2344 221.127 63.7852 221.127 63.2422C221.127 62.582 221.377 62.0703 221.877 61.707C222.381 61.3398 223.088 61.1562 223.998 61.1562H225.053V60.6582C225.053 60.2793 224.939 59.9785 224.713 59.7559C224.486 59.5293 224.152 59.416 223.711 59.416C223.324 59.416 223 59.5137 222.738 59.709C222.477 59.9043 222.346 60.1406 222.346 60.418H221.256C221.256 60.1016 221.367 59.7969 221.59 59.5039C221.816 59.207 222.121 58.9727 222.504 58.8008C222.891 58.6289 223.314 58.543 223.775 58.543C224.506 58.543 225.078 58.7266 225.492 59.0938C225.906 59.457 226.121 59.959 226.137 60.5996V63.5176C226.137 64.0996 226.211 64.5625 226.359 64.9062V65H225.223ZM223.424 64.1738C223.764 64.1738 224.086 64.0859 224.391 63.9102C224.695 63.7344 224.916 63.5059 225.053 63.2246V61.9238H224.203C222.875 61.9238 222.211 62.3125 222.211 63.0898C222.211 63.4297 222.324 63.6953 222.551 63.8867C222.777 64.0781 223.068 64.1738 223.424 64.1738ZM230.9 59.6328C230.736 59.6055 230.559 59.5918 230.367 59.5918C229.656 59.5918 229.174 59.8945 228.92 60.5V65H227.836V58.6602H228.891L228.908 59.3926C229.264 58.8262 229.768 58.543 230.42 58.543C230.631 58.543 230.791 58.5703 230.9 58.625V59.6328ZM234.328 64.2324C234.715 64.2324 235.053 64.1152 235.342 63.8809C235.631 63.6465 235.791 63.3535 235.822 63.002H236.848C236.828 63.3652 236.703 63.7109 236.473 64.0391C236.242 64.3672 235.934 64.6289 235.547 64.8242C235.164 65.0195 234.758 65.1172 234.328 65.1172C233.465 65.1172 232.777 64.8301 232.266 64.2559C231.758 63.6777 231.504 62.8887 231.504 61.8887V61.707C231.504 61.0898 231.617 60.541 231.844 60.0605C232.07 59.5801 232.395 59.207 232.816 58.9414C233.242 58.6758 233.744 58.543 234.322 58.543C235.033 58.543 235.623 58.7559 236.092 59.1816C236.564 59.6074 236.816 60.1602 236.848 60.8398H235.822C235.791 60.4297 235.635 60.0938 235.354 59.832C235.076 59.5664 234.732 59.4336 234.322 59.4336C233.771 59.4336 233.344 59.6328 233.039 60.0312C232.738 60.4258 232.588 60.998 232.588 61.748V61.9531C232.588 62.6836 232.738 63.2461 233.039 63.6406C233.34 64.0352 233.77 64.2324 234.328 64.2324ZM239.15 59.4277C239.631 58.8379 240.256 58.543 241.025 58.543C242.365 58.543 243.041 59.2988 243.053 60.8105V65H241.969V60.8047C241.965 60.3477 241.859 60.0098 241.652 59.791C241.449 59.5723 241.131 59.4629 240.697 59.4629C240.346 59.4629 240.037 59.5566 239.771 59.7441C239.506 59.9316 239.299 60.1777 239.15 60.4824V65H238.066V56H239.15V59.4277Z" fill="black"/>
<path d="M278.695 61.2324H275.115V65H273.99V56.4688H279.275V57.3945H275.115V60.3125H278.695V61.2324ZM281.631 65H280.547V58.6602H281.631V65ZM280.459 56.9785C280.459 56.8027 280.512 56.6543 280.617 56.5332C280.727 56.4121 280.887 56.3516 281.098 56.3516C281.309 56.3516 281.469 56.4121 281.578 56.5332C281.688 56.6543 281.742 56.8027 281.742 56.9785C281.742 57.1543 281.688 57.3008 281.578 57.418C281.469 57.5352 281.309 57.5938 281.098 57.5938C280.887 57.5938 280.727 57.5352 280.617 57.418C280.512 57.3008 280.459 57.1543 280.459 56.9785ZM284.549 65H283.465V56H284.549V65ZM287.76 57.125V58.6602H288.943V59.498H287.76V63.4297C287.76 63.6836 287.812 63.875 287.918 64.0039C288.023 64.1289 288.203 64.1914 288.457 64.1914C288.582 64.1914 288.754 64.168 288.973 64.1211V65C288.688 65.0781 288.41 65.1172 288.141 65.1172C287.656 65.1172 287.291 64.9707 287.045 64.6777C286.799 64.3848 286.676 63.9688 286.676 63.4297V59.498H285.521V58.6602H286.676V57.125H287.76ZM292.846 65.1172C291.986 65.1172 291.287 64.8359 290.748 64.2734C290.209 63.707 289.939 62.9512 289.939 62.0059V61.8066C289.939 61.1777 290.059 60.6172 290.297 60.125C290.539 59.6289 290.875 59.2422 291.305 58.9648C291.738 58.6836 292.207 58.543 292.711 58.543C293.535 58.543 294.176 58.8145 294.633 59.3574C295.09 59.9004 295.318 60.6777 295.318 61.6895V62.1406H291.023C291.039 62.7656 291.221 63.2715 291.568 63.6582C291.92 64.041 292.365 64.2324 292.904 64.2324C293.287 64.2324 293.611 64.1543 293.877 63.998C294.143 63.8418 294.375 63.6348 294.574 63.377L295.236 63.8926C294.705 64.709 293.908 65.1172 292.846 65.1172ZM292.711 59.4336C292.273 59.4336 291.906 59.5938 291.609 59.9141C291.312 60.2305 291.129 60.6758 291.059 61.25H294.234V61.168C294.203 60.6172 294.055 60.1914 293.789 59.8906C293.523 59.5859 293.164 59.4336 292.711 59.4336ZM299.643 59.6328C299.479 59.6055 299.301 59.5918 299.109 59.5918C298.398 59.5918 297.916 59.8945 297.662 60.5V65H296.578V58.6602H297.633L297.65 59.3926C298.006 58.8262 298.51 58.543 299.162 58.543C299.373 58.543 299.533 58.5703 299.643 58.625V59.6328Z" fill="black"/>
<rect x="30.5" y="46.5" width="149" height="29" stroke="#9F9E97"/>
<line x1="83.5" y1="55.5" x2="83.5" y2="66.5" stroke="#9F9E97"/>
<line x1="82" y1="56" x2="85" y2="56" stroke="#9F9E97"/>
<line x1="82" y1="67" x2="85" y2="67" stroke="#9F9E97"/>
</svg>
