<svg width="360" height="360" viewBox="0 0 360 360" fill="none" xmlns="http://www.w3.org/2000/svg">
<rect width="360" height="360" fill="white"/>
<rect width="360" height="360" fill="white"/>
<path d="M75.1734 242.531L195.5 287" stroke="#29B96F"/>
<rect x="194.5" y="97.5" width="59" height="29" stroke="#29B96F"/>
<rect x="240.5" y="142.5" width="59" height="29" stroke="#29B96F"/>
<rect x="240.5" y="278.5" width="59" height="29" stroke="#29B96F"/>
<rect x="240.5" y="186.5" width="59" height="29" stroke="#29B96F"/>
<rect x="270.5" y="97.5" width="29" height="29" stroke="#647CC1"/>
<rect x="194.5" y="52.5" width="105" height="29" stroke="#E55E4E"/>
<rect x="194.5" y="232.5" width="105" height="29" stroke="#E55E4E"/>
<rect x="194.5" y="142.5" width="29" height="73" stroke="#35C1B7"/>
<circle cx="209" cy="292" r="14" stroke="#29B96F" stroke-width="2"/>
<rect x="60.5" y="111.5" width="31" height="15" stroke="#29B96F"/>
<rect x="60.5" y="135.5" width="15" height="15" stroke="#647CC1"/>
<rect x="60.5" y="159.5" width="56" height="15" stroke="#E55E4E"/>
<rect x="60.5" y="184.5" width="15" height="39" stroke="#35C1B7"/>
<circle cx="68" cy="240" r="7" stroke="#29B96F" stroke-width="2"/>
</svg>
