<svg width="360" height="360" viewBox="0 0 360 360" fill="none" xmlns="http://www.w3.org/2000/svg">
<rect width="360" height="360" fill="white"/>
<rect width="360" height="360" fill="white"/>
<path d="M179.732 216.324H175.162V229H173.297V216.324H168.736V214.781H179.732V216.324ZM183.365 219.713C184.166 218.73 185.208 218.238 186.49 218.238C188.723 218.238 189.85 219.498 189.869 222.018V229H188.062V222.008C188.056 221.246 187.88 220.683 187.535 220.318C187.197 219.954 186.666 219.771 185.943 219.771C185.357 219.771 184.843 219.928 184.4 220.24C183.958 220.553 183.613 220.963 183.365 221.471V229H181.559V214H183.365V219.713ZM196.959 229.195C195.527 229.195 194.361 228.727 193.463 227.789C192.564 226.845 192.115 225.585 192.115 224.01V223.678C192.115 222.63 192.314 221.695 192.711 220.875C193.115 220.048 193.674 219.404 194.391 218.941C195.113 218.473 195.895 218.238 196.734 218.238C198.108 218.238 199.176 218.691 199.938 219.596C200.699 220.501 201.08 221.796 201.08 223.482V224.234H193.922C193.948 225.276 194.251 226.119 194.83 226.764C195.416 227.402 196.158 227.721 197.057 227.721C197.695 227.721 198.235 227.59 198.678 227.33C199.12 227.07 199.508 226.725 199.84 226.295L200.943 227.154C200.058 228.515 198.73 229.195 196.959 229.195ZM196.734 219.723C196.005 219.723 195.393 219.99 194.898 220.523C194.404 221.051 194.098 221.793 193.98 222.75H199.273V222.613C199.221 221.695 198.974 220.986 198.531 220.484C198.089 219.977 197.49 219.723 196.734 219.723ZM214.293 226.197C214.293 225.709 214.107 225.331 213.736 225.064C213.372 224.791 212.73 224.557 211.812 224.361C210.901 224.166 210.175 223.932 209.635 223.658C209.101 223.385 208.704 223.059 208.443 222.682C208.189 222.304 208.062 221.855 208.062 221.334C208.062 220.468 208.427 219.736 209.156 219.137C209.892 218.538 210.829 218.238 211.969 218.238C213.167 218.238 214.137 218.548 214.879 219.166C215.628 219.785 216.002 220.576 216.002 221.539H214.186C214.186 221.044 213.974 220.618 213.551 220.26C213.134 219.902 212.607 219.723 211.969 219.723C211.311 219.723 210.797 219.866 210.426 220.152C210.055 220.439 209.869 220.813 209.869 221.275C209.869 221.712 210.042 222.04 210.387 222.262C210.732 222.483 211.354 222.695 212.252 222.896C213.157 223.098 213.889 223.339 214.449 223.619C215.009 223.899 215.423 224.238 215.689 224.635C215.963 225.025 216.1 225.504 216.1 226.07C216.1 227.014 215.722 227.773 214.967 228.346C214.212 228.912 213.232 229.195 212.027 229.195C211.181 229.195 210.432 229.046 209.781 228.746C209.13 228.447 208.619 228.03 208.248 227.496C207.883 226.956 207.701 226.373 207.701 225.748H209.508C209.54 226.354 209.781 226.835 210.23 227.193C210.686 227.545 211.285 227.721 212.027 227.721C212.711 227.721 213.258 227.584 213.668 227.311C214.085 227.031 214.293 226.66 214.293 226.197ZM217.975 223.619C217.975 222.584 218.176 221.653 218.58 220.826C218.99 219.999 219.557 219.361 220.279 218.912C221.008 218.463 221.839 218.238 222.77 218.238C224.208 218.238 225.37 218.736 226.256 219.732C227.148 220.729 227.594 222.053 227.594 223.707V223.834C227.594 224.863 227.395 225.787 226.998 226.607C226.607 227.421 226.044 228.056 225.309 228.512C224.579 228.967 223.74 229.195 222.789 229.195C221.357 229.195 220.195 228.697 219.303 227.701C218.417 226.705 217.975 225.387 217.975 223.746V223.619ZM219.791 223.834C219.791 225.006 220.061 225.947 220.602 226.656C221.148 227.366 221.878 227.721 222.789 227.721C223.707 227.721 224.436 227.363 224.977 226.646C225.517 225.924 225.787 224.915 225.787 223.619C225.787 222.46 225.51 221.523 224.957 220.807C224.41 220.084 223.681 219.723 222.77 219.723C221.878 219.723 221.158 220.077 220.611 220.787C220.064 221.497 219.791 222.512 219.791 223.834ZM231.822 229H230.016V214H231.822V229ZM241.246 227.955C240.543 228.782 239.511 229.195 238.15 229.195C237.024 229.195 236.165 228.87 235.572 228.219C234.986 227.561 234.69 226.591 234.684 225.309V218.434H236.49V225.26C236.49 226.861 237.141 227.662 238.443 227.662C239.824 227.662 240.742 227.148 241.197 226.119V218.434H243.004V229H241.285L241.246 227.955ZM248.209 215.875V218.434H250.182V219.83H248.209V226.383C248.209 226.806 248.297 227.125 248.473 227.34C248.648 227.548 248.948 227.652 249.371 227.652C249.579 227.652 249.866 227.613 250.23 227.535V229C249.755 229.13 249.293 229.195 248.844 229.195C248.036 229.195 247.428 228.951 247.018 228.463C246.607 227.975 246.402 227.281 246.402 226.383V219.83H244.479V218.434H246.402V215.875H248.209ZM254.264 229H252.457V218.434H254.264V229ZM252.311 215.631C252.311 215.338 252.398 215.09 252.574 214.889C252.757 214.687 253.023 214.586 253.375 214.586C253.727 214.586 253.993 214.687 254.176 214.889C254.358 215.09 254.449 215.338 254.449 215.631C254.449 215.924 254.358 216.168 254.176 216.363C253.993 216.559 253.727 216.656 253.375 216.656C253.023 216.656 252.757 216.559 252.574 216.363C252.398 216.168 252.311 215.924 252.311 215.631ZM256.686 223.619C256.686 222.584 256.887 221.653 257.291 220.826C257.701 219.999 258.268 219.361 258.99 218.912C259.719 218.463 260.549 218.238 261.48 218.238C262.919 218.238 264.081 218.736 264.967 219.732C265.859 220.729 266.305 222.053 266.305 223.707V223.834C266.305 224.863 266.106 225.787 265.709 226.607C265.318 227.421 264.755 228.056 264.02 228.512C263.29 228.967 262.451 229.195 261.5 229.195C260.068 229.195 258.906 228.697 258.014 227.701C257.128 226.705 256.686 225.387 256.686 223.746V223.619ZM258.502 223.834C258.502 225.006 258.772 225.947 259.312 226.656C259.859 227.366 260.589 227.721 261.5 227.721C262.418 227.721 263.147 227.363 263.688 226.646C264.228 225.924 264.498 224.915 264.498 223.619C264.498 222.46 264.221 221.523 263.668 220.807C263.121 220.084 262.392 219.723 261.48 219.723C260.589 219.723 259.869 220.077 259.322 220.787C258.775 221.497 258.502 222.512 258.502 223.834ZM270.279 218.434L270.338 219.762C271.145 218.746 272.2 218.238 273.502 218.238C275.735 218.238 276.861 219.498 276.881 222.018V229H275.074V222.008C275.068 221.246 274.892 220.683 274.547 220.318C274.208 219.954 273.678 219.771 272.955 219.771C272.369 219.771 271.855 219.928 271.412 220.24C270.969 220.553 270.624 220.963 270.377 221.471V229H268.57V218.434H270.279ZM284.088 223.619C284.088 222.584 284.29 221.653 284.693 220.826C285.104 219.999 285.67 219.361 286.393 218.912C287.122 218.463 287.952 218.238 288.883 218.238C290.322 218.238 291.484 218.736 292.369 219.732C293.261 220.729 293.707 222.053 293.707 223.707V223.834C293.707 224.863 293.508 225.787 293.111 226.607C292.721 227.421 292.158 228.056 291.422 228.512C290.693 228.967 289.853 229.195 288.902 229.195C287.47 229.195 286.308 228.697 285.416 227.701C284.531 226.705 284.088 225.387 284.088 223.746V223.619ZM285.904 223.834C285.904 225.006 286.174 225.947 286.715 226.656C287.262 227.366 287.991 227.721 288.902 227.721C289.82 227.721 290.549 227.363 291.09 226.646C291.63 225.924 291.9 224.915 291.9 223.619C291.9 222.46 291.624 221.523 291.07 220.807C290.523 220.084 289.794 219.723 288.883 219.723C287.991 219.723 287.271 220.077 286.725 220.787C286.178 221.497 285.904 222.512 285.904 223.834ZM296.861 229V219.83H295.191V218.434H296.861V217.35C296.861 216.217 297.164 215.341 297.77 214.723C298.375 214.104 299.231 213.795 300.338 213.795C300.755 213.795 301.168 213.85 301.578 213.961L301.48 215.426C301.174 215.367 300.849 215.338 300.504 215.338C299.918 215.338 299.465 215.51 299.146 215.855C298.827 216.194 298.668 216.682 298.668 217.32V218.434H300.924V219.83H298.668V229H296.861ZM305.377 215.875V218.434H307.35V219.83H305.377V226.383C305.377 226.806 305.465 227.125 305.641 227.34C305.816 227.548 306.116 227.652 306.539 227.652C306.747 227.652 307.034 227.613 307.398 227.535V229C306.923 229.13 306.461 229.195 306.012 229.195C305.204 229.195 304.596 228.951 304.186 228.463C303.775 227.975 303.57 227.281 303.57 226.383V219.83H301.646V218.434H303.57V215.875H305.377ZM313.854 229.195C312.421 229.195 311.256 228.727 310.357 227.789C309.459 226.845 309.01 225.585 309.01 224.01V223.678C309.01 222.63 309.208 221.695 309.605 220.875C310.009 220.048 310.569 219.404 311.285 218.941C312.008 218.473 312.789 218.238 313.629 218.238C315.003 218.238 316.07 218.691 316.832 219.596C317.594 220.501 317.975 221.796 317.975 223.482V224.234H310.816C310.842 225.276 311.145 226.119 311.725 226.764C312.311 227.402 313.053 227.721 313.951 227.721C314.589 227.721 315.13 227.59 315.572 227.33C316.015 227.07 316.402 226.725 316.734 226.295L317.838 227.154C316.952 228.515 315.624 229.195 313.854 229.195ZM313.629 219.723C312.9 219.723 312.288 219.99 311.793 220.523C311.298 221.051 310.992 221.793 310.875 222.75H316.168V222.613C316.116 221.695 315.868 220.986 315.426 220.484C314.983 219.977 314.384 219.723 313.629 219.723ZM321.783 218.434L321.842 219.762C322.649 218.746 323.704 218.238 325.006 218.238C327.239 218.238 328.365 219.498 328.385 222.018V229H326.578V222.008C326.572 221.246 326.396 220.683 326.051 220.318C325.712 219.954 325.182 219.771 324.459 219.771C323.873 219.771 323.359 219.928 322.916 220.24C322.473 220.553 322.128 220.963 321.881 221.471V229H320.074V218.434H321.783Z" fill="black"/>
<path d="M242.396 100.125V101.66H243.58V102.498H242.396V106.43C242.396 106.684 242.449 106.875 242.555 107.004C242.66 107.129 242.84 107.191 243.094 107.191C243.219 107.191 243.391 107.168 243.609 107.121V108C243.324 108.078 243.047 108.117 242.777 108.117C242.293 108.117 241.928 107.971 241.682 107.678C241.436 107.385 241.312 106.969 241.312 106.43V102.498H240.158V101.66H241.312V100.125H242.396ZM248.766 107.373C248.344 107.869 247.725 108.117 246.908 108.117C246.232 108.117 245.717 107.922 245.361 107.531C245.01 107.137 244.832 106.555 244.828 105.785V101.66H245.912V105.756C245.912 106.717 246.303 107.197 247.084 107.197C247.912 107.197 248.463 106.889 248.736 106.271V101.66H249.82V108H248.789L248.766 107.373ZM254.537 102.633C254.373 102.605 254.195 102.592 254.004 102.592C253.293 102.592 252.811 102.895 252.557 103.5V108H251.473V101.66H252.527L252.545 102.393C252.9 101.826 253.404 101.543 254.057 101.543C254.268 101.543 254.428 101.57 254.537 101.625V102.633ZM256.564 101.66L256.6 102.457C257.084 101.848 257.717 101.543 258.498 101.543C259.838 101.543 260.514 102.299 260.525 103.811V108H259.441V103.805C259.438 103.348 259.332 103.01 259.125 102.791C258.922 102.572 258.604 102.463 258.17 102.463C257.818 102.463 257.51 102.557 257.244 102.744C256.979 102.932 256.771 103.178 256.623 103.482V108H255.539V101.66H256.564ZM265.852 106.318C265.852 106.025 265.74 105.799 265.518 105.639C265.299 105.475 264.914 105.334 264.363 105.217C263.816 105.1 263.381 104.959 263.057 104.795C262.736 104.631 262.498 104.436 262.342 104.209C262.189 103.982 262.113 103.713 262.113 103.4C262.113 102.881 262.332 102.441 262.77 102.082C263.211 101.723 263.773 101.543 264.457 101.543C265.176 101.543 265.758 101.729 266.203 102.1C266.652 102.471 266.877 102.945 266.877 103.523H265.787C265.787 103.227 265.66 102.971 265.406 102.756C265.156 102.541 264.84 102.434 264.457 102.434C264.062 102.434 263.754 102.52 263.531 102.691C263.309 102.863 263.197 103.088 263.197 103.365C263.197 103.627 263.301 103.824 263.508 103.957C263.715 104.09 264.088 104.217 264.627 104.338C265.17 104.459 265.609 104.604 265.945 104.771C266.281 104.939 266.529 105.143 266.689 105.381C266.854 105.615 266.936 105.902 266.936 106.242C266.936 106.809 266.709 107.264 266.256 107.607C265.803 107.947 265.215 108.117 264.492 108.117C263.984 108.117 263.535 108.027 263.145 107.848C262.754 107.668 262.447 107.418 262.225 107.098C262.006 106.773 261.896 106.424 261.896 106.049H262.98C263 106.412 263.145 106.701 263.414 106.916C263.688 107.127 264.047 107.232 264.492 107.232C264.902 107.232 265.23 107.15 265.477 106.986C265.727 106.818 265.852 106.596 265.852 106.318ZM271.037 104.771C271.037 104.15 271.158 103.592 271.4 103.096C271.646 102.6 271.986 102.217 272.42 101.947C272.857 101.678 273.355 101.543 273.914 101.543C274.777 101.543 275.475 101.842 276.006 102.439C276.541 103.037 276.809 103.832 276.809 104.824V104.9C276.809 105.518 276.689 106.072 276.451 106.564C276.217 107.053 275.879 107.434 275.438 107.707C275 107.98 274.496 108.117 273.926 108.117C273.066 108.117 272.369 107.818 271.834 107.221C271.303 106.623 271.037 105.832 271.037 104.848V104.771ZM272.127 104.9C272.127 105.604 272.289 106.168 272.613 106.594C272.941 107.02 273.379 107.232 273.926 107.232C274.477 107.232 274.914 107.018 275.238 106.588C275.562 106.154 275.725 105.549 275.725 104.771C275.725 104.076 275.559 103.514 275.227 103.084C274.898 102.65 274.461 102.434 273.914 102.434C273.379 102.434 272.947 102.646 272.619 103.072C272.291 103.498 272.127 104.107 272.127 104.9ZM282.082 107.373C281.66 107.869 281.041 108.117 280.225 108.117C279.549 108.117 279.033 107.922 278.678 107.531C278.326 107.137 278.148 106.555 278.145 105.785V101.66H279.229V105.756C279.229 106.717 279.619 107.197 280.4 107.197C281.229 107.197 281.779 106.889 282.053 106.271V101.66H283.137V108H282.105L282.082 107.373ZM286.26 100.125V101.66H287.443V102.498H286.26V106.43C286.26 106.684 286.312 106.875 286.418 107.004C286.523 107.129 286.703 107.191 286.957 107.191C287.082 107.191 287.254 107.168 287.473 107.121V108C287.188 108.078 286.91 108.117 286.641 108.117C286.156 108.117 285.791 107.971 285.545 107.678C285.299 107.385 285.176 106.969 285.176 106.43V102.498H284.021V101.66H285.176V100.125H286.26Z" fill="black"/>
<path d="M99.1641 128.49L99.208 129.545C99.9053 128.725 100.846 128.314 102.029 128.314C103.359 128.314 104.265 128.824 104.745 129.844C105.062 129.387 105.472 129.018 105.976 128.736C106.485 128.455 107.086 128.314 107.777 128.314C109.863 128.314 110.924 129.419 110.959 131.628V138H109.333V131.725C109.333 131.045 109.178 130.538 108.867 130.204C108.557 129.864 108.035 129.694 107.303 129.694C106.699 129.694 106.198 129.876 105.8 130.239C105.401 130.597 105.17 131.08 105.105 131.689V138H103.471V131.769C103.471 130.386 102.794 129.694 101.44 129.694C100.374 129.694 99.6445 130.148 99.252 131.057V138H97.626V128.49H99.1641ZM112.989 133.157C112.989 132.226 113.171 131.388 113.534 130.644C113.903 129.899 114.413 129.325 115.063 128.921C115.72 128.517 116.467 128.314 117.305 128.314C118.6 128.314 119.646 128.763 120.442 129.659C121.245 130.556 121.646 131.748 121.646 133.236V133.351C121.646 134.276 121.468 135.108 121.11 135.847C120.759 136.579 120.252 137.15 119.59 137.561C118.934 137.971 118.178 138.176 117.322 138.176C116.033 138.176 114.987 137.728 114.185 136.831C113.388 135.935 112.989 134.748 112.989 133.271V133.157ZM114.624 133.351C114.624 134.405 114.867 135.252 115.354 135.891C115.846 136.529 116.502 136.849 117.322 136.849C118.148 136.849 118.805 136.526 119.291 135.882C119.777 135.231 120.021 134.323 120.021 133.157C120.021 132.114 119.771 131.271 119.273 130.626C118.781 129.976 118.125 129.65 117.305 129.65C116.502 129.65 115.854 129.97 115.362 130.608C114.87 131.247 114.624 132.161 114.624 133.351ZM128.282 129.949C128.036 129.908 127.77 129.888 127.482 129.888C126.416 129.888 125.692 130.342 125.312 131.25V138H123.686V128.49H125.268L125.294 129.589C125.827 128.739 126.583 128.314 127.562 128.314C127.878 128.314 128.118 128.355 128.282 128.438V129.949ZM133.556 138.176C132.267 138.176 131.218 137.754 130.409 136.91C129.601 136.061 129.196 134.927 129.196 133.509V133.21C129.196 132.267 129.375 131.426 129.732 130.688C130.096 129.943 130.6 129.363 131.244 128.947C131.895 128.525 132.598 128.314 133.354 128.314C134.59 128.314 135.551 128.722 136.236 129.536C136.922 130.351 137.265 131.517 137.265 133.034V133.711H130.822C130.846 134.648 131.118 135.407 131.64 135.987C132.167 136.562 132.835 136.849 133.644 136.849C134.218 136.849 134.704 136.731 135.103 136.497C135.501 136.263 135.85 135.952 136.148 135.565L137.142 136.339C136.345 137.563 135.149 138.176 133.556 138.176ZM133.354 129.65C132.697 129.65 132.146 129.891 131.701 130.371C131.256 130.846 130.98 131.514 130.875 132.375H135.639V132.252C135.592 131.426 135.369 130.787 134.971 130.336C134.572 129.879 134.033 129.65 133.354 129.65ZM151.67 133.351C151.67 134.804 151.336 135.973 150.668 136.857C150 137.736 149.104 138.176 147.979 138.176C146.777 138.176 145.849 137.751 145.192 136.901L145.113 138H143.619V124.5H145.245V129.536C145.901 128.722 146.807 128.314 147.961 128.314C149.115 128.314 150.021 128.751 150.677 129.624C151.339 130.497 151.67 131.692 151.67 133.21V133.351ZM150.044 133.166C150.044 132.059 149.83 131.203 149.402 130.6C148.975 129.996 148.359 129.694 147.557 129.694C146.484 129.694 145.714 130.192 145.245 131.188V135.302C145.743 136.298 146.52 136.796 147.574 136.796C148.354 136.796 148.96 136.494 149.394 135.891C149.827 135.287 150.044 134.379 150.044 133.166ZM157.673 138.176C156.384 138.176 155.335 137.754 154.526 136.91C153.718 136.061 153.313 134.927 153.313 133.509V133.21C153.313 132.267 153.492 131.426 153.85 130.688C154.213 129.943 154.717 129.363 155.361 128.947C156.012 128.525 156.715 128.314 157.471 128.314C158.707 128.314 159.668 128.722 160.354 129.536C161.039 130.351 161.382 131.517 161.382 133.034V133.711H154.939C154.963 134.648 155.235 135.407 155.757 135.987C156.284 136.562 156.952 136.849 157.761 136.849C158.335 136.849 158.821 136.731 159.22 136.497C159.618 136.263 159.967 135.952 160.266 135.565L161.259 136.339C160.462 137.563 159.267 138.176 157.673 138.176ZM157.471 129.65C156.814 129.65 156.264 129.891 155.818 130.371C155.373 130.846 155.098 131.514 154.992 132.375H159.756V132.252C159.709 131.426 159.486 130.787 159.088 130.336C158.689 129.879 158.15 129.65 157.471 129.65ZM169.143 138C169.049 137.812 168.973 137.479 168.914 136.998C168.158 137.783 167.256 138.176 166.207 138.176C165.27 138.176 164.499 137.912 163.896 137.385C163.298 136.852 162.999 136.178 162.999 135.363C162.999 134.373 163.374 133.605 164.124 133.061C164.88 132.51 165.94 132.234 167.306 132.234H168.888V131.487C168.888 130.919 168.718 130.468 168.378 130.134C168.038 129.794 167.537 129.624 166.875 129.624C166.295 129.624 165.809 129.771 165.416 130.063C165.023 130.356 164.827 130.711 164.827 131.127H163.192C163.192 130.652 163.359 130.195 163.693 129.756C164.033 129.311 164.49 128.959 165.064 128.701C165.645 128.443 166.28 128.314 166.972 128.314C168.067 128.314 168.926 128.59 169.547 129.141C170.168 129.686 170.49 130.438 170.514 131.399V135.776C170.514 136.649 170.625 137.344 170.848 137.859V138H169.143ZM166.444 136.761C166.954 136.761 167.438 136.629 167.895 136.365C168.352 136.102 168.683 135.759 168.888 135.337V133.386H167.613C165.621 133.386 164.625 133.969 164.625 135.135C164.625 135.645 164.795 136.043 165.135 136.33C165.475 136.617 165.911 136.761 166.444 136.761ZM178.934 137.06C178.301 137.804 177.372 138.176 176.147 138.176C175.134 138.176 174.36 137.883 173.827 137.297C173.3 136.705 173.033 135.832 173.027 134.678V128.49H174.653V134.634C174.653 136.075 175.239 136.796 176.411 136.796C177.653 136.796 178.479 136.333 178.89 135.407V128.49H180.516V138H178.969L178.934 137.06ZM185.2 126.188V128.49H186.976V129.747H185.2V135.645C185.2 136.025 185.279 136.312 185.438 136.506C185.596 136.693 185.865 136.787 186.246 136.787C186.434 136.787 186.691 136.752 187.02 136.682V138C186.592 138.117 186.176 138.176 185.771 138.176C185.045 138.176 184.497 137.956 184.128 137.517C183.759 137.077 183.574 136.453 183.574 135.645V129.747H181.843V128.49H183.574V126.188H185.2ZM190.649 138H189.023V128.49H190.649V138ZM188.892 125.968C188.892 125.704 188.971 125.481 189.129 125.3C189.293 125.118 189.533 125.027 189.85 125.027C190.166 125.027 190.406 125.118 190.57 125.3C190.734 125.481 190.816 125.704 190.816 125.968C190.816 126.231 190.734 126.451 190.57 126.627C190.406 126.803 190.166 126.891 189.85 126.891C189.533 126.891 189.293 126.803 189.129 126.627C188.971 126.451 188.892 126.231 188.892 125.968ZM194.06 138V129.747H192.557V128.49H194.06V127.515C194.06 126.495 194.332 125.707 194.877 125.15C195.422 124.594 196.192 124.315 197.188 124.315C197.563 124.315 197.936 124.365 198.305 124.465L198.217 125.783C197.941 125.73 197.648 125.704 197.338 125.704C196.811 125.704 196.403 125.859 196.116 126.17C195.829 126.475 195.686 126.914 195.686 127.488V128.49H197.716V129.747H195.686V138H194.06ZM205.389 137.06C204.756 137.804 203.827 138.176 202.603 138.176C201.589 138.176 200.815 137.883 200.282 137.297C199.755 136.705 199.488 135.832 199.482 134.678V128.49H201.108V134.634C201.108 136.075 201.694 136.796 202.866 136.796C204.108 136.796 204.935 136.333 205.345 135.407V128.49H206.971V138H205.424L205.389 137.06ZM211.216 138H209.59V124.5H211.216V138Z" fill="black"/>
<path d="M34.3906 247.5V249.547H35.9688V250.664H34.3906V255.906C34.3906 256.245 34.4609 256.5 34.6016 256.672C34.7422 256.839 34.9818 256.922 35.3203 256.922C35.487 256.922 35.7161 256.891 36.0078 256.828V258C35.6276 258.104 35.2578 258.156 34.8984 258.156C34.2526 258.156 33.7656 257.961 33.4375 257.57C33.1094 257.18 32.9453 256.625 32.9453 255.906V250.664H31.4062V249.547H32.9453V247.5H34.3906ZM39.1094 250.57C39.75 249.784 40.5833 249.391 41.6094 249.391C43.3958 249.391 44.2969 250.398 44.3125 252.414V258H42.8672V252.406C42.862 251.797 42.7214 251.346 42.4453 251.055C42.1745 250.763 41.75 250.617 41.1719 250.617C40.7031 250.617 40.2917 250.742 39.9375 250.992C39.5833 251.242 39.3073 251.57 39.1094 251.977V258H37.6641V246H39.1094V250.57ZM51.6953 258C51.612 257.833 51.5443 257.536 51.4922 257.109C50.8203 257.807 50.0182 258.156 49.0859 258.156C48.2526 258.156 47.5677 257.922 47.0312 257.453C46.5 256.979 46.2344 256.38 46.2344 255.656C46.2344 254.776 46.5677 254.094 47.2344 253.609C47.9062 253.12 48.849 252.875 50.0625 252.875H51.4688V252.211C51.4688 251.706 51.3177 251.305 51.0156 251.008C50.7135 250.706 50.2682 250.555 49.6797 250.555C49.1641 250.555 48.7318 250.685 48.3828 250.945C48.0339 251.206 47.8594 251.521 47.8594 251.891H46.4062C46.4062 251.469 46.5547 251.062 46.8516 250.672C47.1536 250.276 47.5599 249.964 48.0703 249.734C48.5859 249.505 49.151 249.391 49.7656 249.391C50.7396 249.391 51.5026 249.635 52.0547 250.125C52.6068 250.609 52.8932 251.279 52.9141 252.133V256.023C52.9141 256.799 53.013 257.417 53.2109 257.875V258H51.6953ZM49.2969 256.898C49.75 256.898 50.1797 256.781 50.5859 256.547C50.9922 256.312 51.2865 256.008 51.4688 255.633V253.898H50.3359C48.5651 253.898 47.6797 254.417 47.6797 255.453C47.6797 255.906 47.8307 256.26 48.1328 256.516C48.4349 256.771 48.8229 256.898 49.2969 256.898ZM56.5469 249.547L56.5938 250.609C57.2396 249.797 58.0833 249.391 59.125 249.391C60.9115 249.391 61.8125 250.398 61.8281 252.414V258H60.3828V252.406C60.3776 251.797 60.237 251.346 59.9609 251.055C59.6901 250.763 59.2656 250.617 58.6875 250.617C58.2188 250.617 57.8073 250.742 57.4531 250.992C57.099 251.242 56.8229 251.57 56.625 251.977V258H55.1797V249.547H56.5469ZM69.9375 247.5V249.547H71.5156V250.664H69.9375V255.906C69.9375 256.245 70.0078 256.5 70.1484 256.672C70.2891 256.839 70.5286 256.922 70.8672 256.922C71.0339 256.922 71.263 256.891 71.5547 256.828V258C71.1745 258.104 70.8047 258.156 70.4453 258.156C69.7995 258.156 69.3125 257.961 68.9844 257.57C68.6562 257.18 68.4922 256.625 68.4922 255.906V250.664H66.9531V249.547H68.4922V247.5H69.9375ZM74.6562 250.57C75.2969 249.784 76.1302 249.391 77.1562 249.391C78.9427 249.391 79.8438 250.398 79.8594 252.414V258H78.4141V252.406C78.4089 251.797 78.2682 251.346 77.9922 251.055C77.7214 250.763 77.2969 250.617 76.7188 250.617C76.25 250.617 75.8385 250.742 75.4844 250.992C75.1302 251.242 74.8542 251.57 74.6562 251.977V258H73.2109V246H74.6562V250.57ZM85.5312 258.156C84.3854 258.156 83.4531 257.781 82.7344 257.031C82.0156 256.276 81.6562 255.268 81.6562 254.008V253.742C81.6562 252.904 81.8151 252.156 82.1328 251.5C82.4557 250.839 82.9036 250.323 83.4766 249.953C84.0547 249.578 84.6797 249.391 85.3516 249.391C86.4505 249.391 87.3047 249.753 87.9141 250.477C88.5234 251.201 88.8281 252.237 88.8281 253.586V254.188H83.1016C83.1224 255.021 83.3646 255.695 83.8281 256.211C84.2969 256.721 84.8906 256.977 85.6094 256.977C86.1198 256.977 86.5521 256.872 86.9062 256.664C87.2604 256.456 87.5703 256.18 87.8359 255.836L88.7188 256.523C88.0104 257.612 86.9479 258.156 85.5312 258.156ZM85.3516 250.578C84.7682 250.578 84.2786 250.792 83.8828 251.219C83.487 251.641 83.2422 252.234 83.1484 253H87.3828V252.891C87.3411 252.156 87.1432 251.589 86.7891 251.188C86.4349 250.781 85.9557 250.578 85.3516 250.578ZM101.617 253.867C101.617 255.154 101.323 256.19 100.734 256.977C100.146 257.763 99.349 258.156 98.3438 258.156C97.3177 258.156 96.5104 257.831 95.9219 257.18V261.25H94.4766V249.547H95.7969L95.8672 250.484C96.4557 249.755 97.2734 249.391 98.3203 249.391C99.3359 249.391 100.138 249.773 100.727 250.539C101.32 251.305 101.617 252.37 101.617 253.734V253.867ZM100.172 253.703C100.172 252.75 99.9688 251.997 99.5625 251.445C99.1562 250.893 98.599 250.617 97.8906 250.617C97.0156 250.617 96.3594 251.005 95.9219 251.781V255.82C96.3542 256.591 97.0156 256.977 97.9062 256.977C98.599 256.977 99.1484 256.703 99.5547 256.156C99.9661 255.604 100.172 254.786 100.172 253.703ZM108.68 257.164C108.117 257.826 107.292 258.156 106.203 258.156C105.302 258.156 104.615 257.896 104.141 257.375C103.672 256.849 103.435 256.073 103.43 255.047V249.547H104.875V255.008C104.875 256.289 105.396 256.93 106.438 256.93C107.542 256.93 108.276 256.518 108.641 255.695V249.547H110.086V258H108.711L108.68 257.164ZM113.648 256.82H118.594V258H111.883V256.938L116.547 250.742H111.953V249.547H118.359V250.57L113.648 256.82ZM121.586 256.82H126.531V258H119.82V256.938L124.484 250.742H119.891V249.547H126.297V250.57L121.586 256.82ZM129.734 258H128.289V246H129.734V258ZM135.562 258.156C134.417 258.156 133.484 257.781 132.766 257.031C132.047 256.276 131.688 255.268 131.688 254.008V253.742C131.688 252.904 131.846 252.156 132.164 251.5C132.487 250.839 132.935 250.323 133.508 249.953C134.086 249.578 134.711 249.391 135.383 249.391C136.482 249.391 137.336 249.753 137.945 250.477C138.555 251.201 138.859 252.237 138.859 253.586V254.188H133.133C133.154 255.021 133.396 255.695 133.859 256.211C134.328 256.721 134.922 256.977 135.641 256.977C136.151 256.977 136.583 256.872 136.938 256.664C137.292 256.456 137.602 256.18 137.867 255.836L138.75 256.523C138.042 257.612 136.979 258.156 135.562 258.156ZM135.383 250.578C134.799 250.578 134.31 250.792 133.914 251.219C133.518 251.641 133.273 252.234 133.18 253H137.414V252.891C137.372 252.156 137.174 251.589 136.82 251.188C136.466 250.781 135.987 250.578 135.383 250.578ZM140.57 257.242C140.57 256.992 140.643 256.784 140.789 256.617C140.94 256.451 141.164 256.367 141.461 256.367C141.758 256.367 141.982 256.451 142.133 256.617C142.289 256.784 142.367 256.992 142.367 257.242C142.367 257.482 142.289 257.682 142.133 257.844C141.982 258.005 141.758 258.086 141.461 258.086C141.164 258.086 140.94 258.005 140.789 257.844C140.643 257.682 140.57 257.482 140.57 257.242Z" fill="black"/>
<line x1="321.519" y1="211.137" x2="292.519" y2="109.137" stroke="#29B96F"/>
<line x1="235.427" y1="104.259" x2="218.427" y2="132.259" stroke="#29B96F"/>
<line x1="104.402" y1="145.298" x2="35.4015" y2="238.298" stroke="#29B96F"/>
</svg>
