<svg width="360" height="360" viewBox="0 0 360 360" fill="none" xmlns="http://www.w3.org/2000/svg">
<rect width="360" height="360" fill="white"/>
<rect width="360" height="360" fill="white"/>
<rect x="210.5" y="165.5" width="29" height="29" stroke="#647CC1"/>
<rect x="120.5" y="165.5" width="74" height="29" stroke="#29B96F"/>
<rect x="165.5" y="210.5" width="74" height="29" stroke="#29B96F"/>
<rect x="120.5" y="120.5" width="119" height="29" stroke="#E55E4E"/>
<circle cx="135" cy="225" r="14.5" stroke="#35C1B7"/>
<rect x="30.5" y="202.5" width="15" height="14" rx="7" fill="white" stroke="#35C1B7"/>
<line x1="37.7581" y1="210.5" x2="37.7581" y2="206" stroke="#35C1B7"/>
<line x1="37.7581" y1="212.5" x2="37.7581" y2="212" stroke="#35C1B7"/>
<circle cx="39.5" cy="116.5" r="7.5" fill="#29B96F"/>
<circle cx="322.5" cy="160.5" r="7.5" fill="#647CC1"/>
<path d="M90.3536 135.354C90.5488 135.158 90.5488 134.842 90.3536 134.646L87.1716 131.464C86.9763 131.269 86.6597 131.269 86.4645 131.464C86.2692 131.66 86.2692 131.976 86.4645 132.172L89.2929 135L86.4645 137.828C86.2692 138.024 86.2692 138.34 86.4645 138.536C86.6597 138.731 86.9763 138.731 87.1716 138.536L90.3536 135.354ZM32 135.5H90V134.5H32V135.5Z" fill="black"/>
<path d="M90.3536 180.354C90.5488 180.158 90.5488 179.842 90.3536 179.646L87.1716 176.464C86.9763 176.269 86.6597 176.269 86.4645 176.464C86.2692 176.66 86.2692 176.976 86.4645 177.172L89.2929 180L86.4645 182.828C86.2692 183.024 86.2692 183.34 86.4645 183.536C86.6597 183.731 86.9763 183.731 87.1716 183.536L90.3536 180.354ZM32 180.5H90V179.5H32V180.5Z" fill="black"/>
<path d="M90.3536 225.354C90.5488 225.158 90.5488 224.842 90.3536 224.646L87.1716 221.464C86.9763 221.269 86.6597 221.269 86.4645 221.464C86.2692 221.66 86.2692 221.976 86.4645 222.172L89.2929 225L86.4645 227.828C86.2692 228.024 86.2692 228.34 86.4645 228.536C86.6597 228.731 86.9763 228.731 87.1716 228.536L90.3536 225.354ZM32 225.5H90V224.5H32V225.5Z" fill="black"/>
<path d="M269.646 224.646C269.451 224.842 269.451 225.158 269.646 225.354L272.828 228.536C273.024 228.731 273.34 228.731 273.536 228.536C273.731 228.34 273.731 228.024 273.536 227.828L270.707 225L273.536 222.172C273.731 221.976 273.731 221.66 273.536 221.464C273.34 221.269 273.024 221.269 272.828 221.464L269.646 224.646ZM328 224.5L270 224.5L270 225.5L328 225.5L328 224.5Z" fill="black"/>
<path d="M269.646 179.646C269.451 179.842 269.451 180.158 269.646 180.354L272.828 183.536C273.024 183.731 273.34 183.731 273.536 183.536C273.731 183.34 273.731 183.024 273.536 182.828L270.707 180L273.536 177.172C273.731 176.976 273.731 176.66 273.536 176.464C273.34 176.269 273.024 176.269 272.828 176.464L269.646 179.646ZM328 179.5L270 179.5L270 180.5L328 180.5L328 179.5Z" fill="black"/>
<path d="M116.342 101H115.252V93.7754L113.066 94.5781V93.5938L116.172 92.4277H116.342V101Z" fill="#9F9E97"/>
<path d="M125.107 101H119.518V100.221L122.471 96.9395C122.908 96.4434 123.209 96.041 123.373 95.7324C123.541 95.4199 123.625 95.0977 123.625 94.7656C123.625 94.3203 123.49 93.9551 123.221 93.6699C122.951 93.3848 122.592 93.2422 122.143 93.2422C121.604 93.2422 121.184 93.3965 120.883 93.7051C120.586 94.0098 120.438 94.4355 120.438 94.9824H119.354C119.354 94.1973 119.605 93.5625 120.109 93.0781C120.617 92.5938 121.295 92.3516 122.143 92.3516C122.936 92.3516 123.562 92.5605 124.023 92.9785C124.484 93.3926 124.715 93.9453 124.715 94.6367C124.715 95.4766 124.18 96.4766 123.109 97.6367L120.824 100.115H125.107V101Z" fill="#9F9E97"/>
<path d="M126.332 100.432C126.332 100.244 126.387 100.088 126.496 99.9629C126.609 99.8379 126.777 99.7754 127 99.7754C127.223 99.7754 127.391 99.8379 127.504 99.9629C127.621 100.088 127.68 100.244 127.68 100.432C127.68 100.611 127.621 100.762 127.504 100.883C127.391 101.004 127.223 101.064 127 101.064C126.777 101.064 126.609 101.004 126.496 100.883C126.387 100.762 126.332 100.611 126.332 100.432ZM126.338 95.2578C126.338 95.0703 126.393 94.9141 126.502 94.7891C126.615 94.6641 126.783 94.6016 127.006 94.6016C127.229 94.6016 127.396 94.6641 127.51 94.7891C127.627 94.9141 127.686 95.0703 127.686 95.2578C127.686 95.4375 127.627 95.5879 127.51 95.709C127.396 95.8301 127.229 95.8906 127.006 95.8906C126.783 95.8906 126.615 95.8301 126.502 95.709C126.393 95.5879 126.338 95.4375 126.338 95.2578Z" fill="#9F9E97"/>
<path d="M132.725 101H131.635V93.7754L129.449 94.5781V93.5938L132.555 92.4277H132.725V101Z" fill="#9F9E97"/>
<path d="M141.25 97.3613C141.25 98.6309 141.033 99.5742 140.6 100.191C140.166 100.809 139.488 101.117 138.566 101.117C137.656 101.117 136.982 100.816 136.545 100.215C136.107 99.6094 135.881 98.707 135.865 97.5078V96.0605C135.865 94.8066 136.082 93.875 136.516 93.2656C136.949 92.6562 137.629 92.3516 138.555 92.3516C139.473 92.3516 140.148 92.6465 140.582 93.2363C141.016 93.8223 141.238 94.7285 141.25 95.9551V97.3613ZM140.166 95.8789C140.166 94.9609 140.037 94.293 139.779 93.875C139.521 93.4531 139.113 93.2422 138.555 93.2422C138 93.2422 137.596 93.4512 137.342 93.8691C137.088 94.2871 136.957 94.9297 136.949 95.7969V97.5312C136.949 98.4531 137.082 99.1348 137.348 99.5762C137.617 100.014 138.023 100.232 138.566 100.232C139.102 100.232 139.498 100.025 139.756 99.6113C140.018 99.1973 140.154 98.5449 140.166 97.6543V95.8789Z" fill="#9F9E97"/>
<path d="M36.3418 169H35.252V161.775L33.0664 162.578V161.594L36.1719 160.428H36.3418V169Z" fill="#9F9E97"/>
<path d="M45.1074 169H39.5176V168.221L42.4707 164.939C42.9082 164.443 43.209 164.041 43.373 163.732C43.541 163.42 43.625 163.098 43.625 162.766C43.625 162.32 43.4902 161.955 43.2207 161.67C42.9512 161.385 42.5918 161.242 42.1426 161.242C41.6035 161.242 41.1836 161.396 40.8828 161.705C40.5859 162.01 40.4375 162.436 40.4375 162.982H39.3535C39.3535 162.197 39.6055 161.562 40.1094 161.078C40.6172 160.594 41.2949 160.352 42.1426 160.352C42.9355 160.352 43.5625 160.561 44.0234 160.979C44.4844 161.393 44.7148 161.945 44.7148 162.637C44.7148 163.477 44.1797 164.477 43.1094 165.637L40.8242 168.115H45.1074V169Z" fill="#9F9E97"/>
<path d="M46.332 168.432C46.332 168.244 46.3867 168.088 46.4961 167.963C46.6094 167.838 46.7773 167.775 47 167.775C47.2227 167.775 47.3906 167.838 47.5039 167.963C47.6211 168.088 47.6797 168.244 47.6797 168.432C47.6797 168.611 47.6211 168.762 47.5039 168.883C47.3906 169.004 47.2227 169.064 47 169.064C46.7773 169.064 46.6094 169.004 46.4961 168.883C46.3867 168.762 46.332 168.611 46.332 168.432ZM46.3379 163.258C46.3379 163.07 46.3926 162.914 46.502 162.789C46.6152 162.664 46.7832 162.602 47.0059 162.602C47.2285 162.602 47.3965 162.664 47.5098 162.789C47.627 162.914 47.6855 163.07 47.6855 163.258C47.6855 163.438 47.627 163.588 47.5098 163.709C47.3965 163.83 47.2285 163.891 47.0059 163.891C46.7832 163.891 46.6152 163.83 46.502 163.709C46.3926 163.588 46.3379 163.438 46.3379 163.258Z" fill="#9F9E97"/>
<path d="M52.7246 169H51.6348V161.775L49.4492 162.578V161.594L52.5547 160.428H52.7246V169Z" fill="#9F9E97"/>
<path d="M56.3984 164.723L56.832 160.469H61.2031V161.471H57.752L57.4941 163.797C57.9121 163.551 58.3867 163.428 58.918 163.428C59.6953 163.428 60.3125 163.686 60.7695 164.201C61.2266 164.713 61.4551 165.406 61.4551 166.281C61.4551 167.16 61.2168 167.854 60.7402 168.361C60.2676 168.865 59.6055 169.117 58.7539 169.117C58 169.117 57.3848 168.908 56.9082 168.49C56.4316 168.072 56.1602 167.494 56.0938 166.756H57.1191C57.1855 167.244 57.3594 167.613 57.6406 167.863C57.9219 168.109 58.293 168.232 58.7539 168.232C59.2578 168.232 59.6523 168.061 59.9375 167.717C60.2266 167.373 60.3711 166.898 60.3711 166.293C60.3711 165.723 60.2148 165.266 59.9023 164.922C59.5938 164.574 59.1816 164.4 58.666 164.4C58.1934 164.4 57.8223 164.504 57.5527 164.711L57.2656 164.945L56.3984 164.723Z" fill="#9F9E97"/>
<path d="M304.342 214H303.252V206.775L301.066 207.578V206.594L304.172 205.428H304.342V214Z" fill="#9F9E97"/>
<path d="M313.107 214H307.518V213.221L310.471 209.939C310.908 209.443 311.209 209.041 311.373 208.732C311.541 208.42 311.625 208.098 311.625 207.766C311.625 207.32 311.49 206.955 311.221 206.67C310.951 206.385 310.592 206.242 310.143 206.242C309.604 206.242 309.184 206.396 308.883 206.705C308.586 207.01 308.438 207.436 308.438 207.982H307.354C307.354 207.197 307.605 206.562 308.109 206.078C308.617 205.594 309.295 205.352 310.143 205.352C310.936 205.352 311.562 205.561 312.023 205.979C312.484 206.393 312.715 206.945 312.715 207.637C312.715 208.477 312.18 209.477 311.109 210.637L308.824 213.115H313.107V214Z" fill="#9F9E97"/>
<path d="M314.332 213.432C314.332 213.244 314.387 213.088 314.496 212.963C314.609 212.838 314.777 212.775 315 212.775C315.223 212.775 315.391 212.838 315.504 212.963C315.621 213.088 315.68 213.244 315.68 213.432C315.68 213.611 315.621 213.762 315.504 213.883C315.391 214.004 315.223 214.064 315 214.064C314.777 214.064 314.609 214.004 314.496 213.883C314.387 213.762 314.332 213.611 314.332 213.432ZM314.338 208.258C314.338 208.07 314.393 207.914 314.502 207.789C314.615 207.664 314.783 207.602 315.006 207.602C315.229 207.602 315.396 207.664 315.51 207.789C315.627 207.914 315.686 208.07 315.686 208.258C315.686 208.438 315.627 208.588 315.51 208.709C315.396 208.83 315.229 208.891 315.006 208.891C314.783 208.891 314.615 208.83 314.502 208.709C314.393 208.588 314.338 208.438 314.338 208.258Z" fill="#9F9E97"/>
<path d="M322.752 214H317.162V213.221L320.115 209.939C320.553 209.443 320.854 209.041 321.018 208.732C321.186 208.42 321.27 208.098 321.27 207.766C321.27 207.32 321.135 206.955 320.865 206.67C320.596 206.385 320.236 206.242 319.787 206.242C319.248 206.242 318.828 206.396 318.527 206.705C318.23 207.01 318.082 207.436 318.082 207.982H316.998C316.998 207.197 317.25 206.562 317.754 206.078C318.262 205.594 318.939 205.352 319.787 205.352C320.58 205.352 321.207 205.561 321.668 205.979C322.129 206.393 322.359 206.945 322.359 207.637C322.359 208.477 321.824 209.477 320.754 210.637L318.469 213.115H322.752V214Z" fill="#9F9E97"/>
<path d="M329.25 210.361C329.25 211.631 329.033 212.574 328.6 213.191C328.166 213.809 327.488 214.117 326.566 214.117C325.656 214.117 324.982 213.816 324.545 213.215C324.107 212.609 323.881 211.707 323.865 210.508V209.061C323.865 207.807 324.082 206.875 324.516 206.266C324.949 205.656 325.629 205.352 326.555 205.352C327.473 205.352 328.148 205.646 328.582 206.236C329.016 206.822 329.238 207.729 329.25 208.955V210.361ZM328.166 208.879C328.166 207.961 328.037 207.293 327.779 206.875C327.521 206.453 327.113 206.242 326.555 206.242C326 206.242 325.596 206.451 325.342 206.869C325.088 207.287 324.957 207.93 324.949 208.797V210.531C324.949 211.453 325.082 212.135 325.348 212.576C325.617 213.014 326.023 213.232 326.566 213.232C327.102 213.232 327.498 213.025 327.756 212.611C328.018 212.197 328.154 211.545 328.166 210.654V208.879Z" fill="#9F9E97"/>
<rect x="113" y="114" width="134" height="134" stroke="#3A2F3C" stroke-width="2" stroke-dasharray="5 5"/>
</svg>
