<svg width="360" height="360" viewBox="0 0 360 360" fill="none" xmlns="http://www.w3.org/2000/svg">
<rect width="360" height="360" fill="white"/>
<rect width="360" height="360" fill="white"/>
<path d="M246.957 217.029V182.682L299.991 148.835L300.178 149.122V182.63L247.036 217.029L246.957 217.029Z" fill="white" stroke="#29B96F"/>
<path d="M246.639 217.027L193.5 182.63V148.937L193.672 148.826L246.721 182.682V217.028L246.639 217.027Z" fill="white" stroke="#29B96F"/>
<path d="M299.959 148.786L247 182.827L193.925 148.711L247 114.594L299.791 148.528L299.959 148.786Z" fill="white" stroke="#29B96F"/>
<path d="M181.452 257.029V222.683L234.984 188.832L235.175 189.123V222.629L181.539 257.029L181.452 257.029Z" fill="white" stroke="#29B96F"/>
<path d="M181.133 257.027L127.5 222.629V188.938L127.679 188.824L181.223 222.683V257.028L181.133 257.027Z" fill="white" stroke="#29B96F"/>
<path d="M234.953 188.785L181.5 222.829L127.931 188.711L181.5 154.593L234.784 188.529L234.953 188.785Z" fill="white" stroke="#29B96F"/>
<path d="M115.452 299.029V264.683L168.984 230.832L169.175 231.123V264.629L115.539 299.029L115.452 299.029Z" fill="white" stroke="#29B96F"/>
<path d="M115.133 299.027L61.5 264.629V230.938L61.6787 230.824L115.223 264.683V299.028L115.133 299.027Z" fill="white" stroke="#29B96F"/>
<path d="M168.953 230.785L115.5 264.829L61.9308 230.711L115.5 196.593L168.784 230.529L168.953 230.785Z" fill="white" stroke="#29B96F"/>
<path d="M169.452 231.029V196.683L222.984 162.832L223.175 163.123V196.629L169.539 231.029L169.452 231.029Z" fill="white" stroke="#29B96F"/>
<path d="M169.133 231.027L115.5 196.629V162.938L115.679 162.824L169.223 196.683V231.028L169.133 231.027Z" fill="white" stroke="#29B96F"/>
<path d="M222.953 162.785L169.5 196.829L115.931 162.711L169.5 128.593L222.784 162.529L222.953 162.785Z" fill="white" stroke="#29B96F"/>
<circle cx="168.5" cy="140.5" r="34" fill="white" stroke="#29B96F"/>
<circle cx="168.5" cy="140.5" r="39.5" stroke="#3A2F3C" stroke-width="2" stroke-dasharray="5 5"/>
<path d="M226.484 106.127C226.554 105.86 226.394 105.587 226.127 105.516L221.775 104.371C221.508 104.301 221.235 104.46 221.165 104.728C221.094 104.995 221.254 105.268 221.521 105.338L225.389 106.356L224.371 110.225C224.301 110.492 224.46 110.765 224.728 110.835C224.995 110.906 225.268 110.746 225.338 110.479L226.484 106.127ZM202.252 120.432L226.252 106.432L225.748 105.568L201.748 119.568L202.252 120.432Z" fill="black"/>
<path d="M170.354 72.6464C170.158 72.4512 169.842 72.4512 169.646 72.6464L166.464 75.8284C166.269 76.0237 166.269 76.3403 166.464 76.5355C166.66 76.7308 166.976 76.7308 167.172 76.5355L170 73.7071L172.828 76.5355C173.024 76.7308 173.34 76.7308 173.536 76.5355C173.731 76.3403 173.731 76.0237 173.536 75.8284L170.354 72.6464ZM170.5 100.785L170.5 73L169.5 73L169.5 100.785L170.5 100.785Z" fill="black"/>
</svg>
