<svg width="360" height="360" viewBox="0 0 360 360" fill="none" xmlns="http://www.w3.org/2000/svg">
<rect width="360" height="360" fill="white"/>
<rect width="360" height="360" fill="white"/>
<path d="M61.5 239.5L147.33 180.825C148.887 179.761 150.977 179.929 152.344 181.229L177.067 204.736C178.862 206.443 181.761 206.124 183.143 204.069L237.869 122.669C239.062 120.896 241.438 120.373 243.265 121.482L264.817 134.568C266.611 135.656 268.941 135.174 270.155 133.463L301 90" stroke="black"/>
<circle r="7" transform="matrix(1 0 0 -1 300.5 89.5)" fill="white" stroke="#9F9E97"/>
<circle r="7" transform="matrix(1 0 0 -1 61.5 239.5)" fill="white" stroke="#9F9E97"/>
<path d="M259.342 153H258.252V145.775L256.066 146.578V145.594L259.172 144.428H259.342V153Z" fill="#9F9E97"/>
<path d="M267.094 150.135H268.277V151.02H267.094V153H266.004V151.02H262.119V150.381L265.939 144.469H267.094V150.135ZM263.35 150.135H266.004V145.951L265.875 146.186L263.35 150.135Z" fill="#9F9E97"/>
<path d="M269.332 152.432C269.332 152.244 269.387 152.088 269.496 151.963C269.609 151.838 269.777 151.775 270 151.775C270.223 151.775 270.391 151.838 270.504 151.963C270.621 152.088 270.68 152.244 270.68 152.432C270.68 152.611 270.621 152.762 270.504 152.883C270.391 153.004 270.223 153.064 270 153.064C269.777 153.064 269.609 153.004 269.496 152.883C269.387 152.762 269.332 152.611 269.332 152.432ZM269.338 147.258C269.338 147.07 269.393 146.914 269.502 146.789C269.615 146.664 269.783 146.602 270.006 146.602C270.229 146.602 270.396 146.664 270.51 146.789C270.627 146.914 270.686 147.07 270.686 147.258C270.686 147.438 270.627 147.588 270.51 147.709C270.396 147.83 270.229 147.891 270.006 147.891C269.783 147.891 269.615 147.83 269.502 147.709C269.393 147.588 269.338 147.438 269.338 147.258Z" fill="#9F9E97"/>
<path d="M277.752 153H272.162V152.221L275.115 148.939C275.553 148.443 275.854 148.041 276.018 147.732C276.186 147.42 276.27 147.098 276.27 146.766C276.27 146.32 276.135 145.955 275.865 145.67C275.596 145.385 275.236 145.242 274.787 145.242C274.248 145.242 273.828 145.396 273.527 145.705C273.23 146.01 273.082 146.436 273.082 146.982H271.998C271.998 146.197 272.25 145.562 272.754 145.078C273.262 144.594 273.939 144.352 274.787 144.352C275.58 144.352 276.207 144.561 276.668 144.979C277.129 145.393 277.359 145.945 277.359 146.637C277.359 147.477 276.824 148.477 275.754 149.637L273.469 152.115H277.752V153Z" fill="#9F9E97"/>
<path d="M279.398 148.723L279.832 144.469H284.203V145.471H280.752L280.494 147.797C280.912 147.551 281.387 147.428 281.918 147.428C282.695 147.428 283.312 147.686 283.77 148.201C284.227 148.713 284.455 149.406 284.455 150.281C284.455 151.16 284.217 151.854 283.74 152.361C283.268 152.865 282.605 153.117 281.754 153.117C281 153.117 280.385 152.908 279.908 152.49C279.432 152.072 279.16 151.494 279.094 150.756H280.119C280.186 151.244 280.359 151.613 280.641 151.863C280.922 152.109 281.293 152.232 281.754 152.232C282.258 152.232 282.652 152.061 282.938 151.717C283.227 151.373 283.371 150.898 283.371 150.293C283.371 149.723 283.215 149.266 282.902 148.922C282.594 148.574 282.182 148.4 281.666 148.4C281.193 148.4 280.822 148.504 280.553 148.711L280.266 148.945L279.398 148.723Z" fill="#9F9E97"/>
<path d="M137.342 169H136.252V161.775L134.066 162.578V161.594L137.172 160.428H137.342V169Z" fill="#9F9E97"/>
<path d="M146.107 169H140.518V168.221L143.471 164.939C143.908 164.443 144.209 164.041 144.373 163.732C144.541 163.42 144.625 163.098 144.625 162.766C144.625 162.32 144.49 161.955 144.221 161.67C143.951 161.385 143.592 161.242 143.143 161.242C142.604 161.242 142.184 161.396 141.883 161.705C141.586 162.01 141.438 162.436 141.438 162.982H140.354C140.354 162.197 140.605 161.562 141.109 161.078C141.617 160.594 142.295 160.352 143.143 160.352C143.936 160.352 144.562 160.561 145.023 160.979C145.484 161.393 145.715 161.945 145.715 162.637C145.715 163.477 145.18 164.477 144.109 165.637L141.824 168.115H146.107V169Z" fill="#9F9E97"/>
<path d="M147.332 168.432C147.332 168.244 147.387 168.088 147.496 167.963C147.609 167.838 147.777 167.775 148 167.775C148.223 167.775 148.391 167.838 148.504 167.963C148.621 168.088 148.68 168.244 148.68 168.432C148.68 168.611 148.621 168.762 148.504 168.883C148.391 169.004 148.223 169.064 148 169.064C147.777 169.064 147.609 169.004 147.496 168.883C147.387 168.762 147.332 168.611 147.332 168.432ZM147.338 163.258C147.338 163.07 147.393 162.914 147.502 162.789C147.615 162.664 147.783 162.602 148.006 162.602C148.229 162.602 148.396 162.664 148.51 162.789C148.627 162.914 148.686 163.07 148.686 163.258C148.686 163.438 148.627 163.588 148.51 163.709C148.396 163.83 148.229 163.891 148.006 163.891C147.783 163.891 147.615 163.83 147.502 163.709C147.393 163.588 147.338 163.438 147.338 163.258Z" fill="#9F9E97"/>
<path d="M153.725 169H152.635V161.775L150.449 162.578V161.594L153.555 160.428H153.725V169Z" fill="#9F9E97"/>
<path d="M162.25 165.361C162.25 166.631 162.033 167.574 161.6 168.191C161.166 168.809 160.488 169.117 159.566 169.117C158.656 169.117 157.982 168.816 157.545 168.215C157.107 167.609 156.881 166.707 156.865 165.508V164.061C156.865 162.807 157.082 161.875 157.516 161.266C157.949 160.656 158.629 160.352 159.555 160.352C160.473 160.352 161.148 160.646 161.582 161.236C162.016 161.822 162.238 162.729 162.25 163.955V165.361ZM161.166 163.879C161.166 162.961 161.037 162.293 160.779 161.875C160.521 161.453 160.113 161.242 159.555 161.242C159 161.242 158.596 161.451 158.342 161.869C158.088 162.287 157.957 162.93 157.949 163.797V165.531C157.949 166.453 158.082 167.135 158.348 167.576C158.617 168.014 159.023 168.232 159.566 168.232C160.102 168.232 160.498 168.025 160.756 167.611C161.018 167.197 161.154 166.545 161.166 165.654V163.879Z" fill="#9F9E97"/>
<circle cx="61.5" cy="262.5" r="7.5" fill="#647CC1"/>
<circle cx="180.5" cy="224.5" r="7.5" fill="#29B96F"/>
<circle cx="240.5" cy="104.5" r="7.5" fill="#E55E4E"/>
</svg>
