<svg width="510" height="360" viewBox="0 0 510 360" fill="none" xmlns="http://www.w3.org/2000/svg">
<rect width="510" height="360" fill="white"/>
<circle cx="253.993" cy="95.3527" r="9.99346" fill="white" stroke="#9F9E97"/>
<line x1="253.493" y1="179.998" x2="253.843" y2="105.844" stroke="#9F9E97"/>
<circle cx="253.993" cy="264.647" r="9.99346" transform="rotate(-180 253.993 264.647)" fill="white" stroke="#9F9E97"/>
<line x1="254.493" y1="180.002" x2="254.143" y2="254.156" stroke="#9F9E97"/>
<circle cx="170.045" cy="180" r="9.99346" transform="rotate(-90 170.045 180)" fill="white" stroke="#9F9E97"/>
<line x1="254.69" y1="180.5" x2="180.536" y2="180.15" stroke="#9F9E97"/>
<circle cx="339.34" cy="180" r="9.99346" transform="rotate(90 339.34 180)" fill="white" stroke="#9F9E97"/>
<line x1="254.695" y1="179.5" x2="328.849" y2="179.85" stroke="#9F9E97"/>
<circle cx="193.98" cy="240.396" r="9.99346" transform="rotate(-135 193.98 240.396)" fill="white" stroke="#9F9E97"/>
<line x1="254.186" y1="180.896" x2="201.504" y2="233.083" stroke="#9F9E97"/>
<circle r="9.99346" transform="matrix(0.707107 -0.707107 -0.707107 -0.707107 313.689 240.396)" fill="white" stroke="#9F9E97"/>
<line y1="-0.5" x2="74.1546" y2="-0.5" transform="matrix(0.710434 0.703764 0.703764 -0.710434 253.834 180.541)" stroke="#9F9E97"/>
<circle r="9.99346" transform="matrix(-0.707107 0.707107 0.707107 0.707107 193.98 120.686)" fill="white" stroke="#9F9E97"/>
<line y1="-0.5" x2="74.1546" y2="-0.5" transform="matrix(-0.710434 -0.703764 -0.703764 0.710434 253.834 180.541)" stroke="#9F9E97"/>
<circle cx="221.653" cy="102.064" r="9.99346" transform="rotate(-22.5 221.653 102.064)" fill="white" stroke="#9F9E97"/>
<line x1="253.583" y1="180.457" x2="225.529" y2="111.814" stroke="#9F9E97"/>
<circle cx="286.44" cy="258.472" r="9.99346" transform="rotate(157.5 286.44 258.472)" fill="white" stroke="#9F9E97"/>
<line x1="254.509" y1="180.079" x2="282.563" y2="248.722" stroke="#9F9E97"/>
<circle cx="176.489" cy="212.393" r="9.99346" transform="rotate(-112.5 176.489 212.393)" fill="white" stroke="#9F9E97"/>
<line x1="254.882" y1="180.463" x2="186.239" y2="208.517" stroke="#9F9E97"/>
<circle cx="332.897" cy="147.607" r="9.99346" transform="rotate(67.5 332.897 147.607)" fill="white" stroke="#9F9E97"/>
<line x1="254.503" y1="179.537" x2="323.147" y2="151.483" stroke="#9F9E97"/>
<circle cx="221.714" cy="259.032" r="9.99346" transform="rotate(-157.5 221.714 259.032)" fill="white" stroke="#9F9E97"/>
<line x1="254.568" y1="181.022" x2="225.867" y2="249.397" stroke="#9F9E97"/>
<circle cx="286.5" cy="102.624" r="9.99346" transform="rotate(22.5 286.5 102.624)" fill="white" stroke="#9F9E97"/>
<line x1="253.646" y1="180.635" x2="282.346" y2="112.259" stroke="#9F9E97"/>
<circle r="9.99346" transform="matrix(0.382683 -0.923879 -0.923879 -0.382683 332.311 213.221)" fill="white" stroke="#9F9E97"/>
<line y1="-0.5" x2="74.1546" y2="-0.5" transform="matrix(0.925674 0.378321 0.378321 -0.925674 254.107 180.828)" stroke="#9F9E97"/>
<circle r="9.99346" transform="matrix(-0.382683 0.92388 0.92388 0.382683 175.903 148.435)" fill="white" stroke="#9F9E97"/>
<line y1="-0.5" x2="74.1546" y2="-0.5" transform="matrix(-0.925674 -0.378321 -0.378321 0.925674 254.107 180.828)" stroke="#9F9E97"/>
<circle cx="339.026" cy="95.2132" r="14" transform="rotate(45 339.026 95.2132)" fill="white" stroke="#29B96F" stroke-width="2"/>
<line x1="253.114" y1="180.418" x2="328.421" y2="105.818" stroke="#29B96F"/>
<circle cx="253.693" cy="180" r="14" fill="white" stroke="#3A2F3C" stroke-width="2"/>
</svg>
