<svg width="360" height="360" viewBox="0 0 360 360" fill="none" xmlns="http://www.w3.org/2000/svg">
<rect width="360" height="360" fill="white"/>
<rect width="360" height="360" fill="white"/>
<rect x="231.5" y="240.5" width="30" height="29" rx="14.5" fill="white" stroke="#E55E4E"/>
<line x1="242" y1="255" x2="251" y2="255" stroke="#E55E4E"/>
<path d="M171 180V251.5C171 253.709 172.791 255.5 175 255.5H231" stroke="#E55E4E"/>
<path d="M171 180.5V109C171 106.791 172.791 105 175 105H231" stroke="#29B96F"/>
<line x1="171.5" y1="180.5" x2="109.5" y2="180.5" stroke="#29B96F"/>
<rect x="231.5" y="90.5" width="30" height="29" rx="14.5" fill="white" stroke="#29B96F"/>
<line x1="242" y1="105" x2="251" y2="105" stroke="#29B96F"/>
<line x1="246.5" y1="109.6" x2="246.5" y2="100.6" stroke="#29B96F"/>
<rect x="155.5" y="128.5" width="30" height="29" rx="14.5" fill="white" stroke="#29B96F"/>
<line x1="164.854" y1="142.646" x2="169.854" y2="147.646" stroke="#29B96F"/>
<line x1="175.929" y1="138.257" x2="169.929" y2="148.257" stroke="#29B96F"/>
<circle cx="96" cy="180" r="14" fill="white" stroke="#656160" stroke-width="2"/>
</svg>
