<svg width="360" height="360" viewBox="0 0 360 360" fill="none" xmlns="http://www.w3.org/2000/svg">
<g clip-path="url(#clip0)">
<rect width="360" height="360" fill="white"/>
<rect width="360" height="360" fill="white"/>
<rect width="100.515" height="100.515" transform="matrix(0.844179 -0.536062 0.844179 0.536062 122.574 105.824)" fill="white"/>
<rect x="-0.844179" width="101.515" height="101.515" transform="matrix(0.844179 -0.536062 0.844179 0.536062 122.442 105.371)" stroke="#9F9E97"/>
<rect width="100.515" height="100.515" transform="matrix(0.844179 -0.536062 0.844179 0.536062 334.706 240.529)" fill="white"/>
<rect x="0.844179" width="99.5152" height="99.5152" transform="matrix(0.844179 -0.536062 0.844179 0.536062 334.837 240.982)" stroke="#9F9E97"/>
<rect width="100.515" height="100.515" transform="matrix(0.844179 -0.536062 0.844179 0.536062 228.64 334.824)" fill="white"/>
<rect x="0.844179" width="99.5152" height="99.5152" transform="matrix(0.844179 -0.536062 0.844179 0.536062 228.771 335.276)" stroke="#9F9E97"/>
<rect width="100.515" height="100.515" transform="matrix(0.844179 -0.536062 0.844179 0.536062 249.853 213.588)" fill="white"/>
<rect x="-0.844179" width="101.515" height="101.515" transform="matrix(0.844179 -0.536062 0.844179 0.536062 249.721 213.136)" stroke="#9F9E97"/>
<rect width="100.515" height="100.515" transform="matrix(0.844179 -0.536062 0.844179 0.536062 135.302 328.537)" fill="white"/>
<rect x="0.844179" width="99.5152" height="99.5152" transform="matrix(0.844179 -0.536062 0.844179 0.536062 135.433 328.99)" stroke="#9F9E97"/>
<rect width="100.515" height="100.515" transform="matrix(0.844179 -0.536062 0.844179 0.536062 16.5076 388.706)" fill="white"/>
<rect x="-0.844179" width="101.515" height="101.515" transform="matrix(0.844179 -0.536062 0.844179 0.536062 16.376 388.253)" stroke="#9F9E97"/>
<rect width="100.515" height="100.515" transform="matrix(0.844179 -0.536062 0.844179 0.536062 -25.2117 172.727)" fill="white"/>
<rect x="0.844179" width="99.5152" height="99.5152" transform="matrix(0.844179 -0.536062 0.844179 0.536062 -25.0802 173.18)" stroke="#9F9E97"/>
<rect width="100.515" height="100.515" transform="matrix(0.844179 -0.536062 0.844179 0.536062 143.787 227.059)" fill="white"/>
<rect x="0.844179" width="99.5152" height="99.5152" transform="matrix(0.844179 -0.536062 0.844179 0.536062 143.918 227.511)" stroke="#9F9E97"/>
<rect width="100.515" height="100.515" transform="matrix(0.844179 -0.536062 0.844179 0.536062 54.6913 202.812)" fill="white"/>
<rect x="0.844179" width="99.5152" height="99.5152" transform="matrix(0.844179 -0.536062 0.844179 0.536062 54.8229 203.264)" stroke="#9F9E97"/>
<rect width="100.515" height="100.515" transform="matrix(0.844179 -0.536062 0.844179 0.536062 101.36 280.941)" fill="white"/>
<rect x="0.844179" width="99.5152" height="99.5152" transform="matrix(0.844179 -0.536062 0.844179 0.536062 101.492 281.394)" stroke="#9F9E97"/>
<rect width="100.515" height="100.515" transform="matrix(0.844179 -0.536062 0.844179 0.536062 -67.6381 307.433)" fill="white"/>
<rect x="0.844179" width="99.5152" height="99.5152" transform="matrix(0.844179 -0.536062 0.844179 0.536062 -67.5066 307.886)" stroke="#9F9E97"/>
<rect width="100.515" height="100.515" transform="matrix(0.844179 -0.536062 0.844179 0.536062 -4.70561 213.588)" fill="white"/>
<rect x="0.844179" width="99.5152" height="99.5152" transform="matrix(0.844179 -0.536062 0.844179 0.536062 -4.57407 214.041)" stroke="#9F9E97"/>
<rect width="100.515" height="100.515" transform="matrix(0.844179 -0.536062 0.844179 0.536062 -89.7868 -1.47058)" fill="white"/>
<rect x="0.844179" width="99.5152" height="99.5152" transform="matrix(0.844179 -0.536062 0.844179 0.536062 -89.6553 -1.01805)" stroke="#9F9E97"/>
<rect width="100.515" height="100.515" transform="matrix(0.844179 -0.536062 0.844179 0.536062 313.264 92.8235)" fill="white"/>
<rect x="0.844179" width="99.5152" height="99.5152" transform="matrix(0.844179 -0.536062 0.844179 0.536062 313.396 93.276)" stroke="#9F9E97"/>
<rect width="100.515" height="100.515" transform="matrix(0.844179 -0.536062 0.844179 0.536062 334.477 -28.4118)" fill="white"/>
<rect x="-0.844179" width="101.515" height="101.515" transform="matrix(0.844179 -0.536062 0.844179 0.536062 334.346 -28.8643)" stroke="#9F9E97"/>
<rect width="100.515" height="100.515" transform="matrix(0.844179 -0.536062 0.844179 0.536062 219.926 86.5373)" fill="white"/>
<rect x="0.844179" width="99.5152" height="99.5152" transform="matrix(0.844179 -0.536062 0.844179 0.536062 220.058 86.9898)" stroke="#9F9E97"/>
<rect width="100.515" height="100.515" transform="matrix(0.844179 -0.536062 0.844179 0.536062 101.132 146.706)" fill="white"/>
<rect x="-0.844179" width="101.515" height="101.515" transform="matrix(0.844179 -0.536062 0.844179 0.536062 101 146.253)" stroke="#9F9E97"/>
<rect width="100.515" height="100.515" transform="matrix(0.844179 -0.536062 0.844179 0.536062 228.411 -14.9412)" fill="white"/>
<rect x="0.844179" width="99.5152" height="99.5152" transform="matrix(0.844179 -0.536062 0.844179 0.536062 228.543 -14.4886)" stroke="#9F9E97"/>
<rect width="100.515" height="100.515" transform="matrix(0.844179 -0.536062 0.844179 0.536062 139.316 -39.1882)" fill="white"/>
<rect x="0.844179" width="99.5152" height="99.5152" transform="matrix(0.844179 -0.536062 0.844179 0.536062 139.447 -38.7357)" stroke="#9F9E97"/>
<rect width="100.515" height="100.515" transform="matrix(0.844179 -0.536062 0.844179 0.536062 185.985 38.9412)" fill="white"/>
<rect x="0.844179" width="99.5152" height="99.5152" transform="matrix(0.844179 -0.536062 0.844179 0.536062 186.116 39.3937)" stroke="#9F9E97"/>
<rect width="100.515" height="100.515" transform="matrix(0.844179 -0.536062 0.844179 0.536062 16.9863 65.4333)" fill="white"/>
<rect x="0.844179" width="99.5152" height="99.5152" transform="matrix(0.844179 -0.536062 0.844179 0.536062 17.1179 65.8859)" stroke="#9F9E97"/>
<rect width="100.515" height="100.515" transform="matrix(0.844179 -0.536062 0.844179 0.536062 79.9188 -28.4118)" fill="white"/>
<rect x="0.844179" width="99.5152" height="99.5152" transform="matrix(0.844179 -0.536062 0.844179 0.536062 80.0504 -27.9592)" stroke="#9F9E97"/>
<rect x="120" y="120" width="120" height="120" fill="white"/>
<ellipse cx="180" cy="145.6" rx="12" ry="12" fill="#647CC1"/>
<mask id="path-48-inside-1" fill="white">
<path fill-rule="evenodd" clip-rule="evenodd" d="M200.865 240L180.4 154.535L159.935 240H200.865Z"/>
</mask>
<path d="M180.4 154.535L181.373 154.302H179.427L180.4 154.535ZM200.865 240V241H202.133L201.838 239.767L200.865 240ZM159.935 240L158.962 239.767L158.667 241H159.935V240ZM179.427 154.768L199.893 240.233L201.838 239.767L181.373 154.302L179.427 154.768ZM160.907 240.233L181.373 154.768L179.427 154.302L158.962 239.767L160.907 240.233ZM159.935 241H200.865V239H159.935V241Z" fill="#3A2F3C" mask="url(#path-48-inside-1)"/>
<rect x="120.5" y="120.5" width="119" height="119" stroke="#9F9E97"/>
</g>
<defs>
<clipPath id="clip0">
<rect width="360" height="360" fill="white"/>
</clipPath>
</defs>
</svg>
