<svg width="360" height="360" viewBox="0 0 360 360" fill="none" xmlns="http://www.w3.org/2000/svg">
<rect width="360" height="360" fill="white"/>
<rect width="360" height="360" fill="white"/>
<rect x="45" y="120" width="120" height="120" fill="white"/>
<circle cx="117" cy="144" r="12" fill="#E55E4E"/>
<path d="M45.8 228.4L90.8742 182.575C92.4697 180.952 95.0951 180.986 96.6486 182.648L113.775 200.977C115.319 202.63 117.926 202.674 119.526 201.074L164.6 156" stroke="#3A2F3C"/>
<rect x="45.5" y="120.5" width="119" height="119" stroke="#9F9E97"/>
<path d="M51.6953 271.232H48.1152V275H46.9902V266.469H52.2754V267.395H48.1152V270.312H51.6953V271.232Z" fill="#3A2F3C"/>
<path d="M54.9909 275H53.9069V268.66H54.9909V275ZM53.819 266.979C53.819 266.803 53.8717 266.654 53.9772 266.533C54.0866 266.412 54.2467 266.352 54.4577 266.352C54.6686 266.352 54.8288 266.412 54.9381 266.533C55.0475 266.654 55.1022 266.803 55.1022 266.979C55.1022 267.154 55.0475 267.301 54.9381 267.418C54.8288 267.535 54.6686 267.594 54.4577 267.594C54.2467 267.594 54.0866 267.535 53.9772 267.418C53.8717 267.301 53.819 267.154 53.819 266.979Z" fill="#3A2F3C"/>
<path d="M58.1165 268.66L58.1516 269.457C58.636 268.848 59.2688 268.543 60.0501 268.543C61.3899 268.543 62.0657 269.299 62.0774 270.811V275H60.9934V270.805C60.9895 270.348 60.8841 270.01 60.677 269.791C60.4739 269.572 60.1555 269.463 59.722 269.463C59.3704 269.463 59.0618 269.557 58.7962 269.744C58.5305 269.932 58.3235 270.178 58.1751 270.482V275H57.0911V268.66H58.1165Z" fill="#3A2F3C"/>
<path d="M63.8085 271.777C63.8085 270.805 64.039 270.023 64.4999 269.434C64.9609 268.84 65.5644 268.543 66.3105 268.543C67.0527 268.543 67.6405 268.797 68.0741 269.305V266H69.1581V275H68.162L68.1093 274.32C67.6757 274.852 67.0722 275.117 66.2987 275.117C65.5644 275.117 64.9648 274.816 64.4999 274.215C64.039 273.613 63.8085 272.828 63.8085 271.859V271.777ZM64.8925 271.9C64.8925 272.619 65.0409 273.182 65.3378 273.588C65.6347 273.994 66.0448 274.197 66.5683 274.197C67.2558 274.197 67.7577 273.889 68.0741 273.271V270.359C67.7499 269.762 67.2519 269.463 66.58 269.463C66.0487 269.463 65.6347 269.668 65.3378 270.078C65.0409 270.488 64.8925 271.096 64.8925 271.9Z" fill="#3A2F3C"/>
<path d="M75.5617 268.66L75.591 269.363C76.0559 268.816 76.6828 268.543 77.4719 268.543C78.3586 268.543 78.9621 268.883 79.2824 269.562C79.4934 269.258 79.7668 269.012 80.1027 268.824C80.4426 268.637 80.843 268.543 81.3039 268.543C82.6945 268.543 83.4016 269.279 83.425 270.752V275H82.341V270.816C82.341 270.363 82.2375 270.025 82.0305 269.803C81.8234 269.576 81.4758 269.463 80.9875 269.463C80.5852 269.463 80.2512 269.584 79.9855 269.826C79.7199 270.064 79.5656 270.387 79.5227 270.793V275H78.4328V270.846C78.4328 269.924 77.9816 269.463 77.0793 269.463C76.3684 269.463 75.882 269.766 75.6203 270.371V275H74.5363V268.66H75.5617Z" fill="#3A2F3C"/>
<path d="M85.1385 271.771C85.1385 271.15 85.2596 270.592 85.5018 270.096C85.7479 269.6 86.0877 269.217 86.5213 268.947C86.9588 268.678 87.4569 268.543 88.0155 268.543C88.8787 268.543 89.576 268.842 90.1073 269.439C90.6424 270.037 90.91 270.832 90.91 271.824V271.9C90.91 272.518 90.7909 273.072 90.5526 273.564C90.3182 274.053 89.9803 274.434 89.5389 274.707C89.1014 274.98 88.5975 275.117 88.0272 275.117C87.1678 275.117 86.4705 274.818 85.9354 274.221C85.4041 273.623 85.1385 272.832 85.1385 271.848V271.771ZM86.2284 271.9C86.2284 272.604 86.3905 273.168 86.7147 273.594C87.0428 274.02 87.4803 274.232 88.0272 274.232C88.578 274.232 89.0155 274.018 89.3397 273.588C89.6639 273.154 89.826 272.549 89.826 271.771C89.826 271.076 89.66 270.514 89.328 270.084C88.9998 269.65 88.5623 269.434 88.0155 269.434C87.4803 269.434 87.0487 269.646 86.7205 270.072C86.3924 270.498 86.2284 271.107 86.2284 271.9Z" fill="#3A2F3C"/>
<path d="M95.6938 269.633C95.5298 269.605 95.352 269.592 95.1606 269.592C94.4497 269.592 93.9673 269.895 93.7134 270.5V275H92.6294V268.66H93.6841L93.7016 269.393C94.0571 268.826 94.561 268.543 95.2134 268.543C95.4243 268.543 95.5845 268.57 95.6938 268.625V269.633Z" fill="#3A2F3C"/>
<path d="M99.5695 275.117C98.7101 275.117 98.0109 274.836 97.4718 274.273C96.9327 273.707 96.6632 272.951 96.6632 272.006V271.807C96.6632 271.178 96.7823 270.617 97.0206 270.125C97.2628 269.629 97.5988 269.242 98.0284 268.965C98.462 268.684 98.9308 268.543 99.4347 268.543C100.259 268.543 100.9 268.814 101.357 269.357C101.814 269.9 102.042 270.678 102.042 271.689V272.141H97.7472C97.7628 272.766 97.9445 273.271 98.2921 273.658C98.6437 274.041 99.089 274.232 99.628 274.232C100.011 274.232 100.335 274.154 100.601 273.998C100.866 273.842 101.099 273.635 101.298 273.377L101.96 273.893C101.429 274.709 100.632 275.117 99.5695 275.117ZM99.4347 269.434C98.9972 269.434 98.63 269.594 98.3331 269.914C98.0363 270.23 97.8527 270.676 97.7823 271.25H100.958V271.168C100.927 270.617 100.778 270.191 100.513 269.891C100.247 269.586 99.8878 269.434 99.4347 269.434Z" fill="#3A2F3C"/>
<path d="M103.709 274.432C103.709 274.244 103.763 274.088 103.873 273.963C103.986 273.838 104.154 273.775 104.377 273.775C104.599 273.775 104.767 273.838 104.881 273.963C104.998 274.088 105.056 274.244 105.056 274.432C105.056 274.611 104.998 274.762 104.881 274.883C104.767 275.004 104.599 275.064 104.377 275.064C104.154 275.064 103.986 275.004 103.873 274.883C103.763 274.762 103.709 274.611 103.709 274.432ZM106.269 274.432C106.269 274.244 106.324 274.088 106.433 273.963C106.547 273.838 106.715 273.775 106.937 273.775C107.16 273.775 107.328 273.838 107.441 273.963C107.558 274.088 107.617 274.244 107.617 274.432C107.617 274.611 107.558 274.762 107.441 274.883C107.328 275.004 107.16 275.064 106.937 275.064C106.715 275.064 106.547 275.004 106.433 274.883C106.324 274.762 106.269 274.611 106.269 274.432ZM108.701 274.432C108.701 274.244 108.756 274.088 108.865 273.963C108.978 273.838 109.146 273.775 109.369 273.775C109.592 273.775 109.76 273.838 109.873 273.963C109.99 274.088 110.049 274.244 110.049 274.432C110.049 274.611 109.99 274.762 109.873 274.883C109.76 275.004 109.592 275.064 109.369 275.064C109.146 275.064 108.978 275.004 108.865 274.883C108.756 274.762 108.701 274.611 108.701 274.432Z" fill="#3A2F3C"/>
<path d="M215.712 199.39H222.787V201H213.733V186.07H215.712V199.39Z" fill="#3A2F3C"/>
<path d="M231.585 201C231.476 200.781 231.387 200.392 231.318 199.831C230.437 200.747 229.384 201.205 228.16 201.205C227.066 201.205 226.167 200.897 225.463 200.282C224.766 199.66 224.417 198.874 224.417 197.924C224.417 196.769 224.855 195.873 225.73 195.237C226.612 194.595 227.849 194.273 229.442 194.273H231.288V193.402C231.288 192.739 231.089 192.212 230.693 191.823C230.296 191.426 229.712 191.228 228.939 191.228C228.263 191.228 227.695 191.399 227.237 191.741C226.779 192.083 226.55 192.496 226.55 192.981H224.643C224.643 192.428 224.838 191.895 225.228 191.382C225.624 190.862 226.157 190.452 226.827 190.151C227.504 189.851 228.246 189.7 229.052 189.7C230.331 189.7 231.332 190.021 232.057 190.664C232.781 191.3 233.157 192.178 233.185 193.299V198.406C233.185 199.424 233.314 200.234 233.574 200.836V201H231.585ZM228.437 199.554C229.032 199.554 229.596 199.4 230.129 199.093C230.662 198.785 231.048 198.385 231.288 197.893V195.617H229.801C227.477 195.617 226.314 196.297 226.314 197.657C226.314 198.252 226.513 198.717 226.909 199.052C227.306 199.387 227.815 199.554 228.437 199.554Z" fill="#3A2F3C"/>
<path d="M237.953 189.905L238.014 191.3C238.862 190.233 239.969 189.7 241.336 189.7C243.681 189.7 244.864 191.023 244.884 193.668V201H242.987V193.658C242.98 192.858 242.796 192.267 242.434 191.884C242.078 191.501 241.521 191.31 240.762 191.31C240.147 191.31 239.607 191.474 239.142 191.802C238.677 192.13 238.315 192.561 238.055 193.094V201H236.158V189.905H237.953Z" fill="#3A2F3C"/>
<path d="M247.284 195.36C247.284 193.658 247.687 192.291 248.494 191.259C249.3 190.22 250.356 189.7 251.662 189.7C252.961 189.7 253.99 190.145 254.749 191.033V185.25H256.646V201H254.902L254.81 199.811C254.051 200.74 252.995 201.205 251.642 201.205C250.356 201.205 249.307 200.679 248.494 199.626C247.687 198.573 247.284 197.199 247.284 195.504V195.36ZM249.181 195.576C249.181 196.833 249.44 197.818 249.96 198.529C250.479 199.24 251.197 199.595 252.113 199.595C253.316 199.595 254.195 199.055 254.749 197.975V192.879C254.181 191.833 253.31 191.31 252.134 191.31C251.204 191.31 250.479 191.669 249.96 192.387C249.44 193.104 249.181 194.167 249.181 195.576Z" fill="#3A2F3C"/>
<path d="M266.059 198.057C266.059 197.544 265.864 197.148 265.474 196.868C265.091 196.581 264.418 196.334 263.454 196.129C262.497 195.924 261.735 195.678 261.167 195.391C260.607 195.104 260.19 194.762 259.917 194.366C259.65 193.969 259.517 193.498 259.517 192.951C259.517 192.042 259.899 191.272 260.665 190.644C261.438 190.015 262.422 189.7 263.618 189.7C264.876 189.7 265.895 190.025 266.674 190.674C267.46 191.324 267.853 192.154 267.853 193.166H265.946C265.946 192.646 265.724 192.199 265.279 191.823C264.842 191.447 264.288 191.259 263.618 191.259C262.928 191.259 262.388 191.409 261.998 191.71C261.608 192.011 261.414 192.404 261.414 192.889C261.414 193.347 261.595 193.692 261.957 193.925C262.319 194.157 262.972 194.379 263.916 194.591C264.866 194.803 265.635 195.056 266.223 195.35C266.811 195.644 267.245 196 267.525 196.417C267.812 196.827 267.956 197.329 267.956 197.924C267.956 198.915 267.559 199.711 266.766 200.313C265.973 200.908 264.944 201.205 263.68 201.205C262.791 201.205 262.005 201.048 261.321 200.733C260.638 200.419 260.101 199.981 259.711 199.421C259.329 198.854 259.137 198.242 259.137 197.585H261.034C261.068 198.221 261.321 198.727 261.793 199.103C262.271 199.472 262.9 199.657 263.68 199.657C264.397 199.657 264.972 199.513 265.402 199.226C265.84 198.932 266.059 198.542 266.059 198.057Z" fill="#3A2F3C"/>
<path d="M274.877 199.657C275.554 199.657 276.145 199.452 276.651 199.042C277.157 198.631 277.437 198.119 277.492 197.503H279.286C279.252 198.139 279.033 198.744 278.63 199.318C278.227 199.893 277.687 200.351 277.01 200.692C276.34 201.034 275.629 201.205 274.877 201.205C273.366 201.205 272.163 200.703 271.268 199.698C270.379 198.686 269.935 197.305 269.935 195.555V195.237C269.935 194.157 270.133 193.197 270.529 192.356C270.926 191.515 271.493 190.862 272.231 190.397C272.977 189.933 273.855 189.7 274.867 189.7C276.111 189.7 277.143 190.073 277.963 190.818C278.791 191.563 279.231 192.53 279.286 193.72H277.492C277.437 193.002 277.164 192.414 276.671 191.956C276.186 191.491 275.584 191.259 274.867 191.259C273.903 191.259 273.154 191.607 272.621 192.305C272.095 192.995 271.832 193.997 271.832 195.309V195.668C271.832 196.946 272.095 197.931 272.621 198.621C273.147 199.312 273.899 199.657 274.877 199.657Z" fill="#3A2F3C"/>
<path d="M288.269 201C288.159 200.781 288.07 200.392 288.002 199.831C287.12 200.747 286.067 201.205 284.844 201.205C283.75 201.205 282.851 200.897 282.147 200.282C281.45 199.66 281.101 198.874 281.101 197.924C281.101 196.769 281.539 195.873 282.414 195.237C283.295 194.595 284.533 194.273 286.125 194.273H287.971V193.402C287.971 192.739 287.773 192.212 287.376 191.823C286.98 191.426 286.396 191.228 285.623 191.228C284.946 191.228 284.379 191.399 283.921 191.741C283.463 192.083 283.234 192.496 283.234 192.981H281.327C281.327 192.428 281.521 191.895 281.911 191.382C282.308 190.862 282.841 190.452 283.511 190.151C284.188 189.851 284.929 189.7 285.736 189.7C287.014 189.7 288.016 190.021 288.74 190.664C289.465 191.3 289.841 192.178 289.868 193.299V198.406C289.868 199.424 289.998 200.234 290.258 200.836V201H288.269ZM285.121 199.554C285.715 199.554 286.279 199.4 286.812 199.093C287.346 198.785 287.732 198.385 287.971 197.893V195.617H286.484C284.16 195.617 282.998 196.297 282.998 197.657C282.998 198.252 283.196 198.717 283.593 199.052C283.989 199.387 284.499 199.554 285.121 199.554Z" fill="#3A2F3C"/>
<path d="M302.214 195.576C302.214 197.264 301.828 198.625 301.055 199.657C300.283 200.689 299.237 201.205 297.917 201.205C296.571 201.205 295.511 200.778 294.739 199.923V205.266H292.842V189.905H294.575L294.667 191.136C295.439 190.179 296.513 189.7 297.887 189.7C299.22 189.7 300.272 190.203 301.045 191.208C301.824 192.212 302.214 193.61 302.214 195.401V195.576ZM300.317 195.36C300.317 194.109 300.05 193.122 299.517 192.397C298.984 191.672 298.252 191.31 297.323 191.31C296.174 191.31 295.313 191.819 294.739 192.838V198.139C295.306 199.151 296.174 199.657 297.343 199.657C298.252 199.657 298.974 199.298 299.507 198.58C300.047 197.855 300.317 196.782 300.317 195.36Z" fill="#3A2F3C"/>
<path d="M309.238 201.205C307.734 201.205 306.51 200.713 305.567 199.729C304.624 198.737 304.152 197.415 304.152 195.76V195.412C304.152 194.311 304.36 193.33 304.777 192.469C305.201 191.601 305.789 190.924 306.541 190.438C307.3 189.946 308.12 189.7 309.002 189.7C310.444 189.7 311.565 190.175 312.365 191.125C313.165 192.076 313.565 193.436 313.565 195.207V195.996H306.049C306.076 197.09 306.394 197.975 307.002 198.652C307.618 199.322 308.397 199.657 309.34 199.657C310.01 199.657 310.578 199.52 311.042 199.247C311.507 198.973 311.914 198.611 312.263 198.16L313.421 199.062C312.492 200.491 311.097 201.205 309.238 201.205ZM309.002 191.259C308.236 191.259 307.594 191.539 307.074 192.1C306.555 192.653 306.233 193.433 306.11 194.438H311.668V194.294C311.613 193.33 311.354 192.585 310.889 192.059C310.424 191.525 309.795 191.259 309.002 191.259Z" fill="#3A2F3C"/>
<line x1="190.854" y1="194.646" x2="195.854" y2="199.646" stroke="#29B96F"/>
<line x1="201.929" y1="190.257" x2="195.929" y2="200.257" stroke="#29B96F"/>
<path d="M214.115 164.66V168H212.99V159.469H216.137C217.07 159.469 217.801 159.707 218.328 160.184C218.859 160.66 219.125 161.291 219.125 162.076C219.125 162.904 218.865 163.543 218.346 163.992C217.83 164.438 217.09 164.66 216.125 164.66H214.115ZM214.115 163.74H216.137C216.738 163.74 217.199 163.6 217.52 163.318C217.84 163.033 218 162.623 218 162.088C218 161.58 217.84 161.174 217.52 160.869C217.199 160.564 216.76 160.406 216.201 160.395H214.115V163.74Z" fill="#3A2F3C"/>
<path d="M220.021 164.771C220.021 164.15 220.143 163.592 220.385 163.096C220.631 162.6 220.971 162.217 221.404 161.947C221.842 161.678 222.34 161.543 222.898 161.543C223.762 161.543 224.459 161.842 224.99 162.439C225.525 163.037 225.793 163.832 225.793 164.824V164.9C225.793 165.518 225.674 166.072 225.436 166.564C225.201 167.053 224.863 167.434 224.422 167.707C223.984 167.98 223.48 168.117 222.91 168.117C222.051 168.117 221.354 167.818 220.818 167.221C220.287 166.623 220.021 165.832 220.021 164.848V164.771ZM221.111 164.9C221.111 165.604 221.273 166.168 221.598 166.594C221.926 167.02 222.363 167.232 222.91 167.232C223.461 167.232 223.898 167.018 224.223 166.588C224.547 166.154 224.709 165.549 224.709 164.771C224.709 164.076 224.543 163.514 224.211 163.084C223.883 162.65 223.445 162.434 222.898 162.434C222.363 162.434 221.932 162.646 221.604 163.072C221.275 163.498 221.111 164.107 221.111 164.9Z" fill="#3A2F3C"/>
<path d="M230.217 162.633C230.053 162.605 229.875 162.592 229.684 162.592C228.973 162.592 228.49 162.895 228.236 163.5V168H227.152V161.66H228.207L228.225 162.393C228.58 161.826 229.084 161.543 229.736 161.543C229.947 161.543 230.107 161.57 230.217 161.625V162.633Z" fill="#3A2F3C"/>
<path d="M232.982 160.125V161.66H234.166V162.498H232.982V166.43C232.982 166.684 233.035 166.875 233.141 167.004C233.246 167.129 233.426 167.191 233.68 167.191C233.805 167.191 233.977 167.168 234.195 167.121V168C233.91 168.078 233.633 168.117 233.363 168.117C232.879 168.117 232.514 167.971 232.268 167.678C232.021 167.385 231.898 166.969 231.898 166.43V162.498H230.744V161.66H231.898V160.125H232.982Z" fill="#3A2F3C"/>
<path d="M238.502 162.633C238.338 162.605 238.16 162.592 237.969 162.592C237.258 162.592 236.775 162.895 236.521 163.5V168H235.438V161.66H236.492L236.51 162.393C236.865 161.826 237.369 161.543 238.021 161.543C238.232 161.543 238.393 161.57 238.502 161.625V162.633Z" fill="#3A2F3C"/>
<path d="M243.184 168C243.121 167.875 243.07 167.652 243.031 167.332C242.527 167.855 241.926 168.117 241.227 168.117C240.602 168.117 240.088 167.941 239.686 167.59C239.287 167.234 239.088 166.785 239.088 166.242C239.088 165.582 239.338 165.07 239.838 164.707C240.342 164.34 241.049 164.156 241.959 164.156H243.014V163.658C243.014 163.279 242.9 162.979 242.674 162.756C242.447 162.529 242.113 162.416 241.672 162.416C241.285 162.416 240.961 162.514 240.699 162.709C240.438 162.904 240.307 163.141 240.307 163.418H239.217C239.217 163.102 239.328 162.797 239.551 162.504C239.777 162.207 240.082 161.973 240.465 161.801C240.852 161.629 241.275 161.543 241.736 161.543C242.467 161.543 243.039 161.727 243.453 162.094C243.867 162.457 244.082 162.959 244.098 163.6V166.518C244.098 167.1 244.172 167.562 244.32 167.906V168H243.184ZM241.385 167.174C241.725 167.174 242.047 167.086 242.352 166.91C242.656 166.734 242.877 166.506 243.014 166.225V164.924H242.164C240.836 164.924 240.172 165.312 240.172 166.09C240.172 166.43 240.285 166.695 240.512 166.887C240.738 167.078 241.029 167.174 241.385 167.174Z" fill="#3A2F3C"/>
<path d="M246.975 168H245.891V161.66H246.975V168ZM245.803 159.979C245.803 159.803 245.855 159.654 245.961 159.533C246.07 159.412 246.23 159.352 246.441 159.352C246.652 159.352 246.812 159.412 246.922 159.533C247.031 159.654 247.086 159.803 247.086 159.979C247.086 160.154 247.031 160.301 246.922 160.418C246.812 160.535 246.652 160.594 246.441 160.594C246.23 160.594 246.07 160.535 245.961 160.418C245.855 160.301 245.803 160.154 245.803 159.979Z" fill="#3A2F3C"/>
<path d="M250.186 160.125V161.66H251.369V162.498H250.186V166.43C250.186 166.684 250.238 166.875 250.344 167.004C250.449 167.129 250.629 167.191 250.883 167.191C251.008 167.191 251.18 167.168 251.398 167.121V168C251.113 168.078 250.836 168.117 250.566 168.117C250.082 168.117 249.717 167.971 249.471 167.678C249.225 167.385 249.102 166.969 249.102 166.43V162.498H247.947V161.66H249.102V160.125H250.186Z" fill="#3A2F3C"/>
<line x1="192" y1="165" x2="201" y2="165" stroke="#E55E4E"/>
<rect x="150.5" y="105.5" width="30" height="29" rx="14.5" fill="white" stroke="#35C1B7"/>
<line x1="165.5" y1="122" x2="165.5" y2="113" stroke="#35C1B7"/>
<line x1="165.5" y1="126" x2="165.5" y2="125" stroke="#35C1B7"/>
</svg>
