<?xml version="1.0" encoding="utf-8"?>
<!-- Generator: Adobe Illustrator 23.0.4, SVG Export Plug-In . SVG Version: 6.00 Build 0)  -->
<svg version="1.1" id="Ebene_1" xmlns="http://www.w3.org/2000/svg" xmlns:xlink="http://www.w3.org/1999/xlink" x="0px" y="0px"
	 viewBox="0 0 360 360" style="enable-background:new 0 0 360 360;" xml:space="preserve">
<style type="text/css">
	.st0{fill:none;stroke:#29B96F;}
	.st1{fill:#FFFFFF;}
	.st2{fill:none;stroke:#E55E4E;}
	.st3{fill:#9F9E97;}
</style>
<rect x="139.5" y="156.5" class="st0" width="47" height="47"/>
<path class="st1" d="M97.5,180.6c-2.9-0.8-5-1.9-6.3-3.1c-1.3-1.2-2-2.7-2-4.5c0-2,0.8-3.7,2.4-5c1.6-1.3,3.7-2,6.3-2
	c1.8,0,3.3,0.3,4.7,1c1.4,0.7,2.4,1.6,3.2,2.8c0.8,1.2,1.1,2.5,1.1,3.9h-3.4c0-1.5-0.5-2.8-1.5-3.6c-1-0.9-2.4-1.3-4.2-1.3
	c-1.7,0-3,0.4-3.9,1.1c-0.9,0.7-1.4,1.7-1.4,3c0,1,0.4,1.9,1.3,2.7c0.9,0.7,2.4,1.4,4.5,2c2.1,0.6,3.8,1.3,5,2
	c1.2,0.7,2.1,1.6,2.7,2.5c0.6,1,0.9,2.1,0.9,3.4c0,2.1-0.8,3.7-2.4,5c-1.6,1.2-3.8,1.9-6.5,1.9c-1.8,0-3.4-0.3-4.9-1
	c-1.5-0.7-2.7-1.6-3.5-2.8c-0.8-1.2-1.2-2.5-1.2-4h3.4c0,1.5,0.6,2.8,1.7,3.7c1.1,0.9,2.7,1.3,4.6,1.3c1.8,0,3.1-0.4,4.1-1.1
	c0.9-0.7,1.4-1.7,1.4-3c0-1.3-0.4-2.2-1.3-2.9C101.4,181.9,99.8,181.3,97.5,180.6z"/>
<path class="st1" d="M115.2,168.4v4.6h3.6v2.5h-3.6v11.8c0,0.8,0.2,1.3,0.5,1.7c0.3,0.4,0.9,0.6,1.6,0.6c0.4,0,0.9-0.1,1.5-0.2v2.6
	c-0.9,0.2-1.7,0.4-2.5,0.4c-1.5,0-2.5-0.4-3.3-1.3c-0.7-0.9-1.1-2.1-1.1-3.7v-11.8h-3.5V173h3.5v-4.6H115.2z"/>
<path class="st1" d="M131.8,175.9c-0.5-0.1-1-0.1-1.6-0.1c-2.1,0-3.6,0.9-4.3,2.7V192h-3.3v-19h3.2l0.1,2.2c1.1-1.7,2.6-2.5,4.5-2.5
	c0.6,0,1.1,0.1,1.4,0.2V175.9z"/>
<path class="st1" d="M163.1,183.9c-0.3,2.7-1.3,4.8-3,6.3c-1.7,1.5-3.9,2.2-6.7,2.2c-3,0-5.4-1.1-7.3-3.3c-1.8-2.2-2.7-5.1-2.7-8.7
	v-2.5c0-2.4,0.4-4.5,1.3-6.3c0.9-1.8,2.1-3.2,3.6-4.1c1.6-1,3.4-1.5,5.4-1.5c2.7,0,4.9,0.8,6.5,2.3c1.6,1.5,2.6,3.6,2.9,6.3h-3.4
	c-0.3-2-0.9-3.5-1.9-4.4c-1-0.9-2.3-1.4-4.1-1.4c-2.2,0-3.8,0.8-5.1,2.4c-1.2,1.6-1.8,3.9-1.8,6.8v2.5c0,2.8,0.6,5,1.7,6.6
	c1.2,1.6,2.8,2.5,4.9,2.5c1.9,0,3.3-0.4,4.3-1.3c1-0.9,1.7-2.3,2-4.4H163.1z"/>
<path class="st1" d="M170.4,175.3c1.4-1.8,3.3-2.7,5.6-2.7c4,0,6,2.3,6.1,6.8V192h-3.3v-12.6c0-1.4-0.3-2.4-0.9-3
	c-0.6-0.7-1.6-1-2.9-1c-1.1,0-2,0.3-2.8,0.8c-0.8,0.6-1.4,1.3-1.9,2.2V192h-3.3v-27h3.3V175.3z"/>
<path class="st1" d="M205.5,192c-0.2-0.4-0.3-1-0.5-2c-1.5,1.6-3.3,2.4-5.4,2.4c-1.9,0-3.4-0.5-4.6-1.6c-1.2-1.1-1.8-2.4-1.8-4
	c0-2,0.8-3.5,2.2-4.6c1.5-1.1,3.6-1.7,6.4-1.7h3.2V179c0-1.1-0.3-2-1-2.7c-0.7-0.7-1.7-1-3-1c-1.2,0-2.1,0.3-2.9,0.9
	s-1.2,1.3-1.2,2.1h-3.3c0-0.9,0.3-1.9,1-2.7c0.7-0.9,1.6-1.6,2.7-2.1c1.2-0.5,2.4-0.8,3.8-0.8c2.2,0,3.9,0.6,5.1,1.7
	c1.2,1.1,1.9,2.6,1.9,4.5v8.8c0,1.7,0.2,3.1,0.7,4.2v0.3H205.5z M200.1,189.5c1,0,2-0.3,2.9-0.8c0.9-0.5,1.6-1.2,2-2.1v-3.9h-2.5
	c-4,0-6,1.2-6,3.5c0,1,0.3,1.8,1,2.4C198.2,189.2,199.1,189.5,200.1,189.5z"/>
<path class="st1" d="M216.4,173l0.1,2.4c1.5-1.8,3.4-2.7,5.7-2.7c4,0,6,2.3,6.1,6.8V192h-3.3v-12.6c0-1.4-0.3-2.4-0.9-3
	c-0.6-0.7-1.6-1-2.9-1c-1.1,0-2,0.3-2.8,0.8c-0.8,0.6-1.4,1.3-1.9,2.2V192h-3.3v-19H216.4z"/>
<path class="st1" d="M232.5,182.3c0-3,0.7-5.3,2.1-7.1c1.4-1.8,3.2-2.6,5.4-2.6c2.3,0,4.1,0.8,5.4,2.5l0.2-2.1h3v18.6
	c0,2.5-0.7,4.4-2.2,5.8c-1.5,1.4-3.4,2.1-5.9,2.1c-1.4,0-2.7-0.3-4-0.9c-1.3-0.6-2.3-1.4-3-2.4l1.7-2c1.4,1.7,3.1,2.6,5.1,2.6
	c1.6,0,2.8-0.4,3.7-1.3c0.9-0.9,1.3-2.1,1.3-3.8v-1.6c-1.3,1.5-3.1,2.2-5.3,2.2c-2.2,0-4-0.9-5.4-2.7
	C233.1,187.9,232.5,185.4,232.5,182.3z M235.7,182.7c0,2.1,0.4,3.8,1.3,5.1c0.9,1.2,2.1,1.8,3.7,1.8c2.1,0,3.6-0.9,4.5-2.8v-8.7
	c-1-1.8-2.5-2.7-4.5-2.7c-1.6,0-2.8,0.6-3.7,1.8C236.2,178.5,235.7,180.3,235.7,182.7z"/>
<path class="st1" d="M261.3,192.4c-2.6,0-4.7-0.8-6.3-2.5c-1.6-1.7-2.4-4-2.4-6.8v-0.6c0-1.9,0.4-3.6,1.1-5c0.7-1.5,1.7-2.6,3-3.5
	c1.3-0.8,2.7-1.3,4.2-1.3c2.5,0,4.4,0.8,5.8,2.4c1.4,1.6,2.1,4,2.1,7v1.4h-12.9c0,1.9,0.6,3.4,1.6,4.6c1.1,1.1,2.4,1.7,4,1.7
	c1.1,0,2.1-0.2,2.9-0.7c0.8-0.5,1.5-1.1,2.1-1.9l2,1.5C266.9,191.1,264.5,192.4,261.3,192.4z M260.9,175.3c-1.3,0-2.4,0.5-3.3,1.4
	c-0.9,0.9-1.4,2.3-1.7,4h9.5v-0.2c-0.1-1.7-0.5-2.9-1.3-3.8C263.4,175.8,262.3,175.3,260.9,175.3z"/>
<line class="st2" x1="83" y1="179.5" x2="135" y2="179.5"/>
<path class="st0" d="M163,105.5h1c8,0,14.5,6.5,14.5,14.5l0,0c0,8-6.5,14.5-14.5,14.5h-1c-8,0-14.5-6.5-14.5-14.5l0,0
	C148.5,112,155,105.5,163,105.5z"/>
<line class="st0" x1="159" y1="120" x2="168" y2="120"/>
<line class="st0" x1="163.5" y1="124.6" x2="163.5" y2="115.6"/>
<path class="st2" d="M109,225.5h1c8,0,14.5,6.5,14.5,14.5l0,0c0,8-6.5,14.5-14.5,14.5h-1c-8,0-14.5-6.5-14.5-14.5l0,0
	C94.5,232,101,225.5,109,225.5z"/>
<line class="st2" x1="105" y1="240" x2="114" y2="240"/>
<path class="st3" d="M114.3,124h-1.1v-7.2l-2.2,0.8v-1l3.1-1.2h0.2V124z"/>
<path class="st3" d="M123,124h-5.6v-0.8l3-3.3c0.4-0.5,0.7-0.9,0.9-1.2c0.2-0.3,0.3-0.6,0.3-1c0-0.4-0.1-0.8-0.4-1.1
	c-0.3-0.3-0.6-0.4-1.1-0.4c-0.5,0-1,0.2-1.3,0.5c-0.3,0.3-0.4,0.7-0.4,1.3h-1.1c0-0.8,0.3-1.4,0.8-1.9c0.5-0.5,1.2-0.7,2-0.7
	c0.8,0,1.4,0.2,1.9,0.6c0.5,0.4,0.7,1,0.7,1.7c0,0.8-0.5,1.8-1.6,3l-2.3,2.5h4.3V124z"/>
<path class="st3" d="M124.3,123.4c0-0.2,0.1-0.3,0.2-0.5c0.1-0.1,0.3-0.2,0.5-0.2c0.2,0,0.4,0.1,0.5,0.2c0.1,0.1,0.2,0.3,0.2,0.5
	c0,0.2-0.1,0.3-0.2,0.5c-0.1,0.1-0.3,0.2-0.5,0.2c-0.2,0-0.4-0.1-0.5-0.2C124.3,123.8,124.3,123.6,124.3,123.4z M124.3,118.3
	c0-0.2,0.1-0.3,0.2-0.5c0.1-0.1,0.3-0.2,0.5-0.2c0.2,0,0.4,0.1,0.5,0.2c0.1,0.1,0.2,0.3,0.2,0.5c0,0.2-0.1,0.3-0.2,0.5
	c-0.1,0.1-0.3,0.2-0.5,0.2c-0.2,0-0.4-0.1-0.5-0.2C124.3,118.6,124.3,118.4,124.3,118.3z"/>
<path class="st3" d="M130.7,124h-1.1v-7.2l-2.2,0.8v-1l3.1-1.2h0.2V124z"/>
<path class="st3" d="M134.3,119.7l0.4-4.3h4.4v1h-3.5l-0.3,2.3c0.4-0.2,0.9-0.4,1.4-0.4c0.8,0,1.4,0.3,1.9,0.8
	c0.5,0.5,0.7,1.2,0.7,2.1c0,0.9-0.2,1.6-0.7,2.1c-0.5,0.5-1.1,0.8-2,0.8c-0.8,0-1.4-0.2-1.8-0.6c-0.5-0.4-0.7-1-0.8-1.7h1
	c0.1,0.5,0.2,0.9,0.5,1.1c0.3,0.2,0.7,0.4,1.1,0.4c0.5,0,0.9-0.2,1.2-0.5c0.3-0.3,0.4-0.8,0.4-1.4c0-0.6-0.2-1-0.5-1.4
	c-0.3-0.3-0.7-0.5-1.2-0.5c-0.5,0-0.8,0.1-1.1,0.3l-0.3,0.2L134.3,119.7z"/>
<path class="st3" d="M60.3,244h-1.1v-7.2l-2.2,0.8v-1l3.1-1.2h0.2V244z"/>
<path class="st3" d="M69,244h-5.6v-0.8l3-3.3c0.4-0.5,0.7-0.9,0.9-1.2c0.2-0.3,0.3-0.6,0.3-1c0-0.4-0.1-0.8-0.4-1.1
	s-0.6-0.4-1.1-0.4c-0.5,0-1,0.2-1.3,0.5c-0.3,0.3-0.4,0.7-0.4,1.3h-1.1c0-0.8,0.3-1.4,0.8-1.9c0.5-0.5,1.2-0.7,2-0.7
	c0.8,0,1.4,0.2,1.9,0.6c0.5,0.4,0.7,1,0.7,1.7c0,0.8-0.5,1.8-1.6,3l-2.3,2.5H69V244z"/>
<path class="st3" d="M70.3,243.4c0-0.2,0.1-0.3,0.2-0.5c0.1-0.1,0.3-0.2,0.5-0.2c0.2,0,0.4,0.1,0.5,0.2c0.1,0.1,0.2,0.3,0.2,0.5
	c0,0.2-0.1,0.3-0.2,0.5c-0.1,0.1-0.3,0.2-0.5,0.2c-0.2,0-0.4-0.1-0.5-0.2C70.3,243.8,70.3,243.6,70.3,243.4z M70.3,238.3
	c0-0.2,0.1-0.3,0.2-0.5c0.1-0.1,0.3-0.2,0.5-0.2c0.2,0,0.4,0.1,0.5,0.2c0.1,0.1,0.2,0.3,0.2,0.5c0,0.2-0.1,0.3-0.2,0.5
	c-0.1,0.1-0.3,0.2-0.5,0.2c-0.2,0-0.4-0.1-0.5-0.2C70.3,238.6,70.3,238.4,70.3,238.3z"/>
<path class="st3" d="M76.7,244h-1.1v-7.2l-2.2,0.8v-1l3.1-1.2h0.2V244z"/>
<path class="st3" d="M84.4,241.1h1.2v0.9h-1.2v2h-1.1v-2h-3.9v-0.6l3.8-5.9h1.2V241.1z M80.7,241.1h2.7V237l-0.1,0.2L80.7,241.1z"/>
</svg>
