<?xml version="1.0" encoding="utf-8"?>
<!-- Generator: Adobe Illustrator 23.0.4, SVG Export Plug-In . SVG Version: 6.00 Build 0)  -->
<svg version="1.1" id="Ebene_1" xmlns="http://www.w3.org/2000/svg" xmlns:xlink="http://www.w3.org/1999/xlink" x="0px" y="0px"
	 viewBox="0 0 360 360" style="enable-background:new 0 0 360 360;" xml:space="preserve">
<style type="text/css">
	.st0{fill-rule:evenodd;clip-rule:evenodd;fill:#FFFFFF;filter:url(#Adobe_OpacityMaskFilter);}
	.st1{mask:url(#path-2-inside-1_1_);fill:#29B96F;}
	.st2{fill-rule:evenodd;clip-rule:evenodd;fill:#FFFFFF;filter:url(#Adobe_OpacityMaskFilter_1_);}
	.st3{mask:url(#path-4-inside-2_1_);fill:#647CC1;}
	.st4{fill:none;stroke:#29B96F;}
	.st5{fill:#4E618D;}
	.st6{fill:#29B96F;}
	.st7{fill:#9F9E97;}
	.st8{fill:#FFFFFF;}
	.st9{fill:none;stroke:#9F9E97;}
</style>
<defs>
	<filter id="Adobe_OpacityMaskFilter" filterUnits="userSpaceOnUse" x="89" y="89" width="122" height="73">
		<feColorMatrix  type="matrix" values="1 0 0 0 0  0 1 0 0 0  0 0 1 0 0  0 0 0 1 0"/>
	</filter>
</defs>
<mask maskUnits="userSpaceOnUse" x="89" y="89" width="122" height="73" id="path-2-inside-1_1_">
	<path class="st0" d="M94,90c-2.2,0-4,1.8-4,4v52c0,2.2,1.8,4,4,4h15.7l10.6,10.6l10.6-10.6H206c2.2,0,4-1.8,4-4V94c0-2.2-1.8-4-4-4
		H94z"/>
</mask>
<path class="st1" d="M109.7,150l0.7-0.7l-0.3-0.3h-0.4V150z M120.3,160.6l-0.7,0.7l0.7,0.7l0.7-0.7L120.3,160.6z M130.9,150v-1h-0.4
	l-0.3,0.3L130.9,150z M91,94c0-1.7,1.3-3,3-3v-2c-2.8,0-5,2.2-5,5H91z M91,146V94h-2v52H91z M94,149c-1.7,0-3-1.3-3-3h-2
	c0,2.8,2.2,5,5,5V149z M109.7,149H94v2h15.7V149z M121,159.9l-10.6-10.6l-1.4,1.4l10.6,10.6L121,159.9z M130.2,149.3l-10.6,10.6
	l1.4,1.4l10.6-10.6L130.2,149.3z M206,149h-75.1v2H206V149z M209,146c0,1.7-1.3,3-3,3v2c2.8,0,5-2.2,5-5H209z M209,94v52h2V94H209z
	 M206,91c1.7,0,3,1.3,3,3h2c0-2.8-2.2-5-5-5V91z M94,91h112v-2H94V91z"/>
<defs>
	<filter id="Adobe_OpacityMaskFilter_1_" filterUnits="userSpaceOnUse" x="149" y="179" width="122" height="73">
		<feColorMatrix  type="matrix" values="1 0 0 0 0  0 1 0 0 0  0 0 1 0 0  0 0 0 1 0"/>
	</filter>
</defs>
<mask maskUnits="userSpaceOnUse" x="149" y="179" width="122" height="73" id="path-4-inside-2_1_">
	<path class="st2" d="M266,180c2.2,0,4,1.8,4,4v52c0,2.2-1.8,4-4,4h-15.7l-10.6,10.6L229.1,240H154c-2.2,0-4-1.8-4-4v-52
		c0-2.2,1.8-4,4-4H266z"/>
</mask>
<path class="st3" d="M250.3,240l-0.7-0.7l0.3-0.3h0.4V240z M239.7,250.6l0.7,0.7l-0.7,0.7l-0.7-0.7L239.7,250.6z M229.1,240v-1h0.4
	l0.3,0.3L229.1,240z M269,184c0-1.7-1.3-3-3-3v-2c2.8,0,5,2.2,5,5H269z M269,236v-52h2v52H269z M266,239c1.7,0,3-1.3,3-3h2
	c0,2.8-2.2,5-5,5V239z M250.3,239H266v2h-15.7V239z M239,249.9l10.6-10.6l1.4,1.4l-10.6,10.6L239,249.9z M229.8,239.3l10.6,10.6
	l-1.4,1.4l-10.6-10.6L229.8,239.3z M154,239h75.1v2H154V239z M151,236c0,1.7,1.3,3,3,3v2c-2.8,0-5-2.2-5-5H151z M151,184v52h-2v-52
	H151z M154,181c-1.7,0-3,1.3-3,3h-2c0-2.8,2.2-5,5-5V181z M266,181H154v-2h112V181z"/>
<path class="st4" d="M179,270.5h1c8,0,14.5,6.5,14.5,14.5l0,0c0,8-6.5,14.5-14.5,14.5h-1c-8,0-14.5-6.5-14.5-14.5l0,0
	C164.5,277,171,270.5,179,270.5z"/>
<line class="st4" x1="173.9" y1="284.6" x2="178.9" y2="289.6"/>
<line class="st4" x1="184.9" y1="280.3" x2="178.9" y2="290.3"/>
<circle class="st5" cx="239.5" cy="262.5" r="7.5"/>
<circle class="st6" cx="120.5" cy="172.5" r="7.5"/>
<path class="st7" d="M257.3,267h-1.1v-7.2l-2.2,0.8v-1l3.1-1.2h0.2V267z"/>
<path class="st7" d="M266,267h-5.6v-0.8l3-3.3c0.4-0.5,0.7-0.9,0.9-1.2c0.2-0.3,0.3-0.6,0.3-1c0-0.4-0.1-0.8-0.4-1.1
	c-0.3-0.3-0.6-0.4-1.1-0.4c-0.5,0-1,0.2-1.3,0.5c-0.3,0.3-0.4,0.7-0.4,1.3h-1.1c0-0.8,0.3-1.4,0.8-1.9c0.5-0.5,1.2-0.7,2-0.7
	c0.8,0,1.4,0.2,1.9,0.6c0.5,0.4,0.7,1,0.7,1.7c0,0.8-0.5,1.8-1.6,3l-2.3,2.5h4.3V267z"/>
<path class="st7" d="M267.3,266.4c0-0.2,0.1-0.3,0.2-0.5c0.1-0.1,0.3-0.2,0.5-0.2c0.2,0,0.4,0.1,0.5,0.2c0.1,0.1,0.2,0.3,0.2,0.5
	c0,0.2-0.1,0.3-0.2,0.5c-0.1,0.1-0.3,0.2-0.5,0.2c-0.2,0-0.4-0.1-0.5-0.2C267.3,266.8,267.3,266.6,267.3,266.4z M267.3,261.3
	c0-0.2,0.1-0.3,0.2-0.5c0.1-0.1,0.3-0.2,0.5-0.2c0.2,0,0.4,0.1,0.5,0.2c0.1,0.1,0.2,0.3,0.2,0.5c0,0.2-0.1,0.3-0.2,0.5
	c-0.1,0.1-0.3,0.2-0.5,0.2c-0.2,0-0.4-0.1-0.5-0.2C267.3,261.6,267.3,261.4,267.3,261.3z"/>
<path class="st7" d="M273.7,267h-1.1v-7.2l-2.2,0.8v-1l3.1-1.2h0.2V267z"/>
<path class="st7" d="M277.3,262.7l0.4-4.3h4.4v1h-3.5l-0.3,2.3c0.4-0.2,0.9-0.4,1.4-0.4c0.8,0,1.4,0.3,1.9,0.8
	c0.5,0.5,0.7,1.2,0.7,2.1c0,0.9-0.2,1.6-0.7,2.1c-0.5,0.5-1.1,0.8-2,0.8c-0.8,0-1.4-0.2-1.8-0.6c-0.5-0.4-0.7-1-0.8-1.7h1
	c0.1,0.5,0.2,0.9,0.5,1.1c0.3,0.2,0.7,0.4,1.1,0.4c0.5,0,0.9-0.2,1.2-0.5c0.3-0.3,0.4-0.8,0.4-1.4c0-0.6-0.2-1-0.5-1.4
	c-0.3-0.3-0.7-0.5-1.2-0.5c-0.5,0-0.8,0.1-1.1,0.3l-0.3,0.2L277.3,262.7z"/>
<path class="st7" d="M82.3,177h-1.1v-7.2l-2.2,0.8v-1l3.1-1.2h0.2V177z"/>
<path class="st7" d="M91,177h-5.6v-0.8l3-3.3c0.4-0.5,0.7-0.9,0.9-1.2c0.2-0.3,0.3-0.6,0.3-1c0-0.4-0.1-0.8-0.4-1.1
	s-0.6-0.4-1.1-0.4c-0.5,0-1,0.2-1.3,0.5c-0.3,0.3-0.4,0.7-0.4,1.3h-1.1c0-0.8,0.3-1.4,0.8-1.9c0.5-0.5,1.2-0.7,2-0.7
	c0.8,0,1.4,0.2,1.9,0.6c0.5,0.4,0.7,1,0.7,1.7c0,0.8-0.5,1.8-1.6,3l-2.3,2.5H91V177z"/>
<path class="st7" d="M92.3,176.4c0-0.2,0.1-0.3,0.2-0.5c0.1-0.1,0.3-0.2,0.5-0.2c0.2,0,0.4,0.1,0.5,0.2c0.1,0.1,0.2,0.3,0.2,0.5
	c0,0.2-0.1,0.3-0.2,0.5c-0.1,0.1-0.3,0.2-0.5,0.2c-0.2,0-0.4-0.1-0.5-0.2C92.3,176.8,92.3,176.6,92.3,176.4z M92.3,171.3
	c0-0.2,0.1-0.3,0.2-0.5c0.1-0.1,0.3-0.2,0.5-0.2c0.2,0,0.4,0.1,0.5,0.2c0.1,0.1,0.2,0.3,0.2,0.5c0,0.2-0.1,0.3-0.2,0.5
	c-0.1,0.1-0.3,0.2-0.5,0.2c-0.2,0-0.4-0.1-0.5-0.2C92.3,171.6,92.3,171.4,92.3,171.3z"/>
<path class="st7" d="M98.7,177h-1.1v-7.2l-2.2,0.8v-1l3.1-1.2h0.2V177z"/>
<path class="st7" d="M107.2,173.4c0,1.3-0.2,2.2-0.7,2.8c-0.4,0.6-1.1,0.9-2,0.9c-0.9,0-1.6-0.3-2-0.9c-0.4-0.6-0.7-1.5-0.7-2.7
	v-1.4c0-1.3,0.2-2.2,0.7-2.8c0.4-0.6,1.1-0.9,2-0.9c0.9,0,1.6,0.3,2,0.9c0.4,0.6,0.7,1.5,0.7,2.7V173.4z M106.1,171.9
	c0-0.9-0.1-1.6-0.4-2c-0.3-0.4-0.7-0.6-1.2-0.6c-0.6,0-1,0.2-1.2,0.6c-0.3,0.4-0.4,1.1-0.4,1.9v1.7c0,0.9,0.1,1.6,0.4,2
	c0.3,0.4,0.7,0.7,1.2,0.7c0.5,0,0.9-0.2,1.2-0.6c0.3-0.4,0.4-1.1,0.4-2V171.9z"/>
<path class="st7" d="M169.3,319h-1.1v-7.2l-2.2,0.8v-1l3.1-1.2h0.2V319z"/>
<path class="st7" d="M178.1,319h-5.6v-0.8l3-3.3c0.4-0.5,0.7-0.9,0.9-1.2c0.2-0.3,0.3-0.6,0.3-1c0-0.4-0.1-0.8-0.4-1.1
	c-0.3-0.3-0.6-0.4-1.1-0.4c-0.5,0-1,0.2-1.3,0.5c-0.3,0.3-0.4,0.7-0.4,1.3h-1.1c0-0.8,0.3-1.4,0.8-1.9c0.5-0.5,1.2-0.7,2-0.7
	c0.8,0,1.4,0.2,1.9,0.6c0.5,0.4,0.7,1,0.7,1.7c0,0.8-0.5,1.8-1.6,3l-2.3,2.5h4.3V319z"/>
<path class="st7" d="M179.3,318.4c0-0.2,0.1-0.3,0.2-0.5c0.1-0.1,0.3-0.2,0.5-0.2s0.4,0.1,0.5,0.2c0.1,0.1,0.2,0.3,0.2,0.5
	c0,0.2-0.1,0.3-0.2,0.5c-0.1,0.1-0.3,0.2-0.5,0.2s-0.4-0.1-0.5-0.2C179.4,318.8,179.3,318.6,179.3,318.4z M179.3,313.3
	c0-0.2,0.1-0.3,0.2-0.5c0.1-0.1,0.3-0.2,0.5-0.2c0.2,0,0.4,0.1,0.5,0.2c0.1,0.1,0.2,0.3,0.2,0.5c0,0.2-0.1,0.3-0.2,0.5
	c-0.1,0.1-0.3,0.2-0.5,0.2c-0.2,0-0.4-0.1-0.5-0.2C179.4,313.6,179.3,313.4,179.3,313.3z"/>
<path class="st7" d="M187.8,319h-5.6v-0.8l3-3.3c0.4-0.5,0.7-0.9,0.9-1.2c0.2-0.3,0.3-0.6,0.3-1c0-0.4-0.1-0.8-0.4-1.1
	c-0.3-0.3-0.6-0.4-1.1-0.4c-0.5,0-1,0.2-1.3,0.5c-0.3,0.3-0.4,0.7-0.4,1.3H182c0-0.8,0.3-1.4,0.8-1.9c0.5-0.5,1.2-0.7,2-0.7
	c0.8,0,1.4,0.2,1.9,0.6c0.5,0.4,0.7,1,0.7,1.7c0,0.8-0.5,1.8-1.6,3l-2.3,2.5h4.3V319z"/>
<path class="st7" d="M194.2,315.4c0,1.3-0.2,2.2-0.6,2.8c-0.4,0.6-1.1,0.9-2,0.9c-0.9,0-1.6-0.3-2-0.9c-0.4-0.6-0.7-1.5-0.7-2.7
	v-1.4c0-1.3,0.2-2.2,0.7-2.8c0.4-0.6,1.1-0.9,2-0.9c0.9,0,1.6,0.3,2,0.9c0.4,0.6,0.7,1.5,0.7,2.7V315.4z M193.2,313.9
	c0-0.9-0.1-1.6-0.4-2c-0.3-0.4-0.7-0.6-1.2-0.6c-0.6,0-1,0.2-1.2,0.6s-0.4,1.1-0.4,1.9v1.7c0,0.9,0.1,1.6,0.4,2
	c0.3,0.4,0.7,0.7,1.2,0.7c0.5,0,0.9-0.2,1.2-0.6c0.3-0.4,0.4-1.1,0.4-2V313.9z"/>
<path class="st8" d="M52.9,54.6l3.3-6.4h1.9l-4.4,8V61h-1.7v-4.8l-4.4-8h1.9L52.9,54.6z"/>
<path class="st8" d="M58.6,56.2c0-0.9,0.2-1.8,0.5-2.5c0.4-0.7,0.9-1.3,1.5-1.7c0.7-0.4,1.4-0.6,2.2-0.6c1.3,0,2.3,0.4,3.1,1.3
	c0.8,0.9,1.2,2.1,1.2,3.6v0.1c0,0.9-0.2,1.8-0.5,2.5c-0.4,0.7-0.9,1.3-1.5,1.7c-0.7,0.4-1.4,0.6-2.3,0.6c-1.3,0-2.3-0.4-3.1-1.3
	c-0.8-0.9-1.2-2.1-1.2-3.6V56.2z M60.2,56.4c0,1.1,0.2,1.9,0.7,2.5c0.5,0.6,1.1,1,2,1c0.8,0,1.5-0.3,2-1c0.5-0.7,0.7-1.6,0.7-2.7
	c0-1-0.2-1.9-0.7-2.5c-0.5-0.7-1.1-1-2-1c-0.8,0-1.5,0.3-1.9,1C60.4,54.2,60.2,55.2,60.2,56.4z"/>
<path class="st8" d="M75.1,60.1c-0.6,0.7-1.6,1.1-2.8,1.1c-1,0-1.8-0.3-2.3-0.9c-0.5-0.6-0.8-1.5-0.8-2.6v-6.2h1.6v6.1
	c0,1.4,0.6,2.2,1.8,2.2c1.2,0,2.1-0.5,2.5-1.4v-6.9h1.6V61h-1.5L75.1,60.1z"/>
<path class="st8" d="M85.4,61h-1.6V47.5h1.6V61z"/>
<path class="st8" d="M89.8,61h-1.6v-9.5h1.6V61z M88,49c0-0.3,0.1-0.5,0.2-0.7c0.2-0.2,0.4-0.3,0.7-0.3c0.3,0,0.6,0.1,0.7,0.3
	c0.2,0.2,0.2,0.4,0.2,0.7c0,0.3-0.1,0.5-0.2,0.7c-0.2,0.2-0.4,0.3-0.7,0.3c-0.3,0-0.6-0.1-0.7-0.3C88.1,49.5,88,49.2,88,49z"/>
<path class="st8" d="M95.1,56.6l-1,1.1V61h-1.6V47.5H94v8.2l0.9-1l3-3.1h2l-3.7,4l4.1,5.5h-1.9L95.1,56.6z"/>
<path class="st8" d="M105.3,61.2c-1.3,0-2.3-0.4-3.1-1.3c-0.8-0.8-1.2-2-1.2-3.4v-0.3c0-0.9,0.2-1.8,0.5-2.5
	c0.4-0.7,0.9-1.3,1.5-1.7c0.7-0.4,1.4-0.6,2.1-0.6c1.2,0,2.2,0.4,2.9,1.2c0.7,0.8,1,2,1,3.5v0.7h-6.4c0,0.9,0.3,1.7,0.8,2.3
	c0.5,0.6,1.2,0.9,2,0.9c0.6,0,1.1-0.1,1.5-0.4c0.4-0.2,0.7-0.5,1-0.9l1,0.8C108.1,60.6,106.9,61.2,105.3,61.2z M105.1,52.7
	c-0.7,0-1.2,0.2-1.7,0.7c-0.4,0.5-0.7,1.1-0.8,2h4.8v-0.1c0-0.8-0.3-1.5-0.7-1.9C106.3,52.9,105.8,52.7,105.1,52.7z"/>
<path class="st8" d="M123.4,56.4c0,1.4-0.3,2.6-1,3.5c-0.7,0.9-1.6,1.3-2.7,1.3c-1.2,0-2.1-0.4-2.7-1.1v4.6h-1.6V51.5h1.5l0.1,1.1
	c0.7-0.8,1.6-1.2,2.8-1.2c1.1,0,2,0.4,2.7,1.3c0.7,0.9,1,2.1,1,3.6V56.4z M121.8,56.2c0-1.1-0.2-1.9-0.7-2.5
	c-0.5-0.6-1.1-0.9-1.9-0.9c-1,0-1.7,0.4-2.2,1.3v4.5c0.5,0.9,1.2,1.3,2.2,1.3c0.8,0,1.4-0.3,1.9-0.9
	C121.5,58.3,121.8,57.4,121.8,56.2z"/>
<path class="st8" d="M125,56.2c0-0.9,0.2-1.8,0.5-2.5c0.4-0.7,0.9-1.3,1.5-1.7c0.7-0.4,1.4-0.6,2.2-0.6c1.3,0,2.3,0.4,3.1,1.3
	c0.8,0.9,1.2,2.1,1.2,3.6v0.1c0,0.9-0.2,1.8-0.5,2.5c-0.4,0.7-0.9,1.3-1.5,1.7c-0.7,0.4-1.4,0.6-2.3,0.6c-1.3,0-2.3-0.4-3.1-1.3
	c-0.8-0.9-1.2-2.1-1.2-3.6V56.2z M126.7,56.4c0,1.1,0.2,1.9,0.7,2.5c0.5,0.6,1.1,1,2,1c0.8,0,1.5-0.3,2-1c0.5-0.7,0.7-1.6,0.7-2.7
	c0-1-0.2-1.9-0.7-2.5c-0.5-0.7-1.1-1-2-1c-0.8,0-1.4,0.3-1.9,1C126.9,54.2,126.7,55.2,126.7,56.4z"/>
<path class="st8" d="M137.9,49.2v2.3h1.8v1.3h-1.8v5.9c0,0.4,0.1,0.7,0.2,0.9c0.2,0.2,0.4,0.3,0.8,0.3c0.2,0,0.4,0,0.8-0.1V61
	c-0.4,0.1-0.8,0.2-1.2,0.2c-0.7,0-1.3-0.2-1.6-0.7c-0.4-0.4-0.6-1.1-0.6-1.9v-5.9h-1.7v-1.3h1.7v-2.3H137.9z"/>
<path class="st8" d="M147.5,61c-0.1-0.2-0.2-0.5-0.2-1c-0.8,0.8-1.7,1.2-2.7,1.2c-0.9,0-1.7-0.3-2.3-0.8c-0.6-0.5-0.9-1.2-0.9-2
	c0-1,0.4-1.8,1.1-2.3c0.8-0.6,1.8-0.8,3.2-0.8h1.6v-0.7c0-0.6-0.2-1-0.5-1.4c-0.3-0.3-0.8-0.5-1.5-0.5c-0.6,0-1.1,0.1-1.5,0.4
	c-0.4,0.3-0.6,0.6-0.6,1.1h-1.6c0-0.5,0.2-0.9,0.5-1.4c0.3-0.4,0.8-0.8,1.4-1.1c0.6-0.3,1.2-0.4,1.9-0.4c1.1,0,2,0.3,2.6,0.8
	c0.6,0.5,0.9,1.3,1,2.3v4.4c0,0.9,0.1,1.6,0.3,2.1V61H147.5z M144.8,59.8c0.5,0,1-0.1,1.4-0.4c0.5-0.3,0.8-0.6,1-1v-2H146
	c-2,0-3,0.6-3,1.7c0,0.5,0.2,0.9,0.5,1.2C143.8,59.6,144.3,59.8,144.8,59.8z"/>
<path class="st8" d="M153.6,49.2v2.3h1.8v1.3h-1.8v5.9c0,0.4,0.1,0.7,0.2,0.9c0.2,0.2,0.4,0.3,0.8,0.3c0.2,0,0.4,0,0.8-0.1V61
	c-0.4,0.1-0.8,0.2-1.2,0.2c-0.7,0-1.3-0.2-1.6-0.7c-0.4-0.4-0.6-1.1-0.6-1.9v-5.9h-1.7v-1.3h1.7v-2.3H153.6z"/>
<path class="st8" d="M156.7,56.2c0-0.9,0.2-1.8,0.5-2.5c0.4-0.7,0.9-1.3,1.5-1.7c0.7-0.4,1.4-0.6,2.2-0.6c1.3,0,2.3,0.4,3.1,1.3
	c0.8,0.9,1.2,2.1,1.2,3.6v0.1c0,0.9-0.2,1.8-0.5,2.5c-0.4,0.7-0.9,1.3-1.5,1.7c-0.7,0.4-1.4,0.6-2.3,0.6c-1.3,0-2.3-0.4-3.1-1.3
	c-0.8-0.9-1.2-2.1-1.2-3.6V56.2z M158.3,56.4c0,1.1,0.2,1.9,0.7,2.5c0.5,0.6,1.1,1,2,1c0.8,0,1.5-0.3,2-1c0.5-0.7,0.7-1.6,0.7-2.7
	c0-1-0.2-1.9-0.7-2.5c-0.5-0.7-1.1-1-2-1c-0.8,0-1.5,0.3-1.9,1C158.6,54.2,158.3,55.2,158.3,56.4z"/>
<path class="st8" d="M177.7,61c-0.1-0.2-0.2-0.5-0.2-1c-0.8,0.8-1.7,1.2-2.7,1.2c-0.9,0-1.7-0.3-2.3-0.8c-0.6-0.5-0.9-1.2-0.9-2
	c0-1,0.4-1.8,1.1-2.3c0.8-0.6,1.8-0.8,3.2-0.8h1.6v-0.7c0-0.6-0.2-1-0.5-1.4c-0.3-0.3-0.8-0.5-1.5-0.5c-0.6,0-1.1,0.1-1.5,0.4
	c-0.4,0.3-0.6,0.6-0.6,1.1h-1.6c0-0.5,0.2-0.9,0.5-1.4c0.3-0.4,0.8-0.8,1.4-1.1c0.6-0.3,1.2-0.4,1.9-0.4c1.1,0,2,0.3,2.6,0.8
	c0.6,0.5,0.9,1.3,1,2.3v4.4c0,0.9,0.1,1.6,0.3,2.1V61H177.7z M175,59.8c0.5,0,1-0.1,1.4-0.4c0.5-0.3,0.8-0.6,1-1v-2h-1.3
	c-2,0-3,0.6-3,1.7c0,0.5,0.2,0.9,0.5,1.2C174.1,59.6,174.5,59.8,175,59.8z"/>
<path class="st8" d="M183.2,51.5l0.1,1.2c0.7-0.9,1.7-1.4,2.8-1.4c2,0,3,1.1,3,3.4V61h-1.6v-6.3c0-0.7-0.2-1.2-0.5-1.5
	c-0.3-0.3-0.8-0.5-1.4-0.5c-0.5,0-1,0.1-1.4,0.4c-0.4,0.3-0.7,0.7-0.9,1.1V61h-1.6v-9.5H183.2z"/>
<path class="st8" d="M191.2,56.2c0-1.5,0.3-2.6,1-3.5c0.7-0.9,1.6-1.3,2.7-1.3c1.1,0,2,0.4,2.6,1.1v-5h1.6V61h-1.5l-0.1-1
	c-0.7,0.8-1.6,1.2-2.7,1.2c-1.1,0-2-0.5-2.7-1.4c-0.7-0.9-1-2.1-1-3.5V56.2z M192.8,56.4c0,1.1,0.2,1.9,0.7,2.5
	c0.4,0.6,1.1,0.9,1.8,0.9c1,0,1.8-0.5,2.3-1.4V54c-0.5-0.9-1.2-1.3-2.2-1.3c-0.8,0-1.4,0.3-1.9,0.9C193,54.2,192.8,55.1,192.8,56.4z
	"/>
<path class="st8" d="M208.3,61h-1.7V48.2h1.7V61z"/>
<path class="st8" d="M217.3,61h-1.6V47.5h1.6V61z"/>
<path class="st8" d="M221.7,61h-1.6v-9.5h1.6V61z M220,49c0-0.3,0.1-0.5,0.2-0.7c0.2-0.2,0.4-0.3,0.7-0.3c0.3,0,0.6,0.1,0.7,0.3
	c0.2,0.2,0.2,0.4,0.2,0.7c0,0.3-0.1,0.5-0.2,0.7c-0.2,0.2-0.4,0.3-0.7,0.3c-0.3,0-0.6-0.1-0.7-0.3C220,49.5,220,49.2,220,49z"/>
<path class="st8" d="M227,56.6l-1,1.1V61h-1.6V47.5h1.6v8.2l0.9-1l3-3.1h2l-3.7,4l4.1,5.5h-1.9L227,56.6z"/>
<path class="st8" d="M237.2,61.2c-1.3,0-2.3-0.4-3.1-1.3c-0.8-0.8-1.2-2-1.2-3.4v-0.3c0-0.9,0.2-1.8,0.5-2.5
	c0.4-0.7,0.9-1.3,1.5-1.7c0.6-0.4,1.4-0.6,2.1-0.6c1.2,0,2.2,0.4,2.9,1.2c0.7,0.8,1,2,1,3.5v0.7h-6.4c0,0.9,0.3,1.7,0.8,2.3
	c0.5,0.6,1.2,0.9,2,0.9c0.6,0,1.1-0.1,1.5-0.4c0.4-0.2,0.7-0.5,1-0.9l1,0.8C240,60.6,238.8,61.2,237.2,61.2z M237,52.7
	c-0.7,0-1.2,0.2-1.7,0.7c-0.4,0.5-0.7,1.1-0.8,2h4.8v-0.1c0-0.8-0.3-1.5-0.7-1.9C238.2,52.9,237.7,52.7,237,52.7z"/>
<path class="st8" d="M259.8,56.4c0,1.4-0.3,2.6-1,3.5c-0.7,0.9-1.6,1.3-2.7,1.3c-1.2,0-2.1-0.4-2.7-1.1v4.6h-1.6V51.5h1.5l0.1,1.1
	c0.7-0.8,1.6-1.2,2.8-1.2c1.1,0,2,0.4,2.7,1.3c0.7,0.9,1,2.1,1,3.6V56.4z M258.2,56.2c0-1.1-0.2-1.9-0.7-2.5
	c-0.5-0.6-1.1-0.9-1.9-0.9c-1,0-1.7,0.4-2.2,1.3v4.5c0.5,0.9,1.2,1.3,2.2,1.3c0.8,0,1.4-0.3,1.9-0.9
	C257.9,58.3,258.2,57.4,258.2,56.2z"/>
<path class="st8" d="M261.4,56.2c0-0.9,0.2-1.8,0.5-2.5c0.4-0.7,0.9-1.3,1.5-1.7c0.7-0.4,1.4-0.6,2.2-0.6c1.3,0,2.3,0.4,3.1,1.3
	c0.8,0.9,1.2,2.1,1.2,3.6v0.1c0,0.9-0.2,1.8-0.5,2.5c-0.4,0.7-0.9,1.3-1.5,1.7c-0.7,0.4-1.4,0.6-2.3,0.6c-1.3,0-2.3-0.4-3.1-1.3
	c-0.8-0.9-1.2-2.1-1.2-3.6V56.2z M263.1,56.4c0,1.1,0.2,1.9,0.7,2.5c0.5,0.6,1.1,1,2,1c0.8,0,1.5-0.3,2-1c0.5-0.7,0.7-1.6,0.7-2.7
	c0-1-0.2-1.9-0.7-2.5c-0.5-0.7-1.1-1-2-1c-0.8,0-1.5,0.3-1.9,1C263.3,54.2,263.1,55.2,263.1,56.4z"/>
<path class="st8" d="M274.3,49.2v2.3h1.8v1.3h-1.8v5.9c0,0.4,0.1,0.7,0.2,0.9c0.2,0.2,0.4,0.3,0.8,0.3c0.2,0,0.4,0,0.8-0.1V61
	c-0.4,0.1-0.8,0.2-1.2,0.2c-0.7,0-1.3-0.2-1.6-0.7c-0.4-0.4-0.6-1.1-0.6-1.9v-5.9H271v-1.3h1.7v-2.3H274.3z"/>
<path class="st8" d="M283.9,61c-0.1-0.2-0.2-0.5-0.2-1c-0.8,0.8-1.7,1.2-2.7,1.2c-0.9,0-1.7-0.3-2.3-0.8c-0.6-0.5-0.9-1.2-0.9-2
	c0-1,0.4-1.8,1.1-2.3c0.8-0.6,1.8-0.8,3.2-0.8h1.6v-0.7c0-0.6-0.2-1-0.5-1.4c-0.3-0.3-0.8-0.5-1.5-0.5c-0.6,0-1.1,0.1-1.5,0.4
	c-0.4,0.3-0.6,0.6-0.6,1.1h-1.6c0-0.5,0.2-0.9,0.5-1.4c0.3-0.4,0.8-0.8,1.4-1.1c0.6-0.3,1.2-0.4,1.9-0.4c1.1,0,2,0.3,2.6,0.8
	c0.6,0.5,0.9,1.3,1,2.3v4.4c0,0.9,0.1,1.6,0.3,2.1V61H283.9z M281.2,59.8c0.5,0,1-0.1,1.5-0.4c0.5-0.3,0.8-0.6,1-1v-2h-1.3
	c-2,0-3,0.6-3,1.7c0,0.5,0.2,0.9,0.5,1.2C280.2,59.6,280.7,59.8,281.2,59.8z"/>
<path class="st8" d="M289.4,52.6c0.7-0.9,1.7-1.3,2.8-1.3c2,0,3,1.1,3,3.4V61h-1.6v-6.3c0-0.7-0.2-1.2-0.5-1.5
	c-0.3-0.3-0.8-0.5-1.4-0.5c-0.5,0-1,0.1-1.4,0.4c-0.4,0.3-0.7,0.7-0.9,1.1V61h-1.6V47.5h1.6V52.6z"/>
<path class="st8" d="M299.9,49.2v2.3h1.8v1.3h-1.8v5.9c0,0.4,0.1,0.7,0.2,0.9c0.2,0.2,0.4,0.3,0.8,0.3c0.2,0,0.4,0,0.8-0.1V61
	c-0.4,0.1-0.8,0.2-1.2,0.2c-0.7,0-1.3-0.2-1.6-0.7c-0.4-0.4-0.6-1.1-0.6-1.9v-5.9h-1.7v-1.3h1.7v-2.3H299.9z"/>
<path class="st8" d="M303,56.2c0-0.9,0.2-1.8,0.5-2.5c0.4-0.7,0.9-1.3,1.5-1.7c0.7-0.4,1.4-0.6,2.2-0.6c1.3,0,2.3,0.4,3.1,1.3
	c0.8,0.9,1.2,2.1,1.2,3.6v0.1c0,0.9-0.2,1.8-0.5,2.5c-0.4,0.7-0.9,1.3-1.5,1.7c-0.7,0.4-1.4,0.6-2.3,0.6c-1.3,0-2.3-0.4-3.1-1.3
	c-0.8-0.9-1.2-2.1-1.2-3.6V56.2z M304.6,56.4c0,1.1,0.2,1.9,0.7,2.5c0.5,0.6,1.1,1,2,1c0.8,0,1.5-0.3,2-1c0.5-0.7,0.7-1.6,0.7-2.7
	c0-1-0.2-1.9-0.7-2.5c-0.5-0.7-1.1-1-2-1c-0.8,0-1.4,0.3-1.9,1C304.9,54.2,304.6,55.2,304.6,56.4z"/>
<rect x="245.5" y="42.5" class="st9" width="71" height="26"/>
</svg>
