<?xml version="1.0" encoding="utf-8"?>
<!-- Generator: Adobe Illustrator 23.0.4, SVG Export Plug-In . SVG Version: 6.00 Build 0)  -->
<svg version="1.1" id="Ebene_1" xmlns="http://www.w3.org/2000/svg" xmlns:xlink="http://www.w3.org/1999/xlink" x="0px" y="0px"
	 viewBox="0 0 510 360" style="enable-background:new 0 0 510 360;" xml:space="preserve">
<style type="text/css">
	.st0{fill:none;stroke:#9F9E97;}
	.st1{fill:#FFFFFF;}
	.st2{fill:none;stroke:#FFFFFF;}
	.st3{fill:#29B96F;}
	.st4{fill:none;stroke:#29B96F;stroke-width:2;stroke-dasharray:5,5;}
	.st5{fill:none;stroke:#35C1B7;}
</style>
<rect x="30.5" y="91.5" class="st0" width="29" height="29"/>
<path class="st1" d="M82.5,110h-1.1l-4.3-6.6v6.6H76v-8.5h1.1l4.3,6.6v-6.6h1.1V110z M84.1,106.8c0-0.6,0.1-1.2,0.4-1.7
	c0.2-0.5,0.6-0.9,1-1.1c0.4-0.3,0.9-0.4,1.5-0.4c0.9,0,1.6,0.3,2.1,0.9c0.5,0.6,0.8,1.4,0.8,2.4v0.1c0,0.6-0.1,1.2-0.4,1.7
	c-0.2,0.5-0.6,0.9-1,1.1c-0.4,0.3-0.9,0.4-1.5,0.4c-0.9,0-1.6-0.3-2.1-0.9C84.4,108.6,84.1,107.8,84.1,106.8L84.1,106.8z
	 M85.2,106.9c0,0.7,0.2,1.3,0.5,1.7c0.3,0.4,0.8,0.6,1.3,0.6c0.6,0,1-0.2,1.3-0.6c0.3-0.4,0.5-1,0.5-1.8c0-0.7-0.2-1.3-0.5-1.7
	c-0.3-0.4-0.8-0.7-1.3-0.7c-0.5,0-1,0.2-1.3,0.6C85.3,105.5,85.2,106.1,85.2,106.9z M94.3,104.6c-0.2,0-0.3,0-0.5,0
	c-0.7,0-1.2,0.3-1.4,0.9v4.5h-1.1v-6.3h1.1l0,0.7c0.4-0.6,0.9-0.8,1.5-0.8c0.2,0,0.4,0,0.5,0.1V104.6z M101,108.5l1.2-4.8h1.1
	l-1.8,6.3h-0.9l-1.5-4.8l-1.5,4.8h-0.9l-1.8-6.3h1.1l1.2,4.7l1.5-4.7h0.9L101,108.5z M107,110.1c-0.9,0-1.6-0.3-2.1-0.8
	c-0.5-0.6-0.8-1.3-0.8-2.3v-0.2c0-0.6,0.1-1.2,0.4-1.7c0.2-0.5,0.6-0.9,1-1.2c0.4-0.3,0.9-0.4,1.4-0.4c0.8,0,1.5,0.3,1.9,0.8
	s0.7,1.3,0.7,2.3v0.5h-4.3c0,0.6,0.2,1.1,0.5,1.5c0.4,0.4,0.8,0.6,1.3,0.6c0.4,0,0.7-0.1,1-0.2c0.3-0.2,0.5-0.4,0.7-0.6l0.7,0.5
	C108.9,109.7,108.1,110.1,107,110.1z M106.9,104.4c-0.4,0-0.8,0.2-1.1,0.5c-0.3,0.3-0.5,0.8-0.6,1.3h3.2v-0.1c0-0.6-0.2-1-0.4-1.3
	C107.7,104.6,107.4,104.4,106.9,104.4z M110.5,106.8c0-1,0.2-1.8,0.7-2.4c0.5-0.6,1.1-0.9,1.8-0.9c0.8,0,1.4,0.3,1.8,0.8l0.1-0.7h1
	v6.2c0,0.8-0.2,1.5-0.7,1.9c-0.5,0.5-1.1,0.7-2,0.7c-0.5,0-0.9-0.1-1.3-0.3c-0.4-0.2-0.8-0.5-1-0.8l0.6-0.7c0.5,0.6,1,0.9,1.7,0.9
	c0.5,0,0.9-0.1,1.2-0.4c0.3-0.3,0.4-0.7,0.4-1.3v-0.5c-0.4,0.5-1,0.8-1.8,0.8c-0.7,0-1.3-0.3-1.8-0.9
	C110.7,108.6,110.5,107.8,110.5,106.8z M111.6,106.9c0,0.7,0.1,1.3,0.4,1.7c0.3,0.4,0.7,0.6,1.2,0.6c0.7,0,1.2-0.3,1.5-0.9v-2.9
	c-0.3-0.6-0.8-0.9-1.5-0.9c-0.5,0-0.9,0.2-1.2,0.6C111.8,105.5,111.6,106.1,111.6,106.9z M118.7,110h-1.1v-6.3h1.1V110z M117.5,102
	c0-0.2,0.1-0.3,0.2-0.4c0.1-0.1,0.3-0.2,0.5-0.2c0.2,0,0.4,0.1,0.5,0.2c0.1,0.1,0.2,0.3,0.2,0.4c0,0.2-0.1,0.3-0.2,0.4
	c-0.1,0.1-0.3,0.2-0.5,0.2c-0.2,0-0.4-0.1-0.5-0.2C117.6,102.3,117.5,102.2,117.5,102z M124.3,110c-0.1-0.1-0.1-0.3-0.2-0.7
	c-0.5,0.5-1.1,0.8-1.8,0.8c-0.6,0-1.1-0.2-1.5-0.5c-0.4-0.4-0.6-0.8-0.6-1.3c0-0.7,0.2-1.2,0.8-1.5c0.5-0.4,1.2-0.6,2.1-0.6h1.1
	v-0.5c0-0.4-0.1-0.7-0.3-0.9c-0.2-0.2-0.6-0.3-1-0.3c-0.4,0-0.7,0.1-1,0.3c-0.3,0.2-0.4,0.4-0.4,0.7h-1.1c0-0.3,0.1-0.6,0.3-0.9
	c0.2-0.3,0.5-0.5,0.9-0.7c0.4-0.2,0.8-0.3,1.3-0.3c0.7,0,1.3,0.2,1.7,0.6c0.4,0.4,0.6,0.9,0.6,1.5v2.9c0,0.6,0.1,1,0.2,1.4v0.1
	H124.3z M122.5,109.2c0.3,0,0.7-0.1,1-0.3c0.3-0.2,0.5-0.4,0.7-0.7v-1.3h-0.8c-1.3,0-2,0.4-2,1.2c0,0.3,0.1,0.6,0.3,0.8
	C121.9,109.1,122.2,109.2,122.5,109.2z M128,103.7l0,0.8c0.5-0.6,1.1-0.9,1.9-0.9c1.3,0,2,0.8,2,2.3v4.2h-1.1v-4.2
	c0-0.5-0.1-0.8-0.3-1c-0.2-0.2-0.5-0.3-1-0.3c-0.4,0-0.7,0.1-0.9,0.3c-0.3,0.2-0.5,0.4-0.6,0.7v4.5H127v-6.3H128z M138.6,107.3
	l0.2,1.1l0.2-1l1.7-6h0.9l1.6,6l0.2,1l0.2-1.1l1.3-5.8h1.1l-2.1,8.5h-1l-1.8-6.2l-0.1-0.6l-0.1,0.6l-1.8,6.2h-1l-2.1-8.5h1.1
	L138.6,107.3z M146.7,106.8c0-0.6,0.1-1.2,0.4-1.7c0.2-0.5,0.6-0.9,1-1.1c0.4-0.3,0.9-0.4,1.5-0.4c0.9,0,1.6,0.3,2.1,0.9
	c0.5,0.6,0.8,1.4,0.8,2.4v0.1c0,0.6-0.1,1.2-0.4,1.7c-0.2,0.5-0.6,0.9-1,1.1c-0.4,0.3-0.9,0.4-1.5,0.4c-0.9,0-1.6-0.3-2.1-0.9
	C147,108.6,146.7,107.8,146.7,106.8L146.7,106.8z M147.8,106.9c0,0.7,0.2,1.3,0.5,1.7c0.3,0.4,0.8,0.6,1.3,0.6c0.6,0,1-0.2,1.3-0.6
	c0.3-0.4,0.5-1,0.5-1.8c0-0.7-0.2-1.3-0.5-1.7c-0.3-0.4-0.8-0.7-1.3-0.7c-0.5,0-1,0.2-1.3,0.6C148,105.5,147.8,106.1,147.8,106.9z
	 M153.6,106.8c0-0.6,0.1-1.2,0.4-1.7c0.2-0.5,0.6-0.9,1-1.1c0.4-0.3,0.9-0.4,1.5-0.4c0.9,0,1.6,0.3,2.1,0.9c0.5,0.6,0.8,1.4,0.8,2.4
	v0.1c0,0.6-0.1,1.2-0.4,1.7c-0.2,0.5-0.6,0.9-1,1.1c-0.4,0.3-0.9,0.4-1.5,0.4c-0.9,0-1.6-0.3-2.1-0.9
	C153.8,108.6,153.6,107.8,153.6,106.8L153.6,106.8z M154.7,106.9c0,0.7,0.2,1.3,0.5,1.7c0.3,0.4,0.8,0.6,1.3,0.6
	c0.6,0,1-0.2,1.3-0.6c0.3-0.4,0.5-1,0.5-1.8c0-0.7-0.2-1.3-0.5-1.7c-0.3-0.4-0.8-0.7-1.3-0.7c-0.5,0-1,0.2-1.3,0.6
	C154.8,105.5,154.7,106.1,154.7,106.9z M160.4,106.8c0-1,0.2-1.8,0.7-2.3c0.5-0.6,1.1-0.9,1.8-0.9c0.7,0,1.3,0.3,1.8,0.8V101h1.1v9
	h-1l-0.1-0.7c-0.4,0.5-1,0.8-1.8,0.8c-0.7,0-1.3-0.3-1.8-0.9C160.7,108.6,160.4,107.8,160.4,106.8L160.4,106.8z M161.5,106.9
	c0,0.7,0.1,1.3,0.4,1.7c0.3,0.4,0.7,0.6,1.2,0.6c0.7,0,1.2-0.3,1.5-0.9v-2.9c-0.3-0.6-0.8-0.9-1.5-0.9c-0.5,0-0.9,0.2-1.2,0.6
	C161.7,105.5,161.5,106.1,161.5,106.9z"/>
<rect x="30.5" y="151.5" class="st0" width="59" height="59"/>
<path class="st2" d="M30.4,194.6c16.5,4.5,51.4,9.4,59.2-6.6"/>
<path class="st3" d="M64.8,173.7l4.2,20.3l-19.7-6.5L64.8,173.7z"/>
<rect x="30.5" y="151.5" class="st0" width="59" height="59"/>
<path class="st1" d="M122,189v-17.1h4.8c1.5,0,2.8,0.3,3.9,1c1.1,0.7,2,1.6,2.6,2.8c0.6,1.2,0.9,2.6,0.9,4.2v1.1
	c0,1.6-0.3,3-0.9,4.2c-0.6,1.2-1.5,2.1-2.7,2.8c-1.1,0.6-2.5,1-4,1H122z M124.2,173.8v13.4h2.4c1.7,0,3.1-0.5,4-1.6
	c1-1.1,1.5-2.6,1.5-4.6v-1c0-1.9-0.5-3.4-1.4-4.5c-0.9-1.1-2.2-1.6-3.9-1.6H124.2z M145.2,189c-0.1-0.2-0.2-0.7-0.3-1.3
	c-1,1-2.2,1.6-3.6,1.6c-1.2,0-2.3-0.4-3.1-1.1c-0.8-0.7-1.2-1.6-1.2-2.7c0-1.3,0.5-2.3,1.5-3.1c1-0.7,2.4-1.1,4.2-1.1h2.1v-1
	c0-0.8-0.2-1.4-0.7-1.8c-0.5-0.5-1.1-0.7-2-0.7c-0.8,0-1.4,0.2-1.9,0.6s-0.8,0.9-0.8,1.4h-2.2c0-0.6,0.2-1.2,0.7-1.8
	c0.5-0.6,1.1-1.1,1.8-1.4c0.8-0.3,1.6-0.5,2.5-0.5c1.5,0,2.6,0.4,3.4,1.1c0.8,0.7,1.3,1.7,1.3,3v5.8c0,1.2,0.1,2.1,0.4,2.8v0.2
	H145.2z M141.6,187.3c0.7,0,1.3-0.2,1.9-0.5c0.6-0.4,1.1-0.8,1.3-1.4v-2.6h-1.7c-2.7,0-4,0.8-4,2.3c0,0.7,0.2,1.2,0.7,1.6
	C140.3,187.2,140.9,187.3,141.6,187.3z M152.5,176.3l0.1,1.6c1-1.2,2.2-1.8,3.8-1.8c2.7,0,4,1.5,4.1,4.5v8.4h-2.2v-8.4
	c0-0.9-0.2-1.6-0.6-2c-0.4-0.4-1-0.7-1.9-0.7c-0.7,0-1.3,0.2-1.9,0.6c-0.5,0.4-0.9,0.9-1.2,1.5v9h-2.2v-12.7H152.5z M168.8,187.5
	c0.8,0,1.5-0.2,2-0.7c0.6-0.5,0.9-1.1,1-1.8h2.1c0,0.7-0.3,1.4-0.8,2.1c-0.5,0.7-1.1,1.2-1.9,1.6c-0.8,0.4-1.6,0.6-2.4,0.6
	c-1.7,0-3.1-0.6-4.1-1.7c-1-1.2-1.5-2.7-1.5-4.7v-0.4c0-1.2,0.2-2.3,0.7-3.3c0.5-1,1.1-1.7,1.9-2.2c0.9-0.5,1.9-0.8,3-0.8
	c1.4,0,2.6,0.4,3.5,1.3c0.9,0.9,1.4,2,1.5,3.3h-2.1c-0.1-0.8-0.4-1.5-0.9-2c-0.6-0.5-1.2-0.8-2.1-0.8c-1.1,0-2,0.4-2.6,1.2
	c-0.6,0.8-0.9,1.9-0.9,3.4v0.4c0,1.5,0.3,2.6,0.9,3.4C166.8,187.1,167.7,187.5,168.8,187.5z M181.5,189.2c-1.7,0-3.1-0.6-4.2-1.7
	c-1.1-1.1-1.6-2.6-1.6-4.5v-0.4c0-1.3,0.2-2.4,0.7-3.4c0.5-1,1.2-1.8,2-2.3c0.9-0.6,1.8-0.8,2.8-0.8c1.6,0,2.9,0.5,3.8,1.6
	s1.4,2.6,1.4,4.7v0.9h-8.6c0,1.2,0.4,2.3,1.1,3c0.7,0.8,1.6,1.1,2.7,1.1c0.8,0,1.4-0.2,1.9-0.5c0.5-0.3,1-0.7,1.4-1.2l1.3,1
	C185.2,188.4,183.6,189.2,181.5,189.2z M181.2,177.9c-0.9,0-1.6,0.3-2.2,1c-0.6,0.6-1,1.5-1.1,2.7h6.4v-0.2c-0.1-1.1-0.4-2-0.9-2.6
	C182.9,178.2,182.1,177.9,181.2,177.9z M195.3,189v-17.1h4.8c1.5,0,2.8,0.3,3.9,1c1.1,0.7,2,1.6,2.6,2.8c0.6,1.2,0.9,2.6,0.9,4.2
	v1.1c0,1.6-0.3,3-0.9,4.2c-0.6,1.2-1.5,2.1-2.7,2.8c-1.1,0.6-2.5,1-4,1H195.3z M197.5,173.8v13.4h2.4c1.7,0,3.1-0.5,4-1.6
	c1-1.1,1.5-2.6,1.5-4.6v-1c0-1.9-0.5-3.4-1.4-4.5c-0.9-1.1-2.2-1.6-3.9-1.6H197.5z M218.5,189c-0.1-0.2-0.2-0.7-0.3-1.3
	c-1,1-2.2,1.6-3.6,1.6c-1.2,0-2.3-0.4-3.1-1.1c-0.8-0.7-1.2-1.6-1.2-2.7c0-1.3,0.5-2.3,1.5-3.1c1-0.7,2.4-1.1,4.2-1.1h2.1v-1
	c0-0.8-0.2-1.4-0.7-1.8c-0.5-0.5-1.1-0.7-2-0.7c-0.8,0-1.4,0.2-1.9,0.6s-0.8,0.9-0.8,1.4h-2.2c0-0.6,0.2-1.2,0.7-1.8
	c0.5-0.6,1.1-1.1,1.8-1.4c0.8-0.3,1.6-0.5,2.5-0.5c1.5,0,2.6,0.4,3.4,1.1c0.8,0.7,1.3,1.7,1.3,3v5.8c0,1.2,0.1,2.1,0.4,2.8v0.2
	H218.5z M214.9,187.3c0.7,0,1.3-0.2,1.9-0.5c0.6-0.4,1.1-0.8,1.3-1.4v-2.6h-1.7c-2.7,0-4,0.8-4,2.3c0,0.7,0.2,1.2,0.7,1.6
	C213.6,187.2,214.2,187.3,214.9,187.3z M225.8,176.3l0.1,1.6c1-1.2,2.2-1.8,3.8-1.8c2.7,0,4,1.5,4.1,4.5v8.4h-2.2v-8.4
	c0-0.9-0.2-1.6-0.6-2c-0.4-0.4-1-0.7-1.9-0.7c-0.7,0-1.3,0.2-1.9,0.6c-0.5,0.4-0.9,0.9-1.2,1.5v9h-2.2v-12.7H225.8z M242.1,187.5
	c0.8,0,1.4-0.2,2-0.7c0.6-0.5,0.9-1.1,1-1.8h2.1c0,0.7-0.3,1.4-0.8,2.1c-0.5,0.7-1.1,1.2-1.9,1.6c-0.8,0.4-1.6,0.6-2.4,0.6
	c-1.7,0-3.1-0.6-4.1-1.7c-1-1.2-1.5-2.7-1.5-4.7v-0.4c0-1.2,0.2-2.3,0.7-3.3c0.5-1,1.1-1.7,1.9-2.2c0.9-0.5,1.9-0.8,3-0.8
	c1.4,0,2.6,0.4,3.5,1.3c0.9,0.9,1.4,2,1.5,3.3h-2.1c-0.1-0.8-0.4-1.5-0.9-2c-0.6-0.5-1.2-0.8-2.1-0.8c-1.1,0-2,0.4-2.6,1.2
	c-0.6,0.8-0.9,1.9-0.9,3.4v0.4c0,1.5,0.3,2.6,0.9,3.4C240.1,187.1,240.9,187.5,242.1,187.5z M254.8,189.2c-1.7,0-3.1-0.6-4.2-1.7
	c-1.1-1.1-1.6-2.6-1.6-4.5v-0.4c0-1.3,0.2-2.4,0.7-3.4c0.5-1,1.2-1.8,2-2.3c0.9-0.6,1.8-0.8,2.8-0.8c1.6,0,2.9,0.5,3.8,1.6
	s1.4,2.6,1.4,4.7v0.9h-8.6c0,1.2,0.4,2.3,1.1,3c0.7,0.8,1.6,1.1,2.7,1.1c0.8,0,1.4-0.2,1.9-0.5c0.5-0.3,1-0.7,1.4-1.2l1.3,1
	C258.5,188.4,256.9,189.2,254.8,189.2z M254.5,177.9c-0.9,0-1.6,0.3-2.2,1c-0.6,0.6-1,1.5-1.1,2.7h6.4v-0.2c-0.1-1.1-0.4-2-0.9-2.6
	C256.2,178.2,255.4,177.9,254.5,177.9z M268.6,189v-17.1h4.8c1.5,0,2.8,0.3,3.9,1c1.1,0.7,2,1.6,2.6,2.8c0.6,1.2,0.9,2.6,0.9,4.2
	v1.1c0,1.6-0.3,3-0.9,4.2c-0.6,1.2-1.5,2.1-2.7,2.8c-1.1,0.6-2.5,1-4,1H268.6z M270.8,173.8v13.4h2.4c1.7,0,3.1-0.5,4-1.6
	c1-1.1,1.5-2.6,1.5-4.6v-1c0-1.9-0.5-3.4-1.4-4.5c-0.9-1.1-2.2-1.6-3.9-1.6H270.8z M291.8,189c-0.1-0.2-0.2-0.7-0.3-1.3
	c-1,1-2.2,1.6-3.6,1.6c-1.2,0-2.3-0.4-3.1-1.1c-0.8-0.7-1.2-1.6-1.2-2.7c0-1.3,0.5-2.3,1.5-3.1c1-0.7,2.4-1.1,4.2-1.1h2.1v-1
	c0-0.8-0.2-1.4-0.7-1.8c-0.5-0.5-1.1-0.7-2-0.7c-0.8,0-1.4,0.2-1.9,0.6c-0.5,0.4-0.8,0.9-0.8,1.4h-2.2c0-0.6,0.2-1.2,0.7-1.8
	c0.5-0.6,1.1-1.1,1.8-1.4c0.8-0.3,1.6-0.5,2.5-0.5c1.5,0,2.6,0.4,3.4,1.1c0.8,0.7,1.3,1.7,1.3,3v5.8c0,1.2,0.1,2.1,0.4,2.8v0.2
	H291.8z M288.2,187.3c0.7,0,1.3-0.2,1.9-0.5c0.6-0.4,1.1-0.8,1.3-1.4v-2.6h-1.7c-2.7,0-4,0.8-4,2.3c0,0.7,0.2,1.2,0.7,1.6
	C286.9,187.2,287.5,187.3,288.2,187.3z M299.1,176.3l0.1,1.6c1-1.2,2.2-1.8,3.8-1.8c2.7,0,4,1.5,4.1,4.5v8.4h-2.2v-8.4
	c0-0.9-0.2-1.6-0.6-2c-0.4-0.4-1-0.7-1.9-0.7c-0.7,0-1.3,0.2-1.9,0.6c-0.5,0.4-0.9,0.9-1.2,1.5v9H297v-12.7H299.1z M315.4,187.5
	c0.8,0,1.4-0.2,2-0.7c0.6-0.5,0.9-1.1,1-1.8h2.1c0,0.7-0.3,1.4-0.8,2.1c-0.5,0.7-1.1,1.2-1.9,1.6c-0.8,0.4-1.6,0.6-2.4,0.6
	c-1.7,0-3.1-0.6-4.1-1.7c-1-1.2-1.5-2.7-1.5-4.7v-0.4c0-1.2,0.2-2.3,0.7-3.3s1.1-1.7,1.9-2.2c0.9-0.5,1.9-0.8,3-0.8
	c1.4,0,2.6,0.4,3.5,1.3c0.9,0.9,1.4,2,1.5,3.3h-2.1c-0.1-0.8-0.4-1.5-0.9-2c-0.6-0.5-1.2-0.8-2.1-0.8c-1.1,0-2,0.4-2.6,1.2
	c-0.6,0.8-0.9,1.9-0.9,3.4v0.4c0,1.5,0.3,2.6,0.9,3.4C313.4,187.1,314.2,187.5,315.4,187.5z M328.1,189.2c-1.7,0-3.1-0.6-4.2-1.7
	c-1.1-1.1-1.6-2.6-1.6-4.5v-0.4c0-1.3,0.2-2.4,0.7-3.4c0.5-1,1.2-1.8,2-2.3c0.9-0.6,1.8-0.8,2.8-0.8c1.6,0,2.9,0.5,3.8,1.6
	s1.4,2.6,1.4,4.7v0.9h-8.6c0,1.2,0.4,2.3,1.1,3c0.7,0.8,1.6,1.1,2.7,1.1c0.8,0,1.4-0.2,1.9-0.5c0.5-0.3,1-0.7,1.4-1.2l1.3,1
	C331.8,188.4,330.2,189.2,328.1,189.2z M327.8,177.9c-0.9,0-1.6,0.3-2.2,1c-0.6,0.6-1,1.5-1.1,2.7h6.4v-0.2c-0.1-1.1-0.4-2-0.9-2.6
	C329.4,178.2,328.7,177.9,327.8,177.9z"/>
<path class="st1" d="M451.9,178.8c0.6,0,1.2-0.2,1.5-0.5v6.7h1v-8.3h-0.8c0,0.6-0.7,1.2-1.7,1.2V178.8z M463.1,184.1
	c-2.9,0-3.5,0-3.9,0c1.2-0.9,1.8-1.4,2.1-1.6c1.3-1.1,1.9-2,1.9-3.3c0-1.6-1-2.6-2.7-2.6c-1.7,0-2.8,1.1-2.8,2.7
	c0,0.3,0,0.5,0.1,0.8l1,0.1c-0.1-0.4-0.2-0.6-0.2-0.9c0-1.1,0.7-1.8,1.8-1.8c1.1,0,1.8,0.6,1.8,1.7c0,1.1-0.6,2.1-2.1,3.3l-2.3,1.9
	v0.7h5.3V184.1z M466,183.5h-1v1.5h1V183.5z M466,179.1h-1v1.5h1V179.1z M468.2,178.8c0.6,0,1.2-0.2,1.5-0.5v6.7h1v-8.3h-0.8
	c0,0.6-0.7,1.2-1.7,1.2V178.8z M475.4,177.6h3.5v-0.9h-4.2l-0.3,4.4l0.9,0.1c0.3-0.7,0.8-1.1,1.5-1.1c1,0,1.7,0.8,1.7,2.1
	c0,1.3-0.7,2-1.8,2c-0.8,0-1.4-0.5-1.6-1.6l-0.9,0.4c0.3,1.3,1.3,2,2.6,2c1.7,0,2.8-1.1,2.8-3c0-1.7-0.9-2.8-2.3-2.8
	c-0.8,0-1.4,0.3-1.8,0.8L475.4,177.6z"/>
<rect x="23" y="143" class="st4" width="465" height="76"/>
<circle class="st3" cx="419.5" cy="181.5" r="7.5"/>
<path class="st5" d="M374,166.5h1c8,0,14.5,6.5,14.5,14.5l0,0c0,8-6.5,14.5-14.5,14.5h-1c-8,0-14.5-6.5-14.5-14.5l0,0
	C359.5,173,366,166.5,374,166.5z"/>
<line class="st5" x1="374.5" y1="183" x2="374.5" y2="174"/>
<line class="st5" x1="374.5" y1="187" x2="374.5" y2="186"/>
<rect x="30.5" y="241.5" class="st0" width="29" height="29"/>
<path class="st1" d="M78.2,256l-1,1.1v2.9H76v-8.5h1.1v4.2l3.8-4.2h1.4l-3.4,3.8l3.6,4.8h-1.3L78.2,256z M87.3,260
	c-0.1-0.1-0.1-0.3-0.2-0.7c-0.5,0.5-1.1,0.8-1.8,0.8c-0.6,0-1.1-0.2-1.5-0.5c-0.4-0.4-0.6-0.8-0.6-1.3c0-0.7,0.2-1.2,0.8-1.5
	c0.5-0.4,1.2-0.6,2.1-0.6h1.1v-0.5c0-0.4-0.1-0.7-0.3-0.9c-0.2-0.2-0.6-0.3-1-0.3c-0.4,0-0.7,0.1-1,0.3c-0.3,0.2-0.4,0.4-0.4,0.7
	h-1.1c0-0.3,0.1-0.6,0.3-0.9c0.2-0.3,0.5-0.5,0.9-0.7c0.4-0.2,0.8-0.3,1.3-0.3c0.7,0,1.3,0.2,1.7,0.6c0.4,0.4,0.6,0.9,0.6,1.5v2.9
	c0,0.6,0.1,1,0.2,1.4v0.1H87.3z M85.5,259.2c0.3,0,0.7-0.1,1-0.3c0.3-0.2,0.5-0.4,0.7-0.7v-1.3h-0.8c-1.3,0-2,0.4-2,1.2
	c0,0.3,0.1,0.6,0.3,0.8C84.8,259.1,85.1,259.2,85.5,259.2z M90.4,260v-5.5h-1v-0.8h1V253c0-0.7,0.2-1.2,0.5-1.6
	c0.4-0.4,0.9-0.6,1.5-0.6c0.2,0,0.5,0,0.7,0.1l-0.1,0.9c-0.2,0-0.4-0.1-0.6-0.1c-0.4,0-0.6,0.1-0.8,0.3c-0.2,0.2-0.3,0.5-0.3,0.9
	v0.7h1.4v0.8h-1.4v5.5H90.4z M95.8,257.1l-0.7,0.7v2.2H94v-9h1.1v5.4l0.6-0.7l2-2.1H99l-2.5,2.6l2.8,3.7H98L95.8,257.1z M104,260
	c-0.1-0.1-0.1-0.3-0.2-0.7c-0.5,0.5-1.1,0.8-1.8,0.8c-0.6,0-1.1-0.2-1.5-0.5c-0.4-0.4-0.6-0.8-0.6-1.3c0-0.7,0.2-1.2,0.7-1.5
	c0.5-0.4,1.2-0.6,2.1-0.6h1.1v-0.5c0-0.4-0.1-0.7-0.3-0.9c-0.2-0.2-0.6-0.3-1-0.3c-0.4,0-0.7,0.1-1,0.3c-0.3,0.2-0.4,0.4-0.4,0.7
	h-1.1c0-0.3,0.1-0.6,0.3-0.9c0.2-0.3,0.5-0.5,0.9-0.7c0.4-0.2,0.8-0.3,1.3-0.3c0.7,0,1.3,0.2,1.7,0.6c0.4,0.4,0.6,0.9,0.6,1.5v2.9
	c0,0.6,0.1,1,0.2,1.4v0.1H104z M102.2,259.2c0.3,0,0.7-0.1,1-0.3s0.5-0.4,0.7-0.7v-1.3H103c-1.3,0-2,0.4-2,1.2
	c0,0.3,0.1,0.6,0.3,0.8C101.6,259.1,101.9,259.2,102.2,259.2z M109.3,256.8c0-0.6,0.1-1.2,0.4-1.7c0.2-0.5,0.6-0.9,1-1.1
	c0.4-0.3,0.9-0.4,1.5-0.4c0.9,0,1.6,0.3,2.1,0.9c0.5,0.6,0.8,1.4,0.8,2.4v0.1c0,0.6-0.1,1.2-0.4,1.7c-0.2,0.5-0.6,0.9-1,1.1
	c-0.4,0.3-0.9,0.4-1.5,0.4c-0.9,0-1.6-0.3-2.1-0.9C109.6,258.6,109.3,257.8,109.3,256.8L109.3,256.8z M110.4,256.9
	c0,0.7,0.2,1.3,0.5,1.7c0.3,0.4,0.8,0.6,1.3,0.6c0.6,0,1-0.2,1.3-0.6c0.3-0.4,0.5-1,0.5-1.8c0-0.7-0.2-1.3-0.5-1.7
	c-0.3-0.4-0.8-0.6-1.3-0.6c-0.5,0-1,0.2-1.3,0.6C110.6,255.5,110.4,256.1,110.4,256.9z M117.5,253.7l0,0.8c0.5-0.6,1.1-0.9,1.9-0.9
	c1.3,0,2,0.8,2,2.3v4.2h-1.1v-4.2c0-0.5-0.1-0.8-0.3-1c-0.2-0.2-0.5-0.3-1-0.3c-0.4,0-0.7,0.1-0.9,0.3c-0.3,0.2-0.5,0.4-0.6,0.7v4.5
	h-1.1v-6.3H117.5z M127.5,252.1v1.5h1.2v0.8h-1.2v3.9c0,0.3,0.1,0.4,0.2,0.6c0.1,0.1,0.3,0.2,0.5,0.2c0.1,0,0.3,0,0.5-0.1v0.9
	c-0.3,0.1-0.6,0.1-0.8,0.1c-0.5,0-0.8-0.1-1.1-0.4c-0.2-0.3-0.4-0.7-0.4-1.2v-3.9h-1.2v-0.8h1.2v-1.5H127.5z M131.1,254.4
	c0.5-0.6,1.1-0.9,1.9-0.9c1.3,0,2,0.8,2,2.3v4.2h-1.1v-4.2c0-0.5-0.1-0.8-0.3-1c-0.2-0.2-0.5-0.3-1-0.3c-0.4,0-0.7,0.1-0.9,0.3
	c-0.3,0.2-0.5,0.4-0.6,0.7v4.5H130v-9h1.1V254.4z M139.2,260.1c-0.9,0-1.6-0.3-2.1-0.8c-0.5-0.6-0.8-1.3-0.8-2.3v-0.2
	c0-0.6,0.1-1.2,0.4-1.7c0.2-0.5,0.6-0.9,1-1.2c0.4-0.3,0.9-0.4,1.4-0.4c0.8,0,1.5,0.3,1.9,0.8s0.7,1.3,0.7,2.3v0.5h-4.3
	c0,0.6,0.2,1.1,0.5,1.5c0.4,0.4,0.8,0.6,1.3,0.6c0.4,0,0.7-0.1,1-0.2c0.3-0.2,0.5-0.4,0.7-0.6l0.7,0.5
	C141.1,259.7,140.3,260.1,139.2,260.1z M139.1,254.4c-0.4,0-0.8,0.2-1.1,0.5c-0.3,0.3-0.5,0.8-0.6,1.3h3.2v-0.1c0-0.6-0.2-1-0.4-1.3
	C139.9,254.6,139.6,254.4,139.1,254.4z M148.6,256.2c-1-0.3-1.7-0.6-2.1-1c-0.4-0.4-0.7-0.9-0.7-1.5c0-0.7,0.3-1.2,0.8-1.7
	c0.5-0.4,1.2-0.7,2.1-0.7c0.6,0,1.1,0.1,1.6,0.3c0.5,0.2,0.8,0.5,1.1,0.9c0.3,0.4,0.4,0.8,0.4,1.3h-1.1c0-0.5-0.2-0.9-0.5-1.2
	c-0.3-0.3-0.8-0.4-1.4-0.4c-0.6,0-1,0.1-1.3,0.4c-0.3,0.2-0.5,0.6-0.5,1c0,0.3,0.1,0.6,0.4,0.9c0.3,0.2,0.8,0.5,1.5,0.7
	c0.7,0.2,1.3,0.4,1.7,0.7c0.4,0.2,0.7,0.5,0.9,0.8c0.2,0.3,0.3,0.7,0.3,1.1c0,0.7-0.3,1.2-0.8,1.7c-0.5,0.4-1.3,0.6-2.2,0.6
	c-0.6,0-1.1-0.1-1.6-0.3c-0.5-0.2-0.9-0.5-1.2-0.9c-0.3-0.4-0.4-0.8-0.4-1.3h1.1c0,0.5,0.2,0.9,0.6,1.2c0.4,0.3,0.9,0.4,1.5,0.4
	c0.6,0,1-0.1,1.4-0.4c0.3-0.2,0.5-0.6,0.5-1s-0.1-0.7-0.4-1C149.9,256.6,149.4,256.4,148.6,256.2z M154.2,254.4
	c0.5-0.6,1.1-0.9,1.9-0.9c1.3,0,2,0.8,2,2.3v4.2H157v-4.2c0-0.5-0.1-0.8-0.3-1c-0.2-0.2-0.5-0.3-1-0.3c-0.4,0-0.7,0.1-0.9,0.3
	c-0.3,0.2-0.5,0.4-0.6,0.7v4.5h-1.1v-9h1.1V254.4z M159.4,256.8c0-0.6,0.1-1.2,0.4-1.7c0.2-0.5,0.6-0.9,1-1.1
	c0.4-0.3,0.9-0.4,1.5-0.4c0.9,0,1.6,0.3,2.1,0.9c0.5,0.6,0.8,1.4,0.8,2.4v0.1c0,0.6-0.1,1.2-0.4,1.7c-0.2,0.5-0.6,0.9-1,1.1
	c-0.4,0.3-0.9,0.4-1.5,0.4c-0.9,0-1.6-0.3-2.1-0.9C159.7,258.6,159.4,257.8,159.4,256.8L159.4,256.8z M160.5,256.9
	c0,0.7,0.2,1.3,0.5,1.7c0.3,0.4,0.8,0.6,1.3,0.6c0.6,0,1-0.2,1.3-0.6c0.3-0.4,0.5-1,0.5-1.8c0-0.7-0.2-1.3-0.5-1.7
	c-0.3-0.4-0.8-0.6-1.3-0.6c-0.5,0-1,0.2-1.3,0.6C160.6,255.5,160.5,256.1,160.5,256.9z M169.6,254.6c-0.2,0-0.3,0-0.5,0
	c-0.7,0-1.2,0.3-1.4,0.9v4.5h-1.1v-6.3h1.1l0,0.7c0.4-0.6,0.9-0.9,1.5-0.9c0.2,0,0.4,0,0.5,0.1V254.6z M173.1,260.1
	c-0.9,0-1.6-0.3-2.1-0.8c-0.5-0.6-0.8-1.3-0.8-2.3v-0.2c0-0.6,0.1-1.2,0.4-1.7c0.2-0.5,0.6-0.9,1-1.2c0.4-0.3,0.9-0.4,1.4-0.4
	c0.8,0,1.5,0.3,1.9,0.8s0.7,1.3,0.7,2.3v0.5h-4.3c0,0.6,0.2,1.1,0.5,1.5c0.4,0.4,0.8,0.6,1.3,0.6c0.4,0,0.7-0.1,1-0.2
	c0.3-0.2,0.5-0.4,0.7-0.6l0.7,0.5C175,259.7,174.2,260.1,173.1,260.1z M173,254.4c-0.4,0-0.8,0.2-1.1,0.5c-0.3,0.3-0.5,0.8-0.6,1.3
	h3.2v-0.1c0-0.6-0.2-1-0.4-1.3C173.8,254.6,173.4,254.4,173,254.4z"/>
<rect x="30.5" y="286.5" class="st0" width="29" height="29"/>
<path class="st1" d="M82.5,305h-1.1v-3.9h-4.3v3.9H76v-8.5h1.1v3.7h4.3v-3.7h1.1V305z M88.3,305c-0.1-0.1-0.1-0.3-0.2-0.7
	c-0.5,0.5-1.1,0.8-1.8,0.8c-0.6,0-1.1-0.2-1.5-0.5c-0.4-0.4-0.6-0.8-0.6-1.3c0-0.7,0.2-1.2,0.8-1.5c0.5-0.4,1.2-0.6,2.1-0.6h1.1
	v-0.5c0-0.4-0.1-0.7-0.3-0.9c-0.2-0.2-0.6-0.3-1-0.3c-0.4,0-0.7,0.1-1,0.3c-0.3,0.2-0.4,0.4-0.4,0.7h-1.1c0-0.3,0.1-0.6,0.3-0.9
	c0.2-0.3,0.5-0.5,0.9-0.7c0.4-0.2,0.8-0.3,1.3-0.3c0.7,0,1.3,0.2,1.7,0.6c0.4,0.4,0.6,0.9,0.6,1.5v2.9c0,0.6,0.1,1,0.2,1.4v0.1H88.3
	z M86.5,304.2c0.3,0,0.7-0.1,1-0.3s0.5-0.4,0.7-0.7v-1.3h-0.8c-1.3,0-2,0.4-2,1.2c0,0.3,0.1,0.6,0.3,0.8
	C85.8,304.1,86.1,304.2,86.5,304.2z M94,299.6c-0.2,0-0.3,0-0.5,0c-0.7,0-1.2,0.3-1.4,0.9v4.5h-1.1v-6.3H92l0,0.7
	c0.4-0.6,0.9-0.9,1.5-0.9c0.2,0,0.4,0,0.5,0.1V299.6z M94.6,301.8c0-1,0.2-1.8,0.7-2.3c0.5-0.6,1.1-0.9,1.8-0.9
	c0.7,0,1.3,0.3,1.8,0.8V296h1.1v9h-1l-0.1-0.7c-0.4,0.5-1,0.8-1.8,0.8c-0.7,0-1.3-0.3-1.8-0.9C94.8,303.6,94.6,302.8,94.6,301.8
	L94.6,301.8z M95.7,301.9c0,0.7,0.1,1.3,0.4,1.7c0.3,0.4,0.7,0.6,1.2,0.6c0.7,0,1.2-0.3,1.5-0.9v-2.9c-0.3-0.6-0.8-0.9-1.5-0.9
	c-0.5,0-0.9,0.2-1.2,0.6C95.8,300.5,95.7,301.1,95.7,301.9z M103.9,301.8H101v-0.9h2.9V301.8z M105.1,305v-8.5h2.8
	c0.9,0,1.6,0.2,2.1,0.6c0.5,0.4,0.7,0.9,0.7,1.7c0,0.4-0.1,0.8-0.3,1.1c-0.2,0.3-0.5,0.5-0.9,0.7c0.5,0.1,0.8,0.4,1.1,0.7
	c0.3,0.4,0.4,0.8,0.4,1.3c0,0.8-0.2,1.4-0.7,1.8c-0.5,0.4-1.2,0.7-2.1,0.7H105.1z M106.2,301v3.1h1.9c0.5,0,0.9-0.1,1.2-0.4
	c0.3-0.3,0.5-0.6,0.5-1.1c0-1-0.6-1.5-1.7-1.5H106.2z M106.2,300.1h1.7c0.5,0,0.9-0.1,1.2-0.4c0.3-0.2,0.4-0.6,0.4-1
	c0-0.5-0.1-0.8-0.4-1c-0.3-0.2-0.7-0.3-1.2-0.3h-1.7V300.1z M112.1,301.8c0-0.6,0.1-1.2,0.4-1.7c0.2-0.5,0.6-0.9,1-1.1
	c0.4-0.3,0.9-0.4,1.5-0.4c0.9,0,1.6,0.3,2.1,0.9c0.5,0.6,0.8,1.4,0.8,2.4v0.1c0,0.6-0.1,1.2-0.4,1.7c-0.2,0.5-0.6,0.9-1,1.1
	c-0.4,0.3-0.9,0.4-1.5,0.4c-0.9,0-1.6-0.3-2.1-0.9C112.4,303.6,112.1,302.8,112.1,301.8L112.1,301.8z M113.2,301.9
	c0,0.7,0.2,1.3,0.5,1.7c0.3,0.4,0.8,0.6,1.3,0.6c0.6,0,1-0.2,1.3-0.6c0.3-0.4,0.5-1,0.5-1.8c0-0.7-0.2-1.3-0.5-1.7
	c-0.3-0.4-0.8-0.7-1.3-0.7c-0.5,0-1,0.2-1.3,0.6C113.4,300.5,113.2,301.1,113.2,301.9z M120.4,305h-1.1v-6.3h1.1V305z M119.3,297
	c0-0.2,0.1-0.3,0.2-0.4c0.1-0.1,0.3-0.2,0.5-0.2s0.4,0.1,0.5,0.2c0.1,0.1,0.2,0.3,0.2,0.4c0,0.2-0.1,0.3-0.2,0.4
	c-0.1,0.1-0.3,0.2-0.5,0.2s-0.4-0.1-0.5-0.2C119.3,297.3,119.3,297.2,119.3,297z M123.4,305h-1.1v-9h1.1V305z M127.7,305.1
	c-0.9,0-1.6-0.3-2.1-0.8c-0.5-0.6-0.8-1.3-0.8-2.3v-0.2c0-0.6,0.1-1.2,0.4-1.7c0.2-0.5,0.6-0.9,1-1.2c0.4-0.3,0.9-0.4,1.4-0.4
	c0.8,0,1.5,0.3,1.9,0.8s0.7,1.3,0.7,2.3v0.5h-4.3c0,0.6,0.2,1.1,0.5,1.5c0.4,0.4,0.8,0.6,1.3,0.6c0.4,0,0.7-0.1,1-0.2
	c0.3-0.2,0.5-0.4,0.7-0.6l0.7,0.5C129.6,304.7,128.8,305.1,127.7,305.1z M127.6,299.4c-0.4,0-0.8,0.2-1.1,0.5
	c-0.3,0.3-0.5,0.8-0.6,1.3h3.2v-0.1c0-0.6-0.2-1-0.4-1.3C128.4,299.6,128,299.4,127.6,299.4z M131.2,301.8c0-1,0.2-1.8,0.7-2.3
	c0.5-0.6,1.1-0.9,1.8-0.9c0.7,0,1.3,0.3,1.8,0.8V296h1.1v9h-1l-0.1-0.7c-0.4,0.5-1,0.8-1.8,0.8c-0.7,0-1.3-0.3-1.8-0.9
	C131.4,303.6,131.2,302.8,131.2,301.8L131.2,301.8z M132.3,301.9c0,0.7,0.1,1.3,0.4,1.7c0.3,0.4,0.7,0.6,1.2,0.6
	c0.7,0,1.2-0.3,1.5-0.9v-2.9c-0.3-0.6-0.8-0.9-1.5-0.9c-0.5,0-0.9,0.2-1.2,0.6C132.4,300.5,132.3,301.1,132.3,301.9z M143.2,302.3
	l0.2,1.1l0.2-1l1.7-6h0.9l1.6,6l0.2,1l0.2-1.1l1.3-5.8h1.1l-2.1,8.5h-1l-1.8-6.2l-0.1-0.6l-0.1,0.6l-1.8,6.2h-1l-2.1-8.5h1.1
	L143.2,302.3z M151.4,301.8c0-0.6,0.1-1.2,0.4-1.7c0.2-0.5,0.6-0.9,1-1.1c0.4-0.3,0.9-0.4,1.5-0.4c0.9,0,1.6,0.3,2.1,0.9
	c0.5,0.6,0.8,1.4,0.8,2.4v0.1c0,0.6-0.1,1.2-0.4,1.7c-0.2,0.5-0.6,0.9-1,1.1c-0.4,0.3-0.9,0.4-1.5,0.4c-0.9,0-1.6-0.3-2.1-0.9
	C151.7,303.6,151.4,302.8,151.4,301.8L151.4,301.8z M152.5,301.9c0,0.7,0.2,1.3,0.5,1.7c0.3,0.4,0.8,0.6,1.3,0.6
	c0.6,0,1-0.2,1.3-0.6c0.3-0.4,0.5-1,0.5-1.8c0-0.7-0.2-1.3-0.5-1.7c-0.3-0.4-0.8-0.7-1.3-0.7c-0.5,0-1,0.2-1.3,0.6
	C152.6,300.5,152.5,301.1,152.5,301.9z M159.5,298.7l0,0.8c0.5-0.6,1.1-0.9,1.9-0.9c1.3,0,2,0.8,2,2.3v4.2h-1.1v-4.2
	c0-0.5-0.1-0.8-0.3-1c-0.2-0.2-0.5-0.3-1-0.3c-0.4,0-0.7,0.1-0.9,0.3c-0.3,0.2-0.5,0.4-0.6,0.7v4.5h-1.1v-6.3H159.5z M164.9,301.8
	c0-1,0.2-1.8,0.7-2.3c0.5-0.6,1.1-0.9,1.8-0.9c0.7,0,1.3,0.3,1.8,0.8V296h1.1v9h-1l-0.1-0.7c-0.4,0.5-1,0.8-1.8,0.8
	c-0.7,0-1.3-0.3-1.8-0.9C165.1,303.6,164.9,302.8,164.9,301.8L164.9,301.8z M166,301.9c0,0.7,0.1,1.3,0.4,1.7
	c0.3,0.4,0.7,0.6,1.2,0.6c0.7,0,1.2-0.3,1.5-0.9v-2.9c-0.3-0.6-0.8-0.9-1.5-0.9c-0.5,0-0.9,0.2-1.2,0.6
	C166.1,300.5,166,301.1,166,301.9z M174.5,305.1c-0.9,0-1.6-0.3-2.1-0.8c-0.5-0.6-0.8-1.3-0.8-2.3v-0.2c0-0.6,0.1-1.2,0.4-1.7
	c0.2-0.5,0.6-0.9,1-1.2c0.4-0.3,0.9-0.4,1.4-0.4c0.8,0,1.5,0.3,1.9,0.8s0.7,1.3,0.7,2.3v0.5h-4.3c0,0.6,0.2,1.1,0.5,1.5
	c0.4,0.4,0.8,0.6,1.3,0.6c0.4,0,0.7-0.1,1-0.2c0.3-0.2,0.5-0.4,0.7-0.6l0.7,0.5C176.4,304.7,175.6,305.1,174.5,305.1z M174.4,299.4
	c-0.4,0-0.8,0.2-1.1,0.5c-0.3,0.3-0.5,0.8-0.6,1.3h3.2v-0.1c0-0.6-0.2-1-0.4-1.3C175.2,299.6,174.9,299.4,174.4,299.4z M181.3,299.6
	c-0.2,0-0.3,0-0.5,0c-0.7,0-1.2,0.3-1.4,0.9v4.5h-1.1v-6.3h1.1l0,0.7c0.4-0.6,0.9-0.9,1.5-0.9c0.2,0,0.4,0,0.5,0.1V299.6z
	 M183.5,305h-1.1v-9h1.1V305z M189.2,305c-0.1-0.1-0.1-0.3-0.2-0.7c-0.5,0.5-1.1,0.8-1.8,0.8c-0.6,0-1.1-0.2-1.5-0.5
	c-0.4-0.4-0.6-0.8-0.6-1.3c0-0.7,0.2-1.2,0.8-1.5c0.5-0.4,1.2-0.6,2.1-0.6h1.1v-0.5c0-0.4-0.1-0.7-0.3-0.9c-0.2-0.2-0.6-0.3-1-0.3
	c-0.4,0-0.7,0.1-1,0.3c-0.3,0.2-0.4,0.4-0.4,0.7h-1.1c0-0.3,0.1-0.6,0.3-0.9c0.2-0.3,0.5-0.5,0.9-0.7c0.4-0.2,0.8-0.3,1.3-0.3
	c0.7,0,1.3,0.2,1.7,0.6c0.4,0.4,0.6,0.9,0.6,1.5v2.9c0,0.6,0.1,1,0.2,1.4v0.1H189.2z M187.4,304.2c0.3,0,0.7-0.1,1-0.3
	c0.3-0.2,0.5-0.4,0.7-0.7v-1.3h-0.8c-1.3,0-2,0.4-2,1.2c0,0.3,0.1,0.6,0.3,0.8C186.7,304.1,187,304.2,187.4,304.2z M192.8,298.7
	l0,0.8c0.5-0.6,1.1-0.9,1.9-0.9c1.3,0,2,0.8,2,2.3v4.2h-1.1v-4.2c0-0.5-0.1-0.8-0.3-1c-0.2-0.2-0.5-0.3-1-0.3
	c-0.4,0-0.7,0.1-0.9,0.3c-0.3,0.2-0.5,0.4-0.6,0.7v4.5h-1.1v-6.3H192.8z M198.1,301.8c0-1,0.2-1.8,0.7-2.3c0.5-0.6,1.1-0.9,1.8-0.9
	c0.7,0,1.3,0.3,1.8,0.8V296h1.1v9h-1l-0.1-0.7c-0.4,0.5-1,0.8-1.8,0.8c-0.7,0-1.3-0.3-1.8-0.9C198.4,303.6,198.1,302.8,198.1,301.8
	L198.1,301.8z M199.2,301.9c0,0.7,0.1,1.3,0.4,1.7c0.3,0.4,0.7,0.6,1.2,0.6c0.7,0,1.2-0.3,1.5-0.9v-2.9c-0.3-0.6-0.8-0.9-1.5-0.9
	c-0.5,0-0.9,0.2-1.2,0.6C199.4,300.5,199.2,301.1,199.2,301.9z M212.1,305c-0.1-0.1-0.1-0.3-0.2-0.7c-0.5,0.5-1.1,0.8-1.8,0.8
	c-0.6,0-1.1-0.2-1.5-0.5c-0.4-0.4-0.6-0.8-0.6-1.3c0-0.7,0.2-1.2,0.8-1.5c0.5-0.4,1.2-0.6,2.1-0.6h1.1v-0.5c0-0.4-0.1-0.7-0.3-0.9
	c-0.2-0.2-0.6-0.3-1-0.3c-0.4,0-0.7,0.1-1,0.3c-0.3,0.2-0.4,0.4-0.4,0.7h-1.1c0-0.3,0.1-0.6,0.3-0.9c0.2-0.3,0.5-0.5,0.9-0.7
	c0.4-0.2,0.8-0.3,1.3-0.3c0.7,0,1.3,0.2,1.7,0.6c0.4,0.4,0.6,0.9,0.6,1.5v2.9c0,0.6,0.1,1,0.2,1.4v0.1H212.1z M210.3,304.2
	c0.3,0,0.7-0.1,1-0.3c0.3-0.2,0.5-0.4,0.7-0.7v-1.3h-0.8c-1.3,0-2,0.4-2,1.2c0,0.3,0.1,0.6,0.3,0.8
	C209.6,304.1,209.9,304.2,210.3,304.2z M215.7,298.7l0,0.8c0.5-0.6,1.1-0.9,1.9-0.9c1.3,0,2,0.8,2,2.3v4.2h-1.1v-4.2
	c0-0.5-0.1-0.8-0.3-1c-0.2-0.2-0.5-0.3-1-0.3c-0.4,0-0.7,0.1-0.9,0.3c-0.3,0.2-0.5,0.4-0.6,0.7v4.5h-1.1v-6.3H215.7z M221,301.8
	c0-1,0.2-1.8,0.7-2.3c0.5-0.6,1.1-0.9,1.8-0.9c0.7,0,1.3,0.3,1.8,0.8V296h1.1v9h-1l-0.1-0.7c-0.4,0.5-1,0.8-1.8,0.8
	c-0.7,0-1.3-0.3-1.8-0.9C221.3,303.6,221,302.8,221,301.8L221,301.8z M222.1,301.9c0,0.7,0.1,1.3,0.4,1.7c0.3,0.4,0.7,0.6,1.2,0.6
	c0.7,0,1.2-0.3,1.5-0.9v-2.9c-0.3-0.6-0.8-0.9-1.5-0.9c-0.5,0-0.9,0.2-1.2,0.6C222.3,300.5,222.1,301.1,222.1,301.9z M232.5,297.1
	v1.5h1.2v0.8h-1.2v3.9c0,0.3,0.1,0.4,0.2,0.6c0.1,0.1,0.3,0.2,0.5,0.2c0.1,0,0.3,0,0.5-0.1v0.9c-0.3,0.1-0.6,0.1-0.8,0.1
	c-0.5,0-0.8-0.1-1.1-0.4c-0.2-0.3-0.4-0.7-0.4-1.2v-3.9h-1.2v-0.8h1.2v-1.5H232.5z M236.1,299.4c0.5-0.6,1.1-0.9,1.9-0.9
	c1.3,0,2,0.8,2,2.3v4.2h-1.1v-4.2c0-0.5-0.1-0.8-0.3-1c-0.2-0.2-0.5-0.3-1-0.3c-0.4,0-0.7,0.1-0.9,0.3c-0.3,0.2-0.5,0.4-0.6,0.7v4.5
	H235v-9h1.1V299.4z M244.2,305.1c-0.9,0-1.6-0.3-2.1-0.8c-0.5-0.6-0.8-1.3-0.8-2.3v-0.2c0-0.6,0.1-1.2,0.4-1.7
	c0.2-0.5,0.6-0.9,1-1.2c0.4-0.3,0.9-0.4,1.4-0.4c0.8,0,1.5,0.3,1.9,0.8s0.7,1.3,0.7,2.3v0.5h-4.3c0,0.6,0.2,1.1,0.5,1.5
	c0.4,0.4,0.8,0.6,1.3,0.6c0.4,0,0.7-0.1,1-0.2c0.3-0.2,0.5-0.4,0.7-0.6l0.7,0.5C246.1,304.7,245.3,305.1,244.2,305.1z M244.1,299.4
	c-0.4,0-0.8,0.2-1.1,0.5c-0.3,0.3-0.5,0.8-0.6,1.3h3.2v-0.1c0-0.6-0.2-1-0.4-1.3C244.9,299.6,244.5,299.4,244.1,299.4z M255.9,301.1
	h-3.7v3h4.3v0.9h-5.4v-8.5h5.4v0.9h-4.2v2.7h3.7V301.1z M258.8,298.7l0,0.8c0.5-0.6,1.1-0.9,1.9-0.9c1.3,0,2,0.8,2,2.3v4.2h-1.1
	v-4.2c0-0.5-0.1-0.8-0.3-1c-0.2-0.2-0.5-0.3-1-0.3c-0.4,0-0.7,0.1-0.9,0.3c-0.3,0.2-0.5,0.4-0.6,0.7v4.5h-1.1v-6.3H258.8z
	 M264.1,301.8c0-1,0.2-1.8,0.7-2.3c0.5-0.6,1.1-0.9,1.8-0.9c0.7,0,1.3,0.3,1.8,0.8V296h1.1v9h-1l-0.1-0.7c-0.4,0.5-1,0.8-1.8,0.8
	c-0.7,0-1.3-0.3-1.8-0.9C264.3,303.6,264.1,302.8,264.1,301.8L264.1,301.8z M265.2,301.9c0,0.7,0.1,1.3,0.4,1.7
	c0.3,0.4,0.7,0.6,1.2,0.6c0.7,0,1.2-0.3,1.5-0.9v-2.9c-0.3-0.6-0.8-0.9-1.5-0.9c-0.5,0-0.9,0.2-1.2,0.6S265.2,301.1,265.2,301.9z
	 M273.8,301.8c0-0.6,0.1-1.2,0.4-1.7c0.2-0.5,0.6-0.9,1-1.1c0.4-0.3,0.9-0.4,1.5-0.4c0.9,0,1.6,0.3,2.1,0.9c0.5,0.6,0.8,1.4,0.8,2.4
	v0.1c0,0.6-0.1,1.2-0.4,1.7c-0.2,0.5-0.6,0.9-1,1.1c-0.4,0.3-0.9,0.4-1.5,0.4c-0.9,0-1.6-0.3-2.1-0.9
	C274.1,303.6,273.8,302.8,273.8,301.8L273.8,301.8z M274.9,301.9c0,0.7,0.2,1.3,0.5,1.7c0.3,0.4,0.8,0.6,1.3,0.6
	c0.6,0,1-0.2,1.3-0.6c0.3-0.4,0.5-1,0.5-1.8c0-0.7-0.2-1.3-0.5-1.7c-0.3-0.4-0.8-0.7-1.3-0.7c-0.5,0-1,0.2-1.3,0.6
	C275.1,300.5,274.9,301.1,274.9,301.9z M281.5,305v-5.5h-1v-0.8h1V298c0-0.7,0.2-1.2,0.5-1.6c0.4-0.4,0.9-0.6,1.5-0.6
	c0.2,0,0.5,0,0.7,0.1l-0.1,0.9c-0.2,0-0.4-0.1-0.6-0.1c-0.4,0-0.6,0.1-0.8,0.3c-0.2,0.2-0.3,0.5-0.3,0.9v0.7h1.4v0.8h-1.4v5.5H281.5
	z M289.6,297.1v1.5h1.2v0.8h-1.2v3.9c0,0.3,0.1,0.4,0.2,0.6c0.1,0.1,0.3,0.2,0.5,0.2c0.1,0,0.3,0,0.5-0.1v0.9
	c-0.3,0.1-0.6,0.1-0.8,0.1c-0.5,0-0.9-0.1-1.1-0.4c-0.2-0.3-0.4-0.7-0.4-1.2v-3.9h-1.2v-0.8h1.2v-1.5H289.6z M293.1,299.4
	c0.5-0.6,1.1-0.9,1.9-0.9c1.3,0,2,0.8,2,2.3v4.2h-1.1v-4.2c0-0.5-0.1-0.8-0.3-1c-0.2-0.2-0.5-0.3-1-0.3c-0.4,0-0.7,0.1-0.9,0.3
	c-0.3,0.2-0.5,0.4-0.6,0.7v4.5H292v-9h1.1V299.4z M301.3,305.1c-0.9,0-1.6-0.3-2.1-0.8c-0.5-0.6-0.8-1.3-0.8-2.3v-0.2
	c0-0.6,0.1-1.2,0.4-1.7c0.2-0.5,0.6-0.9,1-1.2c0.4-0.3,0.9-0.4,1.4-0.4c0.8,0,1.5,0.3,1.9,0.8s0.7,1.3,0.7,2.3v0.5h-4.3
	c0,0.6,0.2,1.1,0.5,1.5c0.4,0.4,0.8,0.6,1.3,0.6c0.4,0,0.7-0.1,1-0.2c0.3-0.2,0.5-0.4,0.7-0.6l0.7,0.5
	C303.1,304.7,302.3,305.1,301.3,305.1z M301.1,299.4c-0.4,0-0.8,0.2-1.1,0.5c-0.3,0.3-0.5,0.8-0.6,1.3h3.2v-0.1c0-0.6-0.2-1-0.4-1.3
	C302,299.6,301.6,299.4,301.1,299.4z M310,302.3l0.2,1.1l0.2-1l1.7-6h0.9l1.6,6l0.2,1l0.2-1.1l1.3-5.8h1.1l-2.1,8.5h-1l-1.8-6.2
	l-0.1-0.6l-0.1,0.6l-1.8,6.2h-1l-2.1-8.5h1.1L310,302.3z M318.2,301.8c0-0.6,0.1-1.2,0.4-1.7c0.2-0.5,0.6-0.9,1-1.1
	c0.4-0.3,0.9-0.4,1.5-0.4c0.9,0,1.6,0.3,2.1,0.9c0.5,0.6,0.8,1.4,0.8,2.4v0.1c0,0.6-0.1,1.2-0.4,1.7c-0.2,0.5-0.6,0.9-1,1.1
	c-0.4,0.3-0.9,0.4-1.5,0.4c-0.9,0-1.6-0.3-2.1-0.9C318.4,303.6,318.2,302.8,318.2,301.8L318.2,301.8z M319.3,301.9
	c0,0.7,0.2,1.3,0.5,1.7c0.3,0.4,0.8,0.6,1.3,0.6c0.6,0,1-0.2,1.3-0.6c0.3-0.4,0.5-1,0.5-1.8c0-0.7-0.2-1.3-0.5-1.7
	c-0.3-0.4-0.8-0.7-1.3-0.7c-0.5,0-1,0.2-1.3,0.6C319.4,300.5,319.3,301.1,319.3,301.9z M328.4,299.6c-0.2,0-0.3,0-0.5,0
	c-0.7,0-1.2,0.3-1.4,0.9v4.5h-1.1v-6.3h1.1l0,0.7c0.4-0.6,0.9-0.9,1.5-0.9c0.2,0,0.4,0,0.5,0.1V299.6z M330.5,305h-1.1v-9h1.1V305z
	 M332,301.8c0-1,0.2-1.8,0.7-2.3c0.5-0.6,1.1-0.9,1.8-0.9c0.7,0,1.3,0.3,1.8,0.8V296h1.1v9h-1l-0.1-0.7c-0.4,0.5-1,0.8-1.8,0.8
	c-0.7,0-1.3-0.3-1.8-0.9C332.3,303.6,332,302.8,332,301.8L332,301.8z M333.1,301.9c0,0.7,0.1,1.3,0.4,1.7c0.3,0.4,0.7,0.6,1.2,0.6
	c0.7,0,1.2-0.3,1.5-0.9v-2.9c-0.3-0.6-0.8-0.9-1.5-0.9c-0.5,0-0.9,0.2-1.2,0.6S333.1,301.1,333.1,301.9z"/>
<path class="st1" d="M46,65v-8.5h2.4c0.7,0,1.4,0.2,2,0.5c0.6,0.3,1,0.8,1.3,1.4c0.3,0.6,0.5,1.3,0.5,2.1V61c0,0.8-0.2,1.5-0.5,2.1
	c-0.3,0.6-0.8,1.1-1.3,1.4c-0.6,0.3-1.2,0.5-2,0.5H46z M47.1,57.4v6.7h1.2c0.9,0,1.5-0.3,2-0.8C50.8,62.7,51,62,51,61v-0.5
	c0-1-0.2-1.7-0.7-2.3c-0.5-0.5-1.1-0.8-1.9-0.8H47.1z M57.6,65c-0.1-0.1-0.1-0.3-0.2-0.7c-0.5,0.5-1.1,0.8-1.8,0.8
	c-0.6,0-1.1-0.2-1.5-0.5c-0.4-0.4-0.6-0.8-0.6-1.3c0-0.7,0.2-1.2,0.8-1.5c0.5-0.4,1.2-0.6,2.1-0.6h1.1v-0.5c0-0.4-0.1-0.7-0.3-0.9
	c-0.2-0.2-0.6-0.3-1-0.3c-0.4,0-0.7,0.1-1,0.3s-0.4,0.4-0.4,0.7h-1.1c0-0.3,0.1-0.6,0.3-0.9c0.2-0.3,0.5-0.5,0.9-0.7
	c0.4-0.2,0.8-0.3,1.3-0.3c0.7,0,1.3,0.2,1.7,0.6c0.4,0.4,0.6,0.9,0.6,1.5v2.9c0,0.6,0.1,1,0.2,1.4V65H57.6z M55.8,64.2
	c0.3,0,0.7-0.1,1-0.3c0.3-0.2,0.5-0.4,0.7-0.7v-1.3h-0.8c-1.3,0-2,0.4-2,1.2c0,0.3,0.1,0.6,0.3,0.8C55.2,64.1,55.5,64.2,55.8,64.2z
	 M61.2,58.7l0,0.8c0.5-0.6,1.1-0.9,1.9-0.9c1.3,0,2,0.8,2,2.3V65h-1.1v-4.2c0-0.5-0.1-0.8-0.3-1c-0.2-0.2-0.5-0.3-1-0.3
	c-0.4,0-0.7,0.1-0.9,0.3c-0.3,0.2-0.5,0.4-0.6,0.7V65h-1.1v-6.3H61.2z M69.4,64.2c0.4,0,0.7-0.1,1-0.4c0.3-0.2,0.4-0.5,0.5-0.9h1
	c0,0.4-0.1,0.7-0.4,1c-0.2,0.3-0.5,0.6-0.9,0.8c-0.4,0.2-0.8,0.3-1.2,0.3c-0.9,0-1.6-0.3-2.1-0.9c-0.5-0.6-0.8-1.4-0.8-2.4v-0.2
	c0-0.6,0.1-1.2,0.3-1.6c0.2-0.5,0.6-0.9,1-1.1c0.4-0.3,0.9-0.4,1.5-0.4c0.7,0,1.3,0.2,1.8,0.6c0.5,0.4,0.7,1,0.8,1.7h-1
	c0-0.4-0.2-0.7-0.5-1c-0.3-0.3-0.6-0.4-1-0.4c-0.6,0-1,0.2-1.3,0.6c-0.3,0.4-0.5,1-0.5,1.7V62c0,0.7,0.2,1.3,0.5,1.7
	C68.4,64,68.8,64.2,69.4,64.2z M75.8,65.1c-0.9,0-1.6-0.3-2.1-0.8c-0.5-0.6-0.8-1.3-0.8-2.3v-0.2c0-0.6,0.1-1.2,0.4-1.7
	c0.2-0.5,0.6-0.9,1-1.2c0.4-0.3,0.9-0.4,1.4-0.4c0.8,0,1.5,0.3,1.9,0.8c0.5,0.5,0.7,1.3,0.7,2.3v0.5h-4.3c0,0.6,0.2,1.1,0.5,1.5
	c0.4,0.4,0.8,0.6,1.3,0.6c0.4,0,0.7-0.1,1-0.2c0.3-0.2,0.5-0.4,0.7-0.6l0.7,0.5C77.6,64.7,76.8,65.1,75.8,65.1z M75.6,59.4
	c-0.4,0-0.8,0.2-1.1,0.5c-0.3,0.3-0.5,0.8-0.6,1.3h3.2v-0.1c0-0.6-0.2-1-0.4-1.3C76.4,59.6,76.1,59.4,75.6,59.4z"/>
<path class="st1" d="M210.5,61.2c-1-0.3-1.7-0.6-2.1-1c-0.4-0.4-0.7-0.9-0.7-1.5c0-0.7,0.3-1.2,0.8-1.7c0.5-0.4,1.2-0.7,2.1-0.7
	c0.6,0,1.1,0.1,1.6,0.3c0.5,0.2,0.8,0.5,1.1,0.9c0.3,0.4,0.4,0.8,0.4,1.3h-1.1c0-0.5-0.2-0.9-0.5-1.2c-0.3-0.3-0.8-0.4-1.4-0.4
	c-0.6,0-1,0.1-1.3,0.4c-0.3,0.2-0.5,0.6-0.5,1c0,0.3,0.1,0.6,0.4,0.9c0.3,0.2,0.8,0.5,1.5,0.7c0.7,0.2,1.3,0.4,1.7,0.7
	c0.4,0.2,0.7,0.5,0.9,0.8c0.2,0.3,0.3,0.7,0.3,1.1c0,0.7-0.3,1.2-0.8,1.7c-0.5,0.4-1.3,0.6-2.2,0.6c-0.6,0-1.1-0.1-1.6-0.3
	c-0.5-0.2-0.9-0.5-1.2-0.9c-0.3-0.4-0.4-0.8-0.4-1.3h1.1c0,0.5,0.2,0.9,0.6,1.2c0.4,0.3,0.9,0.4,1.5,0.4c0.6,0,1-0.1,1.4-0.4
	c0.3-0.2,0.5-0.6,0.5-1c0-0.4-0.1-0.7-0.4-1C211.8,61.6,211.3,61.4,210.5,61.2z M217.6,65.1c-0.9,0-1.6-0.3-2.1-0.8
	c-0.5-0.6-0.8-1.3-0.8-2.3v-0.2c0-0.6,0.1-1.2,0.4-1.7c0.2-0.5,0.6-0.9,1-1.2c0.4-0.3,0.9-0.4,1.4-0.4c0.8,0,1.5,0.3,1.9,0.8
	c0.5,0.5,0.7,1.3,0.7,2.3v0.5h-4.3c0,0.6,0.2,1.1,0.5,1.5c0.4,0.4,0.8,0.6,1.3,0.6c0.4,0,0.7-0.1,1-0.2c0.3-0.2,0.5-0.4,0.7-0.6
	l0.7,0.5C219.4,64.7,218.6,65.1,217.6,65.1z M217.4,59.4c-0.4,0-0.8,0.2-1.1,0.5c-0.3,0.3-0.5,0.8-0.6,1.3h3.2v-0.1
	c0-0.6-0.2-1-0.4-1.3C218.3,59.6,217.9,59.4,217.4,59.4z M225.2,65c-0.1-0.1-0.1-0.3-0.2-0.7c-0.5,0.5-1.1,0.8-1.8,0.8
	c-0.6,0-1.1-0.2-1.5-0.5c-0.4-0.4-0.6-0.8-0.6-1.3c0-0.7,0.2-1.2,0.8-1.5c0.5-0.4,1.2-0.6,2.1-0.6h1.1v-0.5c0-0.4-0.1-0.7-0.3-0.9
	c-0.2-0.2-0.6-0.3-1-0.3c-0.4,0-0.7,0.1-1,0.3c-0.3,0.2-0.4,0.4-0.4,0.7h-1.1c0-0.3,0.1-0.6,0.3-0.9c0.2-0.3,0.5-0.5,0.9-0.7
	c0.4-0.2,0.8-0.3,1.3-0.3c0.7,0,1.3,0.2,1.7,0.6c0.4,0.4,0.6,0.9,0.6,1.5v2.9c0,0.6,0.1,1,0.2,1.4V65H225.2z M223.4,64.2
	c0.3,0,0.7-0.1,1-0.3c0.3-0.2,0.5-0.4,0.7-0.7v-1.3h-0.8c-1.3,0-2,0.4-2,1.2c0,0.3,0.1,0.6,0.3,0.8
	C222.8,64.1,223.1,64.2,223.4,64.2z M230.9,59.6c-0.2,0-0.3,0-0.5,0c-0.7,0-1.2,0.3-1.4,0.9V65h-1.1v-6.3h1.1l0,0.7
	c0.4-0.6,0.9-0.8,1.5-0.8c0.2,0,0.4,0,0.5,0.1V59.6z M234.3,64.2c0.4,0,0.7-0.1,1-0.4c0.3-0.2,0.4-0.5,0.5-0.9h1
	c0,0.4-0.1,0.7-0.4,1c-0.2,0.3-0.5,0.6-0.9,0.8c-0.4,0.2-0.8,0.3-1.2,0.3c-0.9,0-1.6-0.3-2.1-0.9c-0.5-0.6-0.8-1.4-0.8-2.4v-0.2
	c0-0.6,0.1-1.2,0.3-1.6c0.2-0.5,0.6-0.9,1-1.1c0.4-0.3,0.9-0.4,1.5-0.4c0.7,0,1.3,0.2,1.8,0.6c0.5,0.4,0.7,1,0.8,1.7h-1
	c0-0.4-0.2-0.7-0.5-1c-0.3-0.3-0.6-0.4-1-0.4c-0.6,0-1,0.2-1.3,0.6c-0.3,0.4-0.5,1-0.5,1.7V62c0,0.7,0.2,1.3,0.5,1.7
	C233.3,64,233.8,64.2,234.3,64.2z M239.1,59.4c0.5-0.6,1.1-0.9,1.9-0.9c1.3,0,2,0.8,2,2.3V65H242v-4.2c0-0.5-0.1-0.8-0.3-1
	c-0.2-0.2-0.5-0.3-1-0.3c-0.4,0-0.7,0.1-0.9,0.3c-0.3,0.2-0.5,0.4-0.6,0.7V65h-1.1v-9h1.1V59.4z"/>
<path class="st1" d="M278.7,61.2h-3.6V65H274v-8.5h5.3v0.9h-4.2v2.9h3.6V61.2z M281.6,65h-1.1v-6.3h1.1V65z M280.5,57
	c0-0.2,0.1-0.3,0.2-0.4c0.1-0.1,0.3-0.2,0.5-0.2s0.4,0.1,0.5,0.2c0.1,0.1,0.2,0.3,0.2,0.4s-0.1,0.3-0.2,0.4
	c-0.1,0.1-0.3,0.2-0.5,0.2s-0.4-0.1-0.5-0.2C280.5,57.3,280.5,57.2,280.5,57z M284.5,65h-1.1v-9h1.1V65z M287.8,57.1v1.5h1.2v0.8
	h-1.2v3.9c0,0.3,0.1,0.4,0.2,0.6c0.1,0.1,0.3,0.2,0.5,0.2c0.1,0,0.3,0,0.5-0.1V65c-0.3,0.1-0.6,0.1-0.8,0.1c-0.5,0-0.9-0.1-1.1-0.4
	c-0.2-0.3-0.4-0.7-0.4-1.2v-3.9h-1.2v-0.8h1.2v-1.5H287.8z M292.8,65.1c-0.9,0-1.6-0.3-2.1-0.8c-0.5-0.6-0.8-1.3-0.8-2.3v-0.2
	c0-0.6,0.1-1.2,0.4-1.7c0.2-0.5,0.6-0.9,1-1.2c0.4-0.3,0.9-0.4,1.4-0.4c0.8,0,1.5,0.3,1.9,0.8c0.5,0.5,0.7,1.3,0.7,2.3v0.5H291
	c0,0.6,0.2,1.1,0.5,1.5c0.4,0.4,0.8,0.6,1.3,0.6c0.4,0,0.7-0.1,1-0.2c0.3-0.2,0.5-0.4,0.7-0.6l0.7,0.5
	C294.7,64.7,293.9,65.1,292.8,65.1z M292.7,59.4c-0.4,0-0.8,0.2-1.1,0.5c-0.3,0.3-0.5,0.8-0.6,1.3h3.2v-0.1c0-0.6-0.2-1-0.4-1.3
	C293.5,59.6,293.2,59.4,292.7,59.4z M299.6,59.6c-0.2,0-0.3,0-0.5,0c-0.7,0-1.2,0.3-1.4,0.9V65h-1.1v-6.3h1.1l0,0.7
	c0.4-0.6,0.9-0.8,1.5-0.8c0.2,0,0.4,0,0.5,0.1V59.6z"/>
<rect x="30.5" y="46.5" class="st0" width="149" height="29"/>
<line class="st0" x1="83.5" y1="55.5" x2="83.5" y2="66.5"/>
<line class="st0" x1="82" y1="56" x2="85" y2="56"/>
<line class="st0" x1="82" y1="67" x2="85" y2="67"/>
</svg>
