<?xml version="1.0" encoding="utf-8"?>
<!-- Generator: Adobe Illustrator 23.0.4, SVG Export Plug-In . SVG Version: 6.00 Build 0)  -->
<svg version="1.1" id="Ebene_1" xmlns="http://www.w3.org/2000/svg" xmlns:xlink="http://www.w3.org/1999/xlink" x="0px" y="0px"
	 viewBox="0 0 360 360" style="enable-background:new 0 0 360 360;" xml:space="preserve">
<style type="text/css">
	.st0{fill:none;stroke:#29B96F;}
	.st1{fill:none;stroke:#647CC1;}
	.st2{fill:none;stroke:#E55E4E;}
	.st3{fill:none;stroke:#35C1B7;}
	.st4{fill:none;stroke:#FFFFFF;stroke-width:2;}
	.st5{fill:none;stroke:#29B96F;stroke-width:2;}
</style>
<path class="st0" d="M75.2,242.5L195.5,287"/>
<rect x="194.5" y="97.5" class="st0" width="59" height="29"/>
<rect x="240.5" y="142.5" class="st0" width="59" height="29"/>
<rect x="240.5" y="278.5" class="st0" width="59" height="29"/>
<rect x="240.5" y="186.5" class="st0" width="59" height="29"/>
<rect x="270.5" y="97.5" class="st1" width="29" height="29"/>
<rect x="194.5" y="52.5" class="st2" width="105" height="29"/>
<rect x="194.5" y="232.5" class="st2" width="105" height="29"/>
<rect x="194.5" y="142.5" class="st3" width="29" height="73"/>
<circle class="st4" cx="209" cy="292" r="14"/>
<rect x="60.5" y="111.5" class="st0" width="31" height="15"/>
<rect x="60.5" y="135.5" class="st1" width="15" height="15"/>
<rect x="60.5" y="159.5" class="st2" width="56" height="15"/>
<rect x="60.5" y="184.5" class="st3" width="15" height="39"/>
<circle class="st5" cx="68" cy="240" r="7"/>
</svg>
