<?xml version="1.0" encoding="utf-8"?>
<!-- Generator: Adobe Illustrator 23.0.4, SVG Export Plug-In . SVG Version: 6.00 Build 0)  -->
<svg version="1.1" id="Ebene_1" xmlns="http://www.w3.org/2000/svg" xmlns:xlink="http://www.w3.org/1999/xlink" x="0px" y="0px"
	 viewBox="0 0 360 360" style="enable-background:new 0 0 360 360;" xml:space="preserve">
<style type="text/css">
	.st0{fill:#FFFFFF;}
	.st1{fill:none;stroke:#29B96F;}
</style>
<path class="st0" d="M179.7,216.3h-4.6V229h-1.9v-12.7h-4.6v-1.5h11V216.3z M183.4,219.7c0.8-1,1.8-1.5,3.1-1.5
	c2.2,0,3.4,1.3,3.4,3.8v7h-1.8v-7c0-0.8-0.2-1.3-0.5-1.7c-0.3-0.4-0.9-0.5-1.6-0.5c-0.6,0-1.1,0.2-1.5,0.5c-0.4,0.3-0.8,0.7-1,1.2
	v7.5h-1.8v-15h1.8V219.7z M197,229.2c-1.4,0-2.6-0.5-3.5-1.4c-0.9-0.9-1.3-2.2-1.3-3.8v-0.3c0-1,0.2-2,0.6-2.8
	c0.4-0.8,1-1.5,1.7-1.9c0.7-0.5,1.5-0.7,2.3-0.7c1.4,0,2.4,0.5,3.2,1.4c0.8,0.9,1.1,2.2,1.1,3.9v0.8h-7.2c0,1,0.3,1.9,0.9,2.5
	c0.6,0.6,1.3,1,2.2,1c0.6,0,1.2-0.1,1.6-0.4c0.4-0.3,0.8-0.6,1.2-1l1.1,0.9C200.1,228.5,198.7,229.2,197,229.2z M196.7,219.7
	c-0.7,0-1.3,0.3-1.8,0.8c-0.5,0.5-0.8,1.3-0.9,2.2h5.3v-0.1c-0.1-0.9-0.3-1.6-0.7-2.1C198.1,220,197.5,219.7,196.7,219.7z
	 M214.3,226.2c0-0.5-0.2-0.9-0.6-1.1c-0.4-0.3-1-0.5-1.9-0.7c-0.9-0.2-1.6-0.4-2.2-0.7c-0.5-0.3-0.9-0.6-1.2-1
	c-0.3-0.4-0.4-0.8-0.4-1.3c0-0.9,0.4-1.6,1.1-2.2c0.7-0.6,1.7-0.9,2.8-0.9c1.2,0,2.2,0.3,2.9,0.9c0.7,0.6,1.1,1.4,1.1,2.4h-1.8
	c0-0.5-0.2-0.9-0.6-1.3c-0.4-0.4-0.9-0.5-1.6-0.5c-0.7,0-1.2,0.1-1.5,0.4c-0.4,0.3-0.6,0.7-0.6,1.1c0,0.4,0.2,0.8,0.5,1
	c0.3,0.2,1,0.4,1.9,0.6c0.9,0.2,1.6,0.4,2.2,0.7s1,0.6,1.2,1c0.3,0.4,0.4,0.9,0.4,1.4c0,0.9-0.4,1.7-1.1,2.3
	c-0.8,0.6-1.7,0.8-2.9,0.8c-0.8,0-1.6-0.1-2.2-0.4c-0.7-0.3-1.2-0.7-1.5-1.2c-0.4-0.5-0.5-1.1-0.5-1.7h1.8c0,0.6,0.3,1.1,0.7,1.4
	c0.5,0.4,1.1,0.5,1.8,0.5c0.7,0,1.2-0.1,1.6-0.4C214.1,227,214.3,226.7,214.3,226.2z M218,223.6c0-1,0.2-2,0.6-2.8
	c0.4-0.8,1-1.5,1.7-1.9c0.7-0.4,1.6-0.7,2.5-0.7c1.4,0,2.6,0.5,3.5,1.5c0.9,1,1.3,2.3,1.3,4v0.1c0,1-0.2,2-0.6,2.8
	c-0.4,0.8-1,1.4-1.7,1.9c-0.7,0.5-1.6,0.7-2.5,0.7c-1.4,0-2.6-0.5-3.5-1.5c-0.9-1-1.3-2.3-1.3-4V223.6z M219.8,223.8
	c0,1.2,0.3,2.1,0.8,2.8c0.5,0.7,1.3,1.1,2.2,1.1c0.9,0,1.6-0.4,2.2-1.1c0.5-0.7,0.8-1.7,0.8-3c0-1.2-0.3-2.1-0.8-2.8
	c-0.5-0.7-1.3-1.1-2.2-1.1c-0.9,0-1.6,0.4-2.2,1.1C220.1,221.5,219.8,222.5,219.8,223.8z M231.8,229H230v-15h1.8V229z M241.2,228
	c-0.7,0.8-1.7,1.2-3.1,1.2c-1.1,0-2-0.3-2.6-1c-0.6-0.7-0.9-1.6-0.9-2.9v-6.9h1.8v6.8c0,1.6,0.7,2.4,2,2.4c1.4,0,2.3-0.5,2.8-1.5
	v-7.7h1.8V229h-1.7L241.2,228z M248.2,215.9v2.6h2v1.4h-2v6.6c0,0.4,0.1,0.7,0.3,1c0.2,0.2,0.5,0.3,0.9,0.3c0.2,0,0.5,0,0.9-0.1v1.5
	c-0.5,0.1-0.9,0.2-1.4,0.2c-0.8,0-1.4-0.2-1.8-0.7c-0.4-0.5-0.6-1.2-0.6-2.1v-6.6h-1.9v-1.4h1.9v-2.6H248.2z M254.3,229h-1.8v-10.6
	h1.8V229z M252.3,215.6c0-0.3,0.1-0.5,0.3-0.7c0.2-0.2,0.4-0.3,0.8-0.3s0.6,0.1,0.8,0.3c0.2,0.2,0.3,0.4,0.3,0.7s-0.1,0.5-0.3,0.7
	c-0.2,0.2-0.4,0.3-0.8,0.3s-0.6-0.1-0.8-0.3C252.4,216.2,252.3,215.9,252.3,215.6z M256.7,223.6c0-1,0.2-2,0.6-2.8
	c0.4-0.8,1-1.5,1.7-1.9c0.7-0.4,1.6-0.7,2.5-0.7c1.4,0,2.6,0.5,3.5,1.5c0.9,1,1.3,2.3,1.3,4v0.1c0,1-0.2,2-0.6,2.8
	c-0.4,0.8-1,1.4-1.7,1.9c-0.7,0.5-1.6,0.7-2.5,0.7c-1.4,0-2.6-0.5-3.5-1.5c-0.9-1-1.3-2.3-1.3-4V223.6z M258.5,223.8
	c0,1.2,0.3,2.1,0.8,2.8c0.5,0.7,1.3,1.1,2.2,1.1c0.9,0,1.6-0.4,2.2-1.1c0.5-0.7,0.8-1.7,0.8-3c0-1.2-0.3-2.1-0.8-2.8
	c-0.5-0.7-1.3-1.1-2.2-1.1c-0.9,0-1.6,0.4-2.2,1.1C258.8,221.5,258.5,222.5,258.5,223.8z M270.3,218.4l0.1,1.3
	c0.8-1,1.9-1.5,3.2-1.5c2.2,0,3.4,1.3,3.4,3.8v7h-1.8v-7c0-0.8-0.2-1.3-0.5-1.7c-0.3-0.4-0.9-0.5-1.6-0.5c-0.6,0-1.1,0.2-1.5,0.5
	c-0.4,0.3-0.8,0.7-1,1.2v7.5h-1.8v-10.6H270.3z M284.1,223.6c0-1,0.2-2,0.6-2.8c0.4-0.8,1-1.5,1.7-1.9c0.7-0.4,1.6-0.7,2.5-0.7
	c1.4,0,2.6,0.5,3.5,1.5c0.9,1,1.3,2.3,1.3,4v0.1c0,1-0.2,2-0.6,2.8c-0.4,0.8-1,1.4-1.7,1.9c-0.7,0.5-1.6,0.7-2.5,0.7
	c-1.4,0-2.6-0.5-3.5-1.5c-0.9-1-1.3-2.3-1.3-4V223.6z M285.9,223.8c0,1.2,0.3,2.1,0.8,2.8c0.5,0.7,1.3,1.1,2.2,1.1
	c0.9,0,1.6-0.4,2.2-1.1c0.5-0.7,0.8-1.7,0.8-3c0-1.2-0.3-2.1-0.8-2.8c-0.5-0.7-1.3-1.1-2.2-1.1c-0.9,0-1.6,0.4-2.2,1.1
	C286.2,221.5,285.9,222.5,285.9,223.8z M296.9,229v-9.2h-1.7v-1.4h1.7v-1.1c0-1.1,0.3-2,0.9-2.6c0.6-0.6,1.5-0.9,2.6-0.9
	c0.4,0,0.8,0.1,1.2,0.2l-0.1,1.5c-0.3-0.1-0.6-0.1-1-0.1c-0.6,0-1,0.2-1.4,0.5c-0.3,0.3-0.5,0.8-0.5,1.5v1.1h2.3v1.4h-2.3v9.2H296.9
	z M305.4,215.9v2.6h2v1.4h-2v6.6c0,0.4,0.1,0.7,0.3,1c0.2,0.2,0.5,0.3,0.9,0.3c0.2,0,0.5,0,0.9-0.1v1.5c-0.5,0.1-0.9,0.2-1.4,0.2
	c-0.8,0-1.4-0.2-1.8-0.7c-0.4-0.5-0.6-1.2-0.6-2.1v-6.6h-1.9v-1.4h1.9v-2.6H305.4z M313.9,229.2c-1.4,0-2.6-0.5-3.5-1.4
	c-0.9-0.9-1.3-2.2-1.3-3.8v-0.3c0-1,0.2-2,0.6-2.8c0.4-0.8,1-1.5,1.7-1.9c0.7-0.5,1.5-0.7,2.3-0.7c1.4,0,2.4,0.5,3.2,1.4
	c0.8,0.9,1.1,2.2,1.1,3.9v0.8h-7.2c0,1,0.3,1.9,0.9,2.5c0.6,0.6,1.3,1,2.2,1c0.6,0,1.2-0.1,1.6-0.4c0.4-0.3,0.8-0.6,1.2-1l1.1,0.9
	C317,228.5,315.6,229.2,313.9,229.2z M313.6,219.7c-0.7,0-1.3,0.3-1.8,0.8c-0.5,0.5-0.8,1.3-0.9,2.2h5.3v-0.1
	c-0.1-0.9-0.3-1.6-0.7-2.1C315,220,314.4,219.7,313.6,219.7z M321.8,218.4l0.1,1.3c0.8-1,1.9-1.5,3.2-1.5c2.2,0,3.4,1.3,3.4,3.8v7
	h-1.8v-7c0-0.8-0.2-1.3-0.5-1.7c-0.3-0.4-0.9-0.5-1.6-0.5c-0.6,0-1.1,0.2-1.5,0.5c-0.4,0.3-0.8,0.7-1,1.2v7.5h-1.8v-10.6H321.8z"/>
<path class="st0" d="M242.4,100.1v1.5h1.2v0.8h-1.2v3.9c0,0.3,0.1,0.4,0.2,0.6c0.1,0.1,0.3,0.2,0.5,0.2c0.1,0,0.3,0,0.5-0.1v0.9
	c-0.3,0.1-0.6,0.1-0.8,0.1c-0.5,0-0.8-0.1-1.1-0.4c-0.2-0.3-0.4-0.7-0.4-1.2v-3.9h-1.2v-0.8h1.2v-1.5H242.4z M248.8,107.4
	c-0.4,0.5-1,0.7-1.9,0.7c-0.7,0-1.2-0.2-1.5-0.6c-0.4-0.4-0.5-1-0.5-1.7v-4.1h1.1v4.1c0,1,0.4,1.4,1.2,1.4c0.8,0,1.4-0.3,1.7-0.9
	v-4.6h1.1v6.3h-1L248.8,107.4z M254.5,102.6c-0.2,0-0.3,0-0.5,0c-0.7,0-1.2,0.3-1.4,0.9v4.5h-1.1v-6.3h1.1l0,0.7
	c0.4-0.6,0.9-0.8,1.5-0.8c0.2,0,0.4,0,0.5,0.1V102.6z M256.6,101.7l0,0.8c0.5-0.6,1.1-0.9,1.9-0.9c1.3,0,2,0.8,2,2.3v4.2h-1.1v-4.2
	c0-0.5-0.1-0.8-0.3-1c-0.2-0.2-0.5-0.3-1-0.3c-0.4,0-0.7,0.1-0.9,0.3c-0.3,0.2-0.5,0.4-0.6,0.7v4.5h-1.1v-6.3H256.6z M265.9,106.3
	c0-0.3-0.1-0.5-0.3-0.7c-0.2-0.2-0.6-0.3-1.2-0.4c-0.5-0.1-1-0.3-1.3-0.4c-0.3-0.2-0.6-0.4-0.7-0.6c-0.2-0.2-0.2-0.5-0.2-0.8
	c0-0.5,0.2-1,0.7-1.3c0.4-0.4,1-0.5,1.7-0.5c0.7,0,1.3,0.2,1.7,0.6c0.4,0.4,0.7,0.8,0.7,1.4h-1.1c0-0.3-0.1-0.6-0.4-0.8
	c-0.2-0.2-0.6-0.3-0.9-0.3c-0.4,0-0.7,0.1-0.9,0.3c-0.2,0.2-0.3,0.4-0.3,0.7c0,0.3,0.1,0.5,0.3,0.6c0.2,0.1,0.6,0.3,1.1,0.4
	c0.5,0.1,1,0.3,1.3,0.4c0.3,0.2,0.6,0.4,0.7,0.6c0.2,0.2,0.2,0.5,0.2,0.9c0,0.6-0.2,1-0.7,1.4c-0.5,0.3-1,0.5-1.8,0.5
	c-0.5,0-1-0.1-1.3-0.3c-0.4-0.2-0.7-0.4-0.9-0.8c-0.2-0.3-0.3-0.7-0.3-1h1.1c0,0.4,0.2,0.7,0.4,0.9c0.3,0.2,0.6,0.3,1.1,0.3
	c0.4,0,0.7-0.1,1-0.2C265.7,106.8,265.9,106.6,265.9,106.3z M271,104.8c0-0.6,0.1-1.2,0.4-1.7c0.2-0.5,0.6-0.9,1-1.1
	c0.4-0.3,0.9-0.4,1.5-0.4c0.9,0,1.6,0.3,2.1,0.9c0.5,0.6,0.8,1.4,0.8,2.4v0.1c0,0.6-0.1,1.2-0.4,1.7c-0.2,0.5-0.6,0.9-1,1.1
	c-0.4,0.3-0.9,0.4-1.5,0.4c-0.9,0-1.6-0.3-2.1-0.9C271.3,106.6,271,105.8,271,104.8L271,104.8z M272.1,104.9c0,0.7,0.2,1.3,0.5,1.7
	c0.3,0.4,0.8,0.6,1.3,0.6c0.6,0,1-0.2,1.3-0.6c0.3-0.4,0.5-1,0.5-1.8c0-0.7-0.2-1.3-0.5-1.7c-0.3-0.4-0.8-0.7-1.3-0.7
	c-0.5,0-1,0.2-1.3,0.6C272.3,103.5,272.1,104.1,272.1,104.9z M282.1,107.4c-0.4,0.5-1,0.7-1.9,0.7c-0.7,0-1.2-0.2-1.5-0.6
	c-0.4-0.4-0.5-1-0.5-1.7v-4.1h1.1v4.1c0,1,0.4,1.4,1.2,1.4c0.8,0,1.4-0.3,1.7-0.9v-4.6h1.1v6.3h-1L282.1,107.4z M286.3,100.1v1.5
	h1.2v0.8h-1.2v3.9c0,0.3,0.1,0.4,0.2,0.6c0.1,0.1,0.3,0.2,0.5,0.2c0.1,0,0.3,0,0.5-0.1v0.9c-0.3,0.1-0.6,0.1-0.8,0.1
	c-0.5,0-0.9-0.1-1.1-0.4c-0.2-0.3-0.4-0.7-0.4-1.2v-3.9H284v-0.8h1.2v-1.5H286.3z"/>
<path class="st0" d="M99.2,128.5l0,1.1c0.7-0.8,1.6-1.2,2.8-1.2c1.3,0,2.2,0.5,2.7,1.5c0.3-0.5,0.7-0.8,1.2-1.1
	c0.5-0.3,1.1-0.4,1.8-0.4c2.1,0,3.1,1.1,3.2,3.3v6.4h-1.6v-6.3c0-0.7-0.2-1.2-0.5-1.5c-0.3-0.3-0.8-0.5-1.6-0.5
	c-0.6,0-1.1,0.2-1.5,0.5c-0.4,0.4-0.6,0.8-0.7,1.4v6.3h-1.6v-6.2c0-1.4-0.7-2.1-2-2.1c-1.1,0-1.8,0.5-2.2,1.4v6.9h-1.6v-9.5H99.2z
	 M113,133.2c0-0.9,0.2-1.8,0.5-2.5c0.4-0.7,0.9-1.3,1.5-1.7c0.7-0.4,1.4-0.6,2.2-0.6c1.3,0,2.3,0.4,3.1,1.3c0.8,0.9,1.2,2.1,1.2,3.6
	v0.1c0,0.9-0.2,1.8-0.5,2.5c-0.4,0.7-0.9,1.3-1.5,1.7c-0.7,0.4-1.4,0.6-2.3,0.6c-1.3,0-2.3-0.4-3.1-1.3c-0.8-0.9-1.2-2.1-1.2-3.6
	V133.2z M114.6,133.4c0,1.1,0.2,1.9,0.7,2.5c0.5,0.6,1.1,1,2,1c0.8,0,1.5-0.3,2-1c0.5-0.7,0.7-1.6,0.7-2.7c0-1-0.2-1.9-0.7-2.5
	c-0.5-0.7-1.1-1-2-1c-0.8,0-1.5,0.3-1.9,1C114.9,131.2,114.6,132.2,114.6,133.4z M128.3,129.9c-0.2,0-0.5-0.1-0.8-0.1
	c-1.1,0-1.8,0.5-2.2,1.4v6.8h-1.6v-9.5h1.6l0,1.1c0.5-0.9,1.3-1.3,2.3-1.3c0.3,0,0.6,0,0.7,0.1V129.9z M133.6,138.2
	c-1.3,0-2.3-0.4-3.1-1.3c-0.8-0.8-1.2-2-1.2-3.4v-0.3c0-0.9,0.2-1.8,0.5-2.5c0.4-0.7,0.9-1.3,1.5-1.7c0.7-0.4,1.4-0.6,2.1-0.6
	c1.2,0,2.2,0.4,2.9,1.2c0.7,0.8,1,2,1,3.5v0.7h-6.4c0,0.9,0.3,1.7,0.8,2.3c0.5,0.6,1.2,0.9,2,0.9c0.6,0,1.1-0.1,1.5-0.4
	c0.4-0.2,0.7-0.5,1-0.9l1,0.8C136.3,137.6,135.1,138.2,133.6,138.2z M133.4,129.6c-0.7,0-1.2,0.2-1.7,0.7c-0.4,0.5-0.7,1.1-0.8,2
	h4.8v-0.1c0-0.8-0.3-1.5-0.7-1.9C134.6,129.9,134,129.6,133.4,129.6z M151.7,133.4c0,1.5-0.3,2.6-1,3.5c-0.7,0.9-1.6,1.3-2.7,1.3
	c-1.2,0-2.1-0.4-2.8-1.3l-0.1,1.1h-1.5v-13.5h1.6v5c0.7-0.8,1.6-1.2,2.7-1.2c1.2,0,2.1,0.4,2.7,1.3c0.7,0.9,1,2.1,1,3.6V133.4z
	 M150,133.2c0-1.1-0.2-2-0.6-2.6c-0.4-0.6-1-0.9-1.8-0.9c-1.1,0-1.8,0.5-2.3,1.5v4.1c0.5,1,1.3,1.5,2.3,1.5c0.8,0,1.4-0.3,1.8-0.9
	C149.8,135.3,150,134.4,150,133.2z M157.7,138.2c-1.3,0-2.3-0.4-3.1-1.3c-0.8-0.8-1.2-2-1.2-3.4v-0.3c0-0.9,0.2-1.8,0.5-2.5
	c0.4-0.7,0.9-1.3,1.5-1.7c0.7-0.4,1.4-0.6,2.1-0.6c1.2,0,2.2,0.4,2.9,1.2c0.7,0.8,1,2,1,3.5v0.7h-6.4c0,0.9,0.3,1.7,0.8,2.3
	c0.5,0.6,1.2,0.9,2,0.9c0.6,0,1.1-0.1,1.5-0.4c0.4-0.2,0.7-0.5,1-0.9l1,0.8C160.5,137.6,159.3,138.2,157.7,138.2z M157.5,129.6
	c-0.7,0-1.2,0.2-1.7,0.7c-0.4,0.5-0.7,1.1-0.8,2h4.8v-0.1c0-0.8-0.3-1.5-0.7-1.9C158.7,129.9,158.1,129.6,157.5,129.6z M169.1,138
	c-0.1-0.2-0.2-0.5-0.2-1c-0.8,0.8-1.7,1.2-2.7,1.2c-0.9,0-1.7-0.3-2.3-0.8c-0.6-0.5-0.9-1.2-0.9-2c0-1,0.4-1.8,1.1-2.3
	c0.8-0.6,1.8-0.8,3.2-0.8h1.6v-0.7c0-0.6-0.2-1-0.5-1.4c-0.3-0.3-0.8-0.5-1.5-0.5c-0.6,0-1.1,0.1-1.5,0.4c-0.4,0.3-0.6,0.6-0.6,1.1
	h-1.6c0-0.5,0.2-0.9,0.5-1.4c0.3-0.4,0.8-0.8,1.4-1.1c0.6-0.3,1.2-0.4,1.9-0.4c1.1,0,2,0.3,2.6,0.8c0.6,0.5,0.9,1.3,1,2.3v4.4
	c0,0.9,0.1,1.6,0.3,2.1v0.1H169.1z M166.4,136.8c0.5,0,1-0.1,1.5-0.4c0.5-0.3,0.8-0.6,1-1v-2h-1.3c-2,0-3,0.6-3,1.7
	c0,0.5,0.2,0.9,0.5,1.2C165.5,136.6,165.9,136.8,166.4,136.8z M178.9,137.1c-0.6,0.7-1.6,1.1-2.8,1.1c-1,0-1.8-0.3-2.3-0.9
	c-0.5-0.6-0.8-1.5-0.8-2.6v-6.2h1.6v6.1c0,1.4,0.6,2.2,1.8,2.2c1.2,0,2.1-0.5,2.5-1.4v-6.9h1.6v9.5H179L178.9,137.1z M185.2,126.2
	v2.3h1.8v1.3h-1.8v5.9c0,0.4,0.1,0.7,0.2,0.9c0.2,0.2,0.4,0.3,0.8,0.3c0.2,0,0.4,0,0.8-0.1v1.3c-0.4,0.1-0.8,0.2-1.2,0.2
	c-0.7,0-1.3-0.2-1.6-0.7c-0.4-0.4-0.6-1.1-0.6-1.9v-5.9h-1.7v-1.3h1.7v-2.3H185.2z M190.6,138H189v-9.5h1.6V138z M188.9,126
	c0-0.3,0.1-0.5,0.2-0.7c0.2-0.2,0.4-0.3,0.7-0.3c0.3,0,0.6,0.1,0.7,0.3c0.2,0.2,0.2,0.4,0.2,0.7c0,0.3-0.1,0.5-0.2,0.7
	c-0.2,0.2-0.4,0.3-0.7,0.3c-0.3,0-0.6-0.1-0.7-0.3C189,126.5,188.9,126.2,188.9,126z M194.1,138v-8.3h-1.5v-1.3h1.5v-1
	c0-1,0.3-1.8,0.8-2.4c0.5-0.6,1.3-0.8,2.3-0.8c0.4,0,0.7,0,1.1,0.1l-0.1,1.3c-0.3-0.1-0.6-0.1-0.9-0.1c-0.5,0-0.9,0.2-1.2,0.5
	c-0.3,0.3-0.4,0.7-0.4,1.3v1h2v1.3h-2v8.3H194.1z M205.4,137.1c-0.6,0.7-1.6,1.1-2.8,1.1c-1,0-1.8-0.3-2.3-0.9
	c-0.5-0.6-0.8-1.5-0.8-2.6v-6.2h1.6v6.1c0,1.4,0.6,2.2,1.8,2.2c1.2,0,2.1-0.5,2.5-1.4v-6.9h1.6v9.5h-1.5L205.4,137.1z M211.2,138
	h-1.6v-13.5h1.6V138z"/>
<path class="st0" d="M34.4,247.5v2H36v1.1h-1.6v5.2c0,0.3,0.1,0.6,0.2,0.8c0.1,0.2,0.4,0.2,0.7,0.2c0.2,0,0.4,0,0.7-0.1v1.2
	c-0.4,0.1-0.8,0.2-1.1,0.2c-0.6,0-1.1-0.2-1.5-0.6c-0.3-0.4-0.5-0.9-0.5-1.7v-5.2h-1.5v-1.1h1.5v-2H34.4z M39.1,250.6
	c0.6-0.8,1.5-1.2,2.5-1.2c1.8,0,2.7,1,2.7,3v5.6h-1.4v-5.6c0-0.6-0.1-1.1-0.4-1.4c-0.3-0.3-0.7-0.4-1.3-0.4c-0.5,0-0.9,0.1-1.2,0.4
	s-0.6,0.6-0.8,1v6h-1.4v-12h1.4V250.6z M51.7,258c-0.1-0.2-0.2-0.5-0.2-0.9c-0.7,0.7-1.5,1-2.4,1c-0.8,0-1.5-0.2-2.1-0.7
	c-0.5-0.5-0.8-1.1-0.8-1.8c0-0.9,0.3-1.6,1-2c0.7-0.5,1.6-0.7,2.8-0.7h1.4v-0.7c0-0.5-0.2-0.9-0.5-1.2c-0.3-0.3-0.7-0.5-1.3-0.5
	c-0.5,0-0.9,0.1-1.3,0.4c-0.3,0.3-0.5,0.6-0.5,0.9h-1.5c0-0.4,0.1-0.8,0.4-1.2c0.3-0.4,0.7-0.7,1.2-0.9c0.5-0.2,1.1-0.3,1.7-0.3
	c1,0,1.7,0.2,2.3,0.7c0.6,0.5,0.8,1.2,0.9,2v3.9c0,0.8,0.1,1.4,0.3,1.9v0.1H51.7z M49.3,256.9c0.5,0,0.9-0.1,1.3-0.4
	c0.4-0.2,0.7-0.5,0.9-0.9v-1.7h-1.1c-1.8,0-2.7,0.5-2.7,1.6c0,0.5,0.2,0.8,0.5,1.1C48.4,256.8,48.8,256.9,49.3,256.9z M56.5,249.5
	l0,1.1c0.6-0.8,1.5-1.2,2.5-1.2c1.8,0,2.7,1,2.7,3v5.6h-1.4v-5.6c0-0.6-0.1-1.1-0.4-1.4c-0.3-0.3-0.7-0.4-1.3-0.4
	c-0.5,0-0.9,0.1-1.2,0.4c-0.4,0.2-0.6,0.6-0.8,1v6h-1.4v-8.5H56.5z M69.9,247.5v2h1.6v1.1h-1.6v5.2c0,0.3,0.1,0.6,0.2,0.8
	c0.1,0.2,0.4,0.2,0.7,0.2c0.2,0,0.4,0,0.7-0.1v1.2c-0.4,0.1-0.8,0.2-1.1,0.2c-0.6,0-1.1-0.2-1.5-0.6c-0.3-0.4-0.5-0.9-0.5-1.7v-5.2
	H67v-1.1h1.5v-2H69.9z M74.7,250.6c0.6-0.8,1.5-1.2,2.5-1.2c1.8,0,2.7,1,2.7,3v5.6h-1.4v-5.6c0-0.6-0.1-1.1-0.4-1.4
	c-0.3-0.3-0.7-0.4-1.3-0.4c-0.5,0-0.9,0.1-1.2,0.4c-0.4,0.2-0.6,0.6-0.8,1v6h-1.4v-12h1.4V250.6z M85.5,258.2
	c-1.1,0-2.1-0.4-2.8-1.1c-0.7-0.8-1.1-1.8-1.1-3v-0.3c0-0.8,0.2-1.6,0.5-2.2c0.3-0.7,0.8-1.2,1.3-1.5c0.6-0.4,1.2-0.6,1.9-0.6
	c1.1,0,2,0.4,2.6,1.1c0.6,0.7,0.9,1.8,0.9,3.1v0.6h-5.7c0,0.8,0.3,1.5,0.7,2c0.5,0.5,1.1,0.8,1.8,0.8c0.5,0,0.9-0.1,1.3-0.3
	c0.4-0.2,0.7-0.5,0.9-0.8l0.9,0.7C88,257.6,86.9,258.2,85.5,258.2z M85.4,250.6c-0.6,0-1.1,0.2-1.5,0.6c-0.4,0.4-0.6,1-0.7,1.8h4.2
	v-0.1c0-0.7-0.2-1.3-0.6-1.7C86.4,250.8,86,250.6,85.4,250.6z M101.6,253.9c0,1.3-0.3,2.3-0.9,3.1c-0.6,0.8-1.4,1.2-2.4,1.2
	c-1,0-1.8-0.3-2.4-1v4.1h-1.4v-11.7h1.3l0.1,0.9c0.6-0.7,1.4-1.1,2.5-1.1c1,0,1.8,0.4,2.4,1.1c0.6,0.8,0.9,1.8,0.9,3.2V253.9z
	 M100.2,253.7c0-1-0.2-1.7-0.6-2.3c-0.4-0.6-1-0.8-1.7-0.8c-0.9,0-1.5,0.4-2,1.2v4c0.4,0.8,1.1,1.2,2,1.2c0.7,0,1.2-0.3,1.6-0.8
	C100,255.6,100.2,254.8,100.2,253.7z M108.7,257.2c-0.6,0.7-1.4,1-2.5,1c-0.9,0-1.6-0.3-2.1-0.8c-0.5-0.5-0.7-1.3-0.7-2.3v-5.5h1.4
	v5.5c0,1.3,0.5,1.9,1.6,1.9c1.1,0,1.8-0.4,2.2-1.2v-6.1h1.4v8.5h-1.4L108.7,257.2z M113.6,256.8h4.9v1.2h-6.7v-1.1l4.7-6.2H112v-1.2
	h6.4v1L113.6,256.8z M121.6,256.8h4.9v1.2h-6.7v-1.1l4.7-6.2h-4.6v-1.2h6.4v1L121.6,256.8z M129.7,258h-1.4v-12h1.4V258z
	 M135.6,258.2c-1.1,0-2.1-0.4-2.8-1.1c-0.7-0.8-1.1-1.8-1.1-3v-0.3c0-0.8,0.2-1.6,0.5-2.2c0.3-0.7,0.8-1.2,1.3-1.5
	c0.6-0.4,1.2-0.6,1.9-0.6c1.1,0,2,0.4,2.6,1.1c0.6,0.7,0.9,1.8,0.9,3.1v0.6h-5.7c0,0.8,0.3,1.5,0.7,2c0.5,0.5,1.1,0.8,1.8,0.8
	c0.5,0,0.9-0.1,1.3-0.3c0.4-0.2,0.7-0.5,0.9-0.8l0.9,0.7C138,257.6,137,258.2,135.6,258.2z M135.4,250.6c-0.6,0-1.1,0.2-1.5,0.6
	c-0.4,0.4-0.6,1-0.7,1.8h4.2v-0.1c0-0.7-0.2-1.3-0.6-1.7C136.5,250.8,136,250.6,135.4,250.6z M140.6,257.2c0-0.2,0.1-0.5,0.2-0.6
	c0.2-0.2,0.4-0.2,0.7-0.2s0.5,0.1,0.7,0.2c0.2,0.2,0.2,0.4,0.2,0.6c0,0.2-0.1,0.4-0.2,0.6c-0.2,0.2-0.4,0.2-0.7,0.2
	s-0.5-0.1-0.7-0.2C140.6,257.7,140.6,257.5,140.6,257.2z"/>
<line class="st1" x1="321.5" y1="211.1" x2="292.5" y2="109.1"/>
<line class="st1" x1="235.4" y1="104.3" x2="218.4" y2="132.3"/>
<line class="st1" x1="104.4" y1="145.3" x2="35.4" y2="238.3"/>
</svg>
