<?xml version="1.0" encoding="utf-8"?>
<!-- Generator: Adobe Illustrator 23.0.4, SVG Export Plug-In . SVG Version: 6.00 Build 0)  -->
<svg version="1.1" id="Ebene_1" xmlns="http://www.w3.org/2000/svg" xmlns:xlink="http://www.w3.org/1999/xlink" x="0px" y="0px"
	 viewBox="0 0 360 360" style="enable-background:new 0 0 360 360;" xml:space="preserve">
<style type="text/css">
	.st0{fill:#29B96F;}
	.st1{fill:#0A040B;}
	.st2{fill:none;stroke:#29B96F;}
	.st3{fill:none;stroke:#FFFFFF;stroke-width:2;stroke-dasharray:5,5;}
	.st4{fill:#FFFFFF;}
</style>
<path class="st0" d="M246.5,217.9v-35.5l53.6-34.2l0.6,0.8V183l-0.2,0.1L246.5,217.9z M247.5,183v33.1l52.2-33.7v-32.7L247.5,183z"
	/>
<polygon class="st0" points="247.2,182.4 223.7,167.4 223.7,168.6 246.2,183 246.1,216.1 235.2,209 235.2,210.2 247.1,217.9 "/>
<path class="st0" d="M300.2,148.1l-52.9-34L247,114l-45.1,29l0,0.2c-0.3,3.2-1,6.4-2.1,9.4l-0.1,0.4l0,0c0.5-1.3,1-2.7,1.4-4.2
	l0.2-0.7l0.9,0.6c0.4-1.7,0.7-3.4,0.9-5.1l44.1-28.3l52.2,33.5L247,182.2l-23.3-15v1.2l23,14.8l0.3,0.2l53.7-34.4L300.2,148.1z"/>
<g>
	<polygon class="st0" points="182,223.6 181.5,223.9 182,223.6 	"/>
	<polygon class="st0" points="235.1,188.1 223.7,195.4 223.7,196 235,188.8 235.2,189.1 235.2,222.6 181.5,257 181.5,223.9 
		181,224.2 181,257.9 235.7,222.9 235.7,188.9 	"/>
	<polygon class="st0" points="235.2,222.6 235.2,189.1 235,188.8 223.7,196 223.7,196.6 234.7,189.6 234.7,222.3 182,256.1 
		182,223.6 181.5,223.9 181.5,257 	"/>
</g>
<g>
	<polygon class="st0" points="181.5,223.9 181.7,223.8 181.7,223.8 180.7,224.4 180.6,256.1 169.7,249.1 169.7,250.3 181.6,257.9 
		181.6,256.9 181.5,257 	"/>
	<polygon class="st0" points="181.5,223.9 181.5,257 181.6,256.9 181.7,223.8 	"/>
</g>
<g>
	<polygon class="st1" points="223.7,196 223.7,196 235,188.8 	"/>
	<path class="st0" d="M170.6,173.9c0.4,0,0.9-0.1,1.3-0.1C171.5,173.9,171,173.9,170.6,173.9z"/>
	<path class="st0" d="M172.3,173.8c0.5-0.1,1.1-0.1,1.6-0.2C173.4,173.6,172.8,173.7,172.3,173.8z"/>
	<path class="st0" d="M168.5,174c0.6,0,1.1,0,1.7,0C169.6,174,169.1,174,168.5,174z"/>
	<path class="st0" d="M164.2,173.7c0.1,0,0.3,0,0.4,0C164.4,173.7,164.3,173.7,164.2,173.7z"/>
	<path class="st0" d="M165.5,173.9c0.3,0,0.5,0,0.8,0.1C166,173.9,165.7,173.9,165.5,173.9z"/>
	<path class="st0" d="M166.9,174c0.5,0,1,0,1.6,0C168,174,167.5,174,166.9,174z"/>
	<polygon class="st0" points="235.2,189.1 235.2,189.3 235.7,188.9 235.2,188.2 223.7,180.9 223.7,182 234.2,188.7 223.7,195.4 
		223.7,196 235,188.8 	"/>
	<polygon class="st0" points="235.2,189.1 235,188.8 223.7,196 223.7,196.6 235.2,189.3 	"/>
</g>
<g>
	<polygon class="st2" points="115.5,264.7 115.5,299 169.2,264.6 169.2,231.1 169,230.8 	"/>
	<polygon class="st2" points="61.5,230.9 61.5,264.6 115.1,299 115.2,264.7 61.7,230.8 	"/>
	<polygon class="st2" points="115.5,196.6 61.9,230.7 115.5,264.8 169,230.8 168.8,230.5 	"/>
	<polygon class="st2" points="223.2,163.1 223,162.8 169.5,196.7 169.5,231 223.2,196.6 	"/>
	<polygon class="st2" points="115.5,162.9 115.5,196.6 169.1,231 169.2,196.7 115.7,162.8 	"/>
	<path class="st2" d="M222.8,162.5l-21.4-13.6c-3.7,14.7-17.1,25.6-32.9,25.6c-15.5,0-28.5-10.3-32.6-24.5l-20,12.7l53.6,34.1
		l53.5-34L222.8,162.5z"/>
</g>
<circle class="st2" cx="168.5" cy="140.5" r="34"/>
<circle class="st3" cx="168.5" cy="140.5" r="39.5"/>
<path class="st4" d="M226.5,106.1c0.1-0.3-0.1-0.5-0.4-0.6l-4.4-1.1c-0.3-0.1-0.5,0.1-0.6,0.4s0.1,0.5,0.4,0.6l3.9,1l-1,3.9
	c-0.1,0.3,0.1,0.5,0.4,0.6c0.3,0.1,0.5-0.1,0.6-0.4L226.5,106.1z M202.3,120.4l24-14l-0.5-0.9l-24,14L202.3,120.4z"/>
<path class="st4" d="M170.4,72.6c-0.2-0.2-0.5-0.2-0.7,0l-3.2,3.2c-0.2,0.2-0.2,0.5,0,0.7s0.5,0.2,0.7,0l2.8-2.8l2.8,2.8
	c0.2,0.2,0.5,0.2,0.7,0s0.2-0.5,0-0.7L170.4,72.6z M170.5,100.8V73h-1v27.8H170.5z"/>
</svg>
