<?xml version="1.0" encoding="utf-8"?>
<!-- Generator: Adobe Illustrator 23.0.4, SVG Export Plug-In . SVG Version: 6.00 Build 0)  -->
<svg version="1.1" id="Ebene_1" xmlns="http://www.w3.org/2000/svg" xmlns:xlink="http://www.w3.org/1999/xlink" x="0px" y="0px"
	 viewBox="0 0 360 360" style="enable-background:new 0 0 360 360;" xml:space="preserve">
<style type="text/css">
	.st0{fill:#FFFFFF;}
	.st1{fill:none;stroke:#9F9E97;}
	.st2{fill:#9F9E97;}
	.st3{fill:#647CC1;}
	.st4{fill:#29B96F;}
	.st5{fill:#E55E4E;}
</style>
<path class="st0" d="M296.6,95.3l-26.9,37.8c-1,1.5-3.1,1.9-4.6,1L243.5,121c-2.1-1.3-4.7-0.7-6.1,1.3l-54.7,81.4
	c-0.6,0.9-1.5,1.4-2.5,1.6c-1,0.1-2.1-0.2-2.8-0.9l-24.7-23.5c-1.6-1.5-3.9-1.7-5.6-0.4l-80,54.8c0.2,0.3,0.4,0.5,0.6,0.8l80-54.8
	c1.4-0.9,3.1-0.8,4.4,0.3l24.7,23.5c1,0.9,2.3,1.4,3.6,1.2c1.3-0.2,2.5-0.9,3.2-2l54.7-81.4c1-1.6,3.1-2,4.7-1l21.6,13.1
	c2,1.2,4.6,0.7,6-1.2l27-37.9C297.2,95.7,296.9,95.5,296.6,95.3z"/>
<circle class="st1" cx="300.5" cy="89.5" r="7"/>
<circle class="st1" cx="61.5" cy="239.5" r="7"/>
<path class="st2" d="M259.3,153h-1.1v-7.2l-2.2,0.8v-1l3.1-1.2h0.2V153z"/>
<path class="st2" d="M267.1,150.1h1.2v0.9h-1.2v2H266v-2h-3.9v-0.6l3.8-5.9h1.2V150.1z M263.4,150.1h2.7V146l-0.1,0.2L263.4,150.1z"
	/>
<path class="st2" d="M269.3,152.4c0-0.2,0.1-0.3,0.2-0.5c0.1-0.1,0.3-0.2,0.5-0.2s0.4,0.1,0.5,0.2c0.1,0.1,0.2,0.3,0.2,0.5
	s-0.1,0.3-0.2,0.5c-0.1,0.1-0.3,0.2-0.5,0.2s-0.4-0.1-0.5-0.2S269.3,152.6,269.3,152.4z M269.3,147.3c0-0.2,0.1-0.3,0.2-0.5
	c0.1-0.1,0.3-0.2,0.5-0.2s0.4,0.1,0.5,0.2c0.1,0.1,0.2,0.3,0.2,0.5s-0.1,0.3-0.2,0.5c-0.1,0.1-0.3,0.2-0.5,0.2s-0.4-0.1-0.5-0.2
	C269.4,147.6,269.3,147.4,269.3,147.3z"/>
<path class="st2" d="M277.8,153h-5.6v-0.8l3-3.3c0.4-0.5,0.7-0.9,0.9-1.2c0.2-0.3,0.3-0.6,0.3-1s-0.1-0.8-0.4-1.1s-0.6-0.4-1.1-0.4
	s-1,0.2-1.3,0.5s-0.4,0.7-0.4,1.3H272c0-0.8,0.3-1.4,0.8-1.9s1.2-0.7,2-0.7s1.4,0.2,1.9,0.6c0.5,0.4,0.7,1,0.7,1.7
	c0,0.8-0.5,1.8-1.6,3l-2.3,2.5h4.3V153z"/>
<path class="st2" d="M279.4,148.7l0.4-4.3h4.4v1h-3.5l-0.3,2.3c0.4-0.2,0.9-0.4,1.4-0.4c0.8,0,1.4,0.3,1.9,0.8s0.7,1.2,0.7,2.1
	c0,0.9-0.2,1.6-0.7,2.1s-1.1,0.8-2,0.8c-0.8,0-1.4-0.2-1.8-0.6c-0.5-0.4-0.7-1-0.8-1.7h1c0.1,0.5,0.2,0.9,0.5,1.1
	c0.3,0.2,0.7,0.4,1.1,0.4c0.5,0,0.9-0.2,1.2-0.5c0.3-0.3,0.4-0.8,0.4-1.4c0-0.6-0.2-1-0.5-1.4c-0.3-0.3-0.7-0.5-1.2-0.5
	s-0.8,0.1-1.1,0.3l-0.3,0.2L279.4,148.7z"/>
<path class="st2" d="M137.3,169h-1.1v-7.2l-2.2,0.8v-1l3.1-1.2h0.2V169z"/>
<path class="st2" d="M146.1,169h-5.6v-0.8l3-3.3c0.4-0.5,0.7-0.9,0.9-1.2s0.3-0.6,0.3-1s-0.1-0.8-0.4-1.1c-0.3-0.3-0.6-0.4-1.1-0.4
	s-1,0.2-1.3,0.5s-0.4,0.7-0.4,1.3h-1.1c0-0.8,0.3-1.4,0.8-1.9s1.2-0.7,2-0.7s1.4,0.2,1.9,0.6c0.5,0.4,0.7,1,0.7,1.7
	c0,0.8-0.5,1.8-1.6,3l-2.3,2.5h4.3L146.1,169L146.1,169z"/>
<path class="st2" d="M147.3,168.4c0-0.2,0.1-0.3,0.2-0.5c0.1-0.1,0.3-0.2,0.5-0.2s0.4,0.1,0.5,0.2c0.1,0.1,0.2,0.3,0.2,0.5
	s-0.1,0.3-0.2,0.5c-0.1,0.1-0.3,0.2-0.5,0.2s-0.4-0.1-0.5-0.2S147.3,168.6,147.3,168.4z M147.3,163.3c0-0.2,0.1-0.3,0.2-0.5
	c0.1-0.1,0.3-0.2,0.5-0.2s0.4,0.1,0.5,0.2c0.1,0.1,0.2,0.3,0.2,0.5s-0.1,0.3-0.2,0.5c-0.1,0.1-0.3,0.2-0.5,0.2s-0.4-0.1-0.5-0.2
	C147.4,163.6,147.3,163.4,147.3,163.3z"/>
<path class="st2" d="M153.7,169h-1.1v-7.2l-2.2,0.8v-1l3.1-1.2h0.2V169z"/>
<path class="st2" d="M162.2,165.4c0,1.3-0.2,2.2-0.6,2.8c-0.4,0.6-1.1,0.9-2,0.9s-1.6-0.3-2-0.9c-0.4-0.6-0.7-1.5-0.7-2.7v-1.4
	c0-1.3,0.2-2.2,0.7-2.8c0.4-0.6,1.1-0.9,2-0.9s1.6,0.3,2,0.9c0.4,0.6,0.7,1.5,0.7,2.7L162.2,165.4L162.2,165.4z M161.2,163.9
	c0-0.9-0.1-1.6-0.4-2c-0.3-0.4-0.7-0.6-1.2-0.6c-0.6,0-1,0.2-1.2,0.6s-0.4,1.1-0.4,1.9v1.7c0,0.9,0.1,1.6,0.4,2
	c0.3,0.4,0.7,0.7,1.2,0.7s0.9-0.2,1.2-0.6c0.3-0.4,0.4-1.1,0.4-2V163.9z"/>
<circle class="st3" cx="61.5" cy="262.5" r="7.5"/>
<circle class="st4" cx="180.5" cy="224.5" r="7.5"/>
<circle class="st5" cx="240.5" cy="104.5" r="7.5"/>
</svg>
