<?xml version="1.0" encoding="utf-8"?>
<!-- Generator: Adobe Illustrator 23.0.4, SVG Export Plug-In . SVG Version: 6.00 Build 0)  -->
<svg version="1.1" id="Ebene_1" xmlns="http://www.w3.org/2000/svg" xmlns:xlink="http://www.w3.org/1999/xlink" x="0px" y="0px"
	 viewBox="0 0 510 360" style="enable-background:new 0 0 510 360;" xml:space="preserve">
<style type="text/css">
	.st0{fill:#9F9E97;}
	.st1{fill:#29B96F;}
	.st2{fill:none;stroke:#FFFFFF;stroke-width:2;}
</style>
<path class="st0" d="M254,105.9c-5.8,0-10.5-4.7-10.5-10.5s4.7-10.5,10.5-10.5c5.8,0,10.5,4.7,10.5,10.5S259.8,105.9,254,105.9z
	 M254,85.9c-5.2,0-9.5,4.3-9.5,9.5s4.3,9.5,9.5,9.5s9.5-4.3,9.5-9.5S259.2,85.9,254,85.9z"/>
<path class="st0" d="M254.1,166l0.2-60.2l-1,0l-0.2,60.2C253.4,166,253.7,166,254.1,166z"/>
<path class="st0" d="M254,275.1c-5.8,0-10.5-4.7-10.5-10.5s4.7-10.5,10.5-10.5c5.8,0,10.5,4.7,10.5,10.5S259.8,275.1,254,275.1z
	 M254,255.1c-5.2,0-9.5,4.3-9.5,9.5s4.3,9.5,9.5,9.5s9.5-4.3,9.5-9.5S259.2,255.1,254,255.1z"/>
<path class="st0" d="M253.9,194l-0.3,60.2l1,0l0.3-60.3C254.6,194,254.3,194,253.9,194z"/>
<path class="st0" d="M170,190.5c-5.8,0-10.5-4.7-10.5-10.5s4.7-10.5,10.5-10.5s10.5,4.7,10.5,10.5S175.8,190.5,170,190.5z
	 M170,170.5c-5.2,0-9.5,4.3-9.5,9.5c0,5.2,4.3,9.5,9.5,9.5s9.5-4.3,9.5-9.5C179.5,174.8,175.2,170.5,170,170.5z"/>
<path class="st0" d="M239.7,179.9l-59.2-0.3l0,1l59.2,0.3C239.7,180.6,239.7,180.3,239.7,179.9z"/>
<path class="st0" d="M339.3,190.5c-5.8,0-10.5-4.7-10.5-10.5s4.7-10.5,10.5-10.5s10.5,4.7,10.5,10.5S345.1,190.5,339.3,190.5z
	 M339.3,170.5c-5.2,0-9.5,4.3-9.5,9.5c0,5.2,4.3,9.5,9.5,9.5s9.5-4.3,9.5-9.5C348.8,174.8,344.5,170.5,339.3,170.5z"/>
<path class="st0" d="M328.8,179.3l-61.1-0.2c0,0.3,0,0.7,0,1l61.1,0.2L328.8,179.3z"/>
<path class="st0" d="M194,250.9c-5.8,0-10.5-4.7-10.5-10.5s4.7-10.5,10.5-10.5s10.5,4.7,10.5,10.5S199.8,250.9,194,250.9z
	 M194,230.9c-5.2,0-9.5,4.3-9.5,9.5s4.3,9.5,9.5,9.5s9.5-4.3,9.5-9.5S199.2,230.9,194,230.9z"/>
<path class="st0" d="M244.1,190.2l-43,42.6l0.7,0.7l43-42.6C244.6,190.6,244.4,190.4,244.1,190.2z"/>
<path class="st0" d="M313.7,250.9c-5.8,0-10.5-4.7-10.5-10.5s4.7-10.5,10.5-10.5s10.5,4.7,10.5,10.5S319.5,250.9,313.7,250.9z
	 M313.7,230.9c-5.2,0-9.5,4.3-9.5,9.5s4.3,9.5,9.5,9.5s9.5-4.3,9.5-9.5S318.9,230.9,313.7,230.9z"/>
<path class="st0" d="M306.6,232.7L263.4,190c-0.2,0.2-0.5,0.5-0.7,0.7l43.2,42.7L306.6,232.7z"/>
<path class="st0" d="M194,131.2c-5.8,0-10.5-4.7-10.5-10.5s4.7-10.5,10.5-10.5s10.5,4.7,10.5,10.5S199.8,131.2,194,131.2z
	 M194,111.2c-5.2,0-9.5,4.3-9.5,9.5s4.3,9.5,9.5,9.5s9.5-4.3,9.5-9.5S199.2,111.2,194,111.2z"/>
<path class="st0" d="M201.9,127.6l-0.7,0.7l42.4,42c0.2-0.2,0.5-0.5,0.7-0.7L201.9,127.6z"/>
<path class="st0" d="M221.7,112.6c-5.8,0-10.5-4.7-10.5-10.5s4.7-10.5,10.5-10.5s10.5,4.7,10.5,10.5S227.5,112.6,221.7,112.6z
	 M221.7,92.6c-5.2,0-9.5,4.3-9.5,9.5s4.3,9.5,9.5,9.5s9.5-4.3,9.5-9.5S226.9,92.6,221.7,92.6z"/>
<path class="st0" d="M226,111.6L225,112l22.6,55.4c0.3-0.1,0.6-0.3,0.9-0.4L226,111.6z"/>
<path class="st0" d="M286.4,269c-5.8,0-10.5-4.7-10.5-10.5c0-5.8,4.7-10.5,10.5-10.5s10.5,4.7,10.5,10.5
	C296.9,264.3,292.2,269,286.4,269z M286.4,249c-5.2,0-9.5,4.3-9.5,9.5c0,5.2,4.3,9.5,9.5,9.5s9.5-4.3,9.5-9.5
	C295.9,253.3,291.6,249,286.4,249z"/>
<path class="st0" d="M283.1,248.5l-23-56.1c-0.3,0.2-0.6,0.3-0.9,0.4l23,56L283.1,248.5z"/>
<path class="st0" d="M176.5,222.9c-5.8,0-10.5-4.7-10.5-10.5s4.7-10.5,10.5-10.5s10.5,4.7,10.5,10.5S182.3,222.9,176.5,222.9z
	 M176.5,202.9c-5.2,0-9.5,4.3-9.5,9.5s4.3,9.5,9.5,9.5s9.5-4.3,9.5-9.5S181.7,202.9,176.5,202.9z"/>
<path class="st0" d="M186,208l0.4,0.9l55-22.4c-0.2-0.3-0.3-0.6-0.4-0.9L186,208z"/>
<path class="st0" d="M332.9,158.1c-4.1,0-8-2.4-9.7-6.5c-2.2-5.3,0.3-11.5,5.7-13.7l0,0c5.4-2.2,11.5,0.3,13.7,5.7
	c1.1,2.6,1.1,5.4,0,8s-3.1,4.6-5.7,5.7C335.6,157.8,334.3,158.1,332.9,158.1z M329.3,138.8c-4.8,2-7.1,7.6-5.1,12.4
	c2,4.8,7.6,7.1,12.4,5.1c2.3-1,4.2-2.8,5.1-5.1c1-2.3,1-4.9,0-7.3C339.7,139.1,334.1,136.8,329.3,138.8L329.3,138.8z"/>
<path class="st0" d="M323.3,152l-0.4-0.9l-56.5,23.1c0.1,0.3,0.3,0.6,0.4,0.9L323.3,152z"/>
<path class="st0" d="M221.7,269.5c-1.3,0-2.7-0.3-4-0.8c-5.3-2.2-7.9-8.4-5.7-13.7l0,0c1.1-2.6,3.1-4.6,5.7-5.7c2.6-1.1,5.4-1.1,8,0
	c2.6,1.1,4.6,3.1,5.7,5.7c1.1,2.6,1.1,5.4,0,8C229.7,267.1,225.8,269.5,221.7,269.5z M221.7,249.5c-1.2,0-2.5,0.2-3.6,0.7
	c-2.3,1-4.2,2.8-5.1,5.1l0,0c-2,4.8,0.3,10.4,5.1,12.4c4.8,2,10.4-0.3,12.4-5.1c1-2.3,1-4.9,0-7.3c-1-2.3-2.8-4.2-5.1-5.1
	C224.2,249.8,222.9,249.5,221.7,249.5z"/>
<path class="st0" d="M225.4,249.2l0.9,0.4l23.6-56.1c-0.3-0.1-0.6-0.2-1-0.3L225.4,249.2z"/>
<path class="st0" d="M286.5,113.1c-1.4,0-2.7-0.3-4-0.8c-2.6-1.1-4.6-3.1-5.7-5.7s-1.1-5.4,0-8s3.1-4.6,5.7-5.7c2.6-1.1,5.4-1.1,8,0
	c5.3,2.2,7.9,8.4,5.7,13.7c-1.1,2.6-3.1,4.6-5.7,5.7C289.2,112.8,287.8,113.1,286.5,113.1z M286.5,93.1c-1.2,0-2.5,0.2-3.6,0.7
	c-2.3,1-4.2,2.8-5.1,5.1l0,0c-1,2.3-1,4.9,0,7.3c1,2.3,2.8,4.2,5.1,5.1c2.3,1,4.9,1,7.3,0c2.3-1,4.2-2.8,5.1-5.1
	c2-4.8-0.3-10.4-5.1-12.4C288.9,93.3,287.7,93.1,286.5,93.1z"/>
<path class="st0" d="M282.8,112.5l-0.9-0.4l-23,54.8c0.3,0.1,0.6,0.3,0.9,0.4L282.8,112.5z"/>
<path class="st0" d="M332.3,223.7c-5.8,0-10.5-4.7-10.5-10.5s4.7-10.5,10.5-10.5s10.5,4.7,10.5,10.5S338.1,223.7,332.3,223.7z
	 M332.3,203.7c-5.2,0-9.5,4.3-9.5,9.5s4.3,9.5,9.5,9.5s9.5-4.3,9.5-9.5S337.5,203.7,332.3,203.7z"/>
<path class="st0" d="M322.8,208.8l-56.4-23c-0.1,0.3-0.3,0.6-0.5,0.9l56.5,23L322.8,208.8z"/>
<path class="st0" d="M175.9,158.9c-5.8,0-10.5-4.7-10.5-10.5s4.7-10.5,10.5-10.5s10.5,4.7,10.5,10.5S181.7,158.9,175.9,158.9z
	 M175.9,138.9c-5.2,0-9.5,4.3-9.5,9.5s4.3,9.5,9.5,9.5s9.5-4.3,9.5-9.5S181.1,138.9,175.9,138.9z"/>
<path class="st0" d="M185.9,151.8l-0.4,0.9l55,22.5c0.1-0.3,0.2-0.6,0.4-0.9L185.9,151.8z"/>
<path class="st1" d="M339,110.2c-8.3,0-15-6.7-15-15s6.7-15,15-15s15,6.7,15,15S347.3,110.2,339,110.2z M339,82.2
	c-7.2,0-13,5.8-13,13s5.8,13,13,13s13-5.8,13-13S346.2,82.2,339,82.2z"/>
<path class="st1" d="M263.9,170.4l64.9-64.3l-0.7-0.7l-64.9,64.3C263.4,169.9,263.7,170.2,263.9,170.4z"/>
<ellipse transform="matrix(0.9592 -0.2827 0.2827 0.9592 -40.5373 79.0699)" class="st2" cx="253.7" cy="180" rx="14" ry="14"/>
</svg>
