<?xml version="1.0" encoding="utf-8"?>
<!-- Generator: Adobe Illustrator 23.0.4, SVG Export Plug-In . SVG Version: 6.00 Build 0)  -->
<svg version="1.1" id="Ebene_1" xmlns="http://www.w3.org/2000/svg" xmlns:xlink="http://www.w3.org/1999/xlink" x="0px" y="0px"
	 viewBox="0 0 360 360" style="enable-background:new 0 0 360 360;" xml:space="preserve">
<style type="text/css">
	.st0{fill:none;stroke:#E55E4E;}
	.st1{fill:#29B96F;}
	.st2{fill:none;stroke:#29B96F;}
	.st3{fill:none;stroke:#FFFFFF;stroke-width:2;}
</style>
<path class="st0" d="M246,240.5h1c8,0,14.5,6.5,14.5,14.5l0,0c0,8-6.5,14.5-14.5,14.5h-1c-8,0-14.5-6.5-14.5-14.5l0,0
	C231.5,247,238,240.5,246,240.5z"/>
<line class="st0" x1="242" y1="255" x2="251" y2="255"/>
<path class="st0" d="M171,180v71.5c0,2.2,1.8,4,4,4h56"/>
<path class="st1" d="M175,105.5h56v-1h-56c-2.5,0-4.5,2-4.5,4.5v19.5h0.5c0.2,0,0.3,0,0.5,0V109C171.5,107.1,173.1,105.5,175,105.5z
	"/>
<path class="st1" d="M170.5,157.5v23h1v-23c-0.2,0-0.3,0-0.5,0H170.5z"/>
<line class="st2" x1="171.5" y1="180.5" x2="109.5" y2="180.5"/>
<path class="st2" d="M246,90.5h1c8,0,14.5,6.5,14.5,14.5l0,0c0,8-6.5,14.5-14.5,14.5h-1c-8,0-14.5-6.5-14.5-14.5l0,0
	C231.5,97,238,90.5,246,90.5z"/>
<line class="st2" x1="242" y1="105" x2="251" y2="105"/>
<line class="st2" x1="246.5" y1="109.6" x2="246.5" y2="100.6"/>
<path class="st2" d="M171,128.5h-1c-8,0-14.5,6.5-14.5,14.5s6.5,14.5,14.5,14.5h1c8,0,14.5-6.5,14.5-14.5S179,128.5,171,128.5z"/>
<line class="st2" x1="164.9" y1="142.6" x2="169.9" y2="147.6"/>
<line class="st2" x1="175.9" y1="138.3" x2="169.9" y2="148.3"/>
<circle class="st3" cx="96" cy="180" r="14"/>
</svg>
