<?xml version="1.0" encoding="utf-8"?>
<!-- Generator: Adobe Illustrator 23.0.4, SVG Export Plug-In . SVG Version: 6.00 Build 0)  -->
<svg version="1.1" id="Ebene_1" xmlns="http://www.w3.org/2000/svg" xmlns:xlink="http://www.w3.org/1999/xlink" x="0px" y="0px"
	 viewBox="0 0 360 360" style="enable-background:new 0 0 360 360;" xml:space="preserve">
<style type="text/css">
	.st0{clip-path:url(#SVGID_2_);}
	.st1{fill:none;}
	.st2{fill:#9F9E97;}
	.st3{fill:#08060A;}
	.st4{fill:#0A040B;}
	.st5{fill:#FFFFFF;}
	.st6{fill:#647CC1;}
</style>
<g>
	<g>
		<defs>
			<rect id="SVGID_1_" y="0" width="360" height="360"/>
		</defs>
		<clipPath id="SVGID_2_">
			<use xlink:href="#SVGID_1_"  style="overflow:visible;"/>
		</clipPath>
		<g class="st0">
			<polygon class="st1" points="271.3,119.1 219.9,86.5 240.4,73.5 206.9,52.2 122.6,105.8 144,119.4 186,92.8 230.4,121 239,121 
				239,126.5 249.4,133.1 			"/>
			<polygon class="st1" points="230.4,121 239,126.5 239,121 			"/>
			<polygon class="st1" points="249.4,133.1 239,126.5 239,139.6 			"/>
			<polygon class="st1" points="186,92.8 144,119.4 146.5,121 230.4,121 			"/>
			<polygon class="st1" points="239,139.6 239,126.5 230.4,121 146.5,121 207.4,159.7 			"/>
			<polygon class="st1" points="271.3,92.5 270.8,92.8 271.3,92.5 			"/>
			<polygon class="st1" points="271.3,92.5 270.8,92.8 240.4,73.5 219.9,86.5 271.3,119.1 292.3,105.8 			"/>
			<polygon class="st1" points="270.8,92.8 271.3,92.5 207.4,51.9 206.9,52.2 240.4,73.5 240.4,73.5 			"/>
			<polygon class="st1" points="240.4,73.5 240.4,73.5 270.8,92.8 			"/>
			<polygon class="st2" points="272.2,91.9 271.2,92.5 271.2,92.5 272.2,91.9 			"/>
			<polygon class="st2" points="122.6,105.8 207,52.2 206.1,51.7 120.8,105.8 143.1,120 144.1,119.4 			"/>
			<polygon class="st2" points="272.2,119.7 271.2,119.1 249.3,133 250.2,133.6 			"/>
			<polygon class="st2" points="272.2,91.9 207.4,50.8 206.1,51.7 207,52.2 207.4,52 271.2,92.5 			"/>
			<polygon class="st2" points="427.1,191.4 504.4,240.5 419.6,294.4 334.7,240.5 412.6,191 334.6,240.5 419.3,294.3 419.6,294.5 
				504.5,240.5 			"/>
			<path class="st2" d="M419.6,294.4l84.8-53.9l-77.3-49.1l-7.5-4.7l-7,4.4l-77.9,49.5L419.6,294.4z M502.7,240.5l-83.1,52.8
				l-83.2-52.8l83.2-52.7L502.7,240.5z"/>
			<polygon class="st1" points="398.3,334.8 313.5,280.9 271.8,307.4 305,328.5 261.9,355.9 313.5,388.7 			"/>
			<polygon class="st1" points="271.8,307.4 228.6,334.8 261.9,355.9 305,328.5 			"/>
			<polygon class="st2" points="398.4,334.8 313.5,280.9 271.7,307.4 272.7,308 313.5,282.1 396.6,334.8 313.5,387.6 262.8,355.3 
				261.8,355.9 313.5,388.8 			"/>
			<polygon class="st1" points="398.3,200.1 334.7,159.7 271.1,200.2 313.5,227.1 292.3,240.5 334.7,267.5 356,254 334.7,240.5 			
				"/>
			<polygon class="st1" points="271.1,200.2 249.9,213.6 292.3,240.5 313.5,227.1 			"/>
			<polygon class="st1" points="398.3,200.1 334.7,240.5 356,254 419.6,213.6 			"/>
			<polygon class="st2" points="334.7,268.6 356.8,254.5 355.9,254 334.7,267.4 292.3,240.5 291.4,241.1 			"/>
			<polygon class="st2" points="334.7,158.6 270.2,199.6 271.1,200.2 334.7,159.8 398.3,200.1 399.2,199.6 			"/>
			<polygon class="st3" points="229.3,280.5 220.2,274.7 219.5,275.1 228.6,280.9 			"/>
			<polygon class="st2" points="229.4,280.4 228.6,280.9 229.3,280.5 305,328.5 220.2,382.4 135.3,328.5 219.5,275.1 228.6,280.9 
				219.4,275.1 135.2,328.5 219.9,382.3 220.2,382.5 305.1,328.5 			"/>
			<path class="st2" d="M135.3,328.5l84.9,53.9l84.8-53.9l-75.7-48l-0.7,0.4l-9.1-5.8L135.3,328.5z M303.3,328.5l-83.1,52.8
				L137,328.5l83.2-52.7L303.3,328.5z"/>
			<polygon class="st2" points="220.2,274.6 219.4,275.1 228.6,280.9 229.4,280.4 			"/>
			<polygon class="st1" points="16.5,388.7 101.4,442.6 186.2,388.7 101.4,334.8 			"/>
			<path class="st2" d="M101.4,333.7l-86.6,55l86.4,54.8l0.3,0.2l86.6-55l-86.4-54.8L101.4,333.7z M101.4,442.5l-84.8-53.8
				l84.8-53.8l84.8,53.8L101.4,442.5z"/>
			<polygon class="st1" points="101.1,146.7 102.3,145.9 59.6,118.8 -25.2,172.7 17.2,199.7 80.1,159.7 121,185.7 121,159.3 			"/>
			<polygon class="st1" points="143.3,173.5 121,159.3 121,185.7 122.5,186.6 			"/>
			<polygon class="st1" points="102.3,145.9 101.1,146.7 121,159.3 121,157.8 			"/>
			<polygon class="st1" points="80.1,159.7 17.2,199.7 59.6,226.6 121,187.6 121,185.7 			"/>
			<polygon class="st1" points="121,185.7 121,187.6 122.5,186.6 			"/>
			<polygon class="st2" points="59.6,118.8 -25.3,172.7 17.2,199.7 18.1,199.1 -23.5,172.7 59.6,120 101.4,146.5 102.3,145.9 			"/>
			<polygon class="st2" points="219.4,275.2 219.5,275.1 228.6,280.9 162.6,239 162.4,239 			"/>
			<polygon class="st2" points="239,179.7 239,179.8 313.5,227.1 228.6,280.9 229.3,280.5 229.4,280.5 313.5,227.1 			"/>
			<polygon class="st2" points="229.4,280.5 229.3,280.5 228.6,280.9 219.5,275.1 219.4,275.2 228.6,281 			"/>
			<polygon class="st2" points="313.5,227.1 239,179.8 239,180.9 311.7,227.1 228.6,279.8 164.3,239 162.6,239 228.6,280.9 			"/>
			<polygon class="st2" points="228.9,173.4 228.9,173.4 228.6,173.2 			"/>
			<polygon class="st1" points="101.3,173.2 121,185.7 121,160.7 			"/>
			<polygon class="st1" points="118.3,243.2 139.5,256.7 165,240.5 162.6,239 125,239 			"/>
			<polygon class="st4" points="165,240.5 167.4,239 162.6,239 			"/>
			<polygon class="st2" points="139.5,255.6 119.2,242.7 118.2,243.3 139.2,256.6 139.5,256.8 165,240.6 164.1,240 			"/>
			<polygon class="st2" points="101.3,173.2 102.2,173.7 121,161.8 121,160.6 			"/>
			<polygon class="st2" points="164.1,240 165,240.6 167.5,239 165.7,239 			"/>
			<polygon class="st2" points="103.1,280.9 165.9,241.1 164.9,240.5 101.3,280.9 155.8,315.5 156.7,314.9 			"/>
			<polygon class="st1" points="-67.6,307.4 17.2,361.3 102.1,307.4 17.2,253.6 			"/>
			<path class="st2" d="M-67.7,307.4l84.7,53.8l0.3,0.2l84.3-53.6l0.7-0.4l-84.9-53.9L-67.7,307.4z M17.2,360.2l-83.1-52.8
				l83.1-52.7l83.1,52.7L17.2,360.2z"/>
			<polygon class="st2" points="87.7,262.7 125.1,239 125,239 			"/>
			<polygon class="st2" points="80.4,159.8 80.1,159.6 -4.2,213.2 -4.8,213.6 72.3,262.6 -4.7,213.6 80.1,159.7 121,185.7 
				121,185.6 			"/>
			<polygon class="st2" points="80.1,266.3 -3,213.6 80.1,160.8 121,186.8 121,185.7 80.1,159.7 -4.7,213.6 72.3,262.6 80.1,267.5 
				87.7,262.7 125,239 123.2,239 			"/>
			<polygon class="st1" points="-89.8,-1.5 -4.9,-55.4 79.9,-1.5 -4.9,52.4 			"/>
			<path class="st2" d="M-4.9,52.5l-84.9-54l84.9-53.9L80-1.5L-4.9,52.5z M-88-1.5l83.1,52.8L78.2-1.5L-4.9-54.2L-88-1.5z"/>
			<polygon class="st1" points="483,92.8 398.1,38.9 356.4,65.4 389.6,86.5 346.5,113.9 398.1,146.7 			"/>
			<polygon class="st1" points="356.4,65.4 313.3,92.8 346.5,113.9 389.6,86.5 			"/>
			<polygon class="st2" points="398.1,38.9 356.3,65.4 357.3,66 398.1,40.1 481.2,92.8 398.1,145.6 347.4,113.4 346.4,113.9 
				397.8,146.6 398.1,146.8 483,92.8 			"/>
			<polygon class="st4" points="419.3,-82.3 334.5,-28.4 419.3,25.5 504.2,-28.4 			"/>
			<path class="st2" d="M419.3-83.4l-86.6,55l86.6,55l86.6-55L419.3-83.4z M334.5-28.4l84.8-53.8l84.8,53.8l-84.8,53.8L334.5-28.4z"
				/>
			<polygon class="st2" points="335.2,51.9 334.6,52.3 335.1,52 389.6,86.5 304.8,140.4 219.9,86.5 240.4,73.5 240.4,73.5 
				219.9,86.5 304.5,140.3 304.8,140.5 389.7,86.5 			"/>
			<polygon class="st2" points="335.1,52 334.6,52.3 334.3,52.5 387.9,86.5 304.8,139.3 221.7,86.5 241.3,74.1 240.4,73.5 
				219.9,86.5 304.8,140.4 389.6,86.5 			"/>
			<polygon class="st2" points="101.1,146.7 121,134.1 121,133 99.4,146.7 121,160.4 121,159.3 			"/>
			<polygon class="st2" points="270.8,146.7 239,166.9 239,168 272.6,146.7 239,125.4 239,126.5 			"/>
			<polygon class="st2" points="186,92.8 230.4,121 232.1,121 186,91.7 139.9,121 141.6,121 			"/>
			<polygon class="st2" points="101.2,146.7 121,134.2 121,134.1 101.1,146.7 121,159.3 121,159.2 			"/>
			<polygon class="st2" points="270.8,146.7 239,166.9 239,166.9 270.8,146.7 239,126.5 239,126.5 			"/>
			<polygon class="st2" points="186,92.9 230.3,121 230.4,121 186,92.8 141.6,121 141.7,121 			"/>
			<polygon class="st2" points="228.8,173.3 228.9,173.4 228.9,173.4 228.8,173.3 			"/>
			<polygon class="st2" points="185.7,200.4 185.7,200.4 185.8,200.4 185.8,200.4 			"/>
			<polygon class="st1" points="334.5,25.5 398.1,-14.9 313.3,-68.8 228.4,-14.9 249.6,-1.5 270.8,-14.9 			"/>
			<polygon class="st1" points="334.5,25.5 270.8,-14.9 249.6,-1.5 313.3,38.9 			"/>
			<polygon class="st2" points="230.2,-14.9 313.3,-67.7 396.4,-14.9 333.6,24.9 334.6,25.5 398.2,-14.9 313.6,-68.7 313.3,-68.9 
				228.4,-14.9 249.6,-1.4 250.5,-2 			"/>
			<polygon class="st1" points="309,-39.2 224.2,-93.1 139.3,-39.2 224.2,14.7 254.2,-4.4 			"/>
			<polygon class="st1" points="254.2,-4.4 224.2,14.7 224.2,14.7 			"/>
			<path class="st2" d="M270.9-14.9l38.3-24.3l-84.9-53.9l-84.9,53.9l84.7,53.8l0.2,0.1L270.9-14.9L270.9-14.9z M141.1-39.2
				l83.1-52.7l83.1,52.7l-83.1,52.8L141.1-39.2z"/>
			<polygon class="st2" points="270.9,-14.9 270.8,-14.9 224.1,14.7 224.2,14.8 			"/>
			<polygon class="st2" points="186,38.9 270.8,-14.9 355.7,38.9 335.1,52 335.2,52 355.7,38.9 270.8,-15 185.9,38.9 240.4,73.5 
				240.4,73.5 			"/>
			<polygon class="st2" points="270.8,92.9 335.2,52 335.1,52 270.8,92.8 240.4,73.5 240.4,73.5 270.5,92.7 			"/>
			<path class="st2" d="M270.8,92.8L335.1,52l0,0l20.6-13.1l-84.9-53.8L186,38.9l54.4,34.6l0,0L270.8,92.8z M270.8-13.8l83.1,52.7
				l-83.1,52.8l-83.1-52.8L270.8-13.8z"/>
			<polygon class="st2" points="270.8,92.8 335.1,52 335.1,52 			"/>
			<polygon class="st2" points="240.4,73.5 240.4,73.5 270.8,92.8 			"/>
			<polygon class="st1" points="186.7,65.4 101.8,11.6 17,65.4 101.8,119.3 			"/>
			<path class="st2" d="M186.7,65.4l-84.9-53.9L16.9,65.4l84.9,54L186.7,65.4z M101.8,12.7l83.1,52.7l-83.1,52.8L18.7,65.4
				L101.8,12.7z"/>
			<polygon class="st1" points="164.8,-82.3 79.9,-28.4 164.8,25.5 249.6,-28.4 			"/>
			<path class="st2" d="M164.8-82.4l-84.9,54l84.9,53.9l84.9-53.9L164.8-82.4z M81.7-28.4l83.1-52.8l83.1,52.8l-83.1,52.7L81.7-28.4
				z"/>
			<polygon class="st4" points="240,166.3 239,166.9 239,179.8 240,180.4 			"/>
			<polygon class="st4" points="240,120 228.8,120 230.4,121 239,121 239,126.5 240,127.1 			"/>
			<polygon class="st4" points="123.4,240 164.1,240 162.6,239 125,239 			"/>
			<polygon class="st4" points="120,158.7 120,185 121,185.7 121,159.3 			"/>
			<polygon class="st4" points="141.6,121 143.2,120 120,120 120,134.7 121,134.1 121,121 			"/>
			<polygon class="st4" points="228.8,120 143.2,120 141.6,121 230.4,121 			"/>
			<polygon class="st4" points="120,134.7 120,158.7 121,159.3 121,134.1 			"/>
			<polygon class="st4" points="240,127.1 239,126.5 239,166.9 240,166.3 			"/>
			<polygon class="st4" points="239,179.8 239,239 162.6,239 164.1,240 240,240 240,180.4 			"/>
			<polygon class="st4" points="228.9,173.4 228.9,173.4 228.6,173.2 			"/>
			<polygon class="st4" points="121,185.7 120,185 120,240 123.4,240 125,239 121,239 			"/>
			<polygon class="st5" points="181,154.4 181.3,154.3 181.3,154.3 			"/>
			<polygon class="st5" points="181.4,154.7 181.4,154.7 181.4,154.7 			"/>
			<polygon class="st5" points="181.3,154.3 181.4,154.3 181.3,154.3 			"/>
			<polygon class="st5" points="181,154.4 180.6,154.5 181.4,154.7 181.3,154.3 			"/>
			<polygon class="st5" points="191.5,196.8 191.5,196.8 191.2,197 			"/>
			<polygon class="st5" points="180.4,158.9 189.7,197.9 191.2,197 191.5,196.8 181.4,154.7 			"/>
			<polygon class="st5" points="199.7,239.5 201.8,239.8 201.6,239 199.6,239 			"/>
			<polygon class="st5" points="191.2,197 189.7,197.9 199.6,239 201.6,239 191.5,196.8 			"/>
			<polygon class="st5" points="189.7,197.9 191.2,197 189.7,197.9 			"/>
			<polygon class="st5" points="180.5,154.5 181,154.4 181.3,154.3 179.9,154.3 			"/>
			<polygon class="st5" points="180.6,154.5 179.4,154.8 180.4,158.9 181.4,154.7 181.4,154.7 			"/>
			<polygon class="st5" points="179.5,154.3 180.4,154.5 180.5,154.5 179.9,154.3 			"/>
			<polygon class="st5" points="165.3,213.4 167.7,211.9 172.5,192 170.7,190.9 			"/>
			<polygon class="st5" points="180.5,154.5 180.4,154.5 179.5,154.3 179.9,154.3 179.5,154.2 170.7,190.9 172.5,192 180.4,158.9 
				179.4,154.8 180.6,154.5 			"/>
			<polygon class="st5" points="159,239.8 161.2,239.1 161.2,239 159.2,239 			"/>
			<polygon class="st5" points="159.6,237.1 159.2,239 161.2,239 161.4,238.2 			"/>
			<polygon class="st5" points="159.6,237.1 161.4,238.2 167.7,211.9 165.3,213.4 			"/>
			<polygon class="st2" points="228.8,120 230.4,121 239,121 239,126.5 240,127.1 240,120 			"/>
			<polygon class="st2" points="141.6,121 143.2,120 120,120 120,134.7 121,134.1 121,121 			"/>
			<polygon class="st2" points="120,185 121,185.7 121,159.3 120,158.7 			"/>
			<polygon class="st2" points="239,166.9 239,179.8 240,180.4 240,166.3 			"/>
			<polygon class="st2" points="240,127.1 239,126.5 239,166.9 240,166.3 			"/>
			<polygon class="st2" points="120,134.7 120,158.7 121,159.3 121,134.1 			"/>
			<polygon class="st2" points="230.4,121 228.8,120 143.2,120 141.6,121 			"/>
			<polygon class="st2" points="125,239 123.4,240 164.1,240 162.6,239 			"/>
			<polygon class="st2" points="239,179.8 239,239 162.6,239 164.1,240 240,240 240,180.4 			"/>
			<polygon class="st2" points="121,185.7 120,185 120,240 123.4,240 125,239 121,239 			"/>
			<circle class="st6" cx="180" cy="145.6" r="12"/>
		</g>
	</g>
</g>
</svg>
