<?xml version="1.0" encoding="utf-8"?>
<!-- Generator: Adobe Illustrator 23.0.4, SVG Export Plug-In . SVG Version: 6.00 Build 0)  -->
<svg version="1.1" id="Ebene_1" xmlns="http://www.w3.org/2000/svg" xmlns:xlink="http://www.w3.org/1999/xlink" x="0px" y="0px"
	 viewBox="0 0 360 360" style="enable-background:new 0 0 360 360;" xml:space="preserve">
<style type="text/css">
	.st0{fill:none;}
	.st1{fill:#E55E4E;}
	.st2{fill:none;stroke:#FFFFFF;}
	.st3{fill:#9F9E97;}
	.st4{fill:#FFFFFF;}
	.st5{fill:none;stroke:#29B96F;}
	.st6{fill:none;stroke:#E55E4E;}
	.st7{fill:none;stroke:#35C1B7;}
</style>
<path class="st0" d="M150.5,120H45v120h120V134.5C157,134.5,150.5,128,150.5,120z"/>
<path class="st0" d="M150.5,120c0,8,6.5,14.5,14.5,14.5V120H150.5z"/>
<circle class="st1" cx="117" cy="144" r="12"/>
<path class="st2" d="M45.8,228.4l45.1-45.8c1.6-1.6,4.2-1.6,5.8,0.1l17.1,18.3c1.5,1.7,4.2,1.7,5.8,0.1l45.1-45.1"/>
<path class="st3" d="M164,239H46V121h104.6c0-0.3-0.1-0.7-0.1-1c0,0,0,0,0,0H45v120h120V134.5c-0.3,0-0.7,0-1-0.1V239z"/>
<path class="st4" d="M51.7,271.2h-3.6v3.8H47v-8.5h5.3v0.9h-4.2v2.9h3.6C51.7,270.3,51.7,271.2,51.7,271.2z"/>
<path class="st4" d="M55,275h-1.1v-6.3H55V275z M53.8,267c0-0.2,0.1-0.3,0.2-0.4c0.1-0.1,0.3-0.2,0.5-0.2s0.4,0.1,0.5,0.2
	s0.2,0.3,0.2,0.4c0,0.2-0.1,0.3-0.2,0.4c-0.1,0.1-0.3,0.2-0.5,0.2s-0.4-0.1-0.5-0.2S53.8,267.2,53.8,267z"/>
<path class="st4" d="M58.1,268.7v0.8c0.5-0.6,1.1-0.9,1.9-0.9c1.3,0,2,0.8,2,2.3v4.2h-1v-4.2c0-0.5-0.1-0.8-0.3-1s-0.5-0.3-1-0.3
	c-0.4,0-0.7,0.1-0.9,0.3c-0.3,0.2-0.5,0.4-0.6,0.7v4.5h-1.1v-6.3h1V268.7z"/>
<path class="st4" d="M63.8,271.8c0-1,0.2-1.8,0.7-2.3c0.5-0.6,1.1-0.9,1.8-0.9c0.7,0,1.3,0.3,1.8,0.8V266h1.1v9h-1l-0.1-0.7
	c-0.4,0.5-1,0.8-1.8,0.8c-0.7,0-1.3-0.3-1.8-0.9C64,273.6,63.8,272.8,63.8,271.8L63.8,271.8z M64.9,271.9c0,0.7,0.1,1.3,0.4,1.7
	c0.3,0.4,0.7,0.6,1.2,0.6c0.7,0,1.2-0.3,1.5-0.9v-2.9c-0.3-0.6-0.8-0.9-1.5-0.9c-0.5,0-0.9,0.2-1.2,0.6S64.9,271.1,64.9,271.9z"/>
<path class="st4" d="M75.6,268.7v0.7c0.5-0.5,1.1-0.8,1.9-0.8c0.9,0,1.5,0.3,1.8,1c0.2-0.3,0.5-0.6,0.8-0.7c0.3-0.2,0.7-0.3,1.2-0.3
	c1.4,0,2.1,0.7,2.1,2.2v4.2h-1.1v-4.2c0-0.5-0.1-0.8-0.3-1c-0.2-0.2-0.6-0.3-1-0.3s-0.7,0.1-1,0.4c-0.3,0.2-0.4,0.6-0.5,1v4.2h-1.1
	v-4.2c0-0.9-0.5-1.4-1.4-1.4c-0.7,0-1.2,0.3-1.5,0.9v4.6h-1.1v-6.3L75.6,268.7L75.6,268.7z"/>
<path class="st4" d="M85.1,271.8c0-0.6,0.1-1.2,0.4-1.7c0.2-0.5,0.6-0.9,1-1.1c0.4-0.3,0.9-0.4,1.5-0.4c0.9,0,1.6,0.3,2.1,0.9
	s0.8,1.4,0.8,2.4v0.1c0,0.6-0.1,1.2-0.4,1.7c-0.2,0.5-0.6,0.9-1,1.1c-0.4,0.3-0.9,0.4-1.5,0.4c-0.9,0-1.6-0.3-2.1-0.9
	C85.4,273.6,85.1,272.8,85.1,271.8L85.1,271.8z M86.2,271.9c0,0.7,0.2,1.3,0.5,1.7c0.3,0.4,0.8,0.6,1.3,0.6c0.6,0,1-0.2,1.3-0.6
	s0.5-1,0.5-1.8c0-0.7-0.2-1.3-0.5-1.7c-0.3-0.4-0.8-0.7-1.3-0.7s-1,0.2-1.3,0.6C86.4,270.5,86.2,271.1,86.2,271.9z"/>
<path class="st4" d="M95.7,269.6c-0.2,0-0.3,0-0.5,0c-0.7,0-1.2,0.3-1.4,0.9v4.5h-1.1v-6.3h1.1v0.7c0.4-0.6,0.9-0.9,1.5-0.9
	c0.2,0,0.4,0,0.5,0.1L95.7,269.6L95.7,269.6z"/>
<path class="st4" d="M99.6,275.1c-0.9,0-1.6-0.3-2.1-0.8c-0.5-0.6-0.8-1.3-0.8-2.3v-0.2c0-0.6,0.1-1.2,0.4-1.7
	c0.2-0.5,0.6-0.9,1-1.2c0.4-0.3,0.9-0.4,1.4-0.4c0.8,0,1.5,0.3,1.9,0.8s0.7,1.3,0.7,2.3v0.5h-4.3c0,0.6,0.2,1.1,0.5,1.5
	c0.4,0.4,0.8,0.6,1.3,0.6c0.4,0,0.7-0.1,1-0.2c0.3-0.2,0.5-0.4,0.7-0.6l0.7,0.5C101.4,274.7,100.6,275.1,99.6,275.1z M99.4,269.4
	c-0.4,0-0.8,0.2-1.1,0.5c-0.3,0.3-0.5,0.8-0.6,1.3h3.2v-0.1c0-0.6-0.2-1-0.4-1.3C100.2,269.6,99.9,269.4,99.4,269.4z"/>
<path class="st4" d="M103.7,274.4c0-0.2,0.1-0.3,0.2-0.5c0.1-0.1,0.3-0.2,0.5-0.2s0.4,0.1,0.5,0.2s0.2,0.3,0.2,0.5s-0.1,0.3-0.2,0.5
	c-0.1,0.1-0.3,0.2-0.5,0.2s-0.4-0.1-0.5-0.2C103.8,274.8,103.7,274.6,103.7,274.4z M106.3,274.4c0-0.2,0.1-0.3,0.2-0.5
	c0.1-0.1,0.3-0.2,0.5-0.2s0.4,0.1,0.5,0.2s0.2,0.3,0.2,0.5s-0.1,0.3-0.2,0.5c-0.1,0.1-0.3,0.2-0.5,0.2s-0.4-0.1-0.5-0.2
	C106.3,274.8,106.3,274.6,106.3,274.4z M108.7,274.4c0-0.2,0.1-0.3,0.2-0.5c0.1-0.1,0.3-0.2,0.5-0.2s0.4,0.1,0.5,0.2
	s0.2,0.3,0.2,0.5s-0.1,0.3-0.2,0.5c-0.1,0.1-0.3,0.2-0.5,0.2s-0.4-0.1-0.5-0.2C108.8,274.8,108.7,274.6,108.7,274.4z"/>
<path class="st4" d="M215.7,199.4h7.1v1.6h-9.1v-14.9h2V199.4z"/>
<path class="st4" d="M231.6,201c-0.1-0.2-0.2-0.6-0.3-1.2c-0.9,0.9-1.9,1.4-3.2,1.4c-1.1,0-2-0.3-2.7-0.9c-0.7-0.6-1-1.4-1-2.4
	c0-1.2,0.4-2.1,1.3-2.7c0.9-0.6,2.1-1,3.7-1h1.8v-0.9c0-0.7-0.2-1.2-0.6-1.6c-0.4-0.4-1-0.6-1.8-0.6c-0.7,0-1.2,0.2-1.7,0.5
	s-0.7,0.8-0.7,1.2h-1.9c0-0.6,0.2-1.1,0.6-1.6c0.4-0.5,0.9-0.9,1.6-1.2c0.7-0.3,1.4-0.5,2.2-0.5c1.3,0,2.3,0.3,3,1
	c0.7,0.6,1.1,1.5,1.1,2.6v5.1c0,1,0.1,1.8,0.4,2.4v0.2h-1.8V201z M228.4,199.6c0.6,0,1.2-0.2,1.7-0.5s0.9-0.7,1.2-1.2v-2.3h-1.5
	c-2.3,0-3.5,0.7-3.5,2c0,0.6,0.2,1.1,0.6,1.4C227.3,199.4,227.8,199.6,228.4,199.6z"/>
<path class="st4" d="M238,189.9l0.1,1.4c0.8-1.1,2-1.6,3.3-1.6c2.3,0,3.5,1.3,3.5,4v7.3H243v-7.3c0-0.8-0.2-1.4-0.6-1.8
	c-0.4-0.4-0.9-0.6-1.7-0.6c-0.6,0-1.2,0.2-1.6,0.5s-0.8,0.8-1.1,1.3v7.9h-1.9v-11.1L238,189.9L238,189.9z"/>
<path class="st4" d="M247.3,195.4c0-1.7,0.4-3.1,1.2-4.1s1.9-1.6,3.2-1.6s2.3,0.4,3.1,1.3v-5.8h1.9V201H255l-0.1-1.2
	c-0.8,0.9-1.8,1.4-3.2,1.4c-1.3,0-2.3-0.5-3.1-1.6s-1.2-2.4-1.2-4.1v-0.1H247.3z M249.2,195.6c0,1.3,0.3,2.2,0.8,3
	c0.5,0.7,1.2,1.1,2.2,1.1c1.2,0,2.1-0.5,2.6-1.6V193c-0.6-1-1.4-1.6-2.6-1.6c-0.9,0-1.7,0.4-2.2,1.1
	C249.4,193.1,249.2,194.2,249.2,195.6z"/>
<path class="st4" d="M266.1,198.1c0-0.5-0.2-0.9-0.6-1.2s-1.1-0.5-2-0.7c-1-0.2-1.7-0.5-2.3-0.7c-0.6-0.3-1-0.6-1.2-1
	c-0.3-0.4-0.4-0.9-0.4-1.4c0-0.9,0.4-1.7,1.1-2.3c0.8-0.6,1.8-0.9,3-0.9c1.3,0,2.3,0.3,3.1,1c0.8,0.7,1.2,1.5,1.2,2.5h-1.9
	c0-0.5-0.2-1-0.7-1.3c-0.4-0.4-1-0.6-1.7-0.6s-1.2,0.1-1.6,0.5c-0.4,0.3-0.6,0.7-0.6,1.2s0.2,0.8,0.5,1c0.4,0.2,1,0.5,2,0.7
	s1.7,0.5,2.3,0.8c0.6,0.3,1,0.6,1.3,1.1c0.3,0.4,0.4,0.9,0.4,1.5c0,1-0.4,1.8-1.2,2.4c-0.8,0.6-1.8,0.9-3.1,0.9
	c-0.9,0-1.7-0.2-2.4-0.5c-0.7-0.3-1.2-0.8-1.6-1.3c-0.4-0.6-0.6-1.2-0.6-1.8h1.9c0,0.6,0.3,1.1,0.8,1.5s1.1,0.6,1.9,0.6
	c0.7,0,1.3-0.1,1.7-0.4C265.8,198.9,266.1,198.5,266.1,198.1z"/>
<path class="st4" d="M274.9,199.7c0.7,0,1.3-0.2,1.8-0.6c0.5-0.4,0.8-0.9,0.8-1.5h1.8c0,0.6-0.3,1.2-0.7,1.8c-0.4,0.6-0.9,1-1.6,1.4
	c-0.7,0.3-1.4,0.5-2.1,0.5c-1.5,0-2.7-0.5-3.6-1.5s-1.3-2.4-1.3-4.1v-0.3c0-1.1,0.2-2,0.6-2.9c0.4-0.8,1-1.5,1.7-2s1.6-0.7,2.6-0.7
	c1.2,0,2.3,0.4,3.1,1.1c0.8,0.7,1.3,1.7,1.3,2.9h-1.8c-0.1-0.7-0.3-1.3-0.8-1.8s-1.1-0.7-1.8-0.7c-1,0-1.7,0.3-2.2,1s-0.8,1.7-0.8,3
	v0.4c0,1.3,0.3,2.3,0.8,3C273.1,199.3,273.9,199.7,274.9,199.7z"/>
<path class="st4" d="M288.3,201c-0.1-0.2-0.2-0.6-0.3-1.2c-0.9,0.9-1.9,1.4-3.2,1.4c-1.1,0-2-0.3-2.7-0.9c-0.7-0.6-1-1.4-1-2.4
	c0-1.2,0.4-2.1,1.3-2.7c0.9-0.6,2.1-1,3.7-1h1.8v-0.9c0-0.7-0.2-1.2-0.6-1.6c-0.4-0.4-1-0.6-1.8-0.6c-0.7,0-1.2,0.2-1.7,0.5
	s-0.7,0.8-0.7,1.2h-1.9c0-0.6,0.2-1.1,0.6-1.6s0.9-0.9,1.6-1.2s1.4-0.5,2.2-0.5c1.3,0,2.3,0.3,3,1c0.7,0.6,1.1,1.5,1.1,2.6v5.1
	c0,1,0.1,1.8,0.4,2.4v0.2h-1.8V201z M285.1,199.6c0.6,0,1.2-0.2,1.7-0.5s0.9-0.7,1.2-1.2v-2.3h-1.5c-2.3,0-3.5,0.7-3.5,2
	c0,0.6,0.2,1.1,0.6,1.4C284,199.4,284.5,199.6,285.1,199.6z"/>
<path class="st4" d="M302.2,195.6c0,1.7-0.4,3-1.2,4.1c-0.8,1-1.8,1.5-3.1,1.5c-1.3,0-2.4-0.4-3.2-1.3v5.3h-1.9v-15.4h1.7l0.1,1.2
	c0.8-1,1.8-1.4,3.2-1.4c1.3,0,2.4,0.5,3.2,1.5c0.8,1,1.2,2.4,1.2,4.2L302.2,195.6L302.2,195.6z M300.3,195.4c0-1.3-0.3-2.2-0.8-3
	c-0.5-0.7-1.3-1.1-2.2-1.1c-1.1,0-2,0.5-2.6,1.5v5.3c0.6,1,1.4,1.5,2.6,1.5c0.9,0,1.6-0.4,2.2-1.1
	C300,197.9,300.3,196.8,300.3,195.4z"/>
<path class="st4" d="M309.2,201.2c-1.5,0-2.7-0.5-3.7-1.5c-0.9-1-1.4-2.3-1.4-4v-0.3c0-1.1,0.2-2.1,0.6-2.9c0.4-0.9,1-1.5,1.8-2
	s1.6-0.7,2.5-0.7c1.4,0,2.6,0.5,3.4,1.4c0.8,1,1.2,2.3,1.2,4.1v0.8H306c0,1.1,0.3,2,1,2.7c0.6,0.7,1.4,1,2.3,1
	c0.7,0,1.2-0.1,1.7-0.4c0.5-0.3,0.9-0.6,1.2-1.1l1.2,0.9C312.5,200.5,311.1,201.2,309.2,201.2z M309,191.3c-0.8,0-1.4,0.3-1.9,0.8
	c-0.5,0.6-0.8,1.3-1,2.3h5.6v-0.1c-0.1-1-0.3-1.7-0.8-2.2C310.4,191.5,309.8,191.3,309,191.3z"/>
<line class="st5" x1="190.9" y1="194.6" x2="195.9" y2="199.6"/>
<line class="st5" x1="201.9" y1="190.3" x2="195.9" y2="200.3"/>
<path class="st4" d="M214.1,164.7v3.3H213v-8.5h3.1c0.9,0,1.7,0.2,2.2,0.7s0.8,1.1,0.8,1.9c0,0.8-0.3,1.5-0.8,1.9s-1.3,0.7-2.2,0.7
	L214.1,164.7L214.1,164.7z M214.1,163.7h2c0.6,0,1.1-0.1,1.4-0.4c0.3-0.3,0.5-0.7,0.5-1.2s-0.2-0.9-0.5-1.2s-0.8-0.5-1.3-0.5h-2.1
	L214.1,163.7L214.1,163.7z"/>
<path class="st4" d="M220,164.8c0-0.6,0.1-1.2,0.4-1.7c0.2-0.5,0.6-0.9,1-1.1c0.4-0.3,0.9-0.4,1.5-0.4c0.9,0,1.6,0.3,2.1,0.9
	c0.5,0.6,0.8,1.4,0.8,2.4v0.1c0,0.6-0.1,1.2-0.4,1.7c-0.2,0.5-0.6,0.9-1,1.1c-0.4,0.3-0.9,0.4-1.5,0.4c-0.9,0-1.6-0.3-2.1-0.9
	C220.3,166.6,220,165.8,220,164.8L220,164.8z M221.1,164.9c0,0.7,0.2,1.3,0.5,1.7s0.8,0.6,1.3,0.6c0.6,0,1-0.2,1.3-0.6
	c0.3-0.4,0.5-1,0.5-1.8c0-0.7-0.2-1.3-0.5-1.7s-0.8-0.6-1.3-0.6s-1,0.2-1.3,0.6S221.1,164.1,221.1,164.9z"/>
<path class="st4" d="M230.2,162.6c-0.2,0-0.3,0-0.5,0c-0.7,0-1.2,0.3-1.4,0.9v4.5h-1.1v-6.3h1.1v0.7c0.4-0.6,0.9-0.9,1.5-0.9
	c0.2,0,0.4,0,0.5,0.1v1H230.2z"/>
<path class="st4" d="M233,160.1v1.5h1.2v0.8H233v3.9c0,0.3,0.1,0.4,0.2,0.6c0.1,0.1,0.3,0.2,0.5,0.2c0.1,0,0.3,0,0.5-0.1v0.9
	c-0.3,0.1-0.6,0.1-0.8,0.1c-0.5,0-0.8-0.1-1.1-0.4c-0.2-0.3-0.4-0.7-0.4-1.2v-3.9h-1.2v-0.8h1.2v-1.5h1.1V160.1z"/>
<path class="st4" d="M238.5,162.6c-0.2,0-0.3,0-0.5,0c-0.7,0-1.2,0.3-1.4,0.9v4.5h-1.1v-6.3h1.1v0.7c0.4-0.6,0.9-0.9,1.5-0.9
	c0.2,0,0.4,0,0.5,0.1v1H238.5z"/>
<path class="st4" d="M243.2,168c-0.1-0.1-0.1-0.3-0.2-0.7c-0.5,0.5-1.1,0.8-1.8,0.8c-0.6,0-1.1-0.2-1.5-0.5
	c-0.4-0.4-0.6-0.8-0.6-1.3c0-0.7,0.2-1.2,0.8-1.5c0.5-0.4,1.2-0.6,2.1-0.6h1.1v-0.5c0-0.4-0.1-0.7-0.3-0.9s-0.6-0.3-1-0.3
	s-0.7,0.1-1,0.3s-0.4,0.4-0.4,0.7h-1.1c0-0.3,0.1-0.6,0.3-0.9c0.2-0.3,0.5-0.5,0.9-0.7s0.8-0.3,1.3-0.3c0.7,0,1.3,0.2,1.7,0.6
	c0.4,0.4,0.6,0.9,0.6,1.5v2.9c0,0.6,0.1,1,0.2,1.4v0.1h-1.1V168z M241.4,167.2c0.3,0,0.7-0.1,1-0.3s0.5-0.4,0.7-0.7v-1.3h-0.9
	c-1.3,0-2,0.4-2,1.2c0,0.3,0.1,0.6,0.3,0.8C240.7,167.1,241,167.2,241.4,167.2z"/>
<path class="st4" d="M247,168h-1.1v-6.3h1.1V168z M245.8,160c0-0.2,0.1-0.3,0.2-0.4c0.1-0.1,0.3-0.2,0.5-0.2s0.4,0.1,0.5,0.2
	c0.1,0.1,0.2,0.3,0.2,0.4c0,0.2-0.1,0.3-0.2,0.4c-0.1,0.1-0.3,0.2-0.5,0.2s-0.4-0.1-0.5-0.2S245.8,160.2,245.8,160z"/>
<path class="st4" d="M250.2,160.1v1.5h1.2v0.8h-1.2v3.9c0,0.3,0.1,0.4,0.2,0.6c0.1,0.1,0.3,0.2,0.5,0.2c0.1,0,0.3,0,0.5-0.1v0.9
	c-0.3,0.1-0.6,0.1-0.8,0.1c-0.5,0-0.8-0.1-1.1-0.4c-0.2-0.3-0.4-0.7-0.4-1.2v-3.9h-1.2v-0.8h1.2v-1.5h1.1V160.1z"/>
<line class="st6" x1="192" y1="165" x2="201" y2="165"/>
<path class="st7" d="M166,105.5h-1c-8,0-14.5,6.5-14.5,14.5s6.5,14.5,14.5,14.5h1c8,0,14.5-6.5,14.5-14.5S174,105.5,166,105.5z"/>
<line class="st7" x1="165.5" y1="122" x2="165.5" y2="113"/>
<line class="st7" x1="165.5" y1="126" x2="165.5" y2="125"/>
</svg>
